<svg id="Layer_1" data-name="Layer 1" xmlns="http://www.w3.org/2000/svg" viewBox="0 0 216 144"><defs><style>.cls-1{fill:none;stroke:#010101;stroke-miterlimit:10;stroke-width:0.5px;}.cls-18,.cls-19,.cls-2{font-size:10px;}.cls-2,.cls-3{fill:#5d5d5d;}.cls-2{font-family:Helvetica, Helvetica;}.cls-4,.cls-7,.cls-8,.cls-9{fill:#3e58a8;}.cls-11,.cls-12,.cls-13,.cls-5{fill:#ee3624;}.cls-14,.cls-15,.cls-16,.cls-6{fill:#009046;}.cls-11,.cls-13,.cls-14,.cls-16,.cls-7,.cls-9{font-size:6.31px;}.cls-11,.cls-12,.cls-13,.cls-14,.cls-15,.cls-16,.cls-7,.cls-8,.cls-9{font-family:Times-Roman, Times;}.cls-12,.cls-15,.cls-8{font-size:8.41px;}.cls-11,.cls-16,.cls-9{letter-spacing:-0.04em;}.cls-10{letter-spacing:0em;}.cls-17{fill:#d6d6d5;}.cls-18,.cls-19{fill:#231f20;}.cls-18{font-family:Symbol, Symbol;}.cls-19{font-family:ArialMT, Arial;}</style></defs><title>backbone</title><path class="cls-1" d="M164.06,105.75c3.82,0,9.11.49,12.82-3.82,2.83-3.29,4.28-4.23,10.64-4.36H187"/><path class="cls-1" d="M111,93.5c4-.81,8.83-2.43,10-6,1-2.92-1.23-5.14-.17-7.67.8-1.92,3.48-4,12.17-4.33"/><text class="cls-2" transform="translate(24.22 95.64)">C</text><path class="cls-3" d="M34.45,88.07a2,2,0,0,1,.24.77l.49-1.33h.66L35,89.88a1.91,1.91,0,0,0,.12.43,1,1,0,0,0,.16.25l.16.13a.27.27,0,0,0,.15.05.33.33,0,0,0,.22-.1.58.58,0,0,0,.14-.21l.05-.29h.14v.44a.78.78,0,0,1-.07.31.67.67,0,0,1-.2.29.45.45,0,0,1-.26.11.5.5,0,0,1-.3-.17,2.88,2.88,0,0,1-.43-.88q-.13.21-.28.47a1.16,1.16,0,0,1-.53.44l-.44.12-.31,0a1.62,1.62,0,0,1-.66-.16,1.16,1.16,0,0,1-.53-.45,2.27,2.27,0,0,1-.25-.58,2.46,2.46,0,0,1-.07-.64q0-.16,0-.26t.05-.42a1.5,1.5,0,0,1,.22-.59,1.77,1.77,0,0,1,.53-.54,1.48,1.48,0,0,1,.84-.23h.17l.14,0a.89.89,0,0,1,.34.17,1.73,1.73,0,0,1,.39.46Zm-.38,2.44a3.17,3.17,0,0,0,.2-.41l.23-.62q-.06-.43-.13-.78a1.48,1.48,0,0,0-.18-.47,1.94,1.94,0,0,0-.26-.31,1,1,0,0,0-.31-.17,1,1,0,0,0-.3-.05.41.41,0,0,0-.23.07,1.5,1.5,0,0,0-.22.22,1.2,1.2,0,0,0-.19.37,2.59,2.59,0,0,0-.11.51,4.67,4.67,0,0,0,0,.51,3.21,3.21,0,0,0,0,.5v.34a1.44,1.44,0,0,0,.09.3,1,1,0,0,0,.25.34.53.53,0,0,0,.41.18.56.56,0,0,0,.23-.05.9.9,0,0,0,.23-.14,1.36,1.36,0,0,0,.25-.33Z"/><text class="cls-2" transform="translate(62.7 59.36)">C</text><rect class="cls-3" x="30.68" y="71.47" width="36.35" height="1" transform="translate(-35.95 52.61) rotate(-42.97)"/><text class="cls-2" transform="translate(117 58.99)">N</text><rect class="cls-3" x="71.44" y="55.06" width="44.33" height="1" transform="translate(-0.28 0.47) rotate(-0.29)"/><text class="cls-2" transform="translate(40.8 27.34)">O</text><rect class="cls-3" x="53.07" y="27.23" width="1" height="27.47" transform="translate(-13.75 36.98) rotate(-34.02)"/><rect class="cls-3" x="56.91" y="24.64" width="1" height="27.47" transform="translate(-11.64 38.69) rotate(-34.02)"/><text class="cls-2" transform="translate(149.59 95.45)">H</text><rect class="cls-3" x="136.4" y="55.77" width="1" height="35.76" transform="translate(-14.25 109.97) rotate(-41.79)"/><rect class="cls-4" x="66.51" y="16.24" width="1" height="32.02"/><path class="cls-4" d="M67,12.66l2.65,4.15A9.88,9.88,0,0,0,67,16.29a10.24,10.24,0,0,0-2.7.52Z"/><polygon class="cls-4" points="96.25 30.06 72.15 51.14 71.49 50.41 95.58 29.33 96.25 30.06"/><path class="cls-4" d="M98.29,27.57l-1.42,4.71a9.94,9.94,0,0,0-1.35-2.36,10,10,0,0,0-2.14-1.68Z"/><polygon class="cls-4" points="33.88 31.33 58.48 51.82 57.83 52.57 33.23 32.08 33.88 31.33"/><path class="cls-4" d="M30.81,29.41l4.9.61a10,10,0,0,0-2.11,1.71,10,10,0,0,0-1.31,2.38Z"/><polygon class="cls-5" points="131.58 89.47 122.4 64.27 123.35 63.92 132.53 89.13 131.58 89.47"/><path class="cls-5" d="M133.28,92.66l-3.91-3a9.89,9.89,0,0,0,2.67-.45,10,10,0,0,0,2.32-1.43Z"/><polygon class="cls-5" points="121.94 21.16 121.76 47.98 120.76 47.98 120.94 21.16 121.94 21.16"/><path class="cls-5" d="M121.46,17.58l2.62,4.22a10,10,0,0,0-2.65-.59,9.76,9.76,0,0,0-2.65.45Z"/><polygon class="cls-5" points="85.6 72.13 112.38 61.32 112.73 62.27 85.95 73.08 85.6 72.13"/><path class="cls-5" d="M82.45,73.94l2.83-4a9.9,9.9,0,0,0,.54,2.66,10,10,0,0,0,1.51,2.27Z"/><polygon class="cls-6" points="165.94 126.03 156.77 100.82 157.72 100.47 166.89 125.67 165.94 126.03"/><path class="cls-6" d="M167.64,129.21l-3.91-3a9.89,9.89,0,0,0,2.67-.45,10,10,0,0,0,2.32-1.43Z"/><polygon class="cls-6" points="154.94 55.26 154.76 82.08 153.76 82.08 153.94 55.26 154.94 55.26"/><path class="cls-6" d="M154.46,51.68l2.62,4.22a10,10,0,0,0-2.65-.59,9.75,9.75,0,0,0-2.65.45Z"/><polygon class="cls-6" points="186.19 84.09 160.46 91.66 160.16 90.71 185.89 83.14 186.19 84.09"/><path class="cls-6" d="M189.47,82.61l-3.2,3.72a9.87,9.87,0,0,0-.28-2.69,10,10,0,0,0-1.28-2.4Z"/><path class="cls-4" d="M65.26,4.48a3.39,3.39,0,0,1,.65-.07h2.18v.72H66.26a2,2,0,0,1,.71.51,2.59,2.59,0,0,1,.51.69,1.53,1.53,0,0,1,.14.61,2.08,2.08,0,0,1-.1.58,2.07,2.07,0,0,1-.47.71,1.31,1.31,0,0,1-.75.45l-.55.08-.25,0A1.86,1.86,0,0,1,65,8.74a2,2,0,0,1-.61-.29,1.87,1.87,0,0,1-.65-.71l-.11-.2a2.35,2.35,0,0,1-.12-.24l-.07-.19a1.37,1.37,0,0,1,0-.16,3.62,3.62,0,0,1-.05-.51,1.57,1.57,0,0,1,.09-.56,3.15,3.15,0,0,1,.24-.47A1.6,1.6,0,0,1,64.17,5a2.91,2.91,0,0,1,.53-.3,3.76,3.76,0,0,1,.56-.18ZM66.76,7a2.18,2.18,0,0,0-.14-.82,2.9,2.9,0,0,0-.8-1h-.14a2.07,2.07,0,0,0-.53.06,1.18,1.18,0,0,0-.47.27,1.11,1.11,0,0,0-.32.51,2,2,0,0,0-.09.57v.13a1.78,1.78,0,0,0,.21.9,1.74,1.74,0,0,0,.44.56,1.69,1.69,0,0,0,.38.25.75.75,0,0,0,.35.07A1.59,1.59,0,0,0,66,8.4a.77.77,0,0,0,.38-.28,1.55,1.55,0,0,0,.25-.5A2.24,2.24,0,0,0,66.76,7Z"/><text class="cls-7" transform="translate(68.21 10.73)">33</text><text class="cls-8" transform="translate(74.52 8.62)"><tspan xml:space="preserve"> / </tspan></text><path class="cls-4" d="M83.21,4.87l-1-.9a.75.75,0,0,1-.18-.23,1.16,1.16,0,0,1-.11-.23.87.87,0,0,1,0-.17,1,1,0,0,1,0-.14.59.59,0,0,1,.23-.47l.24-.18a1,1,0,0,1,.3-.11,2.71,2.71,0,0,1,.45,0l.41,0,.35.06a2,2,0,0,1,.4.16,1.32,1.32,0,0,1,.37.27.52.52,0,0,1,.13.35.29.29,0,0,1-.12.24.44.44,0,0,1-.26.09.55.55,0,0,1-.29-.09,1.93,1.93,0,0,1-.33-.29l-.09-.09L83.61,3,83.53,3l0,0a.88.88,0,0,0-.28-.13,1,1,0,0,0-.3-.05.55.55,0,0,0-.28.06A.85.85,0,0,0,82.4,3a.38.38,0,0,0-.1.28.43.43,0,0,0,0,.19.93.93,0,0,0,.21.28,6.25,6.25,0,0,0,.64.48l.62.37.46.35a2.42,2.42,0,0,1,.48.56,2.91,2.91,0,0,1,.28.6,2.39,2.39,0,0,1,.08.65A2.17,2.17,0,0,1,85,7.5a1.69,1.69,0,0,1-.39.61,3.34,3.34,0,0,1-.49.39,1.36,1.36,0,0,1-.45.21,1.84,1.84,0,0,1-.5.06,1.51,1.51,0,0,1-.72-.17,1.63,1.63,0,0,1-.51-.39,2.1,2.1,0,0,1-.35-.55,1.73,1.73,0,0,1-.16-.76,2.15,2.15,0,0,1,.07-.51,2.56,2.56,0,0,1,.29-.61,2,2,0,0,1,.81-.67L82.84,5l.26-.1ZM84.3,7a2.88,2.88,0,0,0-.07-.64,2.06,2.06,0,0,0-.29-.67,2.36,2.36,0,0,0-.47-.56,1.5,1.5,0,0,0-.78.4,1.09,1.09,0,0,0-.35.65,4.36,4.36,0,0,0,0,.6,3.24,3.24,0,0,0,.07.62,1.78,1.78,0,0,0,.22.58A.85.85,0,0,0,83,8.3a.87.87,0,0,0,.39.09.85.85,0,0,0,.36-.09A1,1,0,0,0,84,8a1.49,1.49,0,0,0,.21-.46A2.23,2.23,0,0,0,84.3,7Z"/><text class="cls-7" transform="translate(85.22 10.73)">zz</text><path class="cls-4" d="M87,20.21a3.39,3.39,0,0,1,.65-.07h2.18v.72H88a2,2,0,0,1,.71.51,2.59,2.59,0,0,1,.51.69,1.53,1.53,0,0,1,.14.61,1.78,1.78,0,0,1-.58,1.3,1.31,1.31,0,0,1-.75.45l-.55.08-.25,0a1.86,1.86,0,0,1-.46-.06,2,2,0,0,1-.61-.29,1.87,1.87,0,0,1-.65-.71l-.11-.2a2.35,2.35,0,0,1-.12-.24l-.07-.19a1.37,1.37,0,0,1,0-.16,3.62,3.62,0,0,1-.05-.51,1.57,1.57,0,0,1,.09-.56,3.15,3.15,0,0,1,.24-.47,1.6,1.6,0,0,1,.44-.44,2.91,2.91,0,0,1,.53-.3,3.76,3.76,0,0,1,.56-.18Zm1.5,2.49a2.18,2.18,0,0,0-.14-.82,2.9,2.9,0,0,0-.8-1H87.4a2.07,2.07,0,0,0-.53.06,1.18,1.18,0,0,0-.47.27,1.11,1.11,0,0,0-.32.51,2,2,0,0,0-.09.57v.13a1.78,1.78,0,0,0,.21.9,1.74,1.74,0,0,0,.44.56,1.69,1.69,0,0,0,.38.25.75.75,0,0,0,.35.07,1.59,1.59,0,0,0,.4-.07.77.77,0,0,0,.38-.28,1.55,1.55,0,0,0,.25-.5,2.24,2.24,0,0,0,.09-.64Z"/><text class="cls-9" transform="translate(89.94 26.46)">1<tspan class="cls-10" x="2.93" y="0">1</tspan></text><text class="cls-8" transform="translate(96.02 24.35)"><tspan xml:space="preserve"> / </tspan></text><path class="cls-4" d="M104.71,20.6l-1-.9a.75.75,0,0,1-.18-.23,1.16,1.16,0,0,1-.11-.23.87.87,0,0,1,0-.17,1,1,0,0,1,0-.14.59.59,0,0,1,.23-.47l.24-.18a1,1,0,0,1,.3-.11,2.71,2.71,0,0,1,.45,0l.41,0,.35.06a2,2,0,0,1,.4.16,1.32,1.32,0,0,1,.37.27.52.52,0,0,1,.13.35.29.29,0,0,1-.12.24.44.44,0,0,1-.26.09.55.55,0,0,1-.29-.09,1.93,1.93,0,0,1-.33-.29l-.09-.09-.08-.07-.08-.07,0,0a.88.88,0,0,0-.28-.13,1,1,0,0,0-.3-.05.55.55,0,0,0-.28.06.85.85,0,0,0-.22.16.38.38,0,0,0-.1.28.43.43,0,0,0,0,.19.92.92,0,0,0,.21.28,6.25,6.25,0,0,0,.64.48l.62.37.46.35a2.42,2.42,0,0,1,.48.56,2.91,2.91,0,0,1,.28.6,2.39,2.39,0,0,1,.08.65,2.17,2.17,0,0,1-.14.78,1.69,1.69,0,0,1-.39.61,3.34,3.34,0,0,1-.49.39,1.36,1.36,0,0,1-.45.21,1.84,1.84,0,0,1-.5.06,1.51,1.51,0,0,1-.72-.17,1.63,1.63,0,0,1-.51-.39,2.1,2.1,0,0,1-.35-.55,1.73,1.73,0,0,1-.16-.76,2.15,2.15,0,0,1,.07-.51,2.56,2.56,0,0,1,.29-.61,2,2,0,0,1,.81-.67l.27-.11.26-.1Zm1.09,2.11a2.88,2.88,0,0,0-.07-.64,2.06,2.06,0,0,0-.29-.67,2.36,2.36,0,0,0-.47-.56,1.5,1.5,0,0,0-.78.4,1.09,1.09,0,0,0-.35.65,4.36,4.36,0,0,0,0,.6,3.24,3.24,0,0,0,.07.62,1.78,1.78,0,0,0,.22.58.85.85,0,0,0,.36.35.87.87,0,0,0,.39.09.85.85,0,0,0,.36-.09,1,1,0,0,0,.31-.27,1.49,1.49,0,0,0,.21-.46,2.23,2.23,0,0,0,.07-.6Z"/><text class="cls-7" transform="translate(106.72 26.46)">xx</text><path class="cls-4" d="M5,20.58a3.39,3.39,0,0,1,.65-.07H7.81v.72H6a2,2,0,0,1,.71.51,2.59,2.59,0,0,1,.51.69,1.53,1.53,0,0,1,.14.61,1.78,1.78,0,0,1-.58,1.3,1.31,1.31,0,0,1-.75.45l-.55.08-.25,0a1.86,1.86,0,0,1-.46-.06,2,2,0,0,1-.61-.29,1.87,1.87,0,0,1-.65-.71l-.11-.2a2.35,2.35,0,0,1-.12-.24L3.2,23.2a1.37,1.37,0,0,1,0-.16,3.62,3.62,0,0,1-.05-.51A1.57,1.57,0,0,1,3.21,22a3.15,3.15,0,0,1,.24-.47,1.6,1.6,0,0,1,.44-.44,2.91,2.91,0,0,1,.53-.3A3.76,3.76,0,0,1,5,20.58Zm1.5,2.49a2.18,2.18,0,0,0-.14-.82,2.9,2.9,0,0,0-.8-1H5.39a2.07,2.07,0,0,0-.53.06,1.18,1.18,0,0,0-.47.27,1.11,1.11,0,0,0-.32.51,2,2,0,0,0-.09.57v.13a1.78,1.78,0,0,0,.21.9,1.74,1.74,0,0,0,.44.56,1.69,1.69,0,0,0,.38.25.75.75,0,0,0,.35.07,1.59,1.59,0,0,0,.4-.07.77.77,0,0,0,.38-.28,1.55,1.55,0,0,0,.25-.5,2.24,2.24,0,0,0,.09-.64Z"/><text class="cls-7" transform="translate(7.93 26.82)">22</text><text class="cls-8" transform="translate(14.24 24.72)"><tspan xml:space="preserve"> / </tspan></text><path class="cls-4" d="M22.93,21l-1-.9a.75.75,0,0,1-.18-.23,1.16,1.16,0,0,1-.11-.23.87.87,0,0,1,0-.17,1,1,0,0,1,0-.14.59.59,0,0,1,.23-.47l.24-.18a1,1,0,0,1,.3-.11,2.71,2.71,0,0,1,.45,0l.41,0,.35.06a2,2,0,0,1,.4.16,1.32,1.32,0,0,1,.37.27.52.52,0,0,1,.13.35.29.29,0,0,1-.12.24.44.44,0,0,1-.26.09.55.55,0,0,1-.29-.09,1.93,1.93,0,0,1-.33-.29l-.09-.09-.08-.07-.08-.07,0,0a.88.88,0,0,0-.28-.13,1,1,0,0,0-.3-.05.55.55,0,0,0-.28.06.85.85,0,0,0-.22.16.38.38,0,0,0-.1.28.43.43,0,0,0,0,.19.92.92,0,0,0,.21.28,6.25,6.25,0,0,0,.64.48l.62.37L24,21a2.42,2.42,0,0,1,.48.56,2.91,2.91,0,0,1,.28.6,2.39,2.39,0,0,1,.08.65,2.17,2.17,0,0,1-.14.78,1.69,1.69,0,0,1-.39.61,3.34,3.34,0,0,1-.49.39,1.36,1.36,0,0,1-.45.21,1.84,1.84,0,0,1-.5.06,1.51,1.51,0,0,1-.72-.17,1.63,1.63,0,0,1-.51-.39,2.1,2.1,0,0,1-.35-.55,1.73,1.73,0,0,1-.16-.76,2.15,2.15,0,0,1,.07-.51,2.56,2.56,0,0,1,.29-.61,2,2,0,0,1,.81-.67l.27-.11.26-.1ZM24,23.07a2.88,2.88,0,0,0-.07-.64,2.06,2.06,0,0,0-.29-.67,2.36,2.36,0,0,0-.47-.56,1.5,1.5,0,0,0-.78.4,1.09,1.09,0,0,0-.35.65,4.36,4.36,0,0,0,0,.6,3.24,3.24,0,0,0,.07.62,1.78,1.78,0,0,0,.22.58.85.85,0,0,0,.36.35.87.87,0,0,0,.39.09.85.85,0,0,0,.36-.09,1,1,0,0,0,.31-.27,1.49,1.49,0,0,0,.21-.46,2.23,2.23,0,0,0,.07-.6Z"/><text class="cls-7" transform="translate(24.94 26.82)">yy</text><path class="cls-5" d="M120.36,97.77a3.39,3.39,0,0,1,.65-.07h2.18v.72h-1.82a2,2,0,0,1,.71.51,2.59,2.59,0,0,1,.51.69,1.53,1.53,0,0,1,.14.61,1.78,1.78,0,0,1-.58,1.3,1.31,1.31,0,0,1-.75.45l-.55.08-.25,0a1.86,1.86,0,0,1-.46-.06,2,2,0,0,1-.61-.29,1.87,1.87,0,0,1-.65-.71l-.11-.2a2.35,2.35,0,0,1-.12-.24l-.07-.19a1.37,1.37,0,0,1,0-.16,3.62,3.62,0,0,1-.05-.51,1.57,1.57,0,0,1,.09-.56,3.15,3.15,0,0,1,.24-.47,1.6,1.6,0,0,1,.44-.44,2.91,2.91,0,0,1,.53-.3,3.76,3.76,0,0,1,.56-.18Zm1.5,2.49a2.18,2.18,0,0,0-.14-.82,2.9,2.9,0,0,0-.8-1h-.14a2.07,2.07,0,0,0-.53.06,1.18,1.18,0,0,0-.47.27,1.11,1.11,0,0,0-.32.51,2,2,0,0,0-.09.57V100a1.78,1.78,0,0,0,.21.9,1.74,1.74,0,0,0,.44.56,1.69,1.69,0,0,0,.38.25.75.75,0,0,0,.35.07,1.59,1.59,0,0,0,.4-.07.77.77,0,0,0,.38-.28,1.55,1.55,0,0,0,.25-.5,2.24,2.24,0,0,0,.09-.64Z"/><text class="cls-11" transform="translate(123.31 104.01)">1<tspan class="cls-10" x="2.93" y="0">1</tspan></text><text class="cls-12" transform="translate(129.39 101.91)"><tspan xml:space="preserve"> / </tspan></text><path class="cls-5" d="M138.08,98.15l-1-.9a.75.75,0,0,1-.18-.23,1.16,1.16,0,0,1-.11-.23.87.87,0,0,1,0-.17,1,1,0,0,1,0-.14A.59.59,0,0,1,137,96l.24-.18a1,1,0,0,1,.3-.11,2.71,2.71,0,0,1,.45,0l.41,0,.35.06a2,2,0,0,1,.4.16,1.32,1.32,0,0,1,.37.27.52.52,0,0,1,.13.35.29.29,0,0,1-.12.24.44.44,0,0,1-.26.09.55.55,0,0,1-.29-.09,1.93,1.93,0,0,1-.33-.29l-.09-.09-.08-.07-.08-.07,0,0a.88.88,0,0,0-.28-.13,1,1,0,0,0-.3-.05.55.55,0,0,0-.28.06.85.85,0,0,0-.22.16.38.38,0,0,0-.1.28.43.43,0,0,0,0,.19.92.92,0,0,0,.21.28,6.25,6.25,0,0,0,.64.48l.62.37.46.35a2.42,2.42,0,0,1,.48.56,2.91,2.91,0,0,1,.28.6,2.39,2.39,0,0,1,.08.65,2.17,2.17,0,0,1-.14.78,1.69,1.69,0,0,1-.39.61,3.34,3.34,0,0,1-.49.39,1.36,1.36,0,0,1-.45.21,1.84,1.84,0,0,1-.5.06,1.51,1.51,0,0,1-.72-.17,1.63,1.63,0,0,1-.51-.39,2.1,2.1,0,0,1-.35-.55,1.73,1.73,0,0,1-.16-.76,2.15,2.15,0,0,1,.07-.51,2.56,2.56,0,0,1,.29-.61,2,2,0,0,1,.81-.67l.27-.11.26-.1Zm1.09,2.11a2.88,2.88,0,0,0-.07-.64,2.06,2.06,0,0,0-.29-.67,2.36,2.36,0,0,0-.47-.56,1.5,1.5,0,0,0-.78.4,1.09,1.09,0,0,0-.35.65,4.36,4.36,0,0,0,0,.6,3.24,3.24,0,0,0,.07.62,1.78,1.78,0,0,0,.22.58.85.85,0,0,0,.36.35.87.87,0,0,0,.39.09.85.85,0,0,0,.36-.09,1,1,0,0,0,.31-.27,1.49,1.49,0,0,0,.21-.46,2.23,2.23,0,0,0,.07-.6Z"/><text class="cls-13" transform="translate(140.09 104.01)">zz</text><path class="cls-5" d="M80.26,78.67a3.39,3.39,0,0,1,.65-.07h2.18v.72H81.26a2,2,0,0,1,.71.51,2.59,2.59,0,0,1,.51.69,1.53,1.53,0,0,1,.14.61,1.78,1.78,0,0,1-.58,1.3,1.31,1.31,0,0,1-.75.45l-.55.08-.25,0a1.86,1.86,0,0,1-.46-.06,2,2,0,0,1-.61-.29,1.87,1.87,0,0,1-.65-.71l-.11-.2a2.35,2.35,0,0,1-.12-.24l-.07-.19a1.37,1.37,0,0,1,0-.16,3.62,3.62,0,0,1-.05-.51,1.57,1.57,0,0,1,.09-.56,3.15,3.15,0,0,1,.24-.47,1.6,1.6,0,0,1,.44-.44,2.91,2.91,0,0,1,.53-.3,3.76,3.76,0,0,1,.56-.18Zm1.5,2.49a2.18,2.18,0,0,0-.14-.82,2.9,2.9,0,0,0-.8-1h-.14a2.07,2.07,0,0,0-.53.06,1.18,1.18,0,0,0-.47.27,1.11,1.11,0,0,0-.32.51,2,2,0,0,0-.09.57v.13a1.78,1.78,0,0,0,.21.9,1.74,1.74,0,0,0,.44.56,1.69,1.69,0,0,0,.38.25.75.75,0,0,0,.35.07,1.59,1.59,0,0,0,.4-.07.77.77,0,0,0,.38-.28,1.55,1.55,0,0,0,.25-.5,2.24,2.24,0,0,0,.09-.64Z"/><text class="cls-13" transform="translate(83.22 84.92)">33</text><text class="cls-12" transform="translate(89.52 82.81)"><tspan xml:space="preserve"> / </tspan></text><path class="cls-5" d="M98.21,79.06l-1-.9a.75.75,0,0,1-.18-.23,1.16,1.16,0,0,1-.11-.23.87.87,0,0,1,0-.17,1,1,0,0,1,0-.14.59.59,0,0,1,.23-.47l.24-.18a1,1,0,0,1,.3-.11,2.71,2.71,0,0,1,.45,0l.41,0,.35.06a2,2,0,0,1,.4.16,1.32,1.32,0,0,1,.37.27.52.52,0,0,1,.13.35.29.29,0,0,1-.12.24.44.44,0,0,1-.26.09.55.55,0,0,1-.29-.09,1.93,1.93,0,0,1-.33-.29l-.09-.09-.08-.07-.08-.07,0,0A.88.88,0,0,0,98.2,77a1,1,0,0,0-.3-.05.55.55,0,0,0-.28.06.85.85,0,0,0-.22.16.38.38,0,0,0-.1.28.43.43,0,0,0,0,.19.92.92,0,0,0,.21.28,6.25,6.25,0,0,0,.64.48l.62.37.46.35a2.42,2.42,0,0,1,.48.56,2.91,2.91,0,0,1,.28.6,2.39,2.39,0,0,1,.08.65,2.17,2.17,0,0,1-.14.78,1.69,1.69,0,0,1-.39.61,3.34,3.34,0,0,1-.49.39,1.36,1.36,0,0,1-.45.21,1.84,1.84,0,0,1-.5.06,1.51,1.51,0,0,1-.72-.17,1.63,1.63,0,0,1-.51-.39,2.1,2.1,0,0,1-.35-.55,1.73,1.73,0,0,1-.16-.76,2.15,2.15,0,0,1,.07-.51,2.56,2.56,0,0,1,.29-.61,2,2,0,0,1,.81-.67l.27-.11.26-.1Zm1.09,2.11a2.88,2.88,0,0,0-.07-.64,2.06,2.06,0,0,0-.29-.67,2.36,2.36,0,0,0-.47-.56,1.5,1.5,0,0,0-.78.4,1.09,1.09,0,0,0-.35.65,4.36,4.36,0,0,0,0,.6,3.24,3.24,0,0,0,.07.62,1.78,1.78,0,0,0,.22.58.85.85,0,0,0,.36.35.87.87,0,0,0,.39.09.85.85,0,0,0,.36-.09,1,1,0,0,0,.31-.27,1.49,1.49,0,0,0,.21-.46,2.23,2.23,0,0,0,.07-.6Z"/><text class="cls-13" transform="translate(100.22 84.92)">xx</text><path class="cls-5" d="M113.54,9.67a3.39,3.39,0,0,1,.65-.07h2.18v.72h-1.82a2,2,0,0,1,.71.51,2.59,2.59,0,0,1,.51.69,1.53,1.53,0,0,1,.14.61,1.78,1.78,0,0,1-.58,1.3,1.31,1.31,0,0,1-.75.45L114,14l-.25,0a1.86,1.86,0,0,1-.46-.06,2,2,0,0,1-.61-.29,1.87,1.87,0,0,1-.65-.71l-.11-.2a2.35,2.35,0,0,1-.12-.24l-.07-.19a1.37,1.37,0,0,1,0-.16,3.62,3.62,0,0,1-.05-.51,1.57,1.57,0,0,1,.09-.56,3.15,3.15,0,0,1,.24-.47,1.6,1.6,0,0,1,.44-.44,2.91,2.91,0,0,1,.53-.3,3.76,3.76,0,0,1,.56-.18Zm1.5,2.49a2.18,2.18,0,0,0-.14-.82,2.9,2.9,0,0,0-.8-1h-.14a2.07,2.07,0,0,0-.53.06,1.18,1.18,0,0,0-.47.27,1.11,1.11,0,0,0-.32.51,2,2,0,0,0-.09.57v.13a1.78,1.78,0,0,0,.21.9,1.74,1.74,0,0,0,.44.56,1.69,1.69,0,0,0,.38.25.75.75,0,0,0,.35.07,1.59,1.59,0,0,0,.4-.07.77.77,0,0,0,.38-.28,1.55,1.55,0,0,0,.25-.5,2.24,2.24,0,0,0,.09-.64Z"/><text class="cls-13" transform="translate(116.49 15.91)">22</text><text class="cls-12" transform="translate(122.8 13.81)"><tspan xml:space="preserve"> / </tspan></text><path class="cls-5" d="M131.49,10l-1-.9a.75.75,0,0,1-.18-.23,1.16,1.16,0,0,1-.11-.23.87.87,0,0,1,0-.17,1,1,0,0,1,0-.14.59.59,0,0,1,.23-.47l.24-.18a1,1,0,0,1,.3-.11,2.71,2.71,0,0,1,.45,0l.41,0,.35.06a2,2,0,0,1,.4.16,1.32,1.32,0,0,1,.37.27.52.52,0,0,1,.13.35.29.29,0,0,1-.12.24.44.44,0,0,1-.26.09.55.55,0,0,1-.29-.09,1.93,1.93,0,0,1-.33-.29L132,8.29l-.08-.07-.08-.07,0,0a.88.88,0,0,0-.28-.13,1,1,0,0,0-.3-.05.55.55,0,0,0-.28.06.85.85,0,0,0-.22.16.38.38,0,0,0-.1.28.43.43,0,0,0,0,.19.92.92,0,0,0,.21.28,6.25,6.25,0,0,0,.64.48l.62.37.46.35a2.42,2.42,0,0,1,.48.56,2.91,2.91,0,0,1,.28.6,2.39,2.39,0,0,1,.08.65,2.17,2.17,0,0,1-.14.78,1.69,1.69,0,0,1-.39.61,3.34,3.34,0,0,1-.49.39,1.36,1.36,0,0,1-.45.21,1.84,1.84,0,0,1-.5.06,1.51,1.51,0,0,1-.72-.17,1.63,1.63,0,0,1-.51-.39,2.1,2.1,0,0,1-.35-.55,1.73,1.73,0,0,1-.16-.76,2.15,2.15,0,0,1,.07-.51A2.56,2.56,0,0,1,130,11a2,2,0,0,1,.81-.67l.27-.11.26-.1Zm1.09,2.11a2.88,2.88,0,0,0-.07-.64,2.06,2.06,0,0,0-.29-.67,2.36,2.36,0,0,0-.47-.56,1.5,1.5,0,0,0-.78.4,1.09,1.09,0,0,0-.35.65,4.36,4.36,0,0,0,0,.6,3.24,3.24,0,0,0,.07.62,1.78,1.78,0,0,0,.22.58.85.85,0,0,0,.36.35.87.87,0,0,0,.39.09.85.85,0,0,0,.36-.09,1,1,0,0,0,.31-.27,1.49,1.49,0,0,0,.21-.46,2.23,2.23,0,0,0,.07-.6Z"/><text class="cls-13" transform="translate(133.5 15.91)">yy</text><path class="cls-6" d="M159.09,133.5a3.39,3.39,0,0,1,.65-.07h2.18v.72h-1.82a2,2,0,0,1,.71.51,2.59,2.59,0,0,1,.51.69,1.53,1.53,0,0,1,.14.61,1.78,1.78,0,0,1-.58,1.3,1.31,1.31,0,0,1-.75.45l-.55.08-.25,0a1.86,1.86,0,0,1-.46-.06,2,2,0,0,1-.61-.29,1.87,1.87,0,0,1-.65-.71l-.11-.2a2.36,2.36,0,0,1-.12-.24l-.07-.19a1.37,1.37,0,0,1,0-.16,3.62,3.62,0,0,1-.05-.51,1.57,1.57,0,0,1,.09-.56,3.15,3.15,0,0,1,.24-.47A1.6,1.6,0,0,1,158,134a2.91,2.91,0,0,1,.53-.3,3.76,3.76,0,0,1,.56-.18Zm1.5,2.49a2.18,2.18,0,0,0-.14-.82,2.9,2.9,0,0,0-.8-1h-.14a2.07,2.07,0,0,0-.53.06,1.18,1.18,0,0,0-.47.27,1.11,1.11,0,0,0-.32.51,2,2,0,0,0-.09.57v.13a1.78,1.78,0,0,0,.21.9,1.74,1.74,0,0,0,.44.56,1.69,1.69,0,0,0,.38.25.75.75,0,0,0,.35.07,1.59,1.59,0,0,0,.4-.07.77.77,0,0,0,.38-.28,1.55,1.55,0,0,0,.25-.5,2.24,2.24,0,0,0,.09-.64Z"/><text class="cls-14" transform="translate(162.04 139.74)">33</text><text class="cls-15" transform="translate(168.35 137.64)"><tspan xml:space="preserve"> / </tspan></text><path class="cls-6" d="M177,133.88l-1-.9a.75.75,0,0,1-.18-.23,1.16,1.16,0,0,1-.11-.23.87.87,0,0,1,0-.17,1,1,0,0,1,0-.14.59.59,0,0,1,.23-.47l.24-.18a1,1,0,0,1,.3-.11,2.71,2.71,0,0,1,.45,0l.41,0,.35.06a2,2,0,0,1,.4.16,1.32,1.32,0,0,1,.37.27.52.52,0,0,1,.13.35.29.29,0,0,1-.12.24.44.44,0,0,1-.26.09.55.55,0,0,1-.29-.09,1.93,1.93,0,0,1-.33-.29l-.09-.09-.08-.07-.08-.07,0,0a.88.88,0,0,0-.28-.13,1,1,0,0,0-.3-.05.55.55,0,0,0-.28.06.85.85,0,0,0-.22.16.38.38,0,0,0-.1.28.43.43,0,0,0,0,.19.92.92,0,0,0,.21.28,6.25,6.25,0,0,0,.64.48l.62.37.46.35a2.42,2.42,0,0,1,.48.56,2.91,2.91,0,0,1,.28.6,2.39,2.39,0,0,1,.08.65,2.17,2.17,0,0,1-.14.78,1.69,1.69,0,0,1-.39.61,3.34,3.34,0,0,1-.49.39,1.36,1.36,0,0,1-.45.21,1.84,1.84,0,0,1-.5.06,1.51,1.51,0,0,1-.72-.17,1.63,1.63,0,0,1-.51-.39,2.1,2.1,0,0,1-.35-.55,1.73,1.73,0,0,1-.16-.76,2.15,2.15,0,0,1,.07-.51,2.56,2.56,0,0,1,.29-.61,2,2,0,0,1,.81-.67l.27-.11.26-.1Zm1.09,2.11a2.88,2.88,0,0,0-.07-.64,2.06,2.06,0,0,0-.29-.67,2.36,2.36,0,0,0-.47-.56,1.5,1.5,0,0,0-.78.4,1.09,1.09,0,0,0-.35.65,4.36,4.36,0,0,0,0,.6,3.24,3.24,0,0,0,.07.62,1.78,1.78,0,0,0,.22.58.85.85,0,0,0,.36.35.87.87,0,0,0,.39.09.85.85,0,0,0,.36-.09,1,1,0,0,0,.31-.27,1.49,1.49,0,0,0,.21-.46,2.23,2.23,0,0,0,.07-.6Z"/><text class="cls-14" transform="translate(179.05 139.74)">zz</text><path class="cls-6" d="M182.82,71a3.39,3.39,0,0,1,.65-.07h2.18v.72h-1.82a2,2,0,0,1,.71.51,2.59,2.59,0,0,1,.51.69,1.53,1.53,0,0,1,.14.61,1.78,1.78,0,0,1-.58,1.3,1.31,1.31,0,0,1-.75.45l-.55.08-.25,0a1.86,1.86,0,0,1-.46-.06A2,2,0,0,1,182,75a1.87,1.87,0,0,1-.65-.71l-.11-.2a2.36,2.36,0,0,1-.12-.24l-.07-.19a1.37,1.37,0,0,1,0-.16A3.62,3.62,0,0,1,181,73a1.57,1.57,0,0,1,.09-.56,3.15,3.15,0,0,1,.24-.47,1.6,1.6,0,0,1,.44-.44,2.91,2.91,0,0,1,.53-.3,3.76,3.76,0,0,1,.56-.18Zm1.5,2.49a2.18,2.18,0,0,0-.14-.82,2.9,2.9,0,0,0-.8-1h-.14a2.07,2.07,0,0,0-.53.06,1.18,1.18,0,0,0-.47.27,1.11,1.11,0,0,0-.32.51,2,2,0,0,0-.09.57v.13a1.78,1.78,0,0,0,.21.9,1.74,1.74,0,0,0,.44.56,1.69,1.69,0,0,0,.38.25.75.75,0,0,0,.35.07,1.59,1.59,0,0,0,.4-.07.77.77,0,0,0,.38-.28,1.55,1.55,0,0,0,.25-.5,2.24,2.24,0,0,0,.09-.64Z"/><text class="cls-14" transform="translate(185.77 77.28)">22</text><text class="cls-15" transform="translate(192.08 75.18)"><tspan xml:space="preserve"> / </tspan></text><path class="cls-6" d="M200.77,71.42l-1-.9a.75.75,0,0,1-.18-.23,1.16,1.16,0,0,1-.11-.23.87.87,0,0,1,0-.17,1,1,0,0,1,0-.14.59.59,0,0,1,.23-.47l.24-.18a1,1,0,0,1,.3-.11,2.71,2.71,0,0,1,.45,0l.41,0,.35.06a2,2,0,0,1,.4.16,1.32,1.32,0,0,1,.37.27.52.52,0,0,1,.13.35.29.29,0,0,1-.12.24.44.44,0,0,1-.26.09.55.55,0,0,1-.29-.09,1.93,1.93,0,0,1-.33-.29l-.09-.09-.08-.07-.08-.07,0,0a.88.88,0,0,0-.28-.13,1,1,0,0,0-.3-.05.55.55,0,0,0-.28.06.85.85,0,0,0-.22.16.38.38,0,0,0-.1.28.43.43,0,0,0,0,.19.92.92,0,0,0,.21.28,6.25,6.25,0,0,0,.64.48l.62.37.46.35a2.42,2.42,0,0,1,.48.56,2.91,2.91,0,0,1,.28.6,2.39,2.39,0,0,1,.08.65,2.17,2.17,0,0,1-.14.78,1.69,1.69,0,0,1-.39.61,3.34,3.34,0,0,1-.49.39,1.36,1.36,0,0,1-.45.21,1.84,1.84,0,0,1-.5.06,1.51,1.51,0,0,1-.72-.17,1.63,1.63,0,0,1-.51-.39,2.1,2.1,0,0,1-.35-.55,1.73,1.73,0,0,1-.16-.76A2.15,2.15,0,0,1,199,73a2.56,2.56,0,0,1,.29-.61,2,2,0,0,1,.81-.67l.27-.11.26-.1Zm1.09,2.11a2.88,2.88,0,0,0-.07-.64,2.06,2.06,0,0,0-.29-.67,2.36,2.36,0,0,0-.47-.56,1.5,1.5,0,0,0-.78.4,1.09,1.09,0,0,0-.35.65,4.36,4.36,0,0,0,0,.6,3.24,3.24,0,0,0,.07.62,1.78,1.78,0,0,0,.22.58.85.85,0,0,0,.36.35.87.87,0,0,0,.39.09.85.85,0,0,0,.36-.09,1,1,0,0,0,.31-.27,1.49,1.49,0,0,0,.21-.46,2.23,2.23,0,0,0,.07-.6Z"/><text class="cls-14" transform="translate(202.78 77.28)">yy</text><path class="cls-6" d="M142.72,42.4a3.39,3.39,0,0,1,.65-.07h2.18v.72h-1.82a2,2,0,0,1,.71.51,2.59,2.59,0,0,1,.51.69,1.53,1.53,0,0,1,.14.61,1.78,1.78,0,0,1-.58,1.3,1.31,1.31,0,0,1-.75.45l-.55.08-.25,0a1.86,1.86,0,0,1-.46-.06,2,2,0,0,1-.61-.29,1.87,1.87,0,0,1-.65-.71l-.11-.2a2.36,2.36,0,0,1-.12-.24l-.07-.19a1.37,1.37,0,0,1,0-.16,3.62,3.62,0,0,1-.05-.51,1.57,1.57,0,0,1,.09-.56,3.15,3.15,0,0,1,.24-.47,1.6,1.6,0,0,1,.44-.44,2.91,2.91,0,0,1,.53-.3,3.76,3.76,0,0,1,.56-.18Zm1.5,2.49a2.18,2.18,0,0,0-.14-.82,2.9,2.9,0,0,0-.8-1h-.14a2.07,2.07,0,0,0-.53.06,1.18,1.18,0,0,0-.47.27,1.11,1.11,0,0,0-.32.51,2,2,0,0,0-.09.57v.13a1.78,1.78,0,0,0,.21.9,1.74,1.74,0,0,0,.44.56,1.69,1.69,0,0,0,.38.25.75.75,0,0,0,.35.07,1.59,1.59,0,0,0,.4-.07.77.77,0,0,0,.38-.28,1.55,1.55,0,0,0,.25-.5,2.24,2.24,0,0,0,.09-.64Z"/><text class="cls-16" transform="translate(145.68 48.64)">1<tspan class="cls-10" x="2.93" y="0">1</tspan></text><text class="cls-15" transform="translate(151.75 46.54)"><tspan xml:space="preserve"> / </tspan></text><path class="cls-6" d="M160.44,42.78l-1-.9a.75.75,0,0,1-.18-.23,1.16,1.16,0,0,1-.11-.23.87.87,0,0,1,0-.17,1,1,0,0,1,0-.14.59.59,0,0,1,.23-.47l.24-.18a1,1,0,0,1,.3-.11,2.71,2.71,0,0,1,.45,0l.41,0,.35.06a2,2,0,0,1,.4.16,1.32,1.32,0,0,1,.37.27.52.52,0,0,1,.13.35.29.29,0,0,1-.12.24.44.44,0,0,1-.26.09.55.55,0,0,1-.29-.09,1.93,1.93,0,0,1-.33-.29l-.09-.09-.08-.07-.08-.07,0,0a.88.88,0,0,0-.28-.13,1,1,0,0,0-.3-.05.55.55,0,0,0-.28.06.85.85,0,0,0-.22.16.38.38,0,0,0-.1.28.43.43,0,0,0,0,.19.92.92,0,0,0,.21.28,6.25,6.25,0,0,0,.64.48l.62.37.46.35a2.42,2.42,0,0,1,.48.56,2.91,2.91,0,0,1,.28.6,2.39,2.39,0,0,1,.08.65,2.17,2.17,0,0,1-.14.78,1.69,1.69,0,0,1-.39.61,3.34,3.34,0,0,1-.49.39,1.36,1.36,0,0,1-.45.21,1.84,1.84,0,0,1-.5.06,1.51,1.51,0,0,1-.72-.17,1.63,1.63,0,0,1-.51-.39,2.1,2.1,0,0,1-.35-.55,1.73,1.73,0,0,1-.16-.76,2.15,2.15,0,0,1,.07-.51,2.56,2.56,0,0,1,.29-.61,2,2,0,0,1,.81-.67l.27-.11.26-.1Zm1.09,2.11a2.88,2.88,0,0,0-.07-.64,2.06,2.06,0,0,0-.29-.67,2.36,2.36,0,0,0-.47-.56,1.5,1.5,0,0,0-.78.4,1.09,1.09,0,0,0-.35.65,4.36,4.36,0,0,0,0,.6,3.24,3.24,0,0,0,.07.62,1.78,1.78,0,0,0,.22.58.85.85,0,0,0,.36.35.87.87,0,0,0,.39.09.85.85,0,0,0,.36-.09,1,1,0,0,0,.31-.27,1.49,1.49,0,0,0,.21-.46,2.23,2.23,0,0,0,.07-.6Z"/><text class="cls-14" transform="translate(162.46 48.64)">xx</text><rect class="cls-17" x="185.53" y="126.4" width="1" height="2.8" transform="translate(-38.72 148.52) rotate(-39.76)"/><rect class="cls-17" x="181.94" y="122.09" width="1" height="2.8" transform="translate(-36.79 145.23) rotate(-39.76)"/><rect class="cls-17" x="178.36" y="117.78" width="1" height="2.8" transform="translate(-34.86 141.94) rotate(-39.76)"/><rect class="cls-17" x="174.77" y="113.47" width="1" height="2.8" transform="translate(-32.93 138.65) rotate(-39.76)"/><rect class="cls-17" x="171.18" y="109.15" width="1" height="2.8" transform="translate(-31 135.36) rotate(-39.76)"/><rect class="cls-17" x="167.6" y="104.84" width="1" height="2.8" transform="translate(-29.08 132.07) rotate(-39.76)"/><rect class="cls-17" x="164.01" y="100.53" width="1" height="2.8" transform="translate(-27.15 128.78) rotate(-39.76)"/><rect class="cls-17" x="160.42" y="96.22" width="1" height="2.8" transform="translate(-25.22 125.49) rotate(-39.76)"/><text class="cls-18" transform="translate(191.61 96.44)">γ</text><text class="cls-19" transform="translate(195.72 99.77) scale(0.58)">x</text><text class="cls-18" transform="translate(102.33 96.22)">β</text><text class="cls-19" transform="translate(107.82 99.56) scale(0.58)">y</text><path class="cls-1" d="M69.38,65.31c3.35-5.77,12.15-5.84,11.36-13.64"/><text class="cls-18" transform="translate(62.49 70.97)">α</text><text class="cls-19" transform="translate(68.8 74.3) scale(0.58)">z</text></svg>