<?xml version="1.0" encoding="utf-8" standalone="no"?>
<!DOCTYPE svg PUBLIC "-//W3C//DTD SVG 1.1//EN"
  "http://www.w3.org/Graphics/SVG/1.1/DTD/svg11.dtd">
<!-- Created with matplotlib (http://matplotlib.org/) -->
<svg height="129pt" version="1.1" viewBox="0 0 440 129" width="440pt" xmlns="http://www.w3.org/2000/svg" xmlns:xlink="http://www.w3.org/1999/xlink">
 <defs>
  <style type="text/css">
*{stroke-linecap:butt;stroke-linejoin:round;stroke-miterlimit:100000;}
  </style>
 </defs>
 <g id="figure_1">
  <g id="patch_1">
   <path d="M 0 129.908281 
L 440.041875 129.908281 
L 440.041875 0 
L 0 0 
z
" style="fill:#ffffff;"/>
  </g>
  <g id="axes_1">
   <g id="patch_2">
    <path d="M 39.16875 101.442031 
L 124.081793 101.442031 
L 124.081793 15.042031 
L 39.16875 15.042031 
z
" style="fill:#ffffff;"/>
   </g>
   <g id="PathCollection_1">
    <path clip-path="url(#pb24db30e28)" d="M 65.835115 71.942362 
L 66.166721 71.842031 
L 67.853517 69.375365 
L 66.600045 66.908698 
L 65.835115 65.066536 
L 64.793068 66.908698 
L 63.4109 68.947282 
L 63.241548 69.375365 
L 63.4109 69.586292 
L 65.52039 71.842031 
z
" style="fill:#006428;"/>
   </g>
   <g id="PathCollection_2">
    <path clip-path="url(#pb24db30e28)" d="M 65.835115 72.578985 
L 68.25933 71.84613 
L 68.266035 71.842031 
L 68.903132 69.375365 
L 68.393169 66.908698 
L 68.25933 66.618079 
L 66.65303 64.442031 
L 65.835115 63.314367 
L 63.488828 61.975365 
L 63.4109 61.926388 
L 63.124636 61.975365 
L 61.968422 64.442031 
L 62.018838 66.908698 
L 61.527001 69.375365 
L 63.4109 71.72176 
L 63.523373 71.842031 
z
M 65.52039 71.842031 
L 63.4109 69.586292 
L 63.241548 69.375365 
L 63.4109 68.947282 
L 64.793068 66.908698 
L 65.835115 65.066536 
L 66.600045 66.908698 
L 67.853517 69.375365 
L 66.166721 71.842031 
L 65.835115 71.942362 
z
" style="fill:#2f974e;"/>
   </g>
   <g id="PathCollection_3">
    <path clip-path="url(#pb24db30e28)" d="M 63.4109 72.678165 
L 65.835115 73.215608 
L 68.25933 72.594858 
L 69.49096 71.842031 
L 69.708949 69.375365 
L 68.973181 66.908698 
L 68.25933 65.358643 
L 67.582712 64.442031 
L 65.835115 62.032611 
L 65.734804 61.975365 
L 63.4109 60.514812 
L 61.340809 59.508698 
L 60.986685 59.332508 
L 58.56247 58.089969 
L 57.013979 57.042031 
L 56.138255 56.331084 
L 54.563135 57.042031 
L 54.999498 59.508698 
L 56.138255 61.247698 
L 56.665049 61.975365 
L 57.84614 64.442031 
L 58.136204 66.908698 
L 58.318696 69.375365 
L 58.56247 69.62381 
L 60.986685 71.788859 
L 61.024835 71.842031 
z
M 63.523373 71.842031 
L 63.4109 71.72176 
L 61.527001 69.375365 
L 62.018838 66.908698 
L 61.968422 64.442031 
L 63.124636 61.975365 
L 63.4109 61.926388 
L 63.488828 61.975365 
L 65.835115 63.314367 
L 66.65303 64.442031 
L 68.25933 66.618079 
L 68.393169 66.908698 
L 68.903132 69.375365 
L 68.266035 71.842031 
L 68.25933 71.84613 
L 65.835115 72.578985 
z
" style="fill:#75c477;"/>
   </g>
   <g id="PathCollection_4">
    <path clip-path="url(#pb24db30e28)" d="M 58.56247 72.479587 
L 60.986685 73.05996 
L 63.4109 73.564202 
L 65.835115 73.852231 
L 68.25933 73.343585 
L 70.683545 71.873567 
L 70.704598 71.842031 
L 70.683545 71.56591 
L 70.514766 69.375365 
L 69.553193 66.908698 
L 68.407879 64.442031 
L 68.25933 64.270556 
L 66.338715 61.975365 
L 65.835115 61.20706 
L 63.701154 59.508698 
L 63.4109 59.230712 
L 60.986685 57.887492 
L 59.873624 57.042031 
L 58.56247 55.548657 
L 57.489784 54.575365 
L 56.138255 53.219521 
L 53.71404 52.219075 
L 52.786088 52.108698 
L 51.289825 51.936742 
L 51.062046 52.108698 
L 50.34019 54.575365 
L 50.639998 57.042031 
L 50.738362 59.508698 
L 50.712264 61.975365 
L 50.689444 64.442031 
L 51.289825 66.188657 
L 51.89059 66.908698 
L 53.71404 68.933432 
L 54.092801 69.375365 
L 56.138255 71.248394 
L 56.720777 71.842031 
z
M 61.024835 71.842031 
L 60.986685 71.788859 
L 58.56247 69.62381 
L 58.318696 69.375365 
L 58.136204 66.908698 
L 57.84614 64.442031 
L 56.665049 61.975365 
L 56.138255 61.247698 
L 54.999498 59.508698 
L 54.563135 57.042031 
L 56.138255 56.331084 
L 57.013979 57.042031 
L 58.56247 58.089969 
L 60.986685 59.332508 
L 61.340809 59.508698 
L 63.4109 60.514812 
L 65.734804 61.975365 
L 65.835115 62.032611 
L 67.582712 64.442031 
L 68.25933 65.358643 
L 68.973181 66.908698 
L 69.708949 69.375365 
L 69.49096 71.842031 
L 68.25933 72.594858 
L 65.835115 73.215608 
L 63.4109 72.678165 
z
" style="fill:#b8e3b2;"/>
   </g>
   <g id="PathCollection_5">
    <path clip-path="url(#pb24db30e28)" d="M 63.4109 74.45504 
L 65.835115 74.537502 
L 67.034473 74.308698 
L 68.25933 74.092312 
L 70.683545 73.068026 
L 71.502021 71.842031 
L 71.179251 69.375365 
L 70.683545 68.254271 
L 70.133205 66.908698 
L 68.953604 64.442031 
L 68.25933 63.640604 
L 66.865858 61.975365 
L 65.835115 60.402836 
L 64.711646 59.508698 
L 63.4109 58.262928 
L 61.586664 57.042031 
L 60.986685 56.320762 
L 59.421252 54.575365 
L 58.56247 53.219731 
L 57.454541 52.108698 
L 56.138255 51.076585 
L 53.71404 49.666815 
L 53.640447 49.642031 
L 51.289825 48.519764 
L 49.284565 47.175365 
L 48.86561 47.150725 
L 48.666194 47.175365 
L 48.251006 49.642031 
L 48.024431 52.108698 
L 48.169064 54.575365 
L 48.479412 57.042031 
L 48.623189 59.508698 
L 48.740722 61.975365 
L 48.819336 64.442031 
L 48.86561 64.615888 
L 49.646835 66.908698 
L 51.030406 69.375365 
L 51.289825 70.047021 
L 52.394225 71.842031 
L 53.71404 72.642252 
L 56.138255 73.200482 
L 58.56247 73.832453 
L 60.986685 74.296547 
L 61.127156 74.308698 
z
M 56.720777 71.842031 
L 56.138255 71.248394 
L 54.092801 69.375365 
L 53.71404 68.933432 
L 51.89059 66.908698 
L 51.289825 66.188657 
L 50.689444 64.442031 
L 50.712264 61.975365 
L 50.738362 59.508698 
L 50.639998 57.042031 
L 50.34019 54.575365 
L 51.062046 52.108698 
L 51.289825 51.936742 
L 52.786088 52.108698 
L 53.71404 52.219075 
L 56.138255 53.219521 
L 57.489784 54.575365 
L 58.56247 55.548657 
L 59.873624 57.042031 
L 60.986685 57.887492 
L 63.4109 59.230712 
L 63.701154 59.508698 
L 65.835115 61.20706 
L 66.338715 61.975365 
L 68.25933 64.270556 
L 68.407879 64.442031 
L 69.553193 66.908698 
L 70.514766 69.375365 
L 70.683545 71.56591 
L 70.704598 71.842031 
L 70.683545 71.873567 
L 68.25933 73.343585 
L 65.835115 73.852231 
L 63.4109 73.564202 
L 60.986685 73.05996 
L 58.56247 72.479587 
z
" style="fill:#e9f7e5;"/>
   </g>
   <g id="patch_3">
    <path d="M 39.16875 15.042031 
L 124.081793 15.042031 
" style="fill:none;stroke:#000000;stroke-linecap:square;stroke-linejoin:miter;stroke-width:0.5;"/>
   </g>
   <g id="patch_4">
    <path d="M 124.081793 101.442031 
L 124.081793 15.042031 
" style="fill:none;stroke:#000000;stroke-linecap:square;stroke-linejoin:miter;stroke-width:0.5;"/>
   </g>
   <g id="patch_5">
    <path d="M 39.16875 101.442031 
L 124.081793 101.442031 
" style="fill:none;stroke:#000000;stroke-linecap:square;stroke-linejoin:miter;stroke-width:0.5;"/>
   </g>
   <g id="patch_6">
    <path d="M 39.16875 101.442031 
L 39.16875 15.042031 
" style="fill:none;stroke:#000000;stroke-linecap:square;stroke-linejoin:miter;stroke-width:0.5;"/>
   </g>
   <g id="matplotlib.axis_1">
    <g id="xtick_1">
     <g id="line2d_1">
      <defs>
       <path d="M 0 0 
L 0 -2 
" id="ma2a3bd7ed6" style="stroke:#000000;stroke-width:0.75;"/>
      </defs>
      <g>
       <use style="stroke:#000000;stroke-width:0.75;" x="39.16875" xlink:href="#ma2a3bd7ed6" y="101.44203125"/>
      </g>
     </g>
     <g id="line2d_2">
      <defs>
       <path d="M 0 0 
L 0 2 
" id="mafd779e6e7" style="stroke:#000000;stroke-width:0.75;"/>
      </defs>
      <g>
       <use style="stroke:#000000;stroke-width:0.75;" x="39.16875" xlink:href="#mafd779e6e7" y="15.04203125"/>
      </g>
     </g>
     <g id="text_1">
      <!-- −180 -->
      <defs>
       <path d="M 17.671875 38.8125 
Q 12.203125 40.828125 9.5625 44.53125 
Q 6.9375 48.25 6.9375 53.421875 
Q 6.9375 61.234375 12.546875 66.546875 
Q 18.171875 71.875 27.484375 71.875 
Q 36.859375 71.875 42.578125 66.421875 
Q 48.296875 60.984375 48.296875 53.171875 
Q 48.296875 48.1875 45.671875 44.5 
Q 43.0625 40.828125 37.75 38.8125 
Q 44.34375 36.671875 47.78125 31.875 
Q 51.21875 27.09375 51.21875 20.453125 
Q 51.21875 11.28125 44.71875 5.03125 
Q 38.234375 -1.21875 27.640625 -1.21875 
Q 17.046875 -1.21875 10.546875 5.046875 
Q 4.046875 11.328125 4.046875 20.703125 
Q 4.046875 27.6875 7.59375 32.390625 
Q 11.140625 37.109375 17.671875 38.8125 
M 15.921875 53.71875 
Q 15.921875 48.640625 19.1875 45.40625 
Q 22.46875 42.1875 27.6875 42.1875 
Q 32.765625 42.1875 36.015625 45.375 
Q 39.265625 48.578125 39.265625 53.21875 
Q 39.265625 58.0625 35.90625 61.359375 
Q 32.5625 64.65625 27.59375 64.65625 
Q 22.5625 64.65625 19.234375 61.421875 
Q 15.921875 58.203125 15.921875 53.71875 
M 13.09375 20.65625 
Q 13.09375 16.890625 14.875 13.375 
Q 16.65625 9.859375 20.171875 7.921875 
Q 23.6875 6 27.734375 6 
Q 34.03125 6 38.125 10.046875 
Q 42.234375 14.109375 42.234375 20.359375 
Q 42.234375 26.703125 38.015625 30.859375 
Q 33.796875 35.015625 27.4375 35.015625 
Q 21.234375 35.015625 17.15625 30.90625 
Q 13.09375 26.8125 13.09375 20.65625 
" id="ArialMT-38"/>
       <path d="M 37.25 0 
L 28.46875 0 
L 28.46875 56 
Q 25.296875 52.984375 20.140625 49.953125 
Q 14.984375 46.921875 10.890625 45.40625 
L 10.890625 53.90625 
Q 18.265625 57.375 23.78125 62.296875 
Q 29.296875 67.234375 31.59375 71.875 
L 37.25 71.875 
z
" id="ArialMT-31"/>
       <path d="M 52.828125 31.203125 
L 5.5625 31.203125 
L 5.5625 39.40625 
L 52.828125 39.40625 
z
" id="ArialMT-2212"/>
       <path d="M 4.15625 35.296875 
Q 4.15625 48 6.765625 55.734375 
Q 9.375 63.484375 14.515625 67.671875 
Q 19.671875 71.875 27.484375 71.875 
Q 33.25 71.875 37.59375 69.546875 
Q 41.9375 67.234375 44.765625 62.859375 
Q 47.609375 58.5 49.21875 52.21875 
Q 50.828125 45.953125 50.828125 35.296875 
Q 50.828125 22.703125 48.234375 14.96875 
Q 45.65625 7.234375 40.5 3 
Q 35.359375 -1.21875 27.484375 -1.21875 
Q 17.140625 -1.21875 11.234375 6.203125 
Q 4.15625 15.140625 4.15625 35.296875 
M 13.1875 35.296875 
Q 13.1875 17.671875 17.3125 11.828125 
Q 21.4375 6 27.484375 6 
Q 33.546875 6 37.671875 11.859375 
Q 41.796875 17.71875 41.796875 35.296875 
Q 41.796875 52.984375 37.671875 58.78125 
Q 33.546875 64.59375 27.390625 64.59375 
Q 21.34375 64.59375 17.71875 59.46875 
Q 13.1875 52.9375 13.1875 35.296875 
" id="ArialMT-30"/>
      </defs>
      <g transform="translate(30.159375 111.16828125)scale(0.08 -0.08)">
       <use xlink:href="#ArialMT-2212"/>
       <use x="58.3984375" xlink:href="#ArialMT-31"/>
       <use x="114.013671875" xlink:href="#ArialMT-38"/>
       <use x="169.62890625" xlink:href="#ArialMT-30"/>
      </g>
     </g>
    </g>
    <g id="xtick_2">
     <g id="line2d_3">
      <g>
       <use style="stroke:#000000;stroke-width:0.75;" x="60.3970108696" xlink:href="#ma2a3bd7ed6" y="101.44203125"/>
      </g>
     </g>
     <g id="line2d_4">
      <g>
       <use style="stroke:#000000;stroke-width:0.75;" x="60.3970108696" xlink:href="#mafd779e6e7" y="15.04203125"/>
      </g>
     </g>
     <g id="text_2">
      <!-- −90 -->
      <defs>
       <path d="M 5.46875 16.546875 
L 13.921875 17.328125 
Q 14.984375 11.375 18.015625 8.6875 
Q 21.046875 6 25.78125 6 
Q 29.828125 6 32.875 7.859375 
Q 35.9375 9.71875 37.890625 12.8125 
Q 39.84375 15.921875 41.15625 21.1875 
Q 42.484375 26.46875 42.484375 31.9375 
Q 42.484375 32.515625 42.4375 33.6875 
Q 39.796875 29.5 35.234375 26.875 
Q 30.671875 24.265625 25.34375 24.265625 
Q 16.453125 24.265625 10.296875 30.703125 
Q 4.15625 37.15625 4.15625 47.703125 
Q 4.15625 58.59375 10.578125 65.234375 
Q 17 71.875 26.65625 71.875 
Q 33.640625 71.875 39.421875 68.109375 
Q 45.21875 64.359375 48.21875 57.390625 
Q 51.21875 50.4375 51.21875 37.25 
Q 51.21875 23.53125 48.234375 15.40625 
Q 45.265625 7.28125 39.375 3.03125 
Q 33.5 -1.21875 25.59375 -1.21875 
Q 17.1875 -1.21875 11.859375 3.4375 
Q 6.546875 8.109375 5.46875 16.546875 
M 41.453125 48.140625 
Q 41.453125 55.71875 37.421875 60.15625 
Q 33.40625 64.59375 27.734375 64.59375 
Q 21.875 64.59375 17.53125 59.8125 
Q 13.1875 55.03125 13.1875 47.40625 
Q 13.1875 40.578125 17.3125 36.296875 
Q 21.4375 32.03125 27.484375 32.03125 
Q 33.59375 32.03125 37.515625 36.296875 
Q 41.453125 40.578125 41.453125 48.140625 
" id="ArialMT-39"/>
      </defs>
      <g transform="translate(53.6120108696 111.16828125)scale(0.08 -0.08)">
       <use xlink:href="#ArialMT-2212"/>
       <use x="58.3984375" xlink:href="#ArialMT-39"/>
       <use x="114.013671875" xlink:href="#ArialMT-30"/>
      </g>
     </g>
    </g>
    <g id="xtick_3">
     <g id="line2d_5">
      <g>
       <use style="stroke:#000000;stroke-width:0.75;" x="81.6252717391" xlink:href="#ma2a3bd7ed6" y="101.44203125"/>
      </g>
     </g>
     <g id="line2d_6">
      <g>
       <use style="stroke:#000000;stroke-width:0.75;" x="81.6252717391" xlink:href="#mafd779e6e7" y="15.04203125"/>
      </g>
     </g>
     <g id="text_3">
      <!-- 0 -->
      <g transform="translate(79.4008967391 111.16828125)scale(0.08 -0.08)">
       <use xlink:href="#ArialMT-30"/>
      </g>
     </g>
    </g>
    <g id="xtick_4">
     <g id="line2d_7">
      <g>
       <use style="stroke:#000000;stroke-width:0.75;" x="102.853532609" xlink:href="#ma2a3bd7ed6" y="101.44203125"/>
      </g>
     </g>
     <g id="line2d_8">
      <g>
       <use style="stroke:#000000;stroke-width:0.75;" x="102.853532609" xlink:href="#mafd779e6e7" y="15.04203125"/>
      </g>
     </g>
     <g id="text_4">
      <!-- 90 -->
      <g transform="translate(98.4047826087 111.16828125)scale(0.08 -0.08)">
       <use xlink:href="#ArialMT-39"/>
       <use x="55.615234375" xlink:href="#ArialMT-30"/>
      </g>
     </g>
    </g>
    <g id="xtick_5">
     <g id="line2d_9">
      <g>
       <use style="stroke:#000000;stroke-width:0.75;" x="124.081793478" xlink:href="#ma2a3bd7ed6" y="101.44203125"/>
      </g>
     </g>
     <g id="line2d_10">
      <g>
       <use style="stroke:#000000;stroke-width:0.75;" x="124.081793478" xlink:href="#mafd779e6e7" y="15.04203125"/>
      </g>
     </g>
     <g id="text_5">
      <!-- 180 -->
      <g transform="translate(117.408668478 111.16828125)scale(0.08 -0.08)">
       <use xlink:href="#ArialMT-31"/>
       <use x="55.615234375" xlink:href="#ArialMT-38"/>
       <use x="111.23046875" xlink:href="#ArialMT-30"/>
      </g>
     </g>
    </g>
    <g id="text_6">
     <!-- $\phi$ (deg) -->
     <defs>
      <path d="M 4.984375 -4.296875 
L 13.53125 -5.5625 
Q 14.0625 -9.515625 16.5 -11.328125 
Q 19.78125 -13.765625 25.4375 -13.765625 
Q 31.546875 -13.765625 34.859375 -11.328125 
Q 38.1875 -8.890625 39.359375 -4.5 
Q 40.046875 -1.8125 39.984375 6.78125 
Q 34.234375 0 25.640625 0 
Q 14.9375 0 9.078125 7.71875 
Q 3.21875 15.4375 3.21875 26.21875 
Q 3.21875 33.640625 5.90625 39.90625 
Q 8.59375 46.1875 13.6875 49.609375 
Q 18.796875 53.03125 25.6875 53.03125 
Q 34.859375 53.03125 40.828125 45.609375 
L 40.828125 51.859375 
L 48.921875 51.859375 
L 48.921875 7.03125 
Q 48.921875 -5.078125 46.453125 -10.125 
Q 44 -15.1875 38.640625 -18.109375 
Q 33.296875 -21.046875 25.484375 -21.046875 
Q 16.21875 -21.046875 10.5 -16.875 
Q 4.78125 -12.703125 4.984375 -4.296875 
M 12.25 26.859375 
Q 12.25 16.65625 16.296875 11.96875 
Q 20.359375 7.28125 26.46875 7.28125 
Q 32.515625 7.28125 36.609375 11.9375 
Q 40.71875 16.609375 40.71875 26.5625 
Q 40.71875 36.078125 36.5 40.90625 
Q 32.28125 45.75 26.3125 45.75 
Q 20.453125 45.75 16.34375 40.984375 
Q 12.25 36.234375 12.25 26.859375 
" id="ArialMT-67"/>
      <path d="M 42.09375 16.703125 
L 51.171875 15.578125 
Q 49.03125 7.625 43.21875 3.21875 
Q 37.40625 -1.171875 28.375 -1.171875 
Q 17 -1.171875 10.328125 5.828125 
Q 3.65625 12.84375 3.65625 25.484375 
Q 3.65625 38.578125 10.390625 45.796875 
Q 17.140625 53.03125 27.875 53.03125 
Q 38.28125 53.03125 44.875 45.953125 
Q 51.46875 38.875 51.46875 26.03125 
Q 51.46875 25.25 51.421875 23.6875 
L 12.75 23.6875 
Q 13.234375 15.140625 17.578125 10.59375 
Q 21.921875 6.0625 28.421875 6.0625 
Q 33.25 6.0625 36.671875 8.59375 
Q 40.09375 11.140625 42.09375 16.703125 
M 13.234375 30.90625 
L 42.1875 30.90625 
Q 41.609375 37.453125 38.875 40.71875 
Q 34.671875 45.796875 27.984375 45.796875 
Q 21.921875 45.796875 17.796875 41.75 
Q 13.671875 37.703125 13.234375 30.90625 
" id="ArialMT-65"/>
      <path d="M 40.234375 0 
L 40.234375 6.546875 
Q 35.296875 -1.171875 25.734375 -1.171875 
Q 19.53125 -1.171875 14.328125 2.25 
Q 9.125 5.671875 6.265625 11.796875 
Q 3.421875 17.921875 3.421875 25.875 
Q 3.421875 33.640625 6 39.96875 
Q 8.59375 46.296875 13.765625 49.65625 
Q 18.953125 53.03125 25.34375 53.03125 
Q 30.03125 53.03125 33.6875 51.046875 
Q 37.359375 49.078125 39.65625 45.90625 
L 39.65625 71.578125 
L 48.390625 71.578125 
L 48.390625 0 
z
M 12.453125 25.875 
Q 12.453125 15.921875 16.640625 10.984375 
Q 20.84375 6.0625 26.5625 6.0625 
Q 32.328125 6.0625 36.34375 10.765625 
Q 40.375 15.484375 40.375 25.140625 
Q 40.375 35.796875 36.265625 40.765625 
Q 32.171875 45.75 26.171875 45.75 
Q 20.3125 45.75 16.375 40.96875 
Q 12.453125 36.1875 12.453125 25.875 
" id="ArialMT-64"/>
      <path d="M 12.359375 -21.046875 
L 6.0625 -21.046875 
Q 20.65625 2.390625 20.65625 25.875 
Q 20.65625 35.0625 18.5625 44.09375 
Q 16.890625 51.421875 13.921875 58.15625 
Q 12.015625 62.546875 6.0625 72.796875 
L 12.359375 72.796875 
Q 21.53125 60.546875 25.921875 48.1875 
Q 29.6875 37.546875 29.6875 25.921875 
Q 29.6875 12.75 24.625 0.4375 
Q 19.578125 -11.859375 12.359375 -21.046875 
" id="ArialMT-29"/>
      <path d="M 23.390625 -21.046875 
Q 16.109375 -11.859375 11.078125 0.4375 
Q 6.0625 12.75 6.0625 25.921875 
Q 6.0625 37.546875 9.8125 48.1875 
Q 14.203125 60.546875 23.390625 72.796875 
L 29.6875 72.796875 
Q 23.78125 62.640625 21.875 58.296875 
Q 18.890625 51.5625 17.1875 44.234375 
Q 15.09375 35.109375 15.09375 25.875 
Q 15.09375 2.390625 29.6875 -21.046875 
z
" id="ArialMT-28"/>
      <path d="M 19.390625 -19.484375 
L 23.875 -1.421875 
Q 18.796875 -1.421875 14.40625 0.953125 
Q 10.015625 3.328125 7.34375 7.5625 
Q 4.6875 11.8125 4.6875 16.796875 
Q 4.6875 22.21875 7.375 27.140625 
Q 10.0625 32.078125 14.71875 36.109375 
Q 19.390625 40.140625 24.75 42.3125 
Q 30.125 44.484375 35.40625 44.484375 
L 41.40625 68.796875 
Q 41.609375 69.390625 42.1875 69.390625 
L 43.40625 69.390625 
Q 43.796875 69.390625 44.03125 69.046875 
Q 44.28125 68.703125 44.28125 68.40625 
L 38.28125 44.484375 
Q 42.046875 44.484375 45.5625 43.109375 
Q 49.078125 41.75 51.78125 39.28125 
Q 54.5 36.8125 56 33.46875 
Q 57.515625 30.125 57.515625 26.3125 
Q 57.515625 20.90625 54.828125 15.96875 
Q 52.15625 11.03125 47.609375 7.078125 
Q 43.0625 3.125 37.46875 0.84375 
Q 31.890625 -1.421875 26.8125 -1.421875 
L 22.21875 -19.921875 
Q 22.015625 -20.515625 21.390625 -20.515625 
L 20.21875 -20.515625 
Q 19.828125 -20.515625 19.609375 -20.140625 
Q 19.390625 -19.78125 19.390625 -19.484375 
M 24.515625 1.21875 
L 34.71875 41.890625 
Q 32.171875 41.890625 29.390625 40.859375 
Q 26.609375 39.84375 24.140625 38.28125 
Q 21.6875 36.71875 19.671875 34.71875 
Q 17.234375 32.28125 15.375 28.953125 
Q 13.53125 25.640625 12.578125 21.953125 
Q 11.625 18.265625 11.625 14.703125 
Q 11.625 10.9375 13.234375 7.859375 
Q 14.84375 4.78125 17.765625 3 
Q 20.703125 1.21875 24.515625 1.21875 
M 27.484375 1.21875 
Q 31.25 1.21875 35.5 3.359375 
Q 39.75 5.515625 42.484375 8.40625 
Q 46.234375 12.109375 48.40625 17.5 
Q 50.59375 22.90625 50.59375 28.421875 
Q 50.59375 32.125 48.96875 35.21875 
Q 47.359375 38.328125 44.421875 40.109375 
Q 41.5 41.890625 37.703125 41.890625 
z
" id="Cmmi10-c1"/>
      <path id="ArialMT-20"/>
     </defs>
     <g transform="translate(67.1802717391 124.32828125)scale(0.09 -0.09)">
      <use transform="translate(0.0 0.203125)" xlink:href="#Cmmi10-c1"/>
      <use transform="translate(59.521484375 0.203125)" xlink:href="#ArialMT-20"/>
      <use transform="translate(87.3046875 0.203125)" xlink:href="#ArialMT-28"/>
      <use transform="translate(120.60546875 0.203125)" xlink:href="#ArialMT-64"/>
      <use transform="translate(176.220703125 0.203125)" xlink:href="#ArialMT-65"/>
      <use transform="translate(231.8359375 0.203125)" xlink:href="#ArialMT-67"/>
      <use transform="translate(287.451171875 0.203125)" xlink:href="#ArialMT-29"/>
     </g>
    </g>
   </g>
   <g id="matplotlib.axis_2">
    <g id="ytick_1">
     <g id="line2d_11">
      <defs>
       <path d="M 0 0 
L 2 0 
" id="m2cd4057602" style="stroke:#000000;stroke-width:0.75;"/>
      </defs>
      <g>
       <use style="stroke:#000000;stroke-width:0.75;" x="39.16875" xlink:href="#m2cd4057602" y="101.44203125"/>
      </g>
     </g>
     <g id="line2d_12">
      <defs>
       <path d="M 0 0 
L -2 0 
" id="m4f78cbf53d" style="stroke:#000000;stroke-width:0.75;"/>
      </defs>
      <g>
       <use style="stroke:#000000;stroke-width:0.75;" x="124.081793478" xlink:href="#m4f78cbf53d" y="101.44203125"/>
      </g>
     </g>
     <g id="text_7">
      <!-- −180 -->
      <g transform="translate(17.15 103.51015625)scale(0.08 -0.08)">
       <use xlink:href="#ArialMT-2212"/>
       <use x="58.3984375" xlink:href="#ArialMT-31"/>
       <use x="114.013671875" xlink:href="#ArialMT-38"/>
       <use x="169.62890625" xlink:href="#ArialMT-30"/>
      </g>
     </g>
    </g>
    <g id="ytick_2">
     <g id="line2d_13">
      <g>
       <use style="stroke:#000000;stroke-width:0.75;" x="39.16875" xlink:href="#m2cd4057602" y="79.84203125"/>
      </g>
     </g>
     <g id="line2d_14">
      <g>
       <use style="stroke:#000000;stroke-width:0.75;" x="124.081793478" xlink:href="#m4f78cbf53d" y="79.84203125"/>
      </g>
     </g>
     <g id="text_8">
      <!-- −90 -->
      <g transform="translate(21.59875 81.91015625)scale(0.08 -0.08)">
       <use xlink:href="#ArialMT-2212"/>
       <use x="58.3984375" xlink:href="#ArialMT-39"/>
       <use x="114.013671875" xlink:href="#ArialMT-30"/>
      </g>
     </g>
    </g>
    <g id="ytick_3">
     <g id="line2d_15">
      <g>
       <use style="stroke:#000000;stroke-width:0.75;" x="39.16875" xlink:href="#m2cd4057602" y="58.24203125"/>
      </g>
     </g>
     <g id="line2d_16">
      <g>
       <use style="stroke:#000000;stroke-width:0.75;" x="124.081793478" xlink:href="#m4f78cbf53d" y="58.24203125"/>
      </g>
     </g>
     <g id="text_9">
      <!-- 0 -->
      <g transform="translate(30.72 60.31015625)scale(0.08 -0.08)">
       <use xlink:href="#ArialMT-30"/>
      </g>
     </g>
    </g>
    <g id="ytick_4">
     <g id="line2d_17">
      <g>
       <use style="stroke:#000000;stroke-width:0.75;" x="39.16875" xlink:href="#m2cd4057602" y="36.64203125"/>
      </g>
     </g>
     <g id="line2d_18">
      <g>
       <use style="stroke:#000000;stroke-width:0.75;" x="124.081793478" xlink:href="#m4f78cbf53d" y="36.64203125"/>
      </g>
     </g>
     <g id="text_10">
      <!-- 90 -->
      <g transform="translate(26.27125 38.71015625)scale(0.08 -0.08)">
       <use xlink:href="#ArialMT-39"/>
       <use x="55.615234375" xlink:href="#ArialMT-30"/>
      </g>
     </g>
    </g>
    <g id="ytick_5">
     <g id="line2d_19">
      <g>
       <use style="stroke:#000000;stroke-width:0.75;" x="39.16875" xlink:href="#m2cd4057602" y="15.04203125"/>
      </g>
     </g>
     <g id="line2d_20">
      <g>
       <use style="stroke:#000000;stroke-width:0.75;" x="124.081793478" xlink:href="#m4f78cbf53d" y="15.04203125"/>
      </g>
     </g>
     <g id="text_11">
      <!-- 180 -->
      <g transform="translate(21.8225 17.11015625)scale(0.08 -0.08)">
       <use xlink:href="#ArialMT-31"/>
       <use x="55.615234375" xlink:href="#ArialMT-38"/>
       <use x="111.23046875" xlink:href="#ArialMT-30"/>
      </g>
     </g>
    </g>
    <g id="text_12">
     <!-- $\psi$ (deg) -->
     <defs>
      <path d="M 23.78125 -19.484375 
L 28.515625 -0.875 
Q 24.171875 -0.875 20.09375 0.75 
Q 16.015625 2.390625 13.5 5.5625 
Q 10.984375 8.734375 10.984375 13.28125 
Q 10.984375 15.875 11.90625 19.1875 
Q 12.84375 22.515625 13.890625 25.296875 
Q 14.9375 28.078125 16.703125 32.625 
Q 18.015625 36.28125 18.015625 38.625 
Q 18.015625 41.609375 15.828125 41.609375 
Q 11.859375 41.609375 9.296875 37.53125 
Q 6.734375 33.453125 5.515625 28.421875 
Q 5.328125 27.78125 4.6875 27.78125 
L 3.515625 27.78125 
Q 2.6875 27.78125 2.6875 28.71875 
L 2.6875 29 
Q 4.296875 34.96875 7.609375 39.578125 
Q 10.9375 44.1875 16.015625 44.1875 
Q 19.578125 44.1875 22.046875 41.84375 
Q 24.515625 39.5 24.515625 35.890625 
Q 24.515625 34.03125 23.6875 31.984375 
Q 21.921875 27.4375 20.890625 24.75 
Q 19.875 22.078125 18.9375 18.671875 
Q 18.015625 15.28125 18.015625 12.59375 
Q 18.015625 7.71875 21.0625 5.03125 
Q 24.125 2.34375 29.109375 1.703125 
L 45.90625 68.796875 
Q 46.09375 69.390625 46.6875 69.390625 
L 47.90625 69.390625 
Q 48.6875 69.390625 48.6875 68.40625 
L 31.984375 1.515625 
L 33.109375 1.515625 
Q 37.3125 1.515625 41.96875 4 
Q 46.625 6.5 50.453125 10.546875 
Q 54.296875 14.59375 56.546875 19.25 
Q 58.796875 23.921875 58.796875 27.984375 
Q 58.796875 31 57.8125 32.6875 
Q 56.84375 34.375 55.28125 36.203125 
Q 53.71875 38.03125 53.71875 39.109375 
Q 53.71875 41.0625 55.328125 42.671875 
Q 56.9375 44.28125 58.890625 44.28125 
Q 61.28125 44.28125 62.328125 42.078125 
Q 63.375 39.890625 63.375 37.109375 
Q 63.375 34.1875 62.78125 31.25 
Q 62.203125 28.328125 61.1875 24.3125 
Q 58.890625 15.1875 51.609375 7.90625 
Q 49.125 5.421875 46.109375 3.34375 
Q 43.109375 1.265625 39.765625 0.0625 
Q 36.421875 -1.125 33.015625 -1.125 
L 31.390625 -1.125 
L 26.703125 -19.921875 
Q 26.515625 -20.515625 25.875 -20.515625 
L 24.703125 -20.515625 
Q 24.3125 -20.515625 24.046875 -20.1875 
Q 23.78125 -19.875 23.78125 -19.484375 
" id="Cmmi10-c3"/>
     </defs>
     <g transform="translate(10.17 72.95703125)rotate(-90.0)scale(0.09 -0.09)">
      <use transform="translate(0.0 0.203125)" xlink:href="#Cmmi10-c3"/>
      <use transform="translate(65.087890625 0.203125)" xlink:href="#ArialMT-20"/>
      <use transform="translate(92.87109375 0.203125)" xlink:href="#ArialMT-28"/>
      <use transform="translate(126.171875 0.203125)" xlink:href="#ArialMT-64"/>
      <use transform="translate(181.787109375 0.203125)" xlink:href="#ArialMT-65"/>
      <use transform="translate(237.40234375 0.203125)" xlink:href="#ArialMT-67"/>
      <use transform="translate(293.017578125 0.203125)" xlink:href="#ArialMT-29"/>
     </g>
    </g>
   </g>
   <g id="text_13">
    <!-- N=215,271 -->
    <defs>
     <path d="M 8.890625 0 
L 8.890625 10.015625 
L 18.890625 10.015625 
L 18.890625 0 
Q 18.890625 -5.515625 16.9375 -8.90625 
Q 14.984375 -12.3125 10.75 -14.15625 
L 8.296875 -10.40625 
Q 11.078125 -9.1875 12.390625 -6.8125 
Q 13.71875 -4.4375 13.875 0 
z
" id="ArialMT-2c"/>
     <path d="M 52.828125 42.09375 
L 5.5625 42.09375 
L 5.5625 50.296875 
L 52.828125 50.296875 
z
M 52.828125 20.359375 
L 5.5625 20.359375 
L 5.5625 28.5625 
L 52.828125 28.5625 
z
" id="ArialMT-3d"/>
     <path d="M 50.34375 8.453125 
L 50.34375 0 
L 3.03125 0 
Q 2.9375 3.171875 4.046875 6.109375 
Q 5.859375 10.9375 9.828125 15.625 
Q 13.8125 20.3125 21.34375 26.46875 
Q 33.015625 36.03125 37.109375 41.625 
Q 41.21875 47.21875 41.21875 52.203125 
Q 41.21875 57.421875 37.46875 61 
Q 33.734375 64.59375 27.734375 64.59375 
Q 21.390625 64.59375 17.578125 60.78125 
Q 13.765625 56.984375 13.71875 50.25 
L 4.6875 51.171875 
Q 5.609375 61.28125 11.65625 66.578125 
Q 17.71875 71.875 27.9375 71.875 
Q 38.234375 71.875 44.234375 66.15625 
Q 50.25 60.453125 50.25 52 
Q 50.25 47.703125 48.484375 43.546875 
Q 46.734375 39.40625 42.65625 34.8125 
Q 38.578125 30.21875 29.109375 22.21875 
Q 21.1875 15.578125 18.9375 13.203125 
Q 16.703125 10.84375 15.234375 8.453125 
z
" id="ArialMT-32"/>
     <path d="M 7.625 0 
L 7.625 71.578125 
L 17.328125 71.578125 
L 54.9375 15.375 
L 54.9375 71.578125 
L 64.015625 71.578125 
L 64.015625 0 
L 54.296875 0 
L 16.703125 56.25 
L 16.703125 0 
z
" id="ArialMT-4e"/>
     <path d="M 4.15625 18.75 
L 13.375 19.53125 
Q 14.40625 12.796875 18.140625 9.390625 
Q 21.875 6 27.15625 6 
Q 33.5 6 37.890625 10.78125 
Q 42.28125 15.578125 42.28125 23.484375 
Q 42.28125 31 38.0625 35.34375 
Q 33.84375 39.703125 27 39.703125 
Q 22.75 39.703125 19.328125 37.765625 
Q 15.921875 35.84375 13.96875 32.765625 
L 5.71875 33.84375 
L 12.640625 70.609375 
L 48.25 70.609375 
L 48.25 62.203125 
L 19.671875 62.203125 
L 15.828125 42.96875 
Q 22.265625 47.46875 29.34375 47.46875 
Q 38.71875 47.46875 45.15625 40.96875 
Q 51.609375 34.46875 51.609375 24.265625 
Q 51.609375 14.546875 45.953125 7.46875 
Q 39.0625 -1.21875 27.15625 -1.21875 
Q 17.390625 -1.21875 11.203125 4.25 
Q 5.03125 9.71875 4.15625 18.75 
" id="ArialMT-35"/>
     <path d="M 4.734375 62.203125 
L 4.734375 70.65625 
L 51.078125 70.65625 
L 51.078125 63.8125 
Q 44.234375 56.546875 37.515625 44.484375 
Q 30.8125 32.421875 27.15625 19.671875 
Q 24.515625 10.6875 23.78125 0 
L 14.75 0 
Q 14.890625 8.453125 18.0625 20.40625 
Q 21.234375 32.375 27.171875 43.484375 
Q 33.109375 54.59375 39.796875 62.203125 
z
" id="ArialMT-37"/>
    </defs>
    <g transform="translate(85.3917663043 99.18678125)scale(0.07 -0.07)">
     <use xlink:href="#ArialMT-4e"/>
     <use x="72.216796875" xlink:href="#ArialMT-3d"/>
     <use x="130.615234375" xlink:href="#ArialMT-32"/>
     <use x="186.23046875" xlink:href="#ArialMT-31"/>
     <use x="241.845703125" xlink:href="#ArialMT-35"/>
     <use x="297.4609375" xlink:href="#ArialMT-2c"/>
     <use x="325.244140625" xlink:href="#ArialMT-32"/>
     <use x="380.859375" xlink:href="#ArialMT-37"/>
     <use x="436.474609375" xlink:href="#ArialMT-31"/>
    </g>
   </g>
   <g id="text_14">
    <!-- 310-helix -->
    <defs>
     <path d="M 3.171875 21.484375 
L 3.171875 30.328125 
L 30.171875 30.328125 
L 30.171875 21.484375 
z
" id="ArialMT-2d"/>
     <path d="M 0.734375 0 
L 19.671875 26.953125 
L 2.15625 51.859375 
L 13.140625 51.859375 
L 21.09375 39.703125 
Q 23.34375 36.234375 24.703125 33.890625 
Q 26.859375 37.109375 28.65625 39.59375 
L 37.40625 51.859375 
L 47.90625 51.859375 
L 29.984375 27.4375 
L 49.265625 0 
L 38.484375 0 
L 27.828125 16.109375 
L 25 20.453125 
L 11.375 0 
z
" id="ArialMT-78"/>
     <path d="M 6.640625 61.46875 
L 6.640625 71.578125 
L 15.4375 71.578125 
L 15.4375 61.46875 
z
M 6.640625 0 
L 6.640625 51.859375 
L 15.4375 51.859375 
L 15.4375 0 
z
" id="ArialMT-69"/>
     <path d="M 6.59375 0 
L 6.59375 71.578125 
L 15.375 71.578125 
L 15.375 45.90625 
Q 21.53125 53.03125 30.90625 53.03125 
Q 36.671875 53.03125 40.921875 50.75 
Q 45.171875 48.484375 47 44.484375 
Q 48.828125 40.484375 48.828125 32.859375 
L 48.828125 0 
L 40.046875 0 
L 40.046875 32.859375 
Q 40.046875 39.453125 37.1875 42.453125 
Q 34.328125 45.453125 29.109375 45.453125 
Q 25.203125 45.453125 21.75 43.421875 
Q 18.3125 41.40625 16.84375 37.9375 
Q 15.375 34.46875 15.375 28.375 
L 15.375 0 
z
" id="ArialMT-68"/>
     <path d="M 6.390625 0 
L 6.390625 71.578125 
L 15.1875 71.578125 
L 15.1875 0 
z
" id="ArialMT-6c"/>
     <path d="M 4.203125 18.890625 
L 12.984375 20.0625 
Q 14.5 12.59375 18.140625 9.296875 
Q 21.78125 6 27 6 
Q 33.203125 6 37.46875 10.296875 
Q 41.75 14.59375 41.75 20.953125 
Q 41.75 27 37.796875 30.921875 
Q 33.84375 34.859375 27.734375 34.859375 
Q 25.25 34.859375 21.53125 33.890625 
L 22.515625 41.609375 
Q 23.390625 41.5 23.921875 41.5 
Q 29.546875 41.5 34.03125 44.421875 
Q 38.53125 47.359375 38.53125 53.46875 
Q 38.53125 58.296875 35.25 61.46875 
Q 31.984375 64.65625 26.8125 64.65625 
Q 21.6875 64.65625 18.265625 61.421875 
Q 14.84375 58.203125 13.875 51.765625 
L 5.078125 53.328125 
Q 6.6875 62.15625 12.390625 67.015625 
Q 18.109375 71.875 26.609375 71.875 
Q 32.46875 71.875 37.390625 69.359375 
Q 42.328125 66.84375 44.9375 62.5 
Q 47.5625 58.15625 47.5625 53.265625 
Q 47.5625 48.640625 45.0625 44.828125 
Q 42.578125 41.015625 37.703125 38.765625 
Q 44.046875 37.3125 47.5625 32.6875 
Q 51.078125 28.078125 51.078125 21.140625 
Q 51.078125 11.765625 44.234375 5.25 
Q 37.40625 -1.265625 26.953125 -1.265625 
Q 17.53125 -1.265625 11.296875 4.34375 
Q 5.078125 9.96875 4.203125 18.890625 
" id="ArialMT-33"/>
    </defs>
    <g transform="translate(63.3651154891 10.04203125)scale(0.09 -0.09)">
     <use xlink:href="#ArialMT-33"/>
     <use x="55.615234375" xlink:href="#ArialMT-31"/>
     <use x="111.23046875" xlink:href="#ArialMT-30"/>
     <use x="166.845703125" xlink:href="#ArialMT-2d"/>
     <use x="200.146484375" xlink:href="#ArialMT-68"/>
     <use x="255.76171875" xlink:href="#ArialMT-65"/>
     <use x="311.376953125" xlink:href="#ArialMT-6c"/>
     <use x="333.59375" xlink:href="#ArialMT-69"/>
     <use x="355.810546875" xlink:href="#ArialMT-78"/>
    </g>
   </g>
  </g>
  <g id="axes_2">
   <g id="patch_7">
    <path d="M 141.064402 101.442031 
L 225.977446 101.442031 
L 225.977446 15.042031 
L 141.064402 15.042031 
z
" style="fill:#ffffff;"/>
   </g>
   <g id="PathCollection_6">
    <path clip-path="url(#p4c2aabbf17)" d="M 167.730767 72.365054 
L 168.716263 71.842031 
L 169.003936 69.375365 
L 167.730767 67.966872 
L 165.902416 69.375365 
L 166.588324 71.842031 
z
" style="fill:#006428;"/>
   </g>
   <g id="PathCollection_7">
    <path clip-path="url(#p4c2aabbf17)" d="M 165.306552 72.317911 
L 167.730767 73.192486 
L 170.154982 71.909982 
L 170.216374 71.842031 
L 170.220022 69.375365 
L 170.154982 69.239817 
L 168.048385 66.908698 
L 167.730767 66.449538 
L 165.58719 66.908698 
L 165.306552 67.02236 
L 164.476816 69.375365 
L 164.359856 71.842031 
z
M 166.588324 71.842031 
L 165.902416 69.375365 
L 167.730767 67.966872 
L 169.003936 69.375365 
L 168.716263 71.842031 
L 167.730767 72.365054 
z
" style="fill:#2f974e;"/>
   </g>
   <g id="PathCollection_8">
    <path clip-path="url(#p4c2aabbf17)" d="M 162.882337 73.50078 
L 165.306552 73.954321 
L 167.730767 74.019919 
L 170.154982 72.790204 
L 171.011639 71.842031 
L 170.898085 69.375365 
L 170.154982 67.826694 
L 169.325402 66.908698 
L 167.730767 64.603435 
L 166.993637 64.442031 
L 165.306552 63.994237 
L 162.979486 61.975365 
L 162.882337 61.926363 
L 160.458122 61.150415 
L 159.628793 61.975365 
L 160.458122 63.273218 
L 161.606819 64.442031 
L 162.882337 65.506412 
L 163.577734 66.908698 
L 163.245933 69.375365 
L 162.882337 70.241218 
L 161.755311 71.842031 
z
M 164.359856 71.842031 
L 164.476816 69.375365 
L 165.306552 67.02236 
L 165.58719 66.908698 
L 167.730767 66.449538 
L 168.048385 66.908698 
L 170.154982 69.239817 
L 170.220022 69.375365 
L 170.216374 71.842031 
L 170.154982 71.909982 
L 167.730767 73.192486 
L 165.306552 72.317911 
z
" style="fill:#75c477;"/>
   </g>
   <g id="PathCollection_9">
    <path clip-path="url(#p4c2aabbf17)" d="M 162.882337 75.000943 
L 165.306552 75.137649 
L 167.730767 74.776313 
L 168.877579 74.308698 
L 170.154982 73.670427 
L 171.806905 71.842031 
L 171.576148 69.375365 
L 170.378363 66.908698 
L 170.154982 66.521452 
L 168.522555 64.442031 
L 167.730767 63.500918 
L 165.456954 61.975365 
L 165.306552 61.878182 
L 162.882337 60.625292 
L 161.244673 59.508698 
L 160.458122 58.894907 
L 158.033907 58.397263 
L 156.911375 59.508698 
L 157.349635 61.975365 
L 158.033907 62.92131 
L 159.212454 64.442031 
L 160.458122 66.299338 
L 161.143582 66.908698 
L 160.467758 69.375365 
L 160.458122 69.393899 
L 159.936562 71.842031 
L 160.458122 72.984543 
L 161.354268 74.308698 
z
M 161.755311 71.842031 
L 162.882337 70.241218 
L 163.245933 69.375365 
L 163.577734 66.908698 
L 162.882337 65.506412 
L 161.606819 64.442031 
L 160.458122 63.273218 
L 159.628793 61.975365 
L 160.458122 61.150415 
L 162.882337 61.926363 
L 162.979486 61.975365 
L 165.306552 63.994237 
L 166.993637 64.442031 
L 167.730767 64.603435 
L 169.325402 66.908698 
L 170.154982 67.826694 
L 170.898085 69.375365 
L 171.011639 71.842031 
L 170.154982 72.790204 
L 167.730767 74.019919 
L 165.306552 73.954321 
L 162.882337 73.50078 
z
" style="fill:#b8e3b2;"/>
   </g>
   <g id="PathCollection_10">
    <path clip-path="url(#p4c2aabbf17)" d="M 158.033907 74.963836 
L 160.458122 75.276915 
L 162.882337 75.944059 
L 165.306552 76.195738 
L 167.730767 75.494623 
L 170.154982 74.55734 
L 170.399345 74.308698 
L 172.579197 71.870752 
L 172.607424 71.842031 
L 172.579197 71.701813 
L 172.254211 69.375365 
L 171.015908 66.908698 
L 170.154982 65.416227 
L 169.3902 64.442031 
L 167.730767 62.469641 
L 166.994056 61.975365 
L 165.306552 60.884976 
L 163.107366 59.508698 
L 162.882337 59.400767 
L 160.458122 57.405807 
L 159.65965 57.042031 
L 158.033907 55.697557 
L 155.609692 56.542018 
L 155.4742 57.042031 
L 154.426791 59.508698 
L 155.609692 61.58414 
L 155.765569 61.975365 
L 157.460261 64.442031 
L 158.033907 65.190988 
L 159.197521 66.908698 
L 158.591775 69.375365 
L 158.532287 71.842031 
L 158.033907 72.934762 
L 157.02064 74.308698 
z
M 161.354268 74.308698 
L 160.458122 72.984543 
L 159.936562 71.842031 
L 160.458122 69.393899 
L 160.467758 69.375365 
L 161.143582 66.908698 
L 160.458122 66.299338 
L 159.212454 64.442031 
L 158.033907 62.92131 
L 157.349635 61.975365 
L 156.911375 59.508698 
L 158.033907 58.397263 
L 160.458122 58.894907 
L 161.244673 59.508698 
L 162.882337 60.625292 
L 165.306552 61.878182 
L 165.456954 61.975365 
L 167.730767 63.500918 
L 168.522555 64.442031 
L 170.154982 66.521452 
L 170.378363 66.908698 
L 171.576148 69.375365 
L 171.806905 71.842031 
L 170.154982 73.670427 
L 168.877579 74.308698 
L 167.730767 74.776313 
L 165.306552 75.137649 
L 162.882337 75.000943 
z
" style="fill:#e9f7e5;"/>
   </g>
   <g id="patch_8">
    <path d="M 141.064402 15.042031 
L 225.977446 15.042031 
" style="fill:none;stroke:#000000;stroke-linecap:square;stroke-linejoin:miter;stroke-width:0.5;"/>
   </g>
   <g id="patch_9">
    <path d="M 225.977446 101.442031 
L 225.977446 15.042031 
" style="fill:none;stroke:#000000;stroke-linecap:square;stroke-linejoin:miter;stroke-width:0.5;"/>
   </g>
   <g id="patch_10">
    <path d="M 141.064402 101.442031 
L 225.977446 101.442031 
" style="fill:none;stroke:#000000;stroke-linecap:square;stroke-linejoin:miter;stroke-width:0.5;"/>
   </g>
   <g id="patch_11">
    <path d="M 141.064402 101.442031 
L 141.064402 15.042031 
" style="fill:none;stroke:#000000;stroke-linecap:square;stroke-linejoin:miter;stroke-width:0.5;"/>
   </g>
   <g id="matplotlib.axis_3">
    <g id="xtick_6">
     <g id="line2d_21">
      <g>
       <use style="stroke:#000000;stroke-width:0.75;" x="141.064402174" xlink:href="#ma2a3bd7ed6" y="101.44203125"/>
      </g>
     </g>
     <g id="line2d_22">
      <g>
       <use style="stroke:#000000;stroke-width:0.75;" x="141.064402174" xlink:href="#mafd779e6e7" y="15.04203125"/>
      </g>
     </g>
     <g id="text_15">
      <!-- −180 -->
      <g transform="translate(132.055027174 111.16828125)scale(0.08 -0.08)">
       <use xlink:href="#ArialMT-2212"/>
       <use x="58.3984375" xlink:href="#ArialMT-31"/>
       <use x="114.013671875" xlink:href="#ArialMT-38"/>
       <use x="169.62890625" xlink:href="#ArialMT-30"/>
      </g>
     </g>
    </g>
    <g id="xtick_7">
     <g id="line2d_23">
      <g>
       <use style="stroke:#000000;stroke-width:0.75;" x="162.292663043" xlink:href="#ma2a3bd7ed6" y="101.44203125"/>
      </g>
     </g>
     <g id="line2d_24">
      <g>
       <use style="stroke:#000000;stroke-width:0.75;" x="162.292663043" xlink:href="#mafd779e6e7" y="15.04203125"/>
      </g>
     </g>
     <g id="text_16">
      <!-- −90 -->
      <g transform="translate(155.507663043 111.16828125)scale(0.08 -0.08)">
       <use xlink:href="#ArialMT-2212"/>
       <use x="58.3984375" xlink:href="#ArialMT-39"/>
       <use x="114.013671875" xlink:href="#ArialMT-30"/>
      </g>
     </g>
    </g>
    <g id="xtick_8">
     <g id="line2d_25">
      <g>
       <use style="stroke:#000000;stroke-width:0.75;" x="183.520923913" xlink:href="#ma2a3bd7ed6" y="101.44203125"/>
      </g>
     </g>
     <g id="line2d_26">
      <g>
       <use style="stroke:#000000;stroke-width:0.75;" x="183.520923913" xlink:href="#mafd779e6e7" y="15.04203125"/>
      </g>
     </g>
     <g id="text_17">
      <!-- 0 -->
      <g transform="translate(181.296548913 111.16828125)scale(0.08 -0.08)">
       <use xlink:href="#ArialMT-30"/>
      </g>
     </g>
    </g>
    <g id="xtick_9">
     <g id="line2d_27">
      <g>
       <use style="stroke:#000000;stroke-width:0.75;" x="204.749184783" xlink:href="#ma2a3bd7ed6" y="101.44203125"/>
      </g>
     </g>
     <g id="line2d_28">
      <g>
       <use style="stroke:#000000;stroke-width:0.75;" x="204.749184783" xlink:href="#mafd779e6e7" y="15.04203125"/>
      </g>
     </g>
     <g id="text_18">
      <!-- 90 -->
      <g transform="translate(200.300434783 111.16828125)scale(0.08 -0.08)">
       <use xlink:href="#ArialMT-39"/>
       <use x="55.615234375" xlink:href="#ArialMT-30"/>
      </g>
     </g>
    </g>
    <g id="xtick_10">
     <g id="line2d_29">
      <g>
       <use style="stroke:#000000;stroke-width:0.75;" x="225.977445652" xlink:href="#ma2a3bd7ed6" y="101.44203125"/>
      </g>
     </g>
     <g id="line2d_30">
      <g>
       <use style="stroke:#000000;stroke-width:0.75;" x="225.977445652" xlink:href="#mafd779e6e7" y="15.04203125"/>
      </g>
     </g>
     <g id="text_19">
      <!-- 180 -->
      <g transform="translate(219.304320652 111.16828125)scale(0.08 -0.08)">
       <use xlink:href="#ArialMT-31"/>
       <use x="55.615234375" xlink:href="#ArialMT-38"/>
       <use x="111.23046875" xlink:href="#ArialMT-30"/>
      </g>
     </g>
    </g>
    <g id="text_20">
     <!-- $\phi$ (deg) -->
     <g transform="translate(169.075923913 124.32828125)scale(0.09 -0.09)">
      <use transform="translate(0.0 0.203125)" xlink:href="#Cmmi10-c1"/>
      <use transform="translate(59.521484375 0.203125)" xlink:href="#ArialMT-20"/>
      <use transform="translate(87.3046875 0.203125)" xlink:href="#ArialMT-28"/>
      <use transform="translate(120.60546875 0.203125)" xlink:href="#ArialMT-64"/>
      <use transform="translate(176.220703125 0.203125)" xlink:href="#ArialMT-65"/>
      <use transform="translate(231.8359375 0.203125)" xlink:href="#ArialMT-67"/>
      <use transform="translate(287.451171875 0.203125)" xlink:href="#ArialMT-29"/>
     </g>
    </g>
   </g>
   <g id="matplotlib.axis_4">
    <g id="ytick_6">
     <g id="line2d_31">
      <g>
       <use style="stroke:#000000;stroke-width:0.75;" x="141.064402174" xlink:href="#m2cd4057602" y="101.44203125"/>
      </g>
     </g>
     <g id="line2d_32">
      <g>
       <use style="stroke:#000000;stroke-width:0.75;" x="225.977445652" xlink:href="#m4f78cbf53d" y="101.44203125"/>
      </g>
     </g>
    </g>
    <g id="ytick_7">
     <g id="line2d_33">
      <g>
       <use style="stroke:#000000;stroke-width:0.75;" x="141.064402174" xlink:href="#m2cd4057602" y="79.84203125"/>
      </g>
     </g>
     <g id="line2d_34">
      <g>
       <use style="stroke:#000000;stroke-width:0.75;" x="225.977445652" xlink:href="#m4f78cbf53d" y="79.84203125"/>
      </g>
     </g>
    </g>
    <g id="ytick_8">
     <g id="line2d_35">
      <g>
       <use style="stroke:#000000;stroke-width:0.75;" x="141.064402174" xlink:href="#m2cd4057602" y="58.24203125"/>
      </g>
     </g>
     <g id="line2d_36">
      <g>
       <use style="stroke:#000000;stroke-width:0.75;" x="225.977445652" xlink:href="#m4f78cbf53d" y="58.24203125"/>
      </g>
     </g>
    </g>
    <g id="ytick_9">
     <g id="line2d_37">
      <g>
       <use style="stroke:#000000;stroke-width:0.75;" x="141.064402174" xlink:href="#m2cd4057602" y="36.64203125"/>
      </g>
     </g>
     <g id="line2d_38">
      <g>
       <use style="stroke:#000000;stroke-width:0.75;" x="225.977445652" xlink:href="#m4f78cbf53d" y="36.64203125"/>
      </g>
     </g>
    </g>
    <g id="ytick_10">
     <g id="line2d_39">
      <g>
       <use style="stroke:#000000;stroke-width:0.75;" x="141.064402174" xlink:href="#m2cd4057602" y="15.04203125"/>
      </g>
     </g>
     <g id="line2d_40">
      <g>
       <use style="stroke:#000000;stroke-width:0.75;" x="225.977445652" xlink:href="#m4f78cbf53d" y="15.04203125"/>
      </g>
     </g>
    </g>
   </g>
   <g id="text_21">
    <!-- N=13,567 -->
    <defs>
     <path d="M 49.75 54.046875 
L 41.015625 53.375 
Q 39.84375 58.546875 37.703125 60.890625 
Q 34.125 64.65625 28.90625 64.65625 
Q 24.703125 64.65625 21.53125 62.3125 
Q 17.390625 59.28125 14.984375 53.46875 
Q 12.59375 47.65625 12.5 36.921875 
Q 15.671875 41.75 20.265625 44.09375 
Q 24.859375 46.4375 29.890625 46.4375 
Q 38.671875 46.4375 44.84375 39.96875 
Q 51.03125 33.5 51.03125 23.25 
Q 51.03125 16.5 48.125 10.71875 
Q 45.21875 4.9375 40.140625 1.859375 
Q 35.0625 -1.21875 28.609375 -1.21875 
Q 17.625 -1.21875 10.6875 6.859375 
Q 3.765625 14.9375 3.765625 33.5 
Q 3.765625 54.25 11.421875 63.671875 
Q 18.109375 71.875 29.4375 71.875 
Q 37.890625 71.875 43.28125 67.140625 
Q 48.6875 62.40625 49.75 54.046875 
M 13.875 23.1875 
Q 13.875 18.65625 15.796875 14.5 
Q 17.71875 10.359375 21.1875 8.171875 
Q 24.65625 6 28.46875 6 
Q 34.03125 6 38.03125 10.484375 
Q 42.046875 14.984375 42.046875 22.703125 
Q 42.046875 30.125 38.078125 34.390625 
Q 34.125 38.671875 28.125 38.671875 
Q 22.171875 38.671875 18.015625 34.390625 
Q 13.875 30.125 13.875 23.1875 
" id="ArialMT-36"/>
    </defs>
    <g transform="translate(191.180074728 99.18678125)scale(0.07 -0.07)">
     <use xlink:href="#ArialMT-4e"/>
     <use x="72.216796875" xlink:href="#ArialMT-3d"/>
     <use x="130.615234375" xlink:href="#ArialMT-31"/>
     <use x="186.23046875" xlink:href="#ArialMT-33"/>
     <use x="241.845703125" xlink:href="#ArialMT-2c"/>
     <use x="269.62890625" xlink:href="#ArialMT-35"/>
     <use x="325.244140625" xlink:href="#ArialMT-36"/>
     <use x="380.859375" xlink:href="#ArialMT-37"/>
    </g>
   </g>
   <g id="text_22">
    <!-- $\pi$-helix -->
    <defs>
     <path d="M 10.109375 1.703125 
Q 10.109375 2.25 10.5 3.328125 
Q 13.28125 9.125 15.6875 14.71875 
Q 18.109375 20.3125 20.03125 25.609375 
Q 21.96875 30.90625 23.578125 36.921875 
L 17.1875 36.921875 
Q 13.53125 36.921875 10.34375 34.625 
Q 7.171875 32.328125 5.078125 28.8125 
Q 4.890625 28.421875 4.5 28.421875 
L 3.328125 28.421875 
Q 2.390625 28.421875 2.390625 29.390625 
Q 2.390625 29.59375 2.59375 29.984375 
Q 5.859375 35.546875 9.59375 39.328125 
Q 13.328125 43.109375 18.015625 43.109375 
L 54.296875 43.109375 
Q 55.328125 43.109375 56.046875 42.421875 
Q 56.78125 41.75 56.78125 40.578125 
Q 56.78125 39.109375 55.734375 38.015625 
Q 54.6875 36.921875 53.21875 36.921875 
L 40.484375 36.921875 
Q 38.875 29.046875 38.71875 21.578125 
Q 38.71875 11.96875 42.09375 4.203125 
Q 42.390625 3.609375 42.390625 2.984375 
Q 42.390625 1.90625 41.75 0.96875 
Q 41.109375 0.046875 40.109375 -0.53125 
Q 39.109375 -1.125 37.984375 -1.125 
Q 35.359375 -1.125 34.375 3.171875 
Q 33.40625 7.46875 33.40625 11.53125 
Q 33.40625 17.234375 34.375 22.53125 
Q 35.359375 27.828125 37.5 36.921875 
L 26.609375 36.921875 
Q 18.703125 4.890625 17.09375 1.609375 
Q 15.671875 -1.125 13.1875 -1.125 
Q 11.96875 -1.125 11.03125 -0.3125 
Q 10.109375 0.484375 10.109375 1.703125 
" id="Cmmi10-bc"/>
    </defs>
    <g transform="translate(170.200923913 10.04203125)scale(0.09 -0.09)">
     <use transform="translate(0.0 0.421875)" xlink:href="#Cmmi10-bc"/>
     <use transform="translate(56.982421875 0.421875)" xlink:href="#ArialMT-2d"/>
     <use transform="translate(90.283203125 0.421875)" xlink:href="#ArialMT-68"/>
     <use transform="translate(145.8984375 0.421875)" xlink:href="#ArialMT-65"/>
     <use transform="translate(201.513671875 0.421875)" xlink:href="#ArialMT-6c"/>
     <use transform="translate(223.73046875 0.421875)" xlink:href="#ArialMT-69"/>
     <use transform="translate(245.947265625 0.421875)" xlink:href="#ArialMT-78"/>
    </g>
   </g>
  </g>
  <g id="axes_3">
   <g id="patch_12">
    <path d="M 242.960054 101.442031 
L 327.873098 101.442031 
L 327.873098 15.042031 
L 242.960054 15.042031 
z
" style="fill:#ffffff;"/>
   </g>
   <g id="PathCollection_11">
    <path clip-path="url(#p3930726b30)" d="M 257.505344 32.583379 
L 259.706463 32.375365 
L 259.929559 32.336895 
L 262.353774 30.635691 
L 263.241736 29.908698 
L 262.947113 27.442031 
L 262.353774 27.178503 
L 259.929559 25.618545 
L 258.85302 24.975365 
L 257.505344 24.120358 
L 255.649706 22.508698 
L 255.081129 22.108117 
L 252.656914 21.034432 
L 250.232699 22.236309 
L 250.003755 22.508698 
L 250.232699 23.547207 
L 250.492051 24.975365 
L 251.115999 27.442031 
L 252.424557 29.908698 
L 252.656914 30.182703 
L 255.081129 31.913501 
L 256.643627 32.375365 
z
" style="fill:#084a91;"/>
   </g>
   <g id="PathCollection_12">
    <path clip-path="url(#p3930726b30)" d="M 252.656914 32.501907 
L 255.081129 33.999165 
L 257.505344 34.624492 
L 259.929559 34.446798 
L 262.353774 33.764556 
L 264.306456 32.375365 
L 264.777989 31.966631 
L 267.100046 29.908698 
L 267.202204 29.784113 
L 269.626419 27.765891 
L 269.933945 27.442031 
L 269.943599 24.975365 
L 269.626419 24.359769 
L 267.202204 23.205834 
L 264.777989 23.915979 
L 262.353774 23.612733 
L 259.929559 22.576766 
L 259.831508 22.508698 
L 257.505344 21.250943 
L 255.922771 20.042031 
L 255.081129 19.580297 
L 252.656914 18.772528 
L 250.232699 18.795986 
L 247.808484 18.885689 
L 246.351993 20.042031 
L 246.707382 22.508698 
L 247.619088 24.975365 
L 247.808484 25.461265 
L 248.843764 27.442031 
L 250.232699 29.562692 
L 250.444469 29.908698 
L 252.521381 32.375365 
z
M 256.643627 32.375365 
L 255.081129 31.913501 
L 252.656914 30.182703 
L 252.424557 29.908698 
L 251.115999 27.442031 
L 250.492051 24.975365 
L 250.232699 23.547207 
L 250.003755 22.508698 
L 250.232699 22.236309 
L 252.656914 21.034432 
L 255.081129 22.108117 
L 255.649706 22.508698 
L 257.505344 24.120358 
L 258.85302 24.975365 
L 259.929559 25.618545 
L 262.353774 27.178503 
L 262.947113 27.442031 
L 263.241736 29.908698 
L 262.353774 30.635691 
L 259.929559 32.336895 
L 259.706463 32.375365 
L 257.505344 32.583379 
z
" style="fill:#2e7ebc;"/>
   </g>
   <g id="PathCollection_13">
    <path clip-path="url(#p3930726b30)" d="M 255.081129 36.343744 
L 257.505344 36.535258 
L 259.929559 36.141955 
L 262.353774 36.046919 
L 264.568246 34.842031 
L 264.777989 34.698434 
L 266.517355 32.375365 
L 267.202204 31.734719 
L 269.520334 29.908698 
L 269.626419 29.817627 
L 271.882205 27.442031 
L 271.360134 24.975365 
L 269.976703 22.508698 
L 269.626419 21.948079 
L 267.315131 20.042031 
L 267.202204 19.938832 
L 266.622084 20.042031 
L 264.777989 20.576573 
L 262.353774 20.885632 
L 259.929559 20.409235 
L 259.291366 20.042031 
L 257.505344 19.151447 
L 255.081129 17.916154 
L 254.101345 17.575365 
L 252.656914 17.413378 
L 250.232699 17.377885 
L 247.808484 17.339252 
L 246.260104 17.575365 
L 245.384269 18.204991 
L 244.58842 20.042031 
L 245.103223 22.508698 
L 245.384269 23.534341 
L 246.038873 24.975365 
L 247.068055 27.442031 
L 247.808484 28.936509 
L 248.466456 29.908698 
L 250.232699 32.296877 
L 250.297957 32.375365 
L 252.656914 34.577827 
L 253.095095 34.842031 
z
M 252.521381 32.375365 
L 250.444469 29.908698 
L 250.232699 29.562692 
L 248.843764 27.442031 
L 247.808484 25.461265 
L 247.619088 24.975365 
L 246.707382 22.508698 
L 246.351993 20.042031 
L 247.808484 18.885689 
L 250.232699 18.795986 
L 252.656914 18.772528 
L 255.081129 19.580297 
L 255.922771 20.042031 
L 257.505344 21.250943 
L 259.831508 22.508698 
L 259.929559 22.576766 
L 262.353774 23.612733 
L 264.777989 23.915979 
L 267.202204 23.205834 
L 269.626419 24.359769 
L 269.943599 24.975365 
L 269.933945 27.442031 
L 269.626419 27.765891 
L 267.202204 29.784113 
L 267.100046 29.908698 
L 264.777989 31.966631 
L 264.306456 32.375365 
L 262.353774 33.764556 
L 259.929559 34.446798 
L 257.505344 34.624492 
L 255.081129 33.999165 
L 252.656914 32.501907 
z
" style="fill:#6caed6;"/>
   </g>
   <g id="PathCollection_14">
    <path clip-path="url(#p3930726b30)" d="M 247.808484 101.442031 
L 250.232699 101.442031 
L 252.656914 101.442031 
L 253.495857 101.442031 
L 252.656914 101.119807 
L 250.232699 100.421241 
L 247.808484 100.062302 
L 245.633574 101.442031 
z
" style="fill:#b7d4ea;"/>
    <path clip-path="url(#p3930726b30)" d="M 262.353774 101.442031 
L 264.777989 101.442031 
L 266.432964 101.442031 
L 264.777989 100.315144 
L 262.353774 100.69869 
L 260.83836 101.442031 
z
" style="fill:#b7d4ea;"/>
    <path clip-path="url(#p3930726b30)" d="M 252.656914 37.596529 
L 255.081129 39.257233 
L 257.505344 38.09653 
L 259.929559 37.700109 
L 262.353774 38.352924 
L 264.777989 37.844179 
L 264.830298 37.308698 
L 266.217508 34.842031 
L 267.202204 33.620214 
L 268.063015 32.375365 
L 269.626419 31.00314 
L 271.52165 29.908698 
L 272.050634 29.351268 
L 272.848329 27.442031 
L 272.36516 24.975365 
L 272.050634 24.101562 
L 271.048879 22.508698 
L 269.626419 20.232095 
L 269.395946 20.042031 
L 267.202204 18.037255 
L 264.777989 17.765242 
L 262.353774 18.574098 
L 259.929559 18.371589 
L 258.183785 17.575365 
L 257.505344 17.473352 
L 255.081129 17.143817 
L 252.656914 16.87682 
L 250.232699 16.829987 
L 247.808484 16.731917 
L 245.384269 17.145771 
L 244.048642 17.575365 
L 243.348023 20.042031 
L 244.150008 22.508698 
L 244.785672 24.975365 
L 245.384269 26.905077 
L 245.620246 27.442031 
L 246.941297 29.908698 
L 247.808484 31.929649 
L 248.12766 32.375365 
L 250.206685 34.842031 
L 250.232699 34.869613 
L 252.466935 37.308698 
z
M 253.095095 34.842031 
L 252.656914 34.577827 
L 250.297957 32.375365 
L 250.232699 32.296877 
L 248.466456 29.908698 
L 247.808484 28.936509 
L 247.068055 27.442031 
L 246.038873 24.975365 
L 245.384269 23.534341 
L 245.103223 22.508698 
L 244.58842 20.042031 
L 245.384269 18.204991 
L 246.260104 17.575365 
L 247.808484 17.339252 
L 250.232699 17.377885 
L 252.656914 17.413378 
L 254.101345 17.575365 
L 255.081129 17.916154 
L 257.505344 19.151447 
L 259.291366 20.042031 
L 259.929559 20.409235 
L 262.353774 20.885632 
L 264.777989 20.576573 
L 266.622084 20.042031 
L 267.202204 19.938832 
L 267.315131 20.042031 
L 269.626419 21.948079 
L 269.976703 22.508698 
L 271.360134 24.975365 
L 271.882205 27.442031 
L 269.626419 29.817627 
L 269.520334 29.908698 
L 267.202204 31.734719 
L 266.517355 32.375365 
L 264.777989 34.698434 
L 264.568246 34.842031 
L 262.353774 36.046919 
L 259.929559 36.141955 
L 257.505344 36.535258 
L 255.081129 36.343744 
z
" style="fill:#b7d4ea;"/>
   </g>
   <g id="PathCollection_15">
    <path clip-path="url(#p3930726b30)" d="M 245.384269 101.442031 
L 245.633574 101.442031 
L 247.808484 100.062302 
L 250.232699 100.421241 
L 252.656914 101.119807 
L 253.495857 101.442031 
L 255.081129 101.442031 
L 257.505344 101.442031 
L 259.929559 101.442031 
L 260.83836 101.442031 
L 262.353774 100.69869 
L 264.777989 100.315144 
L 266.432964 101.442031 
L 267.202204 101.442031 
L 267.649167 101.442031 
L 267.202204 100.765504 
L 264.777989 99.170033 
L 262.353774 98.996658 
L 259.929559 99.926038 
L 257.505344 100.057184 
L 255.081129 99.51813 
L 253.466897 98.975365 
L 252.656914 98.660747 
L 250.232699 97.828667 
L 247.808484 97.602838 
L 246.315188 98.975365 
L 245.384269 99.625083 
L 243.867296 101.442031 
z
" style="fill:#e3eef9;"/>
    <path clip-path="url(#p3930726b30)" d="M 264.777989 46.218498 
L 265.50692 44.708698 
L 265.726779 42.242031 
L 265.769644 39.775365 
L 266.190887 37.308698 
L 267.202204 35.635519 
L 267.520871 34.842031 
L 269.367854 32.375365 
L 269.626419 32.148418 
L 272.050634 30.51244 
L 273.018324 29.908698 
L 273.721511 27.442031 
L 272.978818 24.975365 
L 272.087199 22.508698 
L 272.050634 22.435301 
L 270.337671 20.042031 
L 269.626419 18.952561 
L 268.177853 17.575365 
L 267.202204 17.18853 
L 264.777989 16.979195 
L 262.353774 17.220025 
L 259.929559 17.221237 
L 257.505344 16.809122 
L 255.081129 16.601139 
L 252.656914 16.340261 
L 250.232699 16.282089 
L 247.808484 16.124581 
L 245.384269 16.595078 
L 242.960054 17.372797 
L 242.960054 17.575365 
L 242.960054 20.042031 
L 242.960054 21.853901 
L 243.196793 22.508698 
L 243.763739 24.975365 
L 244.267814 27.442031 
L 245.384269 29.436513 
L 245.64178 29.908698 
L 246.614515 32.375365 
L 247.477063 34.842031 
L 247.808484 35.700004 
L 249.31683 37.308698 
L 250.232699 38.783904 
L 250.837859 39.775365 
L 252.204062 42.242031 
L 252.656914 42.832915 
L 254.12651 42.242031 
L 255.081129 41.966413 
L 256.926282 39.775365 
L 257.505344 39.427553 
L 259.929559 39.13945 
L 261.140819 39.775365 
L 262.353774 42.21035 
L 262.369536 42.242031 
L 263.383108 44.708698 
z
M 252.466935 37.308698 
L 250.232699 34.869613 
L 250.206685 34.842031 
L 248.12766 32.375365 
L 247.808484 31.929649 
L 246.941297 29.908698 
L 245.620246 27.442031 
L 245.384269 26.905077 
L 244.785672 24.975365 
L 244.150008 22.508698 
L 243.348023 20.042031 
L 244.048642 17.575365 
L 245.384269 17.145771 
L 247.808484 16.731917 
L 250.232699 16.829987 
L 252.656914 16.87682 
L 255.081129 17.143817 
L 257.505344 17.473352 
L 258.183785 17.575365 
L 259.929559 18.371589 
L 262.353774 18.574098 
L 264.777989 17.765242 
L 267.202204 18.037255 
L 269.395946 20.042031 
L 269.626419 20.232095 
L 271.048879 22.508698 
L 272.050634 24.101562 
L 272.36516 24.975365 
L 272.848329 27.442031 
L 272.050634 29.351268 
L 271.52165 29.908698 
L 269.626419 31.00314 
L 268.063015 32.375365 
L 267.202204 33.620214 
L 266.217508 34.842031 
L 264.830298 37.308698 
L 264.777989 37.844179 
L 262.353774 38.352924 
L 259.929559 37.700109 
L 257.505344 38.09653 
L 255.081129 39.257233 
L 252.656914 37.596529 
z
" style="fill:#e3eef9;"/>
   </g>
   <g id="patch_13">
    <path d="M 242.960054 15.042031 
L 327.873098 15.042031 
" style="fill:none;stroke:#000000;stroke-linecap:square;stroke-linejoin:miter;stroke-width:0.5;"/>
   </g>
   <g id="patch_14">
    <path d="M 327.873098 101.442031 
L 327.873098 15.042031 
" style="fill:none;stroke:#000000;stroke-linecap:square;stroke-linejoin:miter;stroke-width:0.5;"/>
   </g>
   <g id="patch_15">
    <path d="M 242.960054 101.442031 
L 327.873098 101.442031 
" style="fill:none;stroke:#000000;stroke-linecap:square;stroke-linejoin:miter;stroke-width:0.5;"/>
   </g>
   <g id="patch_16">
    <path d="M 242.960054 101.442031 
L 242.960054 15.042031 
" style="fill:none;stroke:#000000;stroke-linecap:square;stroke-linejoin:miter;stroke-width:0.5;"/>
   </g>
   <g id="matplotlib.axis_5">
    <g id="xtick_11">
     <g id="line2d_41">
      <g>
       <use style="stroke:#000000;stroke-width:0.75;" x="242.960054348" xlink:href="#ma2a3bd7ed6" y="101.44203125"/>
      </g>
     </g>
     <g id="line2d_42">
      <g>
       <use style="stroke:#000000;stroke-width:0.75;" x="242.960054348" xlink:href="#mafd779e6e7" y="15.04203125"/>
      </g>
     </g>
     <g id="text_23">
      <!-- −180 -->
      <g transform="translate(233.950679348 111.16828125)scale(0.08 -0.08)">
       <use xlink:href="#ArialMT-2212"/>
       <use x="58.3984375" xlink:href="#ArialMT-31"/>
       <use x="114.013671875" xlink:href="#ArialMT-38"/>
       <use x="169.62890625" xlink:href="#ArialMT-30"/>
      </g>
     </g>
    </g>
    <g id="xtick_12">
     <g id="line2d_43">
      <g>
       <use style="stroke:#000000;stroke-width:0.75;" x="264.188315217" xlink:href="#ma2a3bd7ed6" y="101.44203125"/>
      </g>
     </g>
     <g id="line2d_44">
      <g>
       <use style="stroke:#000000;stroke-width:0.75;" x="264.188315217" xlink:href="#mafd779e6e7" y="15.04203125"/>
      </g>
     </g>
     <g id="text_24">
      <!-- −90 -->
      <g transform="translate(257.403315217 111.16828125)scale(0.08 -0.08)">
       <use xlink:href="#ArialMT-2212"/>
       <use x="58.3984375" xlink:href="#ArialMT-39"/>
       <use x="114.013671875" xlink:href="#ArialMT-30"/>
      </g>
     </g>
    </g>
    <g id="xtick_13">
     <g id="line2d_45">
      <g>
       <use style="stroke:#000000;stroke-width:0.75;" x="285.416576087" xlink:href="#ma2a3bd7ed6" y="101.44203125"/>
      </g>
     </g>
     <g id="line2d_46">
      <g>
       <use style="stroke:#000000;stroke-width:0.75;" x="285.416576087" xlink:href="#mafd779e6e7" y="15.04203125"/>
      </g>
     </g>
     <g id="text_25">
      <!-- 0 -->
      <g transform="translate(283.192201087 111.16828125)scale(0.08 -0.08)">
       <use xlink:href="#ArialMT-30"/>
      </g>
     </g>
    </g>
    <g id="xtick_14">
     <g id="line2d_47">
      <g>
       <use style="stroke:#000000;stroke-width:0.75;" x="306.644836957" xlink:href="#ma2a3bd7ed6" y="101.44203125"/>
      </g>
     </g>
     <g id="line2d_48">
      <g>
       <use style="stroke:#000000;stroke-width:0.75;" x="306.644836957" xlink:href="#mafd779e6e7" y="15.04203125"/>
      </g>
     </g>
     <g id="text_26">
      <!-- 90 -->
      <g transform="translate(302.196086957 111.16828125)scale(0.08 -0.08)">
       <use xlink:href="#ArialMT-39"/>
       <use x="55.615234375" xlink:href="#ArialMT-30"/>
      </g>
     </g>
    </g>
    <g id="xtick_15">
     <g id="line2d_49">
      <g>
       <use style="stroke:#000000;stroke-width:0.75;" x="327.873097826" xlink:href="#ma2a3bd7ed6" y="101.44203125"/>
      </g>
     </g>
     <g id="line2d_50">
      <g>
       <use style="stroke:#000000;stroke-width:0.75;" x="327.873097826" xlink:href="#mafd779e6e7" y="15.04203125"/>
      </g>
     </g>
     <g id="text_27">
      <!-- 180 -->
      <g transform="translate(321.199972826 111.16828125)scale(0.08 -0.08)">
       <use xlink:href="#ArialMT-31"/>
       <use x="55.615234375" xlink:href="#ArialMT-38"/>
       <use x="111.23046875" xlink:href="#ArialMT-30"/>
      </g>
     </g>
    </g>
    <g id="text_28">
     <!-- $\phi$ (deg) -->
     <g transform="translate(270.971576087 124.32828125)scale(0.09 -0.09)">
      <use transform="translate(0.0 0.203125)" xlink:href="#Cmmi10-c1"/>
      <use transform="translate(59.521484375 0.203125)" xlink:href="#ArialMT-20"/>
      <use transform="translate(87.3046875 0.203125)" xlink:href="#ArialMT-28"/>
      <use transform="translate(120.60546875 0.203125)" xlink:href="#ArialMT-64"/>
      <use transform="translate(176.220703125 0.203125)" xlink:href="#ArialMT-65"/>
      <use transform="translate(231.8359375 0.203125)" xlink:href="#ArialMT-67"/>
      <use transform="translate(287.451171875 0.203125)" xlink:href="#ArialMT-29"/>
     </g>
    </g>
   </g>
   <g id="matplotlib.axis_6">
    <g id="ytick_11">
     <g id="line2d_51">
      <g>
       <use style="stroke:#000000;stroke-width:0.75;" x="242.960054348" xlink:href="#m2cd4057602" y="101.44203125"/>
      </g>
     </g>
     <g id="line2d_52">
      <g>
       <use style="stroke:#000000;stroke-width:0.75;" x="327.873097826" xlink:href="#m4f78cbf53d" y="101.44203125"/>
      </g>
     </g>
    </g>
    <g id="ytick_12">
     <g id="line2d_53">
      <g>
       <use style="stroke:#000000;stroke-width:0.75;" x="242.960054348" xlink:href="#m2cd4057602" y="79.84203125"/>
      </g>
     </g>
     <g id="line2d_54">
      <g>
       <use style="stroke:#000000;stroke-width:0.75;" x="327.873097826" xlink:href="#m4f78cbf53d" y="79.84203125"/>
      </g>
     </g>
    </g>
    <g id="ytick_13">
     <g id="line2d_55">
      <g>
       <use style="stroke:#000000;stroke-width:0.75;" x="242.960054348" xlink:href="#m2cd4057602" y="58.24203125"/>
      </g>
     </g>
     <g id="line2d_56">
      <g>
       <use style="stroke:#000000;stroke-width:0.75;" x="327.873097826" xlink:href="#m4f78cbf53d" y="58.24203125"/>
      </g>
     </g>
    </g>
    <g id="ytick_14">
     <g id="line2d_57">
      <g>
       <use style="stroke:#000000;stroke-width:0.75;" x="242.960054348" xlink:href="#m2cd4057602" y="36.64203125"/>
      </g>
     </g>
     <g id="line2d_58">
      <g>
       <use style="stroke:#000000;stroke-width:0.75;" x="327.873097826" xlink:href="#m4f78cbf53d" y="36.64203125"/>
      </g>
     </g>
    </g>
    <g id="ytick_15">
     <g id="line2d_59">
      <g>
       <use style="stroke:#000000;stroke-width:0.75;" x="242.960054348" xlink:href="#m2cd4057602" y="15.04203125"/>
      </g>
     </g>
     <g id="line2d_60">
      <g>
       <use style="stroke:#000000;stroke-width:0.75;" x="327.873097826" xlink:href="#m4f78cbf53d" y="15.04203125"/>
      </g>
     </g>
    </g>
   </g>
   <g id="text_29">
    <!-- N=843,320 -->
    <defs>
     <path d="M 32.328125 0 
L 32.328125 17.140625 
L 1.265625 17.140625 
L 1.265625 25.203125 
L 33.9375 71.578125 
L 41.109375 71.578125 
L 41.109375 25.203125 
L 50.78125 25.203125 
L 50.78125 17.140625 
L 41.109375 17.140625 
L 41.109375 0 
z
M 32.328125 25.203125 
L 32.328125 57.46875 
L 9.90625 25.203125 
z
" id="ArialMT-34"/>
    </defs>
    <g transform="translate(289.183070652 99.18678125)scale(0.07 -0.07)">
     <use xlink:href="#ArialMT-4e"/>
     <use x="72.216796875" xlink:href="#ArialMT-3d"/>
     <use x="130.615234375" xlink:href="#ArialMT-38"/>
     <use x="186.23046875" xlink:href="#ArialMT-34"/>
     <use x="241.845703125" xlink:href="#ArialMT-33"/>
     <use x="297.4609375" xlink:href="#ArialMT-2c"/>
     <use x="325.244140625" xlink:href="#ArialMT-33"/>
     <use x="380.859375" xlink:href="#ArialMT-32"/>
     <use x="436.474609375" xlink:href="#ArialMT-30"/>
    </g>
   </g>
   <g id="text_30">
    <!-- sheet -->
    <defs>
     <path d="M 25.78125 7.859375 
L 27.046875 0.09375 
Q 23.34375 -0.6875 20.40625 -0.6875 
Q 15.625 -0.6875 12.984375 0.828125 
Q 10.359375 2.34375 9.28125 4.8125 
Q 8.203125 7.28125 8.203125 15.1875 
L 8.203125 45.015625 
L 1.765625 45.015625 
L 1.765625 51.859375 
L 8.203125 51.859375 
L 8.203125 64.703125 
L 16.9375 69.96875 
L 16.9375 51.859375 
L 25.78125 51.859375 
L 25.78125 45.015625 
L 16.9375 45.015625 
L 16.9375 14.703125 
Q 16.9375 10.9375 17.40625 9.859375 
Q 17.875 8.796875 18.921875 8.15625 
Q 19.96875 7.515625 21.921875 7.515625 
Q 23.390625 7.515625 25.78125 7.859375 
" id="ArialMT-74"/>
     <path d="M 3.078125 15.484375 
L 11.765625 16.84375 
Q 12.5 11.625 15.84375 8.84375 
Q 19.1875 6.0625 25.203125 6.0625 
Q 31.25 6.0625 34.171875 8.515625 
Q 37.109375 10.984375 37.109375 14.3125 
Q 37.109375 17.28125 34.515625 19 
Q 32.71875 20.171875 25.53125 21.96875 
Q 15.875 24.421875 12.140625 26.203125 
Q 8.40625 27.984375 6.46875 31.125 
Q 4.546875 34.28125 4.546875 38.09375 
Q 4.546875 41.546875 6.125 44.5 
Q 7.71875 47.46875 10.453125 49.421875 
Q 12.5 50.921875 16.03125 51.96875 
Q 19.578125 53.03125 23.640625 53.03125 
Q 29.734375 53.03125 34.34375 51.265625 
Q 38.96875 49.515625 41.15625 46.5 
Q 43.359375 43.5 44.1875 38.484375 
L 35.59375 37.3125 
Q 35.015625 41.3125 32.203125 43.546875 
Q 29.390625 45.796875 24.265625 45.796875 
Q 18.21875 45.796875 15.625 43.796875 
Q 13.03125 41.796875 13.03125 39.109375 
Q 13.03125 37.40625 14.109375 36.03125 
Q 15.1875 34.625 17.484375 33.6875 
Q 18.796875 33.203125 25.25 31.453125 
Q 34.578125 28.953125 38.25 27.359375 
Q 41.9375 25.78125 44.03125 22.75 
Q 46.140625 19.734375 46.140625 15.234375 
Q 46.140625 10.84375 43.578125 6.953125 
Q 41.015625 3.078125 36.171875 0.953125 
Q 31.34375 -1.171875 25.25 -1.171875 
Q 15.140625 -1.171875 9.84375 3.03125 
Q 4.546875 7.234375 3.078125 15.484375 
" id="ArialMT-73"/>
    </defs>
    <g transform="translate(274.409154212 10.04203125)scale(0.09 -0.09)">
     <use xlink:href="#ArialMT-73"/>
     <use x="50.0" xlink:href="#ArialMT-68"/>
     <use x="105.615234375" xlink:href="#ArialMT-65"/>
     <use x="161.23046875" xlink:href="#ArialMT-65"/>
     <use x="216.845703125" xlink:href="#ArialMT-74"/>
    </g>
   </g>
  </g>
  <g id="axes_4">
   <g id="patch_17">
    <path d="M 344.855707 101.442031 
L 429.76875 101.442031 
L 429.76875 15.042031 
L 344.855707 15.042031 
z
" style="fill:#ffffff;"/>
   </g>
   <g id="PathCollection_16">
    <path clip-path="url(#pc8f901845e)" d="M 356.976781 29.942942 
L 359.400996 30.097789 
L 361.825211 30.075902 
L 364.249426 30.102138 
L 366.525654 29.908698 
L 366.673641 29.887451 
L 369.097856 29.503642 
L 371.522071 29.050279 
L 373.76009 27.442031 
L 373.23685 24.975365 
L 371.868511 22.508698 
L 371.522071 21.992029 
L 369.097856 20.245566 
L 366.673641 20.934528 
L 364.936535 22.508698 
L 364.249426 23.687092 
L 361.825211 24.080538 
L 359.400996 23.01066 
L 358.998849 22.508698 
L 356.976781 21.399701 
L 354.552566 20.123445 
L 352.128351 20.295466 
L 351.761506 20.042031 
L 349.704136 19.650742 
L 347.279921 19.807509 
L 347.125149 20.042031 
L 347.279921 21.552113 
L 347.719247 22.508698 
L 349.016351 24.975365 
L 349.704136 26.016629 
L 351.598571 27.442031 
L 352.128351 27.674599 
L 354.552566 29.650175 
L 356.545555 29.908698 
z
" style="fill:#084a91;"/>
   </g>
   <g id="PathCollection_17">
    <path clip-path="url(#pc8f901845e)" d="M 356.976781 32.446329 
L 359.400996 32.911618 
L 361.825211 33.361834 
L 364.249426 33.147226 
L 366.673641 32.655259 
L 367.133438 32.375365 
L 369.097856 31.466784 
L 371.522071 30.568804 
L 373.036043 29.908698 
L 373.946286 29.238812 
L 374.843781 27.442031 
L 374.369845 24.975365 
L 373.946286 24.099859 
L 372.874445 22.508698 
L 371.522071 20.491809 
L 370.930766 20.042031 
L 369.097856 18.619199 
L 366.673641 18.350917 
L 364.249426 19.110417 
L 361.825211 19.455547 
L 359.400996 19.383275 
L 356.976781 18.827188 
L 354.552566 18.43325 
L 352.128351 18.479904 
L 349.704136 17.922364 
L 347.279921 17.687006 
L 345.725734 20.042031 
L 346.259713 22.508698 
L 346.867698 24.975365 
L 347.279921 26.160163 
L 348.252459 27.442031 
L 349.704136 28.886766 
L 351.515347 29.908698 
L 352.128351 30.354786 
L 354.552566 32.059662 
L 356.606471 32.375365 
z
M 356.545555 29.908698 
L 354.552566 29.650175 
L 352.128351 27.674599 
L 351.598571 27.442031 
L 349.704136 26.016629 
L 349.016351 24.975365 
L 347.719247 22.508698 
L 347.279921 21.552113 
L 347.125149 20.042031 
L 347.279921 19.807509 
L 349.704136 19.650742 
L 351.761506 20.042031 
L 352.128351 20.295466 
L 354.552566 20.123445 
L 356.976781 21.399701 
L 358.998849 22.508698 
L 359.400996 23.01066 
L 361.825211 24.080538 
L 364.249426 23.687092 
L 364.936535 22.508698 
L 366.673641 20.934528 
L 369.097856 20.245566 
L 371.522071 21.992029 
L 371.868511 22.508698 
L 373.23685 24.975365 
L 373.76009 27.442031 
L 371.522071 29.050279 
L 369.097856 29.503642 
L 366.673641 29.887451 
L 366.525654 29.908698 
L 364.249426 30.102138 
L 361.825211 30.075902 
L 359.400996 30.097789 
L 356.976781 29.942942 
z
" style="fill:#2e7ebc;"/>
   </g>
   <g id="PathCollection_18">
    <path clip-path="url(#pc8f901845e)" d="M 366.673641 43.561428 
L 366.963584 42.242031 
L 366.695652 39.775365 
L 366.673641 39.613375 
L 366.59636 39.775365 
L 365.598342 42.242031 
z
" style="fill:#6caed6;"/>
    <path clip-path="url(#pc8f901845e)" d="M 356.976781 35.558162 
L 359.400996 35.671086 
L 361.825211 35.95965 
L 364.249426 36.109957 
L 366.673641 35.495373 
L 366.833671 34.842031 
L 369.097856 33.135521 
L 370.209561 32.375365 
L 371.522071 31.707981 
L 373.946286 30.605727 
L 374.860253 29.908698 
L 375.804234 27.442031 
L 375.092294 24.975365 
L 373.946286 22.606538 
L 373.880379 22.508698 
L 372.110111 20.042031 
L 371.522071 19.248313 
L 369.527843 17.575365 
L 369.097856 17.407903 
L 366.673641 17.227149 
L 364.249426 17.360568 
L 361.825211 17.480965 
L 359.400996 17.543382 
L 356.976781 17.428252 
L 354.552566 17.318059 
L 352.128351 17.365019 
L 349.704136 17.135628 
L 347.279921 17.037643 
L 345.400022 17.575365 
L 344.855707 18.612166 
L 344.855707 20.042031 
L 344.855707 21.459994 
L 345.162643 22.508698 
L 345.901715 24.975365 
L 346.588152 27.442031 
L 347.279921 28.746256 
L 348.452039 29.908698 
L 349.704136 31.466163 
L 351.018416 32.375365 
L 352.128351 33.242061 
L 354.552566 34.763066 
L 354.913008 34.842031 
z
M 356.606471 32.375365 
L 354.552566 32.059662 
L 352.128351 30.354786 
L 351.515347 29.908698 
L 349.704136 28.886766 
L 348.252459 27.442031 
L 347.279921 26.160163 
L 346.867698 24.975365 
L 346.259713 22.508698 
L 345.725734 20.042031 
L 347.279921 17.687006 
L 349.704136 17.922364 
L 352.128351 18.479904 
L 354.552566 18.43325 
L 356.976781 18.827188 
L 359.400996 19.383275 
L 361.825211 19.455547 
L 364.249426 19.110417 
L 366.673641 18.350917 
L 369.097856 18.619199 
L 370.930766 20.042031 
L 371.522071 20.491809 
L 372.874445 22.508698 
L 373.946286 24.099859 
L 374.369845 24.975365 
L 374.843781 27.442031 
L 373.946286 29.238812 
L 373.036043 29.908698 
L 371.522071 30.568804 
L 369.097856 31.466784 
L 367.133438 32.375365 
L 366.673641 32.655259 
L 364.249426 33.147226 
L 361.825211 33.361834 
L 359.400996 32.911618 
L 356.976781 32.446329 
z
" style="fill:#6caed6;"/>
   </g>
   <g id="PathCollection_19">
    <path clip-path="url(#pc8f901845e)" d="M 352.128351 44.722499 
L 354.552566 47.117121 
L 356.976781 45.074424 
L 357.151844 44.708698 
L 357.578002 42.242031 
L 358.295307 39.775365 
L 359.400996 38.409954 
L 361.825211 38.263317 
L 363.078455 39.775365 
L 363.222925 42.242031 
L 363.855536 44.708698 
L 364.249426 45.703657 
L 366.673641 46.307556 
L 367.479708 44.708698 
L 368.103813 42.242031 
L 368.128703 39.775365 
L 367.654443 37.308698 
L 368.86619 34.842031 
L 369.097856 34.667425 
L 371.522071 32.784686 
L 372.461715 32.375365 
L 373.946286 31.675426 
L 376.262876 29.908698 
L 376.370501 29.520168 
L 376.683307 27.442031 
L 376.370501 26.583871 
L 375.814743 24.975365 
L 374.625996 22.508698 
L 373.946286 21.421846 
L 372.949938 20.042031 
L 371.522071 18.11474 
L 370.879112 17.575365 
L 369.097856 16.881639 
L 366.673641 16.665265 
L 364.249426 16.763297 
L 361.825211 16.937978 
L 359.400996 16.897622 
L 356.976781 16.860478 
L 354.552566 16.777257 
L 352.128351 16.891621 
L 349.704136 16.58543 
L 347.279921 16.470037 
L 344.855707 17.156507 
L 344.855707 17.575365 
L 344.855707 18.612166 
L 345.400022 17.575365 
L 347.279921 17.037643 
L 349.704136 17.135628 
L 352.128351 17.365019 
L 354.552566 17.318059 
L 356.976781 17.428252 
L 359.400996 17.543382 
L 361.825211 17.480965 
L 364.249426 17.360568 
L 366.673641 17.227149 
L 369.097856 17.407903 
L 369.527843 17.575365 
L 371.522071 19.248313 
L 372.110111 20.042031 
L 373.880379 22.508698 
L 373.946286 22.606538 
L 375.092294 24.975365 
L 375.804234 27.442031 
L 374.860253 29.908698 
L 373.946286 30.605727 
L 371.522071 31.707981 
L 370.209561 32.375365 
L 369.097856 33.135521 
L 366.833671 34.842031 
L 366.673641 35.495373 
L 364.249426 36.109957 
L 361.825211 35.95965 
L 359.400996 35.671086 
L 356.976781 35.558162 
L 354.913008 34.842031 
L 354.552566 34.763066 
L 352.128351 33.242061 
L 351.018416 32.375365 
L 349.704136 31.466163 
L 348.452039 29.908698 
L 347.279921 28.746256 
L 346.588152 27.442031 
L 345.901715 24.975365 
L 345.162643 22.508698 
L 344.855707 21.459994 
L 344.855707 22.508698 
L 344.855707 24.720904 
L 344.935732 24.975365 
L 345.303045 27.442031 
L 346.338386 29.908698 
L 347.279921 31.743062 
L 347.773838 32.375365 
L 349.443617 34.842031 
L 349.704136 35.462622 
L 351.399448 37.308698 
L 351.529595 39.775365 
L 351.263703 42.242031 
L 352.114788 44.708698 
z
M 365.598342 42.242031 
L 366.59636 39.775365 
L 366.673641 39.613375 
L 366.695652 39.775365 
L 366.963584 42.242031 
L 366.673641 43.561428 
z
" style="fill:#b7d4ea;"/>
   </g>
   <g id="PathCollection_20">
    <path clip-path="url(#pc8f901845e)" d="M 352.128351 47.268379 
L 354.552566 48.189701 
L 356.976781 47.730024 
L 358.257841 47.175365 
L 358.795571 44.708698 
L 359.26409 42.242031 
L 359.400996 41.877436 
L 360.679905 42.242031 
L 361.825211 42.61079 
L 362.419342 44.708698 
L 361.825211 46.870463 
L 361.475739 47.175365 
L 361.825211 47.257968 
L 364.249426 47.641903 
L 366.673641 47.684916 
L 367.337389 47.175365 
L 368.514601 44.708698 
L 369.097856 42.699168 
L 369.205236 42.242031 
L 369.351826 39.775365 
L 369.097856 38.090017 
L 368.909507 37.308698 
L 369.097856 36.951416 
L 370.189465 34.842031 
L 371.522071 33.77302 
L 373.946286 32.795456 
L 375.01673 32.375365 
L 376.370501 31.582726 
L 377.58788 29.908698 
L 377.445477 27.442031 
L 376.662626 24.975365 
L 376.370501 24.626013 
L 375.353362 22.508698 
L 373.946286 20.258793 
L 373.789765 20.042031 
L 371.878019 17.575365 
L 371.522071 17.390758 
L 369.097856 16.355375 
L 366.673641 16.103381 
L 364.249426 16.166025 
L 361.825211 16.39499 
L 359.400996 16.251862 
L 356.976781 16.292703 
L 354.552566 16.236456 
L 352.128351 16.418222 
L 349.704136 16.035232 
L 347.279921 15.902431 
L 344.855707 16.579329 
L 344.855707 17.156507 
L 347.279921 16.470037 
L 349.704136 16.58543 
L 352.128351 16.891621 
L 354.552566 16.777257 
L 356.976781 16.860478 
L 359.400996 16.897622 
L 361.825211 16.937978 
L 364.249426 16.763297 
L 366.673641 16.665265 
L 369.097856 16.881639 
L 370.879112 17.575365 
L 371.522071 18.11474 
L 372.949938 20.042031 
L 373.946286 21.421846 
L 374.625996 22.508698 
L 375.814743 24.975365 
L 376.370501 26.583871 
L 376.683307 27.442031 
L 376.370501 29.520168 
L 376.262876 29.908698 
L 373.946286 31.675426 
L 372.461715 32.375365 
L 371.522071 32.784686 
L 369.097856 34.667425 
L 368.86619 34.842031 
L 367.654443 37.308698 
L 368.128703 39.775365 
L 368.103813 42.242031 
L 367.479708 44.708698 
L 366.673641 46.307556 
L 364.249426 45.703657 
L 363.855536 44.708698 
L 363.222925 42.242031 
L 363.078455 39.775365 
L 361.825211 38.263317 
L 359.400996 38.409954 
L 358.295307 39.775365 
L 357.578002 42.242031 
L 357.151844 44.708698 
L 356.976781 45.074424 
L 354.552566 47.117121 
L 352.128351 44.722499 
L 352.114788 44.708698 
L 351.263703 42.242031 
L 351.529595 39.775365 
L 351.399448 37.308698 
L 349.704136 35.462622 
L 349.443617 34.842031 
L 347.773838 32.375365 
L 347.279921 31.743062 
L 346.338386 29.908698 
L 345.303045 27.442031 
L 344.935732 24.975365 
L 344.855707 24.720904 
L 344.855707 24.975365 
L 344.855707 27.442031 
L 344.855707 29.908698 
L 344.855707 30.180061 
L 346.408552 32.375365 
L 346.879549 34.842031 
L 347.279921 35.89703 
L 348.027458 37.308698 
L 348.148338 39.775365 
L 348.52071 42.242031 
L 349.523894 44.708698 
L 349.704136 45.179483 
L 351.665669 47.175365 
z
" style="fill:#e3eef9;"/>
   </g>
   <g id="patch_18">
    <path d="M 344.855707 15.042031 
L 429.76875 15.042031 
" style="fill:none;stroke:#000000;stroke-linecap:square;stroke-linejoin:miter;stroke-width:0.5;"/>
   </g>
   <g id="patch_19">
    <path d="M 429.76875 101.442031 
L 429.76875 15.042031 
" style="fill:none;stroke:#000000;stroke-linecap:square;stroke-linejoin:miter;stroke-width:0.5;"/>
   </g>
   <g id="patch_20">
    <path d="M 344.855707 101.442031 
L 429.76875 101.442031 
" style="fill:none;stroke:#000000;stroke-linecap:square;stroke-linejoin:miter;stroke-width:0.5;"/>
   </g>
   <g id="patch_21">
    <path d="M 344.855707 101.442031 
L 344.855707 15.042031 
" style="fill:none;stroke:#000000;stroke-linecap:square;stroke-linejoin:miter;stroke-width:0.5;"/>
   </g>
   <g id="matplotlib.axis_7">
    <g id="xtick_16">
     <g id="line2d_61">
      <g>
       <use style="stroke:#000000;stroke-width:0.75;" x="344.855706522" xlink:href="#ma2a3bd7ed6" y="101.44203125"/>
      </g>
     </g>
     <g id="line2d_62">
      <g>
       <use style="stroke:#000000;stroke-width:0.75;" x="344.855706522" xlink:href="#mafd779e6e7" y="15.04203125"/>
      </g>
     </g>
     <g id="text_31">
      <!-- −180 -->
      <g transform="translate(335.846331522 111.16828125)scale(0.08 -0.08)">
       <use xlink:href="#ArialMT-2212"/>
       <use x="58.3984375" xlink:href="#ArialMT-31"/>
       <use x="114.013671875" xlink:href="#ArialMT-38"/>
       <use x="169.62890625" xlink:href="#ArialMT-30"/>
      </g>
     </g>
    </g>
    <g id="xtick_17">
     <g id="line2d_63">
      <g>
       <use style="stroke:#000000;stroke-width:0.75;" x="366.083967391" xlink:href="#ma2a3bd7ed6" y="101.44203125"/>
      </g>
     </g>
     <g id="line2d_64">
      <g>
       <use style="stroke:#000000;stroke-width:0.75;" x="366.083967391" xlink:href="#mafd779e6e7" y="15.04203125"/>
      </g>
     </g>
     <g id="text_32">
      <!-- −90 -->
      <g transform="translate(359.298967391 111.16828125)scale(0.08 -0.08)">
       <use xlink:href="#ArialMT-2212"/>
       <use x="58.3984375" xlink:href="#ArialMT-39"/>
       <use x="114.013671875" xlink:href="#ArialMT-30"/>
      </g>
     </g>
    </g>
    <g id="xtick_18">
     <g id="line2d_65">
      <g>
       <use style="stroke:#000000;stroke-width:0.75;" x="387.312228261" xlink:href="#ma2a3bd7ed6" y="101.44203125"/>
      </g>
     </g>
     <g id="line2d_66">
      <g>
       <use style="stroke:#000000;stroke-width:0.75;" x="387.312228261" xlink:href="#mafd779e6e7" y="15.04203125"/>
      </g>
     </g>
     <g id="text_33">
      <!-- 0 -->
      <g transform="translate(385.087853261 111.16828125)scale(0.08 -0.08)">
       <use xlink:href="#ArialMT-30"/>
      </g>
     </g>
    </g>
    <g id="xtick_19">
     <g id="line2d_67">
      <g>
       <use style="stroke:#000000;stroke-width:0.75;" x="408.54048913" xlink:href="#ma2a3bd7ed6" y="101.44203125"/>
      </g>
     </g>
     <g id="line2d_68">
      <g>
       <use style="stroke:#000000;stroke-width:0.75;" x="408.54048913" xlink:href="#mafd779e6e7" y="15.04203125"/>
      </g>
     </g>
     <g id="text_34">
      <!-- 90 -->
      <g transform="translate(404.09173913 111.16828125)scale(0.08 -0.08)">
       <use xlink:href="#ArialMT-39"/>
       <use x="55.615234375" xlink:href="#ArialMT-30"/>
      </g>
     </g>
    </g>
    <g id="xtick_20">
     <g id="line2d_69">
      <g>
       <use style="stroke:#000000;stroke-width:0.75;" x="429.76875" xlink:href="#ma2a3bd7ed6" y="101.44203125"/>
      </g>
     </g>
     <g id="line2d_70">
      <g>
       <use style="stroke:#000000;stroke-width:0.75;" x="429.76875" xlink:href="#mafd779e6e7" y="15.04203125"/>
      </g>
     </g>
     <g id="text_35">
      <!-- 180 -->
      <g transform="translate(423.095625 111.16828125)scale(0.08 -0.08)">
       <use xlink:href="#ArialMT-31"/>
       <use x="55.615234375" xlink:href="#ArialMT-38"/>
       <use x="111.23046875" xlink:href="#ArialMT-30"/>
      </g>
     </g>
    </g>
    <g id="text_36">
     <!-- $\phi$ (deg) -->
     <g transform="translate(372.867228261 124.32828125)scale(0.09 -0.09)">
      <use transform="translate(0.0 0.203125)" xlink:href="#Cmmi10-c1"/>
      <use transform="translate(59.521484375 0.203125)" xlink:href="#ArialMT-20"/>
      <use transform="translate(87.3046875 0.203125)" xlink:href="#ArialMT-28"/>
      <use transform="translate(120.60546875 0.203125)" xlink:href="#ArialMT-64"/>
      <use transform="translate(176.220703125 0.203125)" xlink:href="#ArialMT-65"/>
      <use transform="translate(231.8359375 0.203125)" xlink:href="#ArialMT-67"/>
      <use transform="translate(287.451171875 0.203125)" xlink:href="#ArialMT-29"/>
     </g>
    </g>
   </g>
   <g id="matplotlib.axis_8">
    <g id="ytick_16">
     <g id="line2d_71">
      <g>
       <use style="stroke:#000000;stroke-width:0.75;" x="344.855706522" xlink:href="#m2cd4057602" y="101.44203125"/>
      </g>
     </g>
     <g id="line2d_72">
      <g>
       <use style="stroke:#000000;stroke-width:0.75;" x="429.76875" xlink:href="#m4f78cbf53d" y="101.44203125"/>
      </g>
     </g>
    </g>
    <g id="ytick_17">
     <g id="line2d_73">
      <g>
       <use style="stroke:#000000;stroke-width:0.75;" x="344.855706522" xlink:href="#m2cd4057602" y="79.84203125"/>
      </g>
     </g>
     <g id="line2d_74">
      <g>
       <use style="stroke:#000000;stroke-width:0.75;" x="429.76875" xlink:href="#m4f78cbf53d" y="79.84203125"/>
      </g>
     </g>
    </g>
    <g id="ytick_18">
     <g id="line2d_75">
      <g>
       <use style="stroke:#000000;stroke-width:0.75;" x="344.855706522" xlink:href="#m2cd4057602" y="58.24203125"/>
      </g>
     </g>
     <g id="line2d_76">
      <g>
       <use style="stroke:#000000;stroke-width:0.75;" x="429.76875" xlink:href="#m4f78cbf53d" y="58.24203125"/>
      </g>
     </g>
    </g>
    <g id="ytick_19">
     <g id="line2d_77">
      <g>
       <use style="stroke:#000000;stroke-width:0.75;" x="344.855706522" xlink:href="#m2cd4057602" y="36.64203125"/>
      </g>
     </g>
     <g id="line2d_78">
      <g>
       <use style="stroke:#000000;stroke-width:0.75;" x="429.76875" xlink:href="#m4f78cbf53d" y="36.64203125"/>
      </g>
     </g>
    </g>
    <g id="ytick_20">
     <g id="line2d_79">
      <g>
       <use style="stroke:#000000;stroke-width:0.75;" x="344.855706522" xlink:href="#m2cd4057602" y="15.04203125"/>
      </g>
     </g>
     <g id="line2d_80">
      <g>
       <use style="stroke:#000000;stroke-width:0.75;" x="429.76875" xlink:href="#m4f78cbf53d" y="15.04203125"/>
      </g>
     </g>
    </g>
   </g>
   <g id="text_37">
    <!-- N=266,395 -->
    <g transform="translate(391.078722826 99.18678125)scale(0.07 -0.07)">
     <use xlink:href="#ArialMT-4e"/>
     <use x="72.216796875" xlink:href="#ArialMT-3d"/>
     <use x="130.615234375" xlink:href="#ArialMT-32"/>
     <use x="186.23046875" xlink:href="#ArialMT-36"/>
     <use x="241.845703125" xlink:href="#ArialMT-36"/>
     <use x="297.4609375" xlink:href="#ArialMT-2c"/>
     <use x="325.244140625" xlink:href="#ArialMT-33"/>
     <use x="380.859375" xlink:href="#ArialMT-39"/>
     <use x="436.474609375" xlink:href="#ArialMT-35"/>
    </g>
   </g>
   <g id="text_38">
    <!-- sheet N-term -->
    <defs>
     <path d="M 6.5 0 
L 6.5 51.859375 
L 14.40625 51.859375 
L 14.40625 44 
Q 17.4375 49.515625 20 51.265625 
Q 22.5625 53.03125 25.640625 53.03125 
Q 30.078125 53.03125 34.671875 50.203125 
L 31.640625 42.046875 
Q 28.421875 43.953125 25.203125 43.953125 
Q 22.3125 43.953125 20.015625 42.21875 
Q 17.71875 40.484375 16.75 37.40625 
Q 15.28125 32.71875 15.28125 27.15625 
L 15.28125 0 
z
" id="ArialMT-72"/>
     <path d="M 6.59375 0 
L 6.59375 51.859375 
L 14.453125 51.859375 
L 14.453125 44.578125 
Q 16.890625 48.390625 20.9375 50.703125 
Q 25 53.03125 30.171875 53.03125 
Q 35.9375 53.03125 39.625 50.640625 
Q 43.3125 48.25 44.828125 43.953125 
Q 50.984375 53.03125 60.84375 53.03125 
Q 68.5625 53.03125 72.703125 48.75 
Q 76.859375 44.484375 76.859375 35.59375 
L 76.859375 0 
L 68.109375 0 
L 68.109375 32.671875 
Q 68.109375 37.9375 67.25 40.25 
Q 66.40625 42.578125 64.15625 43.984375 
Q 61.921875 45.40625 58.890625 45.40625 
Q 53.421875 45.40625 49.796875 41.765625 
Q 46.1875 38.140625 46.1875 30.125 
L 46.1875 0 
L 37.40625 0 
L 37.40625 33.6875 
Q 37.40625 39.546875 35.25 42.46875 
Q 33.109375 45.40625 28.21875 45.40625 
Q 24.515625 45.40625 21.359375 43.453125 
Q 18.21875 41.5 16.796875 37.734375 
Q 15.375 33.984375 15.375 26.90625 
L 15.375 0 
z
" id="ArialMT-6d"/>
    </defs>
    <g transform="translate(361.307150136 10.04203125)scale(0.09 -0.09)">
     <use xlink:href="#ArialMT-73"/>
     <use x="50.0" xlink:href="#ArialMT-68"/>
     <use x="105.615234375" xlink:href="#ArialMT-65"/>
     <use x="161.23046875" xlink:href="#ArialMT-65"/>
     <use x="216.845703125" xlink:href="#ArialMT-74"/>
     <use x="244.62890625" xlink:href="#ArialMT-20"/>
     <use x="272.412109375" xlink:href="#ArialMT-4e"/>
     <use x="344.62890625" xlink:href="#ArialMT-2d"/>
     <use x="377.9296875" xlink:href="#ArialMT-74"/>
     <use x="405.712890625" xlink:href="#ArialMT-65"/>
     <use x="461.328125" xlink:href="#ArialMT-72"/>
     <use x="494.62890625" xlink:href="#ArialMT-6d"/>
    </g>
   </g>
  </g>
 </g>
 <defs>
  <clipPath id="p4c2aabbf17">
   <rect height="86.4" width="84.9130434783" x="141.064402174" y="15.04203125"/>
  </clipPath>
  <clipPath id="p3930726b30">
   <rect height="86.4" width="84.9130434783" x="242.960054348" y="15.04203125"/>
  </clipPath>
  <clipPath id="pb24db30e28">
   <rect height="86.4" width="84.9130434783" x="39.16875" y="15.04203125"/>
  </clipPath>
  <clipPath id="pc8f901845e">
   <rect height="86.4" width="84.9130434783" x="344.855706522" y="15.04203125"/>
  </clipPath>
 </defs>
</svg>
