<?xml version="1.0" encoding="utf-8" standalone="no"?>
<!DOCTYPE svg PUBLIC "-//W3C//DTD SVG 1.1//EN"
  "http://www.w3.org/Graphics/SVG/1.1/DTD/svg11.dtd">
<!-- Created with matplotlib (http://matplotlib.org/) -->
<svg height="268pt" version="1.1" viewBox="0 0 274 268" width="274pt" xmlns="http://www.w3.org/2000/svg" xmlns:xlink="http://www.w3.org/1999/xlink">
 <defs>
  <style type="text/css">
*{stroke-linecap:butt;stroke-linejoin:round;stroke-miterlimit:100000;}
  </style>
 </defs>
 <g id="figure_1">
  <g id="patch_1">
   <path d="M 0 268.124375 
L 274.641875 268.124375 
L 274.641875 0 
L 0 0 
z
" style="fill:#ffffff;"/>
  </g>
  <g id="axes_1">
   <g id="patch_2">
    <path d="M 41.16875 237.658125 
L 264.36875 237.658125 
L 264.36875 7.258125 
L 41.16875 7.258125 
z
" style="fill:#ffffff;"/>
   </g>
   <g id="LineCollection_1">
    <path clip-path="url(#p3e077322bd)" d="M 104.029861 160.549309 
L 102.167723 159.791458 
L 97.74375 155.298359 
L 94.713094 153.302569 
L 91.91866 146.813681 
L 91.457639 145.726422 
L 86.509414 140.324792 
L 85.171528 138.59507 
L 81.293448 133.835903 
L 78.919491 127.347014 
L 78.885417 127.225868 
L 77.368226 120.858125 
L 77.400709 114.369236 
L 78.885417 112.845045 
L 85.171528 111.924824 
L 90.463046 114.369236 
L 91.457639 114.833404 
L 97.74375 119.740179 
L 98.885867 120.858125 
L 104.029861 125.289766 
L 106.048155 127.347014 
L 110.315972 130.829148 
L 112.479179 133.835903 
L 116.602083 139.387346 
L 117.178741 140.324792 
L 119.81689 146.813681 
L 122.087492 153.302569 
L 121.164104 159.791458 
L 116.602083 162.897043 
L 110.315972 163.331165 
L 104.029861 160.549309 
" style="fill:none;stroke:#08306b;"/>
    <path clip-path="url(#p3e077322bd)" d="M 204.607639 127.680321 
L 203.966064 127.347014 
L 204.607639 126.765443 
L 204.757286 127.347014 
L 204.607639 127.680321 
" style="fill:none;stroke:#08306b;"/>
    <path clip-path="url(#p3e077322bd)" d="M 198.321528 124.289121 
L 196.361076 120.858125 
L 198.321528 115.448845 
L 201.419684 120.858125 
L 198.321528 124.289121 
" style="fill:none;stroke:#08306b;"/>
    <path clip-path="url(#p3e077322bd)" d="M 192.035417 115.302779 
L 191.573078 114.369236 
L 185.749306 108.60681 
L 185.41887 107.880347 
L 182.020457 101.391458 
L 179.463194 96.511917 
L 179.195694 94.902569 
L 179.463194 94.117519 
L 182.512222 94.902569 
L 185.749306 96.159073 
L 188.110158 101.391458 
L 192.035417 107.655485 
L 192.235523 107.880347 
L 196.121872 114.369236 
L 192.035417 115.302779 
" style="fill:none;stroke:#08306b;"/>
    <path clip-path="url(#p3e077322bd)" d="M 72.599306 58.07092 
L 69.848752 55.969236 
L 66.313194 53.750939 
L 62.483434 49.480347 
L 60.027083 46.065579 
L 57.416517 42.991458 
L 53.740972 38.60691 
L 52.460042 36.502569 
L 49.53155 30.013681 
L 47.454861 26.408793 
L 46.515984 23.524792 
L 47.200104 17.035903 
L 47.454861 16.795656 
L 53.740972 15.211659 
L 60.027083 15.749496 
L 66.313194 15.45443 
L 72.599306 16.706715 
L 73.708021 17.035903 
L 78.885417 19.859324 
L 85.171528 21.662201 
L 91.457639 20.08068 
L 94.064119 17.035903 
L 97.74375 15.47658 
L 104.029861 14.902102 
L 106.858017 17.035903 
L 110.315972 19.828646 
L 112.664632 23.524792 
L 116.602083 28.889996 
L 117.148553 30.013681 
L 119.495713 36.502569 
L 120.04373 42.991458 
L 116.602083 46.926754 
L 110.500852 49.480347 
L 110.315972 49.546009 
L 104.029861 53.115167 
L 100.305093 55.969236 
L 97.74375 59.083537 
L 91.457639 60.502963 
L 85.171528 60.349858 
L 78.885417 60.221295 
L 72.599306 58.07092 
" style="fill:none;stroke:#08306b;"/>
   </g>
   <g id="LineCollection_2">
    <path clip-path="url(#p3e077322bd)" d="M 41.16875 234.861 
L 47.454861 232.450361 
L 51.093967 231.169236 
L 53.740972 230.30871 
L 60.027083 230.676355 
L 63.457164 231.169236 
L 66.313194 231.702402 
L 72.599306 232.003224 
L 78.885417 232.922891 
L 85.171528 231.468615 
L 85.764155 231.169236 
L 91.457639 227.846191 
L 97.74375 228.774919 
L 99.850605 231.169236 
L 104.029861 234.410511 
L 105.993671 237.658125 
" style="fill:none;stroke:#f7fbff;"/>
    <path clip-path="url(#p3e077322bd)" d="M 196.199313 237.658125 
L 192.035417 231.27557 
L 192.005091 231.169236 
L 190.659984 224.680347 
L 192.035417 221.239829 
L 195.009792 224.680347 
L 198.321528 228.518006 
L 200.220976 231.169236 
L 204.607639 237.421504 
L 204.738597 237.658125 
" style="fill:none;stroke:#f7fbff;"/>
    <path clip-path="url(#p3e077322bd)" d="M 254.883387 237.658125 
L 254.896528 237.640834 
L 254.905388 237.658125 
" style="fill:none;stroke:#f7fbff;"/>
    <path clip-path="url(#p3e077322bd)" d="M 41.16875 11.114676 
L 41.789371 10.547014 
" style="fill:none;stroke:#f7fbff;"/>
    <path clip-path="url(#p3e077322bd)" d="M 106.98062 10.547014 
L 110.315972 13.365171 
L 113.38401 17.035903 
L 116.602083 21.682641 
L 117.711173 23.524792 
L 120.777963 30.013681 
L 122.888194 34.373396 
L 124.044695 36.502569 
L 125.457578 42.991458 
L 123.010595 49.480347 
L 122.888194 49.583688 
L 116.602083 52.954149 
L 110.503001 55.969236 
L 110.315972 56.112475 
L 105.598691 62.458125 
L 104.029861 68.483366 
L 103.837038 68.947014 
L 103.563576 75.435903 
L 103.31548 81.924792 
L 101.78927 88.413681 
L 97.74375 94.800175 
L 91.457639 89.753563 
L 90.801686 88.413681 
L 88.842483 81.924792 
L 87.436147 75.435903 
L 85.171528 72.502338 
L 78.885417 73.583584 
L 77.366051 75.435903 
L 75.464047 81.924792 
L 73.887201 88.413681 
L 72.599306 94.410841 
L 71.678648 94.902569 
L 72.599306 95.103689 
L 78.885417 98.772208 
L 84.522168 101.391458 
L 85.171528 101.605687 
L 91.457639 104.757937 
L 94.079296 107.880347 
L 97.74375 111.706533 
L 99.556395 114.369236 
L 104.029861 118.726536 
L 105.633596 120.858125 
L 110.315972 125.633891 
L 111.552133 127.347014 
L 116.022591 133.835903 
L 116.602083 134.616183 
L 120.11366 140.324792 
L 122.888194 146.028846 
L 123.425327 146.813681 
L 125.818076 153.302569 
L 126.043051 159.791458 
L 122.888194 164.261464 
L 117.749282 166.280347 
L 116.602083 166.635383 
L 110.315972 167.040042 
L 105.616361 166.280347 
L 104.029861 166.026552 
L 97.74375 165.551458 
L 91.457639 164.7489 
L 85.171528 164.354797 
L 78.885417 164.339311 
L 72.599306 159.931147 
L 72.548918 159.791458 
L 72.173374 153.302569 
L 70.458632 146.813681 
L 67.725134 140.324792 
L 66.313194 135.192474 
L 66.015304 133.835903 
L 64.490164 127.347014 
L 63.014477 120.858125 
L 62.112867 114.369236 
L 62.979709 107.880347 
L 64.01391 101.391458 
L 65.175698 94.902569 
L 62.076045 88.413681 
L 60.027083 84.545452 
L 58.45246 81.924792 
L 57.959779 75.435903 
L 58.415763 68.947014 
L 54.812189 62.458125 
L 53.740972 60.899362 
L 51.929647 55.969236 
L 49.46333 49.480347 
L 47.454861 45.712641 
L 46.268836 42.991458 
L 43.698225 36.502569 
L 41.734159 30.013681 
L 41.16875 28.614949 
" style="fill:none;stroke:#f7fbff;"/>
    <path clip-path="url(#p3e077322bd)" d="M 185.749306 219.742136 
L 185.014013 218.191458 
L 179.463194 211.76313 
L 179.436516 211.702569 
L 179.251217 205.213681 
L 179.463194 204.802547 
L 185.749306 201.427419 
L 189.664616 205.213681 
L 189.751569 211.702569 
L 189.260518 218.191458 
L 185.749306 219.742136 
" style="fill:none;stroke:#f7fbff;"/>
    <path clip-path="url(#p3e077322bd)" d="M 166.890972 155.049144 
L 163.39131 153.302569 
L 166.890972 151.337792 
L 168.253663 153.302569 
L 166.890972 155.049144 
" style="fill:none;stroke:#f7fbff;"/>
    <path clip-path="url(#p3e077322bd)" d="M 210.89375 142.108411 
L 205.956677 140.324792 
L 204.607639 139.834161 
L 198.321528 134.973745 
L 197.384079 133.835903 
L 192.035417 127.640346 
L 191.877737 127.347014 
L 188.092765 120.858125 
L 185.749306 117.823797 
L 183.849742 114.369236 
L 179.903367 107.880347 
L 179.463194 107.315056 
L 176.662126 101.391458 
L 174.241802 94.902569 
L 173.576328 88.413681 
L 179.463194 84.070105 
L 185.749306 84.676143 
L 188.455609 88.413681 
L 191.633934 94.902569 
L 192.035417 95.527883 
L 196.893878 101.391458 
L 198.321528 102.937331 
L 203.445484 107.880347 
L 204.607639 109.082797 
L 210.89375 114.166848 
L 211.140424 114.369236 
L 217.179861 120.757379 
L 217.280122 120.858125 
L 218.233706 127.347014 
L 217.772817 133.835903 
L 217.179861 135.953555 
L 215.23025 140.324792 
L 210.89375 142.108411 
" style="fill:none;stroke:#f7fbff;"/>
    <path clip-path="url(#p3e077322bd)" d="M 110.315972 112.404126 
L 107.364072 107.880347 
L 110.315972 105.132495 
L 112.540267 107.880347 
L 110.315972 112.404126 
" style="fill:none;stroke:#f7fbff;"/>
   </g>
   <g id="patch_3">
    <path d="M 41.16875 7.258125 
L 264.36875 7.258125 
" style="fill:none;stroke:#000000;stroke-linecap:square;stroke-linejoin:miter;stroke-width:0.5;"/>
   </g>
   <g id="patch_4">
    <path d="M 264.36875 237.658125 
L 264.36875 7.258125 
" style="fill:none;stroke:#000000;stroke-linecap:square;stroke-linejoin:miter;stroke-width:0.5;"/>
   </g>
   <g id="patch_5">
    <path d="M 41.16875 237.658125 
L 264.36875 237.658125 
" style="fill:none;stroke:#000000;stroke-linecap:square;stroke-linejoin:miter;stroke-width:0.5;"/>
   </g>
   <g id="patch_6">
    <path d="M 41.16875 237.658125 
L 41.16875 7.258125 
" style="fill:none;stroke:#000000;stroke-linecap:square;stroke-linejoin:miter;stroke-width:0.5;"/>
   </g>
   <g id="matplotlib.axis_1">
    <g id="xtick_1">
     <g id="line2d_1">
      <defs>
       <path d="M 0 0 
L 0 2 
" id="m336b69adfc" style="stroke:#000000;stroke-width:0.75;"/>
      </defs>
      <g>
       <use style="stroke:#000000;stroke-width:0.75;" x="41.16875" xlink:href="#m336b69adfc" y="237.658125"/>
      </g>
     </g>
     <g id="line2d_2">
      <defs>
       <path d="M 0 0 
L 0 -2 
" id="mfd814d1a70" style="stroke:#000000;stroke-width:0.75;"/>
      </defs>
      <g>
       <use style="stroke:#000000;stroke-width:0.75;" x="41.16875" xlink:href="#mfd814d1a70" y="7.258125"/>
      </g>
     </g>
     <g id="text_1">
      <!-- −180 -->
      <defs>
       <path d="M 17.671875 38.8125 
Q 12.203125 40.828125 9.5625 44.53125 
Q 6.9375 48.25 6.9375 53.421875 
Q 6.9375 61.234375 12.546875 66.546875 
Q 18.171875 71.875 27.484375 71.875 
Q 36.859375 71.875 42.578125 66.421875 
Q 48.296875 60.984375 48.296875 53.171875 
Q 48.296875 48.1875 45.671875 44.5 
Q 43.0625 40.828125 37.75 38.8125 
Q 44.34375 36.671875 47.78125 31.875 
Q 51.21875 27.09375 51.21875 20.453125 
Q 51.21875 11.28125 44.71875 5.03125 
Q 38.234375 -1.21875 27.640625 -1.21875 
Q 17.046875 -1.21875 10.546875 5.046875 
Q 4.046875 11.328125 4.046875 20.703125 
Q 4.046875 27.6875 7.59375 32.390625 
Q 11.140625 37.109375 17.671875 38.8125 
M 15.921875 53.71875 
Q 15.921875 48.640625 19.1875 45.40625 
Q 22.46875 42.1875 27.6875 42.1875 
Q 32.765625 42.1875 36.015625 45.375 
Q 39.265625 48.578125 39.265625 53.21875 
Q 39.265625 58.0625 35.90625 61.359375 
Q 32.5625 64.65625 27.59375 64.65625 
Q 22.5625 64.65625 19.234375 61.421875 
Q 15.921875 58.203125 15.921875 53.71875 
M 13.09375 20.65625 
Q 13.09375 16.890625 14.875 13.375 
Q 16.65625 9.859375 20.171875 7.921875 
Q 23.6875 6 27.734375 6 
Q 34.03125 6 38.125 10.046875 
Q 42.234375 14.109375 42.234375 20.359375 
Q 42.234375 26.703125 38.015625 30.859375 
Q 33.796875 35.015625 27.4375 35.015625 
Q 21.234375 35.015625 17.15625 30.90625 
Q 13.09375 26.8125 13.09375 20.65625 
" id="ArialMT-38"/>
       <path d="M 37.25 0 
L 28.46875 0 
L 28.46875 56 
Q 25.296875 52.984375 20.140625 49.953125 
Q 14.984375 46.921875 10.890625 45.40625 
L 10.890625 53.90625 
Q 18.265625 57.375 23.78125 62.296875 
Q 29.296875 67.234375 31.59375 71.875 
L 37.25 71.875 
z
" id="ArialMT-31"/>
       <path d="M 52.828125 31.203125 
L 5.5625 31.203125 
L 5.5625 39.40625 
L 52.828125 39.40625 
z
" id="ArialMT-2212"/>
       <path d="M 4.15625 35.296875 
Q 4.15625 48 6.765625 55.734375 
Q 9.375 63.484375 14.515625 67.671875 
Q 19.671875 71.875 27.484375 71.875 
Q 33.25 71.875 37.59375 69.546875 
Q 41.9375 67.234375 44.765625 62.859375 
Q 47.609375 58.5 49.21875 52.21875 
Q 50.828125 45.953125 50.828125 35.296875 
Q 50.828125 22.703125 48.234375 14.96875 
Q 45.65625 7.234375 40.5 3 
Q 35.359375 -1.21875 27.484375 -1.21875 
Q 17.140625 -1.21875 11.234375 6.203125 
Q 4.15625 15.140625 4.15625 35.296875 
M 13.1875 35.296875 
Q 13.1875 17.671875 17.3125 11.828125 
Q 21.4375 6 27.484375 6 
Q 33.546875 6 37.671875 11.859375 
Q 41.796875 17.71875 41.796875 35.296875 
Q 41.796875 52.984375 37.671875 58.78125 
Q 33.546875 64.59375 27.390625 64.59375 
Q 21.34375 64.59375 17.71875 59.46875 
Q 13.1875 52.9375 13.1875 35.296875 
" id="ArialMT-30"/>
      </defs>
      <g transform="translate(32.159375 249.384375)scale(0.08 -0.08)">
       <use xlink:href="#ArialMT-2212"/>
       <use x="58.3984375" xlink:href="#ArialMT-31"/>
       <use x="114.013671875" xlink:href="#ArialMT-38"/>
       <use x="169.62890625" xlink:href="#ArialMT-30"/>
      </g>
     </g>
    </g>
    <g id="xtick_2">
     <g id="line2d_3">
      <g>
       <use style="stroke:#000000;stroke-width:0.75;" x="96.96875" xlink:href="#m336b69adfc" y="237.658125"/>
      </g>
     </g>
     <g id="line2d_4">
      <g>
       <use style="stroke:#000000;stroke-width:0.75;" x="96.96875" xlink:href="#mfd814d1a70" y="7.258125"/>
      </g>
     </g>
     <g id="text_2">
      <!-- −90 -->
      <defs>
       <path d="M 5.46875 16.546875 
L 13.921875 17.328125 
Q 14.984375 11.375 18.015625 8.6875 
Q 21.046875 6 25.78125 6 
Q 29.828125 6 32.875 7.859375 
Q 35.9375 9.71875 37.890625 12.8125 
Q 39.84375 15.921875 41.15625 21.1875 
Q 42.484375 26.46875 42.484375 31.9375 
Q 42.484375 32.515625 42.4375 33.6875 
Q 39.796875 29.5 35.234375 26.875 
Q 30.671875 24.265625 25.34375 24.265625 
Q 16.453125 24.265625 10.296875 30.703125 
Q 4.15625 37.15625 4.15625 47.703125 
Q 4.15625 58.59375 10.578125 65.234375 
Q 17 71.875 26.65625 71.875 
Q 33.640625 71.875 39.421875 68.109375 
Q 45.21875 64.359375 48.21875 57.390625 
Q 51.21875 50.4375 51.21875 37.25 
Q 51.21875 23.53125 48.234375 15.40625 
Q 45.265625 7.28125 39.375 3.03125 
Q 33.5 -1.21875 25.59375 -1.21875 
Q 17.1875 -1.21875 11.859375 3.4375 
Q 6.546875 8.109375 5.46875 16.546875 
M 41.453125 48.140625 
Q 41.453125 55.71875 37.421875 60.15625 
Q 33.40625 64.59375 27.734375 64.59375 
Q 21.875 64.59375 17.53125 59.8125 
Q 13.1875 55.03125 13.1875 47.40625 
Q 13.1875 40.578125 17.3125 36.296875 
Q 21.4375 32.03125 27.484375 32.03125 
Q 33.59375 32.03125 37.515625 36.296875 
Q 41.453125 40.578125 41.453125 48.140625 
" id="ArialMT-39"/>
      </defs>
      <g transform="translate(90.18375 249.384375)scale(0.08 -0.08)">
       <use xlink:href="#ArialMT-2212"/>
       <use x="58.3984375" xlink:href="#ArialMT-39"/>
       <use x="114.013671875" xlink:href="#ArialMT-30"/>
      </g>
     </g>
    </g>
    <g id="xtick_3">
     <g id="line2d_5">
      <g>
       <use style="stroke:#000000;stroke-width:0.75;" x="152.76875" xlink:href="#m336b69adfc" y="237.658125"/>
      </g>
     </g>
     <g id="line2d_6">
      <g>
       <use style="stroke:#000000;stroke-width:0.75;" x="152.76875" xlink:href="#mfd814d1a70" y="7.258125"/>
      </g>
     </g>
     <g id="text_3">
      <!-- 0 -->
      <g transform="translate(150.544375 249.384375)scale(0.08 -0.08)">
       <use xlink:href="#ArialMT-30"/>
      </g>
     </g>
    </g>
    <g id="xtick_4">
     <g id="line2d_7">
      <g>
       <use style="stroke:#000000;stroke-width:0.75;" x="208.56875" xlink:href="#m336b69adfc" y="237.658125"/>
      </g>
     </g>
     <g id="line2d_8">
      <g>
       <use style="stroke:#000000;stroke-width:0.75;" x="208.56875" xlink:href="#mfd814d1a70" y="7.258125"/>
      </g>
     </g>
     <g id="text_4">
      <!-- 90 -->
      <g transform="translate(204.12 249.384375)scale(0.08 -0.08)">
       <use xlink:href="#ArialMT-39"/>
       <use x="55.615234375" xlink:href="#ArialMT-30"/>
      </g>
     </g>
    </g>
    <g id="xtick_5">
     <g id="line2d_9">
      <g>
       <use style="stroke:#000000;stroke-width:0.75;" x="264.36875" xlink:href="#m336b69adfc" y="237.658125"/>
      </g>
     </g>
     <g id="line2d_10">
      <g>
       <use style="stroke:#000000;stroke-width:0.75;" x="264.36875" xlink:href="#mfd814d1a70" y="7.258125"/>
      </g>
     </g>
     <g id="text_5">
      <!-- 180 -->
      <g transform="translate(257.695625 249.384375)scale(0.08 -0.08)">
       <use xlink:href="#ArialMT-31"/>
       <use x="55.615234375" xlink:href="#ArialMT-38"/>
       <use x="111.23046875" xlink:href="#ArialMT-30"/>
      </g>
     </g>
    </g>
    <g id="text_6">
     <!-- $\phi$ (deg) -->
     <defs>
      <path d="M 4.984375 -4.296875 
L 13.53125 -5.5625 
Q 14.0625 -9.515625 16.5 -11.328125 
Q 19.78125 -13.765625 25.4375 -13.765625 
Q 31.546875 -13.765625 34.859375 -11.328125 
Q 38.1875 -8.890625 39.359375 -4.5 
Q 40.046875 -1.8125 39.984375 6.78125 
Q 34.234375 0 25.640625 0 
Q 14.9375 0 9.078125 7.71875 
Q 3.21875 15.4375 3.21875 26.21875 
Q 3.21875 33.640625 5.90625 39.90625 
Q 8.59375 46.1875 13.6875 49.609375 
Q 18.796875 53.03125 25.6875 53.03125 
Q 34.859375 53.03125 40.828125 45.609375 
L 40.828125 51.859375 
L 48.921875 51.859375 
L 48.921875 7.03125 
Q 48.921875 -5.078125 46.453125 -10.125 
Q 44 -15.1875 38.640625 -18.109375 
Q 33.296875 -21.046875 25.484375 -21.046875 
Q 16.21875 -21.046875 10.5 -16.875 
Q 4.78125 -12.703125 4.984375 -4.296875 
M 12.25 26.859375 
Q 12.25 16.65625 16.296875 11.96875 
Q 20.359375 7.28125 26.46875 7.28125 
Q 32.515625 7.28125 36.609375 11.9375 
Q 40.71875 16.609375 40.71875 26.5625 
Q 40.71875 36.078125 36.5 40.90625 
Q 32.28125 45.75 26.3125 45.75 
Q 20.453125 45.75 16.34375 40.984375 
Q 12.25 36.234375 12.25 26.859375 
" id="ArialMT-67"/>
      <path d="M 42.09375 16.703125 
L 51.171875 15.578125 
Q 49.03125 7.625 43.21875 3.21875 
Q 37.40625 -1.171875 28.375 -1.171875 
Q 17 -1.171875 10.328125 5.828125 
Q 3.65625 12.84375 3.65625 25.484375 
Q 3.65625 38.578125 10.390625 45.796875 
Q 17.140625 53.03125 27.875 53.03125 
Q 38.28125 53.03125 44.875 45.953125 
Q 51.46875 38.875 51.46875 26.03125 
Q 51.46875 25.25 51.421875 23.6875 
L 12.75 23.6875 
Q 13.234375 15.140625 17.578125 10.59375 
Q 21.921875 6.0625 28.421875 6.0625 
Q 33.25 6.0625 36.671875 8.59375 
Q 40.09375 11.140625 42.09375 16.703125 
M 13.234375 30.90625 
L 42.1875 30.90625 
Q 41.609375 37.453125 38.875 40.71875 
Q 34.671875 45.796875 27.984375 45.796875 
Q 21.921875 45.796875 17.796875 41.75 
Q 13.671875 37.703125 13.234375 30.90625 
" id="ArialMT-65"/>
      <path d="M 40.234375 0 
L 40.234375 6.546875 
Q 35.296875 -1.171875 25.734375 -1.171875 
Q 19.53125 -1.171875 14.328125 2.25 
Q 9.125 5.671875 6.265625 11.796875 
Q 3.421875 17.921875 3.421875 25.875 
Q 3.421875 33.640625 6 39.96875 
Q 8.59375 46.296875 13.765625 49.65625 
Q 18.953125 53.03125 25.34375 53.03125 
Q 30.03125 53.03125 33.6875 51.046875 
Q 37.359375 49.078125 39.65625 45.90625 
L 39.65625 71.578125 
L 48.390625 71.578125 
L 48.390625 0 
z
M 12.453125 25.875 
Q 12.453125 15.921875 16.640625 10.984375 
Q 20.84375 6.0625 26.5625 6.0625 
Q 32.328125 6.0625 36.34375 10.765625 
Q 40.375 15.484375 40.375 25.140625 
Q 40.375 35.796875 36.265625 40.765625 
Q 32.171875 45.75 26.171875 45.75 
Q 20.3125 45.75 16.375 40.96875 
Q 12.453125 36.1875 12.453125 25.875 
" id="ArialMT-64"/>
      <path d="M 12.359375 -21.046875 
L 6.0625 -21.046875 
Q 20.65625 2.390625 20.65625 25.875 
Q 20.65625 35.0625 18.5625 44.09375 
Q 16.890625 51.421875 13.921875 58.15625 
Q 12.015625 62.546875 6.0625 72.796875 
L 12.359375 72.796875 
Q 21.53125 60.546875 25.921875 48.1875 
Q 29.6875 37.546875 29.6875 25.921875 
Q 29.6875 12.75 24.625 0.4375 
Q 19.578125 -11.859375 12.359375 -21.046875 
" id="ArialMT-29"/>
      <path d="M 23.390625 -21.046875 
Q 16.109375 -11.859375 11.078125 0.4375 
Q 6.0625 12.75 6.0625 25.921875 
Q 6.0625 37.546875 9.8125 48.1875 
Q 14.203125 60.546875 23.390625 72.796875 
L 29.6875 72.796875 
Q 23.78125 62.640625 21.875 58.296875 
Q 18.890625 51.5625 17.1875 44.234375 
Q 15.09375 35.109375 15.09375 25.875 
Q 15.09375 2.390625 29.6875 -21.046875 
z
" id="ArialMT-28"/>
      <path d="M 19.390625 -19.484375 
L 23.875 -1.421875 
Q 18.796875 -1.421875 14.40625 0.953125 
Q 10.015625 3.328125 7.34375 7.5625 
Q 4.6875 11.8125 4.6875 16.796875 
Q 4.6875 22.21875 7.375 27.140625 
Q 10.0625 32.078125 14.71875 36.109375 
Q 19.390625 40.140625 24.75 42.3125 
Q 30.125 44.484375 35.40625 44.484375 
L 41.40625 68.796875 
Q 41.609375 69.390625 42.1875 69.390625 
L 43.40625 69.390625 
Q 43.796875 69.390625 44.03125 69.046875 
Q 44.28125 68.703125 44.28125 68.40625 
L 38.28125 44.484375 
Q 42.046875 44.484375 45.5625 43.109375 
Q 49.078125 41.75 51.78125 39.28125 
Q 54.5 36.8125 56 33.46875 
Q 57.515625 30.125 57.515625 26.3125 
Q 57.515625 20.90625 54.828125 15.96875 
Q 52.15625 11.03125 47.609375 7.078125 
Q 43.0625 3.125 37.46875 0.84375 
Q 31.890625 -1.421875 26.8125 -1.421875 
L 22.21875 -19.921875 
Q 22.015625 -20.515625 21.390625 -20.515625 
L 20.21875 -20.515625 
Q 19.828125 -20.515625 19.609375 -20.140625 
Q 19.390625 -19.78125 19.390625 -19.484375 
M 24.515625 1.21875 
L 34.71875 41.890625 
Q 32.171875 41.890625 29.390625 40.859375 
Q 26.609375 39.84375 24.140625 38.28125 
Q 21.6875 36.71875 19.671875 34.71875 
Q 17.234375 32.28125 15.375 28.953125 
Q 13.53125 25.640625 12.578125 21.953125 
Q 11.625 18.265625 11.625 14.703125 
Q 11.625 10.9375 13.234375 7.859375 
Q 14.84375 4.78125 17.765625 3 
Q 20.703125 1.21875 24.515625 1.21875 
M 27.484375 1.21875 
Q 31.25 1.21875 35.5 3.359375 
Q 39.75 5.515625 42.484375 8.40625 
Q 46.234375 12.109375 48.40625 17.5 
Q 50.59375 22.90625 50.59375 28.421875 
Q 50.59375 32.125 48.96875 35.21875 
Q 47.359375 38.328125 44.421875 40.109375 
Q 41.5 41.890625 37.703125 41.890625 
z
" id="Cmmi10-c1"/>
      <path id="ArialMT-20"/>
     </defs>
     <g transform="translate(138.32375 262.544375)scale(0.09 -0.09)">
      <use transform="translate(0.0 0.203125)" xlink:href="#Cmmi10-c1"/>
      <use transform="translate(59.521484375 0.203125)" xlink:href="#ArialMT-20"/>
      <use transform="translate(87.3046875 0.203125)" xlink:href="#ArialMT-28"/>
      <use transform="translate(120.60546875 0.203125)" xlink:href="#ArialMT-64"/>
      <use transform="translate(176.220703125 0.203125)" xlink:href="#ArialMT-65"/>
      <use transform="translate(231.8359375 0.203125)" xlink:href="#ArialMT-67"/>
      <use transform="translate(287.451171875 0.203125)" xlink:href="#ArialMT-29"/>
     </g>
    </g>
   </g>
   <g id="matplotlib.axis_2">
    <g id="ytick_1">
     <g id="line2d_11">
      <defs>
       <path d="M 0 0 
L -2 0 
" id="m9da82ca9fc" style="stroke:#000000;stroke-width:0.75;"/>
      </defs>
      <g>
       <use style="stroke:#000000;stroke-width:0.75;" x="41.16875" xlink:href="#m9da82ca9fc" y="237.658125"/>
      </g>
     </g>
     <g id="line2d_12">
      <defs>
       <path d="M 0 0 
L 2 0 
" id="mb8f3172b98" style="stroke:#000000;stroke-width:0.75;"/>
      </defs>
      <g>
       <use style="stroke:#000000;stroke-width:0.75;" x="264.36875" xlink:href="#mb8f3172b98" y="237.658125"/>
      </g>
     </g>
     <g id="text_7">
      <!-- −180 -->
      <g transform="translate(17.15 239.72625)scale(0.08 -0.08)">
       <use xlink:href="#ArialMT-2212"/>
       <use x="58.3984375" xlink:href="#ArialMT-31"/>
       <use x="114.013671875" xlink:href="#ArialMT-38"/>
       <use x="169.62890625" xlink:href="#ArialMT-30"/>
      </g>
     </g>
    </g>
    <g id="ytick_2">
     <g id="line2d_13">
      <g>
       <use style="stroke:#000000;stroke-width:0.75;" x="41.16875" xlink:href="#m9da82ca9fc" y="180.058125"/>
      </g>
     </g>
     <g id="line2d_14">
      <g>
       <use style="stroke:#000000;stroke-width:0.75;" x="264.36875" xlink:href="#mb8f3172b98" y="180.058125"/>
      </g>
     </g>
     <g id="text_8">
      <!-- −90 -->
      <g transform="translate(21.59875 182.12625)scale(0.08 -0.08)">
       <use xlink:href="#ArialMT-2212"/>
       <use x="58.3984375" xlink:href="#ArialMT-39"/>
       <use x="114.013671875" xlink:href="#ArialMT-30"/>
      </g>
     </g>
    </g>
    <g id="ytick_3">
     <g id="line2d_15">
      <g>
       <use style="stroke:#000000;stroke-width:0.75;" x="41.16875" xlink:href="#m9da82ca9fc" y="122.458125"/>
      </g>
     </g>
     <g id="line2d_16">
      <g>
       <use style="stroke:#000000;stroke-width:0.75;" x="264.36875" xlink:href="#mb8f3172b98" y="122.458125"/>
      </g>
     </g>
     <g id="text_9">
      <!-- 0 -->
      <g transform="translate(30.72 124.52625)scale(0.08 -0.08)">
       <use xlink:href="#ArialMT-30"/>
      </g>
     </g>
    </g>
    <g id="ytick_4">
     <g id="line2d_17">
      <g>
       <use style="stroke:#000000;stroke-width:0.75;" x="41.16875" xlink:href="#m9da82ca9fc" y="64.858125"/>
      </g>
     </g>
     <g id="line2d_18">
      <g>
       <use style="stroke:#000000;stroke-width:0.75;" x="264.36875" xlink:href="#mb8f3172b98" y="64.858125"/>
      </g>
     </g>
     <g id="text_10">
      <!-- 90 -->
      <g transform="translate(26.27125 66.92625)scale(0.08 -0.08)">
       <use xlink:href="#ArialMT-39"/>
       <use x="55.615234375" xlink:href="#ArialMT-30"/>
      </g>
     </g>
    </g>
    <g id="ytick_5">
     <g id="line2d_19">
      <g>
       <use style="stroke:#000000;stroke-width:0.75;" x="41.16875" xlink:href="#m9da82ca9fc" y="7.258125"/>
      </g>
     </g>
     <g id="line2d_20">
      <g>
       <use style="stroke:#000000;stroke-width:0.75;" x="264.36875" xlink:href="#mb8f3172b98" y="7.258125"/>
      </g>
     </g>
     <g id="text_11">
      <!-- 180 -->
      <g transform="translate(21.8225 9.32625)scale(0.08 -0.08)">
       <use xlink:href="#ArialMT-31"/>
       <use x="55.615234375" xlink:href="#ArialMT-38"/>
       <use x="111.23046875" xlink:href="#ArialMT-30"/>
      </g>
     </g>
    </g>
    <g id="text_12">
     <!-- $\psi$ (deg) -->
     <defs>
      <path d="M 23.78125 -19.484375 
L 28.515625 -0.875 
Q 24.171875 -0.875 20.09375 0.75 
Q 16.015625 2.390625 13.5 5.5625 
Q 10.984375 8.734375 10.984375 13.28125 
Q 10.984375 15.875 11.90625 19.1875 
Q 12.84375 22.515625 13.890625 25.296875 
Q 14.9375 28.078125 16.703125 32.625 
Q 18.015625 36.28125 18.015625 38.625 
Q 18.015625 41.609375 15.828125 41.609375 
Q 11.859375 41.609375 9.296875 37.53125 
Q 6.734375 33.453125 5.515625 28.421875 
Q 5.328125 27.78125 4.6875 27.78125 
L 3.515625 27.78125 
Q 2.6875 27.78125 2.6875 28.71875 
L 2.6875 29 
Q 4.296875 34.96875 7.609375 39.578125 
Q 10.9375 44.1875 16.015625 44.1875 
Q 19.578125 44.1875 22.046875 41.84375 
Q 24.515625 39.5 24.515625 35.890625 
Q 24.515625 34.03125 23.6875 31.984375 
Q 21.921875 27.4375 20.890625 24.75 
Q 19.875 22.078125 18.9375 18.671875 
Q 18.015625 15.28125 18.015625 12.59375 
Q 18.015625 7.71875 21.0625 5.03125 
Q 24.125 2.34375 29.109375 1.703125 
L 45.90625 68.796875 
Q 46.09375 69.390625 46.6875 69.390625 
L 47.90625 69.390625 
Q 48.6875 69.390625 48.6875 68.40625 
L 31.984375 1.515625 
L 33.109375 1.515625 
Q 37.3125 1.515625 41.96875 4 
Q 46.625 6.5 50.453125 10.546875 
Q 54.296875 14.59375 56.546875 19.25 
Q 58.796875 23.921875 58.796875 27.984375 
Q 58.796875 31 57.8125 32.6875 
Q 56.84375 34.375 55.28125 36.203125 
Q 53.71875 38.03125 53.71875 39.109375 
Q 53.71875 41.0625 55.328125 42.671875 
Q 56.9375 44.28125 58.890625 44.28125 
Q 61.28125 44.28125 62.328125 42.078125 
Q 63.375 39.890625 63.375 37.109375 
Q 63.375 34.1875 62.78125 31.25 
Q 62.203125 28.328125 61.1875 24.3125 
Q 58.890625 15.1875 51.609375 7.90625 
Q 49.125 5.421875 46.109375 3.34375 
Q 43.109375 1.265625 39.765625 0.0625 
Q 36.421875 -1.125 33.015625 -1.125 
L 31.390625 -1.125 
L 26.703125 -19.921875 
Q 26.515625 -20.515625 25.875 -20.515625 
L 24.703125 -20.515625 
Q 24.3125 -20.515625 24.046875 -20.1875 
Q 23.78125 -19.875 23.78125 -19.484375 
" id="Cmmi10-c3"/>
     </defs>
     <g transform="translate(10.17 137.173125)rotate(-90.0)scale(0.09 -0.09)">
      <use transform="translate(0.0 0.203125)" xlink:href="#Cmmi10-c3"/>
      <use transform="translate(65.087890625 0.203125)" xlink:href="#ArialMT-20"/>
      <use transform="translate(92.87109375 0.203125)" xlink:href="#ArialMT-28"/>
      <use transform="translate(126.171875 0.203125)" xlink:href="#ArialMT-64"/>
      <use transform="translate(181.787109375 0.203125)" xlink:href="#ArialMT-65"/>
      <use transform="translate(237.40234375 0.203125)" xlink:href="#ArialMT-67"/>
      <use transform="translate(293.017578125 0.203125)" xlink:href="#ArialMT-29"/>
     </g>
    </g>
   </g>
  </g>
 </g>
 <defs>
  <clipPath id="p3e077322bd">
   <rect height="230.4" width="223.2" x="41.16875" y="7.258125"/>
  </clipPath>
 </defs>
</svg>
