<?xml version="1.0" encoding="utf-8" standalone="no"?>
<!DOCTYPE svg PUBLIC "-//W3C//DTD SVG 1.1//EN"
  "http://www.w3.org/Graphics/SVG/1.1/DTD/svg11.dtd">
<!-- Created with matplotlib (http://matplotlib.org/) -->
<svg height="129pt" version="1.1" viewBox="0 0 440 129" width="440pt" xmlns="http://www.w3.org/2000/svg" xmlns:xlink="http://www.w3.org/1999/xlink">
 <defs>
  <style type="text/css">
*{stroke-linecap:butt;stroke-linejoin:round;stroke-miterlimit:100000;}
  </style>
 </defs>
 <g id="figure_1">
  <g id="patch_1">
   <path d="M 0 129.908281 
L 440.041875 129.908281 
L 440.041875 0 
L 0 0 
z
" style="fill:#ffffff;"/>
  </g>
  <g id="axes_1">
   <g id="patch_2">
    <path d="M 39.16875 101.442031 
L 124.081793 101.442031 
L 124.081793 15.042031 
L 39.16875 15.042031 
z
" style="fill:#ffffff;"/>
   </g>
   <g id="PathCollection_1">
    <path clip-path="url(#pdc352bb855)" d="M 56.138255 33.409178 
L 58.56247 34.485769 
L 60.986685 33.824232 
L 62.060287 32.375365 
L 63.4109 31.212977 
L 64.922727 29.908698 
L 65.835115 29.227611 
L 67.66542 27.442031 
L 67.718162 24.975365 
L 66.500528 22.508698 
L 65.835115 21.009427 
L 64.853276 20.042031 
L 63.4109 18.403733 
L 60.986685 18.074404 
L 59.700713 20.042031 
L 60.120843 22.508698 
L 60.05202 24.975365 
L 58.629837 27.442031 
L 58.56247 27.523194 
L 57.319226 27.442031 
L 56.138255 27.365846 
L 53.71404 26.282371 
L 51.789862 24.975365 
L 51.560647 22.508698 
L 51.289825 22.274561 
L 48.86561 21.266816 
L 48.020634 22.508698 
L 48.86561 23.847154 
L 50.524359 24.975365 
L 49.74852 27.442031 
L 50.276645 29.908698 
L 51.289825 30.93962 
L 53.71404 32.194401 
L 53.871369 32.375365 
z
" style="fill:#084a91;"/>
   </g>
   <g id="PathCollection_2">
    <path clip-path="url(#pdc352bb855)" d="M 58.56247 37.419947 
L 60.986685 37.799503 
L 61.068587 37.308698 
L 62.235306 34.842031 
L 63.4109 33.467216 
L 64.17281 32.375365 
L 65.835115 30.805631 
L 67.2377 29.908698 
L 68.25933 28.905154 
L 69.054592 27.442031 
L 68.759058 24.975365 
L 68.25933 23.591078 
L 67.629997 22.508698 
L 66.312259 20.042031 
L 65.835115 19.284985 
L 64.2325 17.575365 
L 63.4109 17.167826 
L 60.986685 16.944739 
L 58.56247 17.288048 
L 56.496372 17.575365 
L 56.138255 17.960233 
L 53.71404 18.183537 
L 52.119814 17.575365 
L 51.289825 17.52317 
L 48.86561 17.364802 
L 46.441395 17.446349 
L 44.01718 17.53389 
L 43.721214 17.575365 
L 42.043753 20.042031 
L 41.592965 21.580486 
L 41.493421 22.508698 
L 41.592965 23.01678 
L 42.608007 24.975365 
L 44.01718 27.358579 
L 44.101513 27.442031 
L 46.441395 29.837691 
L 46.478446 29.908698 
L 47.814577 32.375365 
L 48.86561 33.527044 
L 50.2608 34.842031 
L 51.289825 36.812821 
L 53.71404 36.41875 
L 56.138255 36.432504 
L 58.393248 37.308698 
z
M 53.871369 32.375365 
L 53.71404 32.194401 
L 51.289825 30.93962 
L 50.276645 29.908698 
L 49.74852 27.442031 
L 50.524359 24.975365 
L 48.86561 23.847154 
L 48.020634 22.508698 
L 48.86561 21.266816 
L 51.289825 22.274561 
L 51.560647 22.508698 
L 51.789862 24.975365 
L 53.71404 26.282371 
L 56.138255 27.365846 
L 57.319226 27.442031 
L 58.56247 27.523194 
L 58.629837 27.442031 
L 60.05202 24.975365 
L 60.120843 22.508698 
L 59.700713 20.042031 
L 60.986685 18.074404 
L 63.4109 18.403733 
L 64.853276 20.042031 
L 65.835115 21.009427 
L 66.500528 22.508698 
L 67.718162 24.975365 
L 67.66542 27.442031 
L 65.835115 29.227611 
L 64.922727 29.908698 
L 63.4109 31.212977 
L 62.060287 32.375365 
L 60.986685 33.824232 
L 58.56247 34.485769 
L 56.138255 33.409178 
z
" style="fill:#2e7ebc;"/>
   </g>
   <g id="PathCollection_3">
    <path clip-path="url(#pdc352bb855)" d="M 60.986685 45.485216 
L 61.401008 44.708698 
L 61.712479 42.242031 
L 61.880403 39.775365 
L 62.437724 37.308698 
L 63.4109 35.550095 
L 63.664502 34.842031 
L 65.516812 32.375365 
L 65.835115 32.074787 
L 68.25933 30.471073 
L 69.024631 29.908698 
L 70.114228 27.442031 
L 69.460323 24.975365 
L 68.565576 22.508698 
L 68.25933 21.954889 
L 67.082019 20.042031 
L 65.835115 18.06367 
L 65.377372 17.575365 
L 63.4109 16.599935 
L 60.986685 16.269233 
L 58.56247 16.557677 
L 56.138255 17.007174 
L 53.71404 17.029302 
L 51.289825 16.881636 
L 48.86561 16.721107 
L 46.441395 16.844003 
L 44.01718 16.922633 
L 41.592965 17.286112 
L 40.836017 17.575365 
L 40.353146 20.042031 
L 40.220433 22.508698 
L 40.684017 24.975365 
L 41.541162 27.442031 
L 41.592965 27.602226 
L 43.052693 29.908698 
L 44.01718 31.823573 
L 44.402423 32.375365 
L 46.121266 34.842031 
L 46.441395 35.280868 
L 47.713309 37.308698 
L 48.668521 39.775365 
L 48.86561 41.599509 
L 51.289825 42.123403 
L 52.781038 39.775365 
L 53.71404 38.913279 
L 56.138255 38.571794 
L 57.608803 39.775365 
L 58.56247 42.143955 
L 58.618695 42.242031 
L 59.758679 44.708698 
z
M 58.393248 37.308698 
L 56.138255 36.432504 
L 53.71404 36.41875 
L 51.289825 36.812821 
L 50.2608 34.842031 
L 48.86561 33.527044 
L 47.814577 32.375365 
L 46.478446 29.908698 
L 46.441395 29.837691 
L 44.101513 27.442031 
L 44.01718 27.358579 
L 42.608007 24.975365 
L 41.592965 23.01678 
L 41.493421 22.508698 
L 41.592965 21.580486 
L 42.043753 20.042031 
L 43.721214 17.575365 
L 44.01718 17.53389 
L 46.441395 17.446349 
L 48.86561 17.364802 
L 51.289825 17.52317 
L 52.119814 17.575365 
L 53.71404 18.183537 
L 56.138255 17.960233 
L 56.496372 17.575365 
L 58.56247 17.288048 
L 60.986685 16.944739 
L 63.4109 17.167826 
L 64.2325 17.575365 
L 65.835115 19.284985 
L 66.312259 20.042031 
L 67.629997 22.508698 
L 68.25933 23.591078 
L 68.759058 24.975365 
L 69.054592 27.442031 
L 68.25933 28.905154 
L 67.2377 29.908698 
L 65.835115 30.805631 
L 64.17281 32.375365 
L 63.4109 33.467216 
L 62.235306 34.842031 
L 61.068587 37.308698 
L 60.986685 37.799503 
L 58.56247 37.419947 
z
" style="fill:#6caed6;"/>
   </g>
   <g id="PathCollection_4">
    <path clip-path="url(#pdc352bb855)" d="M 48.86561 47.369195 
L 50.313326 47.175365 
L 51.26555 44.708698 
L 51.289825 44.692923 
L 52.780474 42.242031 
L 53.71404 41.031923 
L 56.138255 40.95977 
L 56.906767 42.242031 
L 57.480298 44.708698 
L 58.56247 46.246226 
L 60.1499 47.175365 
L 60.986685 47.368437 
L 61.381818 47.175365 
L 62.535708 44.708698 
L 62.822955 42.242031 
L 63.057618 39.775365 
L 63.4109 38.519231 
L 63.669974 37.308698 
L 64.550643 34.842031 
L 65.835115 33.226135 
L 67.150729 32.375365 
L 68.25933 31.630048 
L 70.601807 29.908698 
L 70.683545 29.660255 
L 70.918027 27.442031 
L 70.683545 26.496417 
L 70.161588 24.975365 
L 69.257178 22.508698 
L 68.25933 20.704208 
L 67.851778 20.042031 
L 66.269333 17.575365 
L 65.835115 17.389517 
L 63.4109 16.032043 
L 60.986685 15.593727 
L 58.56247 15.827307 
L 56.138255 16.397406 
L 53.71404 16.3821 
L 51.289825 16.240103 
L 48.86561 16.077411 
L 46.441395 16.241658 
L 44.01718 16.311376 
L 41.592965 16.721262 
L 39.357857 17.575365 
L 39.16875 18.639864 
L 39.16875 20.042031 
L 39.16875 22.508698 
L 39.16875 23.775946 
L 39.382847 24.975365 
L 40.304505 27.442031 
L 41.094636 29.908698 
L 41.592965 30.894625 
L 42.568501 32.375365 
L 43.070613 34.842031 
L 44.01718 36.7789 
L 44.437508 37.308698 
L 44.967473 39.775365 
L 45.212719 42.242031 
L 46.15192 44.708698 
L 46.441395 45.142051 
L 48.003602 47.175365 
z
M 59.758679 44.708698 
L 58.618695 42.242031 
L 58.56247 42.143955 
L 57.608803 39.775365 
L 56.138255 38.571794 
L 53.71404 38.913279 
L 52.781038 39.775365 
L 51.289825 42.123403 
L 48.86561 41.599509 
L 48.668521 39.775365 
L 47.713309 37.308698 
L 46.441395 35.280868 
L 46.121266 34.842031 
L 44.402423 32.375365 
L 44.01718 31.823573 
L 43.052693 29.908698 
L 41.592965 27.602226 
L 41.541162 27.442031 
L 40.684017 24.975365 
L 40.220433 22.508698 
L 40.353146 20.042031 
L 40.836017 17.575365 
L 41.592965 17.286112 
L 44.01718 16.922633 
L 46.441395 16.844003 
L 48.86561 16.721107 
L 51.289825 16.881636 
L 53.71404 17.029302 
L 56.138255 17.007174 
L 58.56247 16.557677 
L 60.986685 16.269233 
L 63.4109 16.599935 
L 65.377372 17.575365 
L 65.835115 18.06367 
L 67.082019 20.042031 
L 68.25933 21.954889 
L 68.565576 22.508698 
L 69.460323 24.975365 
L 70.114228 27.442031 
L 69.024631 29.908698 
L 68.25933 30.471073 
L 65.835115 32.074787 
L 65.516812 32.375365 
L 63.664502 34.842031 
L 63.4109 35.550095 
L 62.437724 37.308698 
L 61.880403 39.775365 
L 61.712479 42.242031 
L 61.401008 44.708698 
L 60.986685 45.485216 
z
" style="fill:#b7d4ea;"/>
   </g>
   <g id="PathCollection_5">
    <path clip-path="url(#pdc352bb855)" d="M 44.01718 47.202724 
L 46.441395 48.144628 
L 48.86561 48.391131 
L 51.289825 48.315973 
L 53.71404 47.401564 
L 55.084689 47.175365 
L 56.138255 46.302992 
L 56.508187 47.175365 
L 58.56247 47.730419 
L 60.986685 48.309123 
L 63.306984 47.175365 
L 63.4109 46.704354 
L 63.69101 44.708698 
L 63.854137 42.242031 
L 63.985133 39.775365 
L 64.565788 37.308698 
L 65.436785 34.842031 
L 65.835115 34.340923 
L 68.25933 32.773415 
L 68.89054 32.375365 
L 70.683545 31.100745 
L 71.883393 29.908698 
L 71.42477 27.442031 
L 70.878014 24.975365 
L 70.683545 24.496865 
L 69.948781 22.508698 
L 68.624626 20.042031 
L 68.25933 19.519469 
L 66.992812 17.575365 
L 65.835115 17.079863 
L 63.4109 15.464152 
L 61.739602 15.108698 
L 60.986685 15.108698 
L 58.56247 15.108698 
L 58.527908 15.108698 
L 56.138255 15.787638 
L 53.71404 15.734898 
L 51.289825 15.598569 
L 48.86561 15.433716 
L 46.441395 15.639313 
L 44.01718 15.700119 
L 41.592965 16.156412 
L 39.16875 17.062375 
L 39.16875 17.575365 
L 39.16875 18.639864 
L 39.357857 17.575365 
L 41.592965 16.721262 
L 44.01718 16.311376 
L 46.441395 16.241658 
L 48.86561 16.077411 
L 51.289825 16.240103 
L 53.71404 16.3821 
L 56.138255 16.397406 
L 58.56247 15.827307 
L 60.986685 15.593727 
L 63.4109 16.032043 
L 65.835115 17.389517 
L 66.269333 17.575365 
L 67.851778 20.042031 
L 68.25933 20.704208 
L 69.257178 22.508698 
L 70.161588 24.975365 
L 70.683545 26.496417 
L 70.918027 27.442031 
L 70.683545 29.660255 
L 70.601807 29.908698 
L 68.25933 31.630048 
L 67.150729 32.375365 
L 65.835115 33.226135 
L 64.550643 34.842031 
L 63.669974 37.308698 
L 63.4109 38.519231 
L 63.057618 39.775365 
L 62.822955 42.242031 
L 62.535708 44.708698 
L 61.381818 47.175365 
L 60.986685 47.368437 
L 60.1499 47.175365 
L 58.56247 46.246226 
L 57.480298 44.708698 
L 56.906767 42.242031 
L 56.138255 40.95977 
L 53.71404 41.031923 
L 52.780474 42.242031 
L 51.289825 44.692923 
L 51.26555 44.708698 
L 50.313326 47.175365 
L 48.86561 47.369195 
L 48.003602 47.175365 
L 46.441395 45.142051 
L 46.15192 44.708698 
L 45.212719 42.242031 
L 44.967473 39.775365 
L 44.437508 37.308698 
L 44.01718 36.7789 
L 43.070613 34.842031 
L 42.568501 32.375365 
L 41.592965 30.894625 
L 41.094636 29.908698 
L 40.304505 27.442031 
L 39.382847 24.975365 
L 39.16875 23.775946 
L 39.16875 24.975365 
L 39.16875 27.442031 
L 39.16875 27.769065 
L 39.83903 29.908698 
L 41.096873 32.375365 
L 41.340951 34.842031 
L 41.592965 36.417619 
L 41.908351 37.308698 
L 42.836333 39.775365 
L 42.548151 42.242031 
L 43.236314 44.708698 
L 43.941025 47.175365 
z
" style="fill:#e3eef9;"/>
   </g>
   <g id="patch_3">
    <path d="M 39.16875 15.042031 
L 124.081793 15.042031 
" style="fill:none;stroke:#000000;stroke-linecap:square;stroke-linejoin:miter;stroke-width:0.5;"/>
   </g>
   <g id="patch_4">
    <path d="M 124.081793 101.442031 
L 124.081793 15.042031 
" style="fill:none;stroke:#000000;stroke-linecap:square;stroke-linejoin:miter;stroke-width:0.5;"/>
   </g>
   <g id="patch_5">
    <path d="M 39.16875 101.442031 
L 124.081793 101.442031 
" style="fill:none;stroke:#000000;stroke-linecap:square;stroke-linejoin:miter;stroke-width:0.5;"/>
   </g>
   <g id="patch_6">
    <path d="M 39.16875 101.442031 
L 39.16875 15.042031 
" style="fill:none;stroke:#000000;stroke-linecap:square;stroke-linejoin:miter;stroke-width:0.5;"/>
   </g>
   <g id="matplotlib.axis_1">
    <g id="xtick_1">
     <g id="line2d_1">
      <defs>
       <path d="M 0 0 
L 0 -2 
" id="mf00405550c" style="stroke:#000000;stroke-width:0.75;"/>
      </defs>
      <g>
       <use style="stroke:#000000;stroke-width:0.75;" x="39.16875" xlink:href="#mf00405550c" y="101.44203125"/>
      </g>
     </g>
     <g id="line2d_2">
      <defs>
       <path d="M 0 0 
L 0 2 
" id="mf8e966bd7b" style="stroke:#000000;stroke-width:0.75;"/>
      </defs>
      <g>
       <use style="stroke:#000000;stroke-width:0.75;" x="39.16875" xlink:href="#mf8e966bd7b" y="15.04203125"/>
      </g>
     </g>
     <g id="text_1">
      <!-- −180 -->
      <defs>
       <path d="M 17.671875 38.8125 
Q 12.203125 40.828125 9.5625 44.53125 
Q 6.9375 48.25 6.9375 53.421875 
Q 6.9375 61.234375 12.546875 66.546875 
Q 18.171875 71.875 27.484375 71.875 
Q 36.859375 71.875 42.578125 66.421875 
Q 48.296875 60.984375 48.296875 53.171875 
Q 48.296875 48.1875 45.671875 44.5 
Q 43.0625 40.828125 37.75 38.8125 
Q 44.34375 36.671875 47.78125 31.875 
Q 51.21875 27.09375 51.21875 20.453125 
Q 51.21875 11.28125 44.71875 5.03125 
Q 38.234375 -1.21875 27.640625 -1.21875 
Q 17.046875 -1.21875 10.546875 5.046875 
Q 4.046875 11.328125 4.046875 20.703125 
Q 4.046875 27.6875 7.59375 32.390625 
Q 11.140625 37.109375 17.671875 38.8125 
M 15.921875 53.71875 
Q 15.921875 48.640625 19.1875 45.40625 
Q 22.46875 42.1875 27.6875 42.1875 
Q 32.765625 42.1875 36.015625 45.375 
Q 39.265625 48.578125 39.265625 53.21875 
Q 39.265625 58.0625 35.90625 61.359375 
Q 32.5625 64.65625 27.59375 64.65625 
Q 22.5625 64.65625 19.234375 61.421875 
Q 15.921875 58.203125 15.921875 53.71875 
M 13.09375 20.65625 
Q 13.09375 16.890625 14.875 13.375 
Q 16.65625 9.859375 20.171875 7.921875 
Q 23.6875 6 27.734375 6 
Q 34.03125 6 38.125 10.046875 
Q 42.234375 14.109375 42.234375 20.359375 
Q 42.234375 26.703125 38.015625 30.859375 
Q 33.796875 35.015625 27.4375 35.015625 
Q 21.234375 35.015625 17.15625 30.90625 
Q 13.09375 26.8125 13.09375 20.65625 
" id="ArialMT-38"/>
       <path d="M 37.25 0 
L 28.46875 0 
L 28.46875 56 
Q 25.296875 52.984375 20.140625 49.953125 
Q 14.984375 46.921875 10.890625 45.40625 
L 10.890625 53.90625 
Q 18.265625 57.375 23.78125 62.296875 
Q 29.296875 67.234375 31.59375 71.875 
L 37.25 71.875 
z
" id="ArialMT-31"/>
       <path d="M 52.828125 31.203125 
L 5.5625 31.203125 
L 5.5625 39.40625 
L 52.828125 39.40625 
z
" id="ArialMT-2212"/>
       <path d="M 4.15625 35.296875 
Q 4.15625 48 6.765625 55.734375 
Q 9.375 63.484375 14.515625 67.671875 
Q 19.671875 71.875 27.484375 71.875 
Q 33.25 71.875 37.59375 69.546875 
Q 41.9375 67.234375 44.765625 62.859375 
Q 47.609375 58.5 49.21875 52.21875 
Q 50.828125 45.953125 50.828125 35.296875 
Q 50.828125 22.703125 48.234375 14.96875 
Q 45.65625 7.234375 40.5 3 
Q 35.359375 -1.21875 27.484375 -1.21875 
Q 17.140625 -1.21875 11.234375 6.203125 
Q 4.15625 15.140625 4.15625 35.296875 
M 13.1875 35.296875 
Q 13.1875 17.671875 17.3125 11.828125 
Q 21.4375 6 27.484375 6 
Q 33.546875 6 37.671875 11.859375 
Q 41.796875 17.71875 41.796875 35.296875 
Q 41.796875 52.984375 37.671875 58.78125 
Q 33.546875 64.59375 27.390625 64.59375 
Q 21.34375 64.59375 17.71875 59.46875 
Q 13.1875 52.9375 13.1875 35.296875 
" id="ArialMT-30"/>
      </defs>
      <g transform="translate(30.159375 111.16828125)scale(0.08 -0.08)">
       <use xlink:href="#ArialMT-2212"/>
       <use x="58.3984375" xlink:href="#ArialMT-31"/>
       <use x="114.013671875" xlink:href="#ArialMT-38"/>
       <use x="169.62890625" xlink:href="#ArialMT-30"/>
      </g>
     </g>
    </g>
    <g id="xtick_2">
     <g id="line2d_3">
      <g>
       <use style="stroke:#000000;stroke-width:0.75;" x="60.3970108696" xlink:href="#mf00405550c" y="101.44203125"/>
      </g>
     </g>
     <g id="line2d_4">
      <g>
       <use style="stroke:#000000;stroke-width:0.75;" x="60.3970108696" xlink:href="#mf8e966bd7b" y="15.04203125"/>
      </g>
     </g>
     <g id="text_2">
      <!-- −90 -->
      <defs>
       <path d="M 5.46875 16.546875 
L 13.921875 17.328125 
Q 14.984375 11.375 18.015625 8.6875 
Q 21.046875 6 25.78125 6 
Q 29.828125 6 32.875 7.859375 
Q 35.9375 9.71875 37.890625 12.8125 
Q 39.84375 15.921875 41.15625 21.1875 
Q 42.484375 26.46875 42.484375 31.9375 
Q 42.484375 32.515625 42.4375 33.6875 
Q 39.796875 29.5 35.234375 26.875 
Q 30.671875 24.265625 25.34375 24.265625 
Q 16.453125 24.265625 10.296875 30.703125 
Q 4.15625 37.15625 4.15625 47.703125 
Q 4.15625 58.59375 10.578125 65.234375 
Q 17 71.875 26.65625 71.875 
Q 33.640625 71.875 39.421875 68.109375 
Q 45.21875 64.359375 48.21875 57.390625 
Q 51.21875 50.4375 51.21875 37.25 
Q 51.21875 23.53125 48.234375 15.40625 
Q 45.265625 7.28125 39.375 3.03125 
Q 33.5 -1.21875 25.59375 -1.21875 
Q 17.1875 -1.21875 11.859375 3.4375 
Q 6.546875 8.109375 5.46875 16.546875 
M 41.453125 48.140625 
Q 41.453125 55.71875 37.421875 60.15625 
Q 33.40625 64.59375 27.734375 64.59375 
Q 21.875 64.59375 17.53125 59.8125 
Q 13.1875 55.03125 13.1875 47.40625 
Q 13.1875 40.578125 17.3125 36.296875 
Q 21.4375 32.03125 27.484375 32.03125 
Q 33.59375 32.03125 37.515625 36.296875 
Q 41.453125 40.578125 41.453125 48.140625 
" id="ArialMT-39"/>
      </defs>
      <g transform="translate(53.6120108696 111.16828125)scale(0.08 -0.08)">
       <use xlink:href="#ArialMT-2212"/>
       <use x="58.3984375" xlink:href="#ArialMT-39"/>
       <use x="114.013671875" xlink:href="#ArialMT-30"/>
      </g>
     </g>
    </g>
    <g id="xtick_3">
     <g id="line2d_5">
      <g>
       <use style="stroke:#000000;stroke-width:0.75;" x="81.6252717391" xlink:href="#mf00405550c" y="101.44203125"/>
      </g>
     </g>
     <g id="line2d_6">
      <g>
       <use style="stroke:#000000;stroke-width:0.75;" x="81.6252717391" xlink:href="#mf8e966bd7b" y="15.04203125"/>
      </g>
     </g>
     <g id="text_3">
      <!-- 0 -->
      <g transform="translate(79.4008967391 111.16828125)scale(0.08 -0.08)">
       <use xlink:href="#ArialMT-30"/>
      </g>
     </g>
    </g>
    <g id="xtick_4">
     <g id="line2d_7">
      <g>
       <use style="stroke:#000000;stroke-width:0.75;" x="102.853532609" xlink:href="#mf00405550c" y="101.44203125"/>
      </g>
     </g>
     <g id="line2d_8">
      <g>
       <use style="stroke:#000000;stroke-width:0.75;" x="102.853532609" xlink:href="#mf8e966bd7b" y="15.04203125"/>
      </g>
     </g>
     <g id="text_4">
      <!-- 90 -->
      <g transform="translate(98.4047826087 111.16828125)scale(0.08 -0.08)">
       <use xlink:href="#ArialMT-39"/>
       <use x="55.615234375" xlink:href="#ArialMT-30"/>
      </g>
     </g>
    </g>
    <g id="xtick_5">
     <g id="line2d_9">
      <g>
       <use style="stroke:#000000;stroke-width:0.75;" x="124.081793478" xlink:href="#mf00405550c" y="101.44203125"/>
      </g>
     </g>
     <g id="line2d_10">
      <g>
       <use style="stroke:#000000;stroke-width:0.75;" x="124.081793478" xlink:href="#mf8e966bd7b" y="15.04203125"/>
      </g>
     </g>
     <g id="text_5">
      <!-- 180 -->
      <g transform="translate(117.408668478 111.16828125)scale(0.08 -0.08)">
       <use xlink:href="#ArialMT-31"/>
       <use x="55.615234375" xlink:href="#ArialMT-38"/>
       <use x="111.23046875" xlink:href="#ArialMT-30"/>
      </g>
     </g>
    </g>
    <g id="text_6">
     <!-- $\phi$ (deg) -->
     <defs>
      <path d="M 4.984375 -4.296875 
L 13.53125 -5.5625 
Q 14.0625 -9.515625 16.5 -11.328125 
Q 19.78125 -13.765625 25.4375 -13.765625 
Q 31.546875 -13.765625 34.859375 -11.328125 
Q 38.1875 -8.890625 39.359375 -4.5 
Q 40.046875 -1.8125 39.984375 6.78125 
Q 34.234375 0 25.640625 0 
Q 14.9375 0 9.078125 7.71875 
Q 3.21875 15.4375 3.21875 26.21875 
Q 3.21875 33.640625 5.90625 39.90625 
Q 8.59375 46.1875 13.6875 49.609375 
Q 18.796875 53.03125 25.6875 53.03125 
Q 34.859375 53.03125 40.828125 45.609375 
L 40.828125 51.859375 
L 48.921875 51.859375 
L 48.921875 7.03125 
Q 48.921875 -5.078125 46.453125 -10.125 
Q 44 -15.1875 38.640625 -18.109375 
Q 33.296875 -21.046875 25.484375 -21.046875 
Q 16.21875 -21.046875 10.5 -16.875 
Q 4.78125 -12.703125 4.984375 -4.296875 
M 12.25 26.859375 
Q 12.25 16.65625 16.296875 11.96875 
Q 20.359375 7.28125 26.46875 7.28125 
Q 32.515625 7.28125 36.609375 11.9375 
Q 40.71875 16.609375 40.71875 26.5625 
Q 40.71875 36.078125 36.5 40.90625 
Q 32.28125 45.75 26.3125 45.75 
Q 20.453125 45.75 16.34375 40.984375 
Q 12.25 36.234375 12.25 26.859375 
" id="ArialMT-67"/>
      <path d="M 42.09375 16.703125 
L 51.171875 15.578125 
Q 49.03125 7.625 43.21875 3.21875 
Q 37.40625 -1.171875 28.375 -1.171875 
Q 17 -1.171875 10.328125 5.828125 
Q 3.65625 12.84375 3.65625 25.484375 
Q 3.65625 38.578125 10.390625 45.796875 
Q 17.140625 53.03125 27.875 53.03125 
Q 38.28125 53.03125 44.875 45.953125 
Q 51.46875 38.875 51.46875 26.03125 
Q 51.46875 25.25 51.421875 23.6875 
L 12.75 23.6875 
Q 13.234375 15.140625 17.578125 10.59375 
Q 21.921875 6.0625 28.421875 6.0625 
Q 33.25 6.0625 36.671875 8.59375 
Q 40.09375 11.140625 42.09375 16.703125 
M 13.234375 30.90625 
L 42.1875 30.90625 
Q 41.609375 37.453125 38.875 40.71875 
Q 34.671875 45.796875 27.984375 45.796875 
Q 21.921875 45.796875 17.796875 41.75 
Q 13.671875 37.703125 13.234375 30.90625 
" id="ArialMT-65"/>
      <path d="M 40.234375 0 
L 40.234375 6.546875 
Q 35.296875 -1.171875 25.734375 -1.171875 
Q 19.53125 -1.171875 14.328125 2.25 
Q 9.125 5.671875 6.265625 11.796875 
Q 3.421875 17.921875 3.421875 25.875 
Q 3.421875 33.640625 6 39.96875 
Q 8.59375 46.296875 13.765625 49.65625 
Q 18.953125 53.03125 25.34375 53.03125 
Q 30.03125 53.03125 33.6875 51.046875 
Q 37.359375 49.078125 39.65625 45.90625 
L 39.65625 71.578125 
L 48.390625 71.578125 
L 48.390625 0 
z
M 12.453125 25.875 
Q 12.453125 15.921875 16.640625 10.984375 
Q 20.84375 6.0625 26.5625 6.0625 
Q 32.328125 6.0625 36.34375 10.765625 
Q 40.375 15.484375 40.375 25.140625 
Q 40.375 35.796875 36.265625 40.765625 
Q 32.171875 45.75 26.171875 45.75 
Q 20.3125 45.75 16.375 40.96875 
Q 12.453125 36.1875 12.453125 25.875 
" id="ArialMT-64"/>
      <path d="M 12.359375 -21.046875 
L 6.0625 -21.046875 
Q 20.65625 2.390625 20.65625 25.875 
Q 20.65625 35.0625 18.5625 44.09375 
Q 16.890625 51.421875 13.921875 58.15625 
Q 12.015625 62.546875 6.0625 72.796875 
L 12.359375 72.796875 
Q 21.53125 60.546875 25.921875 48.1875 
Q 29.6875 37.546875 29.6875 25.921875 
Q 29.6875 12.75 24.625 0.4375 
Q 19.578125 -11.859375 12.359375 -21.046875 
" id="ArialMT-29"/>
      <path d="M 23.390625 -21.046875 
Q 16.109375 -11.859375 11.078125 0.4375 
Q 6.0625 12.75 6.0625 25.921875 
Q 6.0625 37.546875 9.8125 48.1875 
Q 14.203125 60.546875 23.390625 72.796875 
L 29.6875 72.796875 
Q 23.78125 62.640625 21.875 58.296875 
Q 18.890625 51.5625 17.1875 44.234375 
Q 15.09375 35.109375 15.09375 25.875 
Q 15.09375 2.390625 29.6875 -21.046875 
z
" id="ArialMT-28"/>
      <path d="M 19.390625 -19.484375 
L 23.875 -1.421875 
Q 18.796875 -1.421875 14.40625 0.953125 
Q 10.015625 3.328125 7.34375 7.5625 
Q 4.6875 11.8125 4.6875 16.796875 
Q 4.6875 22.21875 7.375 27.140625 
Q 10.0625 32.078125 14.71875 36.109375 
Q 19.390625 40.140625 24.75 42.3125 
Q 30.125 44.484375 35.40625 44.484375 
L 41.40625 68.796875 
Q 41.609375 69.390625 42.1875 69.390625 
L 43.40625 69.390625 
Q 43.796875 69.390625 44.03125 69.046875 
Q 44.28125 68.703125 44.28125 68.40625 
L 38.28125 44.484375 
Q 42.046875 44.484375 45.5625 43.109375 
Q 49.078125 41.75 51.78125 39.28125 
Q 54.5 36.8125 56 33.46875 
Q 57.515625 30.125 57.515625 26.3125 
Q 57.515625 20.90625 54.828125 15.96875 
Q 52.15625 11.03125 47.609375 7.078125 
Q 43.0625 3.125 37.46875 0.84375 
Q 31.890625 -1.421875 26.8125 -1.421875 
L 22.21875 -19.921875 
Q 22.015625 -20.515625 21.390625 -20.515625 
L 20.21875 -20.515625 
Q 19.828125 -20.515625 19.609375 -20.140625 
Q 19.390625 -19.78125 19.390625 -19.484375 
M 24.515625 1.21875 
L 34.71875 41.890625 
Q 32.171875 41.890625 29.390625 40.859375 
Q 26.609375 39.84375 24.140625 38.28125 
Q 21.6875 36.71875 19.671875 34.71875 
Q 17.234375 32.28125 15.375 28.953125 
Q 13.53125 25.640625 12.578125 21.953125 
Q 11.625 18.265625 11.625 14.703125 
Q 11.625 10.9375 13.234375 7.859375 
Q 14.84375 4.78125 17.765625 3 
Q 20.703125 1.21875 24.515625 1.21875 
M 27.484375 1.21875 
Q 31.25 1.21875 35.5 3.359375 
Q 39.75 5.515625 42.484375 8.40625 
Q 46.234375 12.109375 48.40625 17.5 
Q 50.59375 22.90625 50.59375 28.421875 
Q 50.59375 32.125 48.96875 35.21875 
Q 47.359375 38.328125 44.421875 40.109375 
Q 41.5 41.890625 37.703125 41.890625 
z
" id="Cmmi10-c1"/>
      <path id="ArialMT-20"/>
     </defs>
     <g transform="translate(67.1802717391 124.32828125)scale(0.09 -0.09)">
      <use transform="translate(0.0 0.203125)" xlink:href="#Cmmi10-c1"/>
      <use transform="translate(59.521484375 0.203125)" xlink:href="#ArialMT-20"/>
      <use transform="translate(87.3046875 0.203125)" xlink:href="#ArialMT-28"/>
      <use transform="translate(120.60546875 0.203125)" xlink:href="#ArialMT-64"/>
      <use transform="translate(176.220703125 0.203125)" xlink:href="#ArialMT-65"/>
      <use transform="translate(231.8359375 0.203125)" xlink:href="#ArialMT-67"/>
      <use transform="translate(287.451171875 0.203125)" xlink:href="#ArialMT-29"/>
     </g>
    </g>
   </g>
   <g id="matplotlib.axis_2">
    <g id="ytick_1">
     <g id="line2d_11">
      <defs>
       <path d="M 0 0 
L 2 0 
" id="m8f0a98f91c" style="stroke:#000000;stroke-width:0.75;"/>
      </defs>
      <g>
       <use style="stroke:#000000;stroke-width:0.75;" x="39.16875" xlink:href="#m8f0a98f91c" y="101.44203125"/>
      </g>
     </g>
     <g id="line2d_12">
      <defs>
       <path d="M 0 0 
L -2 0 
" id="m469ef1a4cc" style="stroke:#000000;stroke-width:0.75;"/>
      </defs>
      <g>
       <use style="stroke:#000000;stroke-width:0.75;" x="124.081793478" xlink:href="#m469ef1a4cc" y="101.44203125"/>
      </g>
     </g>
     <g id="text_7">
      <!-- −180 -->
      <g transform="translate(17.15 103.51015625)scale(0.08 -0.08)">
       <use xlink:href="#ArialMT-2212"/>
       <use x="58.3984375" xlink:href="#ArialMT-31"/>
       <use x="114.013671875" xlink:href="#ArialMT-38"/>
       <use x="169.62890625" xlink:href="#ArialMT-30"/>
      </g>
     </g>
    </g>
    <g id="ytick_2">
     <g id="line2d_13">
      <g>
       <use style="stroke:#000000;stroke-width:0.75;" x="39.16875" xlink:href="#m8f0a98f91c" y="79.84203125"/>
      </g>
     </g>
     <g id="line2d_14">
      <g>
       <use style="stroke:#000000;stroke-width:0.75;" x="124.081793478" xlink:href="#m469ef1a4cc" y="79.84203125"/>
      </g>
     </g>
     <g id="text_8">
      <!-- −90 -->
      <g transform="translate(21.59875 81.91015625)scale(0.08 -0.08)">
       <use xlink:href="#ArialMT-2212"/>
       <use x="58.3984375" xlink:href="#ArialMT-39"/>
       <use x="114.013671875" xlink:href="#ArialMT-30"/>
      </g>
     </g>
    </g>
    <g id="ytick_3">
     <g id="line2d_15">
      <g>
       <use style="stroke:#000000;stroke-width:0.75;" x="39.16875" xlink:href="#m8f0a98f91c" y="58.24203125"/>
      </g>
     </g>
     <g id="line2d_16">
      <g>
       <use style="stroke:#000000;stroke-width:0.75;" x="124.081793478" xlink:href="#m469ef1a4cc" y="58.24203125"/>
      </g>
     </g>
     <g id="text_9">
      <!-- 0 -->
      <g transform="translate(30.72 60.31015625)scale(0.08 -0.08)">
       <use xlink:href="#ArialMT-30"/>
      </g>
     </g>
    </g>
    <g id="ytick_4">
     <g id="line2d_17">
      <g>
       <use style="stroke:#000000;stroke-width:0.75;" x="39.16875" xlink:href="#m8f0a98f91c" y="36.64203125"/>
      </g>
     </g>
     <g id="line2d_18">
      <g>
       <use style="stroke:#000000;stroke-width:0.75;" x="124.081793478" xlink:href="#m469ef1a4cc" y="36.64203125"/>
      </g>
     </g>
     <g id="text_10">
      <!-- 90 -->
      <g transform="translate(26.27125 38.71015625)scale(0.08 -0.08)">
       <use xlink:href="#ArialMT-39"/>
       <use x="55.615234375" xlink:href="#ArialMT-30"/>
      </g>
     </g>
    </g>
    <g id="ytick_5">
     <g id="line2d_19">
      <g>
       <use style="stroke:#000000;stroke-width:0.75;" x="39.16875" xlink:href="#m8f0a98f91c" y="15.04203125"/>
      </g>
     </g>
     <g id="line2d_20">
      <g>
       <use style="stroke:#000000;stroke-width:0.75;" x="124.081793478" xlink:href="#m469ef1a4cc" y="15.04203125"/>
      </g>
     </g>
     <g id="text_11">
      <!-- 180 -->
      <g transform="translate(21.8225 17.11015625)scale(0.08 -0.08)">
       <use xlink:href="#ArialMT-31"/>
       <use x="55.615234375" xlink:href="#ArialMT-38"/>
       <use x="111.23046875" xlink:href="#ArialMT-30"/>
      </g>
     </g>
    </g>
    <g id="text_12">
     <!-- $\psi$ (deg) -->
     <defs>
      <path d="M 23.78125 -19.484375 
L 28.515625 -0.875 
Q 24.171875 -0.875 20.09375 0.75 
Q 16.015625 2.390625 13.5 5.5625 
Q 10.984375 8.734375 10.984375 13.28125 
Q 10.984375 15.875 11.90625 19.1875 
Q 12.84375 22.515625 13.890625 25.296875 
Q 14.9375 28.078125 16.703125 32.625 
Q 18.015625 36.28125 18.015625 38.625 
Q 18.015625 41.609375 15.828125 41.609375 
Q 11.859375 41.609375 9.296875 37.53125 
Q 6.734375 33.453125 5.515625 28.421875 
Q 5.328125 27.78125 4.6875 27.78125 
L 3.515625 27.78125 
Q 2.6875 27.78125 2.6875 28.71875 
L 2.6875 29 
Q 4.296875 34.96875 7.609375 39.578125 
Q 10.9375 44.1875 16.015625 44.1875 
Q 19.578125 44.1875 22.046875 41.84375 
Q 24.515625 39.5 24.515625 35.890625 
Q 24.515625 34.03125 23.6875 31.984375 
Q 21.921875 27.4375 20.890625 24.75 
Q 19.875 22.078125 18.9375 18.671875 
Q 18.015625 15.28125 18.015625 12.59375 
Q 18.015625 7.71875 21.0625 5.03125 
Q 24.125 2.34375 29.109375 1.703125 
L 45.90625 68.796875 
Q 46.09375 69.390625 46.6875 69.390625 
L 47.90625 69.390625 
Q 48.6875 69.390625 48.6875 68.40625 
L 31.984375 1.515625 
L 33.109375 1.515625 
Q 37.3125 1.515625 41.96875 4 
Q 46.625 6.5 50.453125 10.546875 
Q 54.296875 14.59375 56.546875 19.25 
Q 58.796875 23.921875 58.796875 27.984375 
Q 58.796875 31 57.8125 32.6875 
Q 56.84375 34.375 55.28125 36.203125 
Q 53.71875 38.03125 53.71875 39.109375 
Q 53.71875 41.0625 55.328125 42.671875 
Q 56.9375 44.28125 58.890625 44.28125 
Q 61.28125 44.28125 62.328125 42.078125 
Q 63.375 39.890625 63.375 37.109375 
Q 63.375 34.1875 62.78125 31.25 
Q 62.203125 28.328125 61.1875 24.3125 
Q 58.890625 15.1875 51.609375 7.90625 
Q 49.125 5.421875 46.109375 3.34375 
Q 43.109375 1.265625 39.765625 0.0625 
Q 36.421875 -1.125 33.015625 -1.125 
L 31.390625 -1.125 
L 26.703125 -19.921875 
Q 26.515625 -20.515625 25.875 -20.515625 
L 24.703125 -20.515625 
Q 24.3125 -20.515625 24.046875 -20.1875 
Q 23.78125 -19.875 23.78125 -19.484375 
" id="Cmmi10-c3"/>
     </defs>
     <g transform="translate(10.17 72.95703125)rotate(-90.0)scale(0.09 -0.09)">
      <use transform="translate(0.0 0.203125)" xlink:href="#Cmmi10-c3"/>
      <use transform="translate(65.087890625 0.203125)" xlink:href="#ArialMT-20"/>
      <use transform="translate(92.87109375 0.203125)" xlink:href="#ArialMT-28"/>
      <use transform="translate(126.171875 0.203125)" xlink:href="#ArialMT-64"/>
      <use transform="translate(181.787109375 0.203125)" xlink:href="#ArialMT-65"/>
      <use transform="translate(237.40234375 0.203125)" xlink:href="#ArialMT-67"/>
      <use transform="translate(293.017578125 0.203125)" xlink:href="#ArialMT-29"/>
     </g>
    </g>
   </g>
   <g id="text_13">
    <!-- N=252,359 -->
    <defs>
     <path d="M 8.890625 0 
L 8.890625 10.015625 
L 18.890625 10.015625 
L 18.890625 0 
Q 18.890625 -5.515625 16.9375 -8.90625 
Q 14.984375 -12.3125 10.75 -14.15625 
L 8.296875 -10.40625 
Q 11.078125 -9.1875 12.390625 -6.8125 
Q 13.71875 -4.4375 13.875 0 
z
" id="ArialMT-2c"/>
     <path d="M 52.828125 42.09375 
L 5.5625 42.09375 
L 5.5625 50.296875 
L 52.828125 50.296875 
z
M 52.828125 20.359375 
L 5.5625 20.359375 
L 5.5625 28.5625 
L 52.828125 28.5625 
z
" id="ArialMT-3d"/>
     <path d="M 50.34375 8.453125 
L 50.34375 0 
L 3.03125 0 
Q 2.9375 3.171875 4.046875 6.109375 
Q 5.859375 10.9375 9.828125 15.625 
Q 13.8125 20.3125 21.34375 26.46875 
Q 33.015625 36.03125 37.109375 41.625 
Q 41.21875 47.21875 41.21875 52.203125 
Q 41.21875 57.421875 37.46875 61 
Q 33.734375 64.59375 27.734375 64.59375 
Q 21.390625 64.59375 17.578125 60.78125 
Q 13.765625 56.984375 13.71875 50.25 
L 4.6875 51.171875 
Q 5.609375 61.28125 11.65625 66.578125 
Q 17.71875 71.875 27.9375 71.875 
Q 38.234375 71.875 44.234375 66.15625 
Q 50.25 60.453125 50.25 52 
Q 50.25 47.703125 48.484375 43.546875 
Q 46.734375 39.40625 42.65625 34.8125 
Q 38.578125 30.21875 29.109375 22.21875 
Q 21.1875 15.578125 18.9375 13.203125 
Q 16.703125 10.84375 15.234375 8.453125 
z
" id="ArialMT-32"/>
     <path d="M 4.203125 18.890625 
L 12.984375 20.0625 
Q 14.5 12.59375 18.140625 9.296875 
Q 21.78125 6 27 6 
Q 33.203125 6 37.46875 10.296875 
Q 41.75 14.59375 41.75 20.953125 
Q 41.75 27 37.796875 30.921875 
Q 33.84375 34.859375 27.734375 34.859375 
Q 25.25 34.859375 21.53125 33.890625 
L 22.515625 41.609375 
Q 23.390625 41.5 23.921875 41.5 
Q 29.546875 41.5 34.03125 44.421875 
Q 38.53125 47.359375 38.53125 53.46875 
Q 38.53125 58.296875 35.25 61.46875 
Q 31.984375 64.65625 26.8125 64.65625 
Q 21.6875 64.65625 18.265625 61.421875 
Q 14.84375 58.203125 13.875 51.765625 
L 5.078125 53.328125 
Q 6.6875 62.15625 12.390625 67.015625 
Q 18.109375 71.875 26.609375 71.875 
Q 32.46875 71.875 37.390625 69.359375 
Q 42.328125 66.84375 44.9375 62.5 
Q 47.5625 58.15625 47.5625 53.265625 
Q 47.5625 48.640625 45.0625 44.828125 
Q 42.578125 41.015625 37.703125 38.765625 
Q 44.046875 37.3125 47.5625 32.6875 
Q 51.078125 28.078125 51.078125 21.140625 
Q 51.078125 11.765625 44.234375 5.25 
Q 37.40625 -1.265625 26.953125 -1.265625 
Q 17.53125 -1.265625 11.296875 4.34375 
Q 5.078125 9.96875 4.203125 18.890625 
" id="ArialMT-33"/>
     <path d="M 7.625 0 
L 7.625 71.578125 
L 17.328125 71.578125 
L 54.9375 15.375 
L 54.9375 71.578125 
L 64.015625 71.578125 
L 64.015625 0 
L 54.296875 0 
L 16.703125 56.25 
L 16.703125 0 
z
" id="ArialMT-4e"/>
     <path d="M 4.15625 18.75 
L 13.375 19.53125 
Q 14.40625 12.796875 18.140625 9.390625 
Q 21.875 6 27.15625 6 
Q 33.5 6 37.890625 10.78125 
Q 42.28125 15.578125 42.28125 23.484375 
Q 42.28125 31 38.0625 35.34375 
Q 33.84375 39.703125 27 39.703125 
Q 22.75 39.703125 19.328125 37.765625 
Q 15.921875 35.84375 13.96875 32.765625 
L 5.71875 33.84375 
L 12.640625 70.609375 
L 48.25 70.609375 
L 48.25 62.203125 
L 19.671875 62.203125 
L 15.828125 42.96875 
Q 22.265625 47.46875 29.34375 47.46875 
Q 38.71875 47.46875 45.15625 40.96875 
Q 51.609375 34.46875 51.609375 24.265625 
Q 51.609375 14.546875 45.953125 7.46875 
Q 39.0625 -1.21875 27.15625 -1.21875 
Q 17.390625 -1.21875 11.203125 4.25 
Q 5.03125 9.71875 4.15625 18.75 
" id="ArialMT-35"/>
    </defs>
    <g transform="translate(85.3917663043 99.18678125)scale(0.07 -0.07)">
     <use xlink:href="#ArialMT-4e"/>
     <use x="72.216796875" xlink:href="#ArialMT-3d"/>
     <use x="130.615234375" xlink:href="#ArialMT-32"/>
     <use x="186.23046875" xlink:href="#ArialMT-35"/>
     <use x="241.845703125" xlink:href="#ArialMT-32"/>
     <use x="297.4609375" xlink:href="#ArialMT-2c"/>
     <use x="325.244140625" xlink:href="#ArialMT-33"/>
     <use x="380.859375" xlink:href="#ArialMT-35"/>
     <use x="436.474609375" xlink:href="#ArialMT-39"/>
    </g>
   </g>
   <g id="text_14">
    <!-- sheet C-term -->
    <defs>
     <path d="M 3.171875 21.484375 
L 3.171875 30.328125 
L 30.171875 30.328125 
L 30.171875 21.484375 
z
" id="ArialMT-2d"/>
     <path d="M 25.78125 7.859375 
L 27.046875 0.09375 
Q 23.34375 -0.6875 20.40625 -0.6875 
Q 15.625 -0.6875 12.984375 0.828125 
Q 10.359375 2.34375 9.28125 4.8125 
Q 8.203125 7.28125 8.203125 15.1875 
L 8.203125 45.015625 
L 1.765625 45.015625 
L 1.765625 51.859375 
L 8.203125 51.859375 
L 8.203125 64.703125 
L 16.9375 69.96875 
L 16.9375 51.859375 
L 25.78125 51.859375 
L 25.78125 45.015625 
L 16.9375 45.015625 
L 16.9375 14.703125 
Q 16.9375 10.9375 17.40625 9.859375 
Q 17.875 8.796875 18.921875 8.15625 
Q 19.96875 7.515625 21.921875 7.515625 
Q 23.390625 7.515625 25.78125 7.859375 
" id="ArialMT-74"/>
     <path d="M 58.796875 25.09375 
L 68.265625 22.703125 
Q 65.28125 11.03125 57.546875 4.90625 
Q 49.8125 -1.21875 38.625 -1.21875 
Q 27.046875 -1.21875 19.796875 3.484375 
Q 12.546875 8.203125 8.765625 17.140625 
Q 4.984375 26.078125 4.984375 36.328125 
Q 4.984375 47.515625 9.25 55.828125 
Q 13.53125 64.15625 21.40625 68.46875 
Q 29.296875 72.796875 38.765625 72.796875 
Q 49.515625 72.796875 56.828125 67.328125 
Q 64.15625 61.859375 67.046875 51.953125 
L 57.71875 49.75 
Q 55.21875 57.5625 50.484375 61.125 
Q 45.75 64.703125 38.578125 64.703125 
Q 30.328125 64.703125 24.78125 60.734375 
Q 19.234375 56.78125 16.984375 50.109375 
Q 14.75 43.453125 14.75 36.375 
Q 14.75 27.25 17.40625 20.4375 
Q 20.0625 13.625 25.671875 10.25 
Q 31.296875 6.890625 37.84375 6.890625 
Q 45.796875 6.890625 51.3125 11.46875 
Q 56.84375 16.0625 58.796875 25.09375 
" id="ArialMT-43"/>
     <path d="M 6.59375 0 
L 6.59375 71.578125 
L 15.375 71.578125 
L 15.375 45.90625 
Q 21.53125 53.03125 30.90625 53.03125 
Q 36.671875 53.03125 40.921875 50.75 
Q 45.171875 48.484375 47 44.484375 
Q 48.828125 40.484375 48.828125 32.859375 
L 48.828125 0 
L 40.046875 0 
L 40.046875 32.859375 
Q 40.046875 39.453125 37.1875 42.453125 
Q 34.328125 45.453125 29.109375 45.453125 
Q 25.203125 45.453125 21.75 43.421875 
Q 18.3125 41.40625 16.84375 37.9375 
Q 15.375 34.46875 15.375 28.375 
L 15.375 0 
z
" id="ArialMT-68"/>
     <path d="M 6.5 0 
L 6.5 51.859375 
L 14.40625 51.859375 
L 14.40625 44 
Q 17.4375 49.515625 20 51.265625 
Q 22.5625 53.03125 25.640625 53.03125 
Q 30.078125 53.03125 34.671875 50.203125 
L 31.640625 42.046875 
Q 28.421875 43.953125 25.203125 43.953125 
Q 22.3125 43.953125 20.015625 42.21875 
Q 17.71875 40.484375 16.75 37.40625 
Q 15.28125 32.71875 15.28125 27.15625 
L 15.28125 0 
z
" id="ArialMT-72"/>
     <path d="M 3.078125 15.484375 
L 11.765625 16.84375 
Q 12.5 11.625 15.84375 8.84375 
Q 19.1875 6.0625 25.203125 6.0625 
Q 31.25 6.0625 34.171875 8.515625 
Q 37.109375 10.984375 37.109375 14.3125 
Q 37.109375 17.28125 34.515625 19 
Q 32.71875 20.171875 25.53125 21.96875 
Q 15.875 24.421875 12.140625 26.203125 
Q 8.40625 27.984375 6.46875 31.125 
Q 4.546875 34.28125 4.546875 38.09375 
Q 4.546875 41.546875 6.125 44.5 
Q 7.71875 47.46875 10.453125 49.421875 
Q 12.5 50.921875 16.03125 51.96875 
Q 19.578125 53.03125 23.640625 53.03125 
Q 29.734375 53.03125 34.34375 51.265625 
Q 38.96875 49.515625 41.15625 46.5 
Q 43.359375 43.5 44.1875 38.484375 
L 35.59375 37.3125 
Q 35.015625 41.3125 32.203125 43.546875 
Q 29.390625 45.796875 24.265625 45.796875 
Q 18.21875 45.796875 15.625 43.796875 
Q 13.03125 41.796875 13.03125 39.109375 
Q 13.03125 37.40625 14.109375 36.03125 
Q 15.1875 34.625 17.484375 33.6875 
Q 18.796875 33.203125 25.25 31.453125 
Q 34.578125 28.953125 38.25 27.359375 
Q 41.9375 25.78125 44.03125 22.75 
Q 46.140625 19.734375 46.140625 15.234375 
Q 46.140625 10.84375 43.578125 6.953125 
Q 41.015625 3.078125 36.171875 0.953125 
Q 31.34375 -1.171875 25.25 -1.171875 
Q 15.140625 -1.171875 9.84375 3.03125 
Q 4.546875 7.234375 3.078125 15.484375 
" id="ArialMT-73"/>
     <path d="M 6.59375 0 
L 6.59375 51.859375 
L 14.453125 51.859375 
L 14.453125 44.578125 
Q 16.890625 48.390625 20.9375 50.703125 
Q 25 53.03125 30.171875 53.03125 
Q 35.9375 53.03125 39.625 50.640625 
Q 43.3125 48.25 44.828125 43.953125 
Q 50.984375 53.03125 60.84375 53.03125 
Q 68.5625 53.03125 72.703125 48.75 
Q 76.859375 44.484375 76.859375 35.59375 
L 76.859375 0 
L 68.109375 0 
L 68.109375 32.671875 
Q 68.109375 37.9375 67.25 40.25 
Q 66.40625 42.578125 64.15625 43.984375 
Q 61.921875 45.40625 58.890625 45.40625 
Q 53.421875 45.40625 49.796875 41.765625 
Q 46.1875 38.140625 46.1875 30.125 
L 46.1875 0 
L 37.40625 0 
L 37.40625 33.6875 
Q 37.40625 39.546875 35.25 42.46875 
Q 33.109375 45.40625 28.21875 45.40625 
Q 24.515625 45.40625 21.359375 43.453125 
Q 18.21875 41.5 16.796875 37.734375 
Q 15.375 33.984375 15.375 26.90625 
L 15.375 0 
z
" id="ArialMT-6d"/>
    </defs>
    <g transform="translate(55.6201936141 10.04203125)scale(0.09 -0.09)">
     <use xlink:href="#ArialMT-73"/>
     <use x="50.0" xlink:href="#ArialMT-68"/>
     <use x="105.615234375" xlink:href="#ArialMT-65"/>
     <use x="161.23046875" xlink:href="#ArialMT-65"/>
     <use x="216.845703125" xlink:href="#ArialMT-74"/>
     <use x="244.62890625" xlink:href="#ArialMT-20"/>
     <use x="272.412109375" xlink:href="#ArialMT-43"/>
     <use x="344.62890625" xlink:href="#ArialMT-2d"/>
     <use x="377.9296875" xlink:href="#ArialMT-74"/>
     <use x="405.712890625" xlink:href="#ArialMT-65"/>
     <use x="461.328125" xlink:href="#ArialMT-72"/>
     <use x="494.62890625" xlink:href="#ArialMT-6d"/>
    </g>
   </g>
  </g>
  <g id="axes_2">
   <g id="patch_7">
    <path d="M 141.064402 101.442031 
L 225.977446 101.442031 
L 225.977446 15.042031 
L 141.064402 15.042031 
z
" style="fill:#ffffff;"/>
   </g>
   <g id="PathCollection_6">
    <path clip-path="url(#p26915dc0eb)" d="M 167.730767 68.988387 
L 169.725753 66.908698 
L 168.581243 64.442031 
L 167.730767 62.886367 
L 166.467567 61.975365 
L 165.306552 61.096701 
L 162.882337 59.709558 
L 162.475775 61.975365 
L 162.882337 62.247022 
L 164.649333 64.442031 
L 165.306552 65.253886 
L 166.454775 66.908698 
z
" style="fill:#980c13;"/>
    <path clip-path="url(#p26915dc0eb)" d="M 160.458122 59.829875 
L 162.623905 59.508698 
L 160.458122 58.975297 
L 160.161245 59.508698 
z
" style="fill:#980c13;"/>
   </g>
   <g id="PathCollection_7">
    <path clip-path="url(#p26915dc0eb)" d="M 167.730767 69.947274 
L 170.154982 70.389335 
L 170.938306 69.375365 
L 170.633271 66.908698 
L 170.154982 65.724726 
L 169.43178 64.442031 
L 167.975543 61.975365 
L 167.730767 61.660822 
L 165.32969 59.508698 
L 165.306552 59.482843 
L 162.882337 57.873762 
L 161.782349 57.042031 
L 160.458122 56.19902 
L 158.033907 55.373544 
L 156.669575 57.042031 
L 157.705179 59.508698 
L 158.033907 59.852399 
L 160.051969 61.975365 
L 160.458122 62.293441 
L 162.882337 64.096302 
L 163.160652 64.442031 
L 165.207798 66.908698 
L 165.306552 67.017242 
L 167.07071 69.375365 
z
M 166.454775 66.908698 
L 165.306552 65.253886 
L 164.649333 64.442031 
L 162.882337 62.247022 
L 162.475775 61.975365 
L 162.882337 59.709558 
L 165.306552 61.096701 
L 166.467567 61.975365 
L 167.730767 62.886367 
L 168.581243 64.442031 
L 169.725753 66.908698 
L 167.730767 68.988387 
z
M 160.161245 59.508698 
L 160.458122 58.975297 
L 162.623905 59.508698 
L 160.458122 59.829875 
z
" style="fill:#d92523;"/>
   </g>
   <g id="PathCollection_8">
    <path clip-path="url(#p26915dc0eb)" d="M 167.730767 70.64993 
L 170.154982 71.588594 
L 171.864771 69.375365 
L 171.242677 66.908698 
L 170.238818 64.442031 
L 170.154982 64.31199 
L 168.566166 61.975365 
L 167.730767 60.901861 
L 166.176446 59.508698 
L 165.306552 58.536669 
L 163.463315 57.042031 
L 162.882337 56.586727 
L 160.458122 54.804358 
L 160.007247 54.575365 
L 158.033907 53.566854 
L 155.609692 53.627666 
L 154.658807 54.575365 
L 154.856905 57.042031 
L 155.609692 58.478418 
L 156.19712 59.508698 
L 158.033907 61.429145 
L 158.553136 61.975365 
L 160.458122 63.467242 
L 161.683069 64.442031 
L 162.882337 65.365814 
L 164.22157 66.908698 
L 165.306552 68.101234 
L 166.259754 69.375365 
z
M 167.07071 69.375365 
L 165.306552 67.017242 
L 165.207798 66.908698 
L 163.160652 64.442031 
L 162.882337 64.096302 
L 160.458122 62.293441 
L 160.051969 61.975365 
L 158.033907 59.852399 
L 157.705179 59.508698 
L 156.669575 57.042031 
L 158.033907 55.373544 
L 160.458122 56.19902 
L 161.782349 57.042031 
L 162.882337 57.873762 
L 165.306552 59.482843 
L 165.32969 59.508698 
L 167.730767 61.660822 
L 167.975543 61.975365 
L 169.43178 64.442031 
L 170.154982 65.724726 
L 170.633271 66.908698 
L 170.938306 69.375365 
L 170.154982 70.389335 
L 167.730767 69.947274 
z
" style="fill:#fb6b4b;"/>
   </g>
   <g id="PathCollection_9">
    <path clip-path="url(#p26915dc0eb)" d="M 170.154982 72.412073 
L 172.379932 71.842031 
L 172.579197 71.260306 
L 172.73975 69.375365 
L 172.579197 68.978364 
L 171.852083 66.908698 
L 170.798806 64.442031 
L 170.154982 63.443378 
L 169.156789 61.975365 
L 167.730767 60.1429 
L 167.023202 59.508698 
L 165.306552 57.590494 
L 164.630169 57.042031 
L 162.882337 55.672281 
L 161.453616 54.575365 
L 160.458122 53.627992 
L 158.033907 52.163454 
L 157.753133 52.108698 
L 155.609692 51.725481 
L 154.566781 52.108698 
L 153.185477 53.468282 
L 152.802323 54.575365 
L 153.185477 56.078892 
L 153.470724 57.042031 
L 154.898413 59.508698 
L 155.609692 60.305424 
L 157.214299 61.975365 
L 158.033907 62.701333 
L 160.221455 64.442031 
L 160.458122 64.623265 
L 162.882337 66.502012 
L 163.235342 66.908698 
L 165.306552 69.185226 
L 165.448799 69.375365 
L 167.730767 71.352586 
L 168.867705 71.842031 
z
M 166.259754 69.375365 
L 165.306552 68.101234 
L 164.22157 66.908698 
L 162.882337 65.365814 
L 161.683069 64.442031 
L 160.458122 63.467242 
L 158.553136 61.975365 
L 158.033907 61.429145 
L 156.19712 59.508698 
L 155.609692 58.478418 
L 154.856905 57.042031 
L 154.658807 54.575365 
L 155.609692 53.627666 
L 158.033907 53.566854 
L 160.007247 54.575365 
L 160.458122 54.804358 
L 162.882337 56.586727 
L 163.463315 57.042031 
L 165.306552 58.536669 
L 166.176446 59.508698 
L 167.730767 60.901861 
L 168.566166 61.975365 
L 170.154982 64.31199 
L 170.238818 64.442031 
L 171.242677 66.908698 
L 171.864771 69.375365 
L 170.154982 71.588594 
L 167.730767 70.64993 
z
" style="fill:#fcab8f;"/>
   </g>
   <g id="PathCollection_10">
    <path clip-path="url(#p26915dc0eb)" d="M 167.730767 72.016655 
L 170.154982 73.13486 
L 172.579197 72.95967 
L 173.470717 71.842031 
L 173.441257 69.375365 
L 172.579197 67.243745 
L 172.461488 66.908698 
L 171.358793 64.442031 
L 170.154982 62.574766 
L 169.747412 61.975365 
L 167.867003 59.508698 
L 167.730767 59.340861 
L 165.687934 57.042031 
L 165.306552 56.625621 
L 162.882337 54.757834 
L 162.644672 54.575365 
L 160.458122 52.494509 
L 159.824057 52.108698 
L 158.033907 51.063605 
L 155.609692 50.438898 
L 153.185477 50.983576 
L 152.110925 52.108698 
L 151.609572 54.575365 
L 152.424735 57.042031 
L 153.185477 58.591451 
L 153.733288 59.508698 
L 155.609692 61.610517 
L 155.960266 61.975365 
L 158.033907 63.812093 
L 158.825555 64.442031 
L 160.458122 65.692211 
L 162.007941 66.908698 
L 162.882337 67.501665 
L 164.605996 69.375365 
L 165.306552 69.915354 
L 167.504122 71.842031 
z
M 168.867705 71.842031 
L 167.730767 71.352586 
L 165.448799 69.375365 
L 165.306552 69.185226 
L 163.235342 66.908698 
L 162.882337 66.502012 
L 160.458122 64.623265 
L 160.221455 64.442031 
L 158.033907 62.701333 
L 157.214299 61.975365 
L 155.609692 60.305424 
L 154.898413 59.508698 
L 153.470724 57.042031 
L 153.185477 56.078892 
L 152.802323 54.575365 
L 153.185477 53.468282 
L 154.566781 52.108698 
L 155.609692 51.725481 
L 157.753133 52.108698 
L 158.033907 52.163454 
L 160.458122 53.627992 
L 161.453616 54.575365 
L 162.882337 55.672281 
L 164.630169 57.042031 
L 165.306552 57.590494 
L 167.023202 59.508698 
L 167.730767 60.1429 
L 169.156789 61.975365 
L 170.154982 63.443378 
L 170.798806 64.442031 
L 171.852083 66.908698 
L 172.579197 68.978364 
L 172.73975 69.375365 
L 172.579197 71.260306 
L 172.379932 71.842031 
L 170.154982 72.412073 
z
" style="fill:#fee5d8;"/>
   </g>
   <g id="patch_8">
    <path d="M 141.064402 15.042031 
L 225.977446 15.042031 
" style="fill:none;stroke:#000000;stroke-linecap:square;stroke-linejoin:miter;stroke-width:0.5;"/>
   </g>
   <g id="patch_9">
    <path d="M 225.977446 101.442031 
L 225.977446 15.042031 
" style="fill:none;stroke:#000000;stroke-linecap:square;stroke-linejoin:miter;stroke-width:0.5;"/>
   </g>
   <g id="patch_10">
    <path d="M 141.064402 101.442031 
L 225.977446 101.442031 
" style="fill:none;stroke:#000000;stroke-linecap:square;stroke-linejoin:miter;stroke-width:0.5;"/>
   </g>
   <g id="patch_11">
    <path d="M 141.064402 101.442031 
L 141.064402 15.042031 
" style="fill:none;stroke:#000000;stroke-linecap:square;stroke-linejoin:miter;stroke-width:0.5;"/>
   </g>
   <g id="matplotlib.axis_3">
    <g id="xtick_6">
     <g id="line2d_21">
      <g>
       <use style="stroke:#000000;stroke-width:0.75;" x="141.064402174" xlink:href="#mf00405550c" y="101.44203125"/>
      </g>
     </g>
     <g id="line2d_22">
      <g>
       <use style="stroke:#000000;stroke-width:0.75;" x="141.064402174" xlink:href="#mf8e966bd7b" y="15.04203125"/>
      </g>
     </g>
     <g id="text_15">
      <!-- −180 -->
      <g transform="translate(132.055027174 111.16828125)scale(0.08 -0.08)">
       <use xlink:href="#ArialMT-2212"/>
       <use x="58.3984375" xlink:href="#ArialMT-31"/>
       <use x="114.013671875" xlink:href="#ArialMT-38"/>
       <use x="169.62890625" xlink:href="#ArialMT-30"/>
      </g>
     </g>
    </g>
    <g id="xtick_7">
     <g id="line2d_23">
      <g>
       <use style="stroke:#000000;stroke-width:0.75;" x="162.292663043" xlink:href="#mf00405550c" y="101.44203125"/>
      </g>
     </g>
     <g id="line2d_24">
      <g>
       <use style="stroke:#000000;stroke-width:0.75;" x="162.292663043" xlink:href="#mf8e966bd7b" y="15.04203125"/>
      </g>
     </g>
     <g id="text_16">
      <!-- −90 -->
      <g transform="translate(155.507663043 111.16828125)scale(0.08 -0.08)">
       <use xlink:href="#ArialMT-2212"/>
       <use x="58.3984375" xlink:href="#ArialMT-39"/>
       <use x="114.013671875" xlink:href="#ArialMT-30"/>
      </g>
     </g>
    </g>
    <g id="xtick_8">
     <g id="line2d_25">
      <g>
       <use style="stroke:#000000;stroke-width:0.75;" x="183.520923913" xlink:href="#mf00405550c" y="101.44203125"/>
      </g>
     </g>
     <g id="line2d_26">
      <g>
       <use style="stroke:#000000;stroke-width:0.75;" x="183.520923913" xlink:href="#mf8e966bd7b" y="15.04203125"/>
      </g>
     </g>
     <g id="text_17">
      <!-- 0 -->
      <g transform="translate(181.296548913 111.16828125)scale(0.08 -0.08)">
       <use xlink:href="#ArialMT-30"/>
      </g>
     </g>
    </g>
    <g id="xtick_9">
     <g id="line2d_27">
      <g>
       <use style="stroke:#000000;stroke-width:0.75;" x="204.749184783" xlink:href="#mf00405550c" y="101.44203125"/>
      </g>
     </g>
     <g id="line2d_28">
      <g>
       <use style="stroke:#000000;stroke-width:0.75;" x="204.749184783" xlink:href="#mf8e966bd7b" y="15.04203125"/>
      </g>
     </g>
     <g id="text_18">
      <!-- 90 -->
      <g transform="translate(200.300434783 111.16828125)scale(0.08 -0.08)">
       <use xlink:href="#ArialMT-39"/>
       <use x="55.615234375" xlink:href="#ArialMT-30"/>
      </g>
     </g>
    </g>
    <g id="xtick_10">
     <g id="line2d_29">
      <g>
       <use style="stroke:#000000;stroke-width:0.75;" x="225.977445652" xlink:href="#mf00405550c" y="101.44203125"/>
      </g>
     </g>
     <g id="line2d_30">
      <g>
       <use style="stroke:#000000;stroke-width:0.75;" x="225.977445652" xlink:href="#mf8e966bd7b" y="15.04203125"/>
      </g>
     </g>
     <g id="text_19">
      <!-- 180 -->
      <g transform="translate(219.304320652 111.16828125)scale(0.08 -0.08)">
       <use xlink:href="#ArialMT-31"/>
       <use x="55.615234375" xlink:href="#ArialMT-38"/>
       <use x="111.23046875" xlink:href="#ArialMT-30"/>
      </g>
     </g>
    </g>
    <g id="text_20">
     <!-- $\phi$ (deg) -->
     <g transform="translate(169.075923913 124.32828125)scale(0.09 -0.09)">
      <use transform="translate(0.0 0.203125)" xlink:href="#Cmmi10-c1"/>
      <use transform="translate(59.521484375 0.203125)" xlink:href="#ArialMT-20"/>
      <use transform="translate(87.3046875 0.203125)" xlink:href="#ArialMT-28"/>
      <use transform="translate(120.60546875 0.203125)" xlink:href="#ArialMT-64"/>
      <use transform="translate(176.220703125 0.203125)" xlink:href="#ArialMT-65"/>
      <use transform="translate(231.8359375 0.203125)" xlink:href="#ArialMT-67"/>
      <use transform="translate(287.451171875 0.203125)" xlink:href="#ArialMT-29"/>
     </g>
    </g>
   </g>
   <g id="matplotlib.axis_4">
    <g id="ytick_6">
     <g id="line2d_31">
      <g>
       <use style="stroke:#000000;stroke-width:0.75;" x="141.064402174" xlink:href="#m8f0a98f91c" y="101.44203125"/>
      </g>
     </g>
     <g id="line2d_32">
      <g>
       <use style="stroke:#000000;stroke-width:0.75;" x="225.977445652" xlink:href="#m469ef1a4cc" y="101.44203125"/>
      </g>
     </g>
    </g>
    <g id="ytick_7">
     <g id="line2d_33">
      <g>
       <use style="stroke:#000000;stroke-width:0.75;" x="141.064402174" xlink:href="#m8f0a98f91c" y="79.84203125"/>
      </g>
     </g>
     <g id="line2d_34">
      <g>
       <use style="stroke:#000000;stroke-width:0.75;" x="225.977445652" xlink:href="#m469ef1a4cc" y="79.84203125"/>
      </g>
     </g>
    </g>
    <g id="ytick_8">
     <g id="line2d_35">
      <g>
       <use style="stroke:#000000;stroke-width:0.75;" x="141.064402174" xlink:href="#m8f0a98f91c" y="58.24203125"/>
      </g>
     </g>
     <g id="line2d_36">
      <g>
       <use style="stroke:#000000;stroke-width:0.75;" x="225.977445652" xlink:href="#m469ef1a4cc" y="58.24203125"/>
      </g>
     </g>
    </g>
    <g id="ytick_9">
     <g id="line2d_37">
      <g>
       <use style="stroke:#000000;stroke-width:0.75;" x="141.064402174" xlink:href="#m8f0a98f91c" y="36.64203125"/>
      </g>
     </g>
     <g id="line2d_38">
      <g>
       <use style="stroke:#000000;stroke-width:0.75;" x="225.977445652" xlink:href="#m469ef1a4cc" y="36.64203125"/>
      </g>
     </g>
    </g>
    <g id="ytick_10">
     <g id="line2d_39">
      <g>
       <use style="stroke:#000000;stroke-width:0.75;" x="141.064402174" xlink:href="#m8f0a98f91c" y="15.04203125"/>
      </g>
     </g>
     <g id="line2d_40">
      <g>
       <use style="stroke:#000000;stroke-width:0.75;" x="225.977445652" xlink:href="#m469ef1a4cc" y="15.04203125"/>
      </g>
     </g>
    </g>
   </g>
   <g id="text_21">
    <!-- N=429,855 -->
    <defs>
     <path d="M 32.328125 0 
L 32.328125 17.140625 
L 1.265625 17.140625 
L 1.265625 25.203125 
L 33.9375 71.578125 
L 41.109375 71.578125 
L 41.109375 25.203125 
L 50.78125 25.203125 
L 50.78125 17.140625 
L 41.109375 17.140625 
L 41.109375 0 
z
M 32.328125 25.203125 
L 32.328125 57.46875 
L 9.90625 25.203125 
z
" id="ArialMT-34"/>
    </defs>
    <g transform="translate(187.287418478 99.18678125)scale(0.07 -0.07)">
     <use xlink:href="#ArialMT-4e"/>
     <use x="72.216796875" xlink:href="#ArialMT-3d"/>
     <use x="130.615234375" xlink:href="#ArialMT-34"/>
     <use x="186.23046875" xlink:href="#ArialMT-32"/>
     <use x="241.845703125" xlink:href="#ArialMT-39"/>
     <use x="297.4609375" xlink:href="#ArialMT-2c"/>
     <use x="325.244140625" xlink:href="#ArialMT-38"/>
     <use x="380.859375" xlink:href="#ArialMT-35"/>
     <use x="436.474609375" xlink:href="#ArialMT-35"/>
    </g>
   </g>
   <g id="text_22">
    <!-- type I turn -->
    <defs>
     <path d="M 9.328125 0 
L 9.328125 71.578125 
L 18.796875 71.578125 
L 18.796875 0 
z
" id="ArialMT-49"/>
     <path d="M 40.578125 0 
L 40.578125 7.625 
Q 34.515625 -1.171875 24.125 -1.171875 
Q 19.53125 -1.171875 15.546875 0.578125 
Q 11.578125 2.34375 9.640625 5 
Q 7.71875 7.671875 6.9375 11.53125 
Q 6.390625 14.109375 6.390625 19.734375 
L 6.390625 51.859375 
L 15.1875 51.859375 
L 15.1875 23.09375 
Q 15.1875 16.21875 15.71875 13.8125 
Q 16.546875 10.359375 19.234375 8.375 
Q 21.921875 6.390625 25.875 6.390625 
Q 29.828125 6.390625 33.296875 8.421875 
Q 36.765625 10.453125 38.203125 13.9375 
Q 39.65625 17.4375 39.65625 24.078125 
L 39.65625 51.859375 
L 48.4375 51.859375 
L 48.4375 0 
z
" id="ArialMT-75"/>
     <path d="M 6.59375 -19.875 
L 6.59375 51.859375 
L 14.59375 51.859375 
L 14.59375 45.125 
Q 17.4375 49.078125 21 51.046875 
Q 24.5625 53.03125 29.640625 53.03125 
Q 36.28125 53.03125 41.359375 49.609375 
Q 46.4375 46.1875 49.015625 39.953125 
Q 51.609375 33.734375 51.609375 26.3125 
Q 51.609375 18.359375 48.75 11.984375 
Q 45.90625 5.609375 40.453125 2.21875 
Q 35.015625 -1.171875 29 -1.171875 
Q 24.609375 -1.171875 21.109375 0.6875 
Q 17.625 2.546875 15.375 5.375 
L 15.375 -19.875 
z
M 14.546875 25.640625 
Q 14.546875 15.625 18.59375 10.84375 
Q 22.65625 6.0625 28.421875 6.0625 
Q 34.28125 6.0625 38.453125 11.015625 
Q 42.625 15.96875 42.625 26.375 
Q 42.625 36.28125 38.546875 41.203125 
Q 34.46875 46.140625 28.8125 46.140625 
Q 23.1875 46.140625 18.859375 40.890625 
Q 14.546875 35.640625 14.546875 25.640625 
" id="ArialMT-70"/>
     <path d="M 6.203125 -19.96875 
L 5.21875 -11.71875 
Q 8.109375 -12.5 10.25 -12.5 
Q 13.1875 -12.5 14.9375 -11.515625 
Q 16.703125 -10.546875 17.828125 -8.796875 
Q 18.65625 -7.46875 20.515625 -2.25 
Q 20.75 -1.515625 21.296875 -0.09375 
L 1.609375 51.859375 
L 11.078125 51.859375 
L 21.875 21.828125 
Q 23.96875 16.109375 25.640625 9.8125 
Q 27.15625 15.875 29.25 21.625 
L 40.328125 51.859375 
L 49.125 51.859375 
L 29.390625 -0.875 
Q 26.21875 -9.421875 24.46875 -12.640625 
Q 22.125 -17 19.09375 -19.015625 
Q 16.0625 -21.046875 11.859375 -21.046875 
Q 9.328125 -21.046875 6.203125 -19.96875 
" id="ArialMT-79"/>
     <path d="M 6.59375 0 
L 6.59375 51.859375 
L 14.5 51.859375 
L 14.5 44.484375 
Q 20.21875 53.03125 31 53.03125 
Q 35.6875 53.03125 39.625 51.34375 
Q 43.5625 49.65625 45.515625 46.921875 
Q 47.46875 44.1875 48.25 40.4375 
Q 48.734375 37.984375 48.734375 31.890625 
L 48.734375 0 
L 39.9375 0 
L 39.9375 31.546875 
Q 39.9375 36.921875 38.90625 39.578125 
Q 37.890625 42.234375 35.28125 43.8125 
Q 32.671875 45.40625 29.15625 45.40625 
Q 23.53125 45.40625 19.453125 41.84375 
Q 15.375 38.28125 15.375 28.328125 
L 15.375 0 
z
" id="ArialMT-6e"/>
    </defs>
    <g transform="translate(163.512095788 10.04203125)scale(0.09 -0.09)">
     <use xlink:href="#ArialMT-74"/>
     <use x="27.783203125" xlink:href="#ArialMT-79"/>
     <use x="77.783203125" xlink:href="#ArialMT-70"/>
     <use x="133.3984375" xlink:href="#ArialMT-65"/>
     <use x="189.013671875" xlink:href="#ArialMT-20"/>
     <use x="216.796875" xlink:href="#ArialMT-49"/>
     <use x="244.580078125" xlink:href="#ArialMT-20"/>
     <use x="272.36328125" xlink:href="#ArialMT-74"/>
     <use x="300.146484375" xlink:href="#ArialMT-75"/>
     <use x="355.76171875" xlink:href="#ArialMT-72"/>
     <use x="389.0625" xlink:href="#ArialMT-6e"/>
    </g>
   </g>
  </g>
  <g id="axes_3">
   <g id="patch_12">
    <path d="M 242.960054 101.442031 
L 327.873098 101.442031 
L 327.873098 15.042031 
L 242.960054 15.042031 
z
" style="fill:#ffffff;"/>
   </g>
   <g id="PathCollection_11">
    <path clip-path="url(#p2fd4c8c14d)" d="M 272.050634 29.942193 
L 272.098987 29.908698 
L 272.965769 27.442031 
L 272.050634 25.897389 
L 269.626419 26.096294 
L 269.03054 27.442031 
L 269.626419 29.848729 
L 270.359635 29.908698 
z
" style="fill:#980c13;"/>
   </g>
   <g id="PathCollection_12">
    <path clip-path="url(#p2fd4c8c14d)" d="M 298.716999 54.831559 
L 298.881678 54.575365 
L 298.716999 54.328288 
L 298.650492 54.575365 
z
" style="fill:#d92523;"/>
    <path clip-path="url(#p2fd4c8c14d)" d="M 269.626419 31.013659 
L 272.050634 30.843661 
L 273.400318 29.908698 
L 273.880903 27.442031 
L 272.348828 24.975365 
L 272.050634 24.70418 
L 269.626419 24.57962 
L 269.174501 24.975365 
L 268.108944 27.442031 
L 268.352229 29.908698 
z
M 270.359635 29.908698 
L 269.626419 29.848729 
L 269.03054 27.442031 
L 269.626419 26.096294 
L 272.050634 25.897389 
L 272.965769 27.442031 
L 272.098987 29.908698 
L 272.050634 29.942193 
z
" style="fill:#d92523;"/>
   </g>
   <g id="PathCollection_13">
    <path clip-path="url(#p2fd4c8c14d)" d="M 301.141214 60.627312 
L 302.802553 59.508698 
L 302.12746 57.042031 
L 301.155439 54.575365 
L 301.141214 54.551692 
L 299.043746 52.108698 
L 298.716999 51.750751 
L 297.293011 52.108698 
L 297.717059 54.575365 
L 298.452053 57.042031 
L 298.716999 57.476188 
L 300.501345 59.508698 
z
M 298.650492 54.575365 
L 298.716999 54.328288 
L 298.881678 54.575365 
L 298.716999 54.831559 
z
" style="fill:#fb6b4b;"/>
    <path clip-path="url(#p2fd4c8c14d)" d="M 267.202204 30.22845 
L 269.626419 32.136714 
L 272.050634 31.745129 
L 274.474849 30.119662 
L 274.629033 29.908698 
L 274.683617 27.442031 
L 274.474849 27.052905 
L 273.08861 24.975365 
L 272.050634 24.031402 
L 269.626419 23.721988 
L 268.195132 24.975365 
L 267.202204 27.403424 
L 267.192771 27.442031 
L 267.125741 29.908698 
z
M 268.352229 29.908698 
L 268.108944 27.442031 
L 269.174501 24.975365 
L 269.626419 24.57962 
L 272.050634 24.70418 
L 272.348828 24.975365 
L 273.880903 27.442031 
L 273.400318 29.908698 
L 272.050634 30.843661 
L 269.626419 31.013659 
z
" style="fill:#fb6b4b;"/>
   </g>
   <g id="PathCollection_14">
    <path clip-path="url(#p2fd4c8c14d)" d="M 301.141214 62.30139 
L 303.565429 62.790379 
L 304.760086 61.975365 
L 304.187939 59.508698 
L 303.565429 57.993352 
L 303.125116 57.042031 
L 301.790807 54.575365 
L 301.141214 53.494343 
L 299.951548 52.108698 
L 298.716999 50.756267 
L 296.292784 49.861007 
L 295.761229 52.108698 
L 296.292784 53.556464 
L 296.783625 54.575365 
L 297.764322 57.042031 
L 298.716999 58.603147 
L 299.511985 59.508698 
L 301.008536 61.975365 
z
M 300.501345 59.508698 
L 298.716999 57.476188 
L 298.452053 57.042031 
L 297.717059 54.575365 
L 297.293011 52.108698 
L 298.716999 51.750751 
L 299.043746 52.108698 
L 301.141214 54.551692 
L 301.155439 54.575365 
L 302.12746 57.042031 
L 302.802553 59.508698 
L 301.141214 60.627312 
z
" style="fill:#fcab8f;"/>
    <path clip-path="url(#p2fd4c8c14d)" d="M 267.202204 32.732145 
L 269.626419 33.200747 
L 272.050634 32.609672 
L 272.677062 32.375365 
L 274.474849 31.330132 
L 275.513706 29.908698 
L 275.278441 27.442031 
L 274.474849 25.944201 
L 273.828393 24.975365 
L 272.050634 23.358625 
L 269.626419 22.864356 
L 267.215763 24.975365 
L 267.202204 25.008522 
L 266.607611 27.442031 
L 266.44296 29.908698 
L 266.923524 32.375365 
z
M 267.125741 29.908698 
L 267.192771 27.442031 
L 267.202204 27.403424 
L 268.195132 24.975365 
L 269.626419 23.721988 
L 272.050634 24.031402 
L 273.08861 24.975365 
L 274.474849 27.052905 
L 274.683617 27.442031 
L 274.629033 29.908698 
L 274.474849 30.119662 
L 272.050634 31.745129 
L 269.626419 32.136714 
L 267.202204 30.22845 
z
" style="fill:#fcab8f;"/>
   </g>
   <g id="PathCollection_15">
    <path clip-path="url(#p2fd4c8c14d)" d="M 301.141214 63.779324 
L 303.565429 64.299934 
L 305.989644 63.08277 
L 306.455746 61.975365 
L 305.989644 61.234341 
L 305.073424 59.508698 
L 304.011244 57.042031 
L 303.565429 56.456071 
L 302.426175 54.575365 
L 301.141214 52.436994 
L 300.859351 52.108698 
L 298.716999 49.761782 
L 298.438357 49.642031 
L 296.292784 48.801264 
L 294.990667 49.642031 
L 295.049814 52.108698 
L 296.054213 54.575365 
L 296.292784 55.300077 
L 297.076591 57.042031 
L 298.594682 59.508698 
L 298.716999 59.669888 
L 300.407082 61.975365 
z
M 301.008536 61.975365 
L 299.511985 59.508698 
L 298.716999 58.603147 
L 297.764322 57.042031 
L 296.783625 54.575365 
L 296.292784 53.556464 
L 295.761229 52.108698 
L 296.292784 49.861007 
L 298.716999 50.756267 
L 299.951548 52.108698 
L 301.141214 53.494343 
L 301.790807 54.575365 
L 303.125116 57.042031 
L 303.565429 57.993352 
L 304.187939 59.508698 
L 304.760086 61.975365 
L 303.565429 62.790379 
L 301.141214 62.30139 
z
" style="fill:#fee5d8;"/>
    <path clip-path="url(#p2fd4c8c14d)" d="M 267.202204 34.17032 
L 269.626419 34.248852 
L 272.050634 33.388414 
L 274.474849 32.48176 
L 274.712318 32.375365 
L 276.39838 29.908698 
L 275.873266 27.442031 
L 274.554835 24.975365 
L 274.474849 24.905751 
L 272.050634 22.685847 
L 271.29844 22.508698 
L 269.626419 21.812866 
L 268.821416 22.508698 
L 267.202204 23.850998 
L 266.434211 24.975365 
L 266.02245 27.442031 
L 265.76018 29.908698 
L 265.800171 32.375365 
z
M 266.923524 32.375365 
L 266.44296 29.908698 
L 266.607611 27.442031 
L 267.202204 25.008522 
L 267.215763 24.975365 
L 269.626419 22.864356 
L 272.050634 23.358625 
L 273.828393 24.975365 
L 274.474849 25.944201 
L 275.278441 27.442031 
L 275.513706 29.908698 
L 274.474849 31.330132 
L 272.677062 32.375365 
L 272.050634 32.609672 
L 269.626419 33.200747 
L 267.202204 32.732145 
z
" style="fill:#fee5d8;"/>
   </g>
   <g id="patch_13">
    <path d="M 242.960054 15.042031 
L 327.873098 15.042031 
" style="fill:none;stroke:#000000;stroke-linecap:square;stroke-linejoin:miter;stroke-width:0.5;"/>
   </g>
   <g id="patch_14">
    <path d="M 327.873098 101.442031 
L 327.873098 15.042031 
" style="fill:none;stroke:#000000;stroke-linecap:square;stroke-linejoin:miter;stroke-width:0.5;"/>
   </g>
   <g id="patch_15">
    <path d="M 242.960054 101.442031 
L 327.873098 101.442031 
" style="fill:none;stroke:#000000;stroke-linecap:square;stroke-linejoin:miter;stroke-width:0.5;"/>
   </g>
   <g id="patch_16">
    <path d="M 242.960054 101.442031 
L 242.960054 15.042031 
" style="fill:none;stroke:#000000;stroke-linecap:square;stroke-linejoin:miter;stroke-width:0.5;"/>
   </g>
   <g id="matplotlib.axis_5">
    <g id="xtick_11">
     <g id="line2d_41">
      <g>
       <use style="stroke:#000000;stroke-width:0.75;" x="242.960054348" xlink:href="#mf00405550c" y="101.44203125"/>
      </g>
     </g>
     <g id="line2d_42">
      <g>
       <use style="stroke:#000000;stroke-width:0.75;" x="242.960054348" xlink:href="#mf8e966bd7b" y="15.04203125"/>
      </g>
     </g>
     <g id="text_23">
      <!-- −180 -->
      <g transform="translate(233.950679348 111.16828125)scale(0.08 -0.08)">
       <use xlink:href="#ArialMT-2212"/>
       <use x="58.3984375" xlink:href="#ArialMT-31"/>
       <use x="114.013671875" xlink:href="#ArialMT-38"/>
       <use x="169.62890625" xlink:href="#ArialMT-30"/>
      </g>
     </g>
    </g>
    <g id="xtick_12">
     <g id="line2d_43">
      <g>
       <use style="stroke:#000000;stroke-width:0.75;" x="264.188315217" xlink:href="#mf00405550c" y="101.44203125"/>
      </g>
     </g>
     <g id="line2d_44">
      <g>
       <use style="stroke:#000000;stroke-width:0.75;" x="264.188315217" xlink:href="#mf8e966bd7b" y="15.04203125"/>
      </g>
     </g>
     <g id="text_24">
      <!-- −90 -->
      <g transform="translate(257.403315217 111.16828125)scale(0.08 -0.08)">
       <use xlink:href="#ArialMT-2212"/>
       <use x="58.3984375" xlink:href="#ArialMT-39"/>
       <use x="114.013671875" xlink:href="#ArialMT-30"/>
      </g>
     </g>
    </g>
    <g id="xtick_13">
     <g id="line2d_45">
      <g>
       <use style="stroke:#000000;stroke-width:0.75;" x="285.416576087" xlink:href="#mf00405550c" y="101.44203125"/>
      </g>
     </g>
     <g id="line2d_46">
      <g>
       <use style="stroke:#000000;stroke-width:0.75;" x="285.416576087" xlink:href="#mf8e966bd7b" y="15.04203125"/>
      </g>
     </g>
     <g id="text_25">
      <!-- 0 -->
      <g transform="translate(283.192201087 111.16828125)scale(0.08 -0.08)">
       <use xlink:href="#ArialMT-30"/>
      </g>
     </g>
    </g>
    <g id="xtick_14">
     <g id="line2d_47">
      <g>
       <use style="stroke:#000000;stroke-width:0.75;" x="306.644836957" xlink:href="#mf00405550c" y="101.44203125"/>
      </g>
     </g>
     <g id="line2d_48">
      <g>
       <use style="stroke:#000000;stroke-width:0.75;" x="306.644836957" xlink:href="#mf8e966bd7b" y="15.04203125"/>
      </g>
     </g>
     <g id="text_26">
      <!-- 90 -->
      <g transform="translate(302.196086957 111.16828125)scale(0.08 -0.08)">
       <use xlink:href="#ArialMT-39"/>
       <use x="55.615234375" xlink:href="#ArialMT-30"/>
      </g>
     </g>
    </g>
    <g id="xtick_15">
     <g id="line2d_49">
      <g>
       <use style="stroke:#000000;stroke-width:0.75;" x="327.873097826" xlink:href="#mf00405550c" y="101.44203125"/>
      </g>
     </g>
     <g id="line2d_50">
      <g>
       <use style="stroke:#000000;stroke-width:0.75;" x="327.873097826" xlink:href="#mf8e966bd7b" y="15.04203125"/>
      </g>
     </g>
     <g id="text_27">
      <!-- 180 -->
      <g transform="translate(321.199972826 111.16828125)scale(0.08 -0.08)">
       <use xlink:href="#ArialMT-31"/>
       <use x="55.615234375" xlink:href="#ArialMT-38"/>
       <use x="111.23046875" xlink:href="#ArialMT-30"/>
      </g>
     </g>
    </g>
    <g id="text_28">
     <!-- $\phi$ (deg) -->
     <g transform="translate(270.971576087 124.32828125)scale(0.09 -0.09)">
      <use transform="translate(0.0 0.203125)" xlink:href="#Cmmi10-c1"/>
      <use transform="translate(59.521484375 0.203125)" xlink:href="#ArialMT-20"/>
      <use transform="translate(87.3046875 0.203125)" xlink:href="#ArialMT-28"/>
      <use transform="translate(120.60546875 0.203125)" xlink:href="#ArialMT-64"/>
      <use transform="translate(176.220703125 0.203125)" xlink:href="#ArialMT-65"/>
      <use transform="translate(231.8359375 0.203125)" xlink:href="#ArialMT-67"/>
      <use transform="translate(287.451171875 0.203125)" xlink:href="#ArialMT-29"/>
     </g>
    </g>
   </g>
   <g id="matplotlib.axis_6">
    <g id="ytick_11">
     <g id="line2d_51">
      <g>
       <use style="stroke:#000000;stroke-width:0.75;" x="242.960054348" xlink:href="#m8f0a98f91c" y="101.44203125"/>
      </g>
     </g>
     <g id="line2d_52">
      <g>
       <use style="stroke:#000000;stroke-width:0.75;" x="327.873097826" xlink:href="#m469ef1a4cc" y="101.44203125"/>
      </g>
     </g>
    </g>
    <g id="ytick_12">
     <g id="line2d_53">
      <g>
       <use style="stroke:#000000;stroke-width:0.75;" x="242.960054348" xlink:href="#m8f0a98f91c" y="79.84203125"/>
      </g>
     </g>
     <g id="line2d_54">
      <g>
       <use style="stroke:#000000;stroke-width:0.75;" x="327.873097826" xlink:href="#m469ef1a4cc" y="79.84203125"/>
      </g>
     </g>
    </g>
    <g id="ytick_13">
     <g id="line2d_55">
      <g>
       <use style="stroke:#000000;stroke-width:0.75;" x="242.960054348" xlink:href="#m8f0a98f91c" y="58.24203125"/>
      </g>
     </g>
     <g id="line2d_56">
      <g>
       <use style="stroke:#000000;stroke-width:0.75;" x="327.873097826" xlink:href="#m469ef1a4cc" y="58.24203125"/>
      </g>
     </g>
    </g>
    <g id="ytick_14">
     <g id="line2d_57">
      <g>
       <use style="stroke:#000000;stroke-width:0.75;" x="242.960054348" xlink:href="#m8f0a98f91c" y="36.64203125"/>
      </g>
     </g>
     <g id="line2d_58">
      <g>
       <use style="stroke:#000000;stroke-width:0.75;" x="327.873097826" xlink:href="#m469ef1a4cc" y="36.64203125"/>
      </g>
     </g>
    </g>
    <g id="ytick_15">
     <g id="line2d_59">
      <g>
       <use style="stroke:#000000;stroke-width:0.75;" x="242.960054348" xlink:href="#m8f0a98f91c" y="15.04203125"/>
      </g>
     </g>
     <g id="line2d_60">
      <g>
       <use style="stroke:#000000;stroke-width:0.75;" x="327.873097826" xlink:href="#m469ef1a4cc" y="15.04203125"/>
      </g>
     </g>
    </g>
   </g>
   <g id="text_29">
    <!-- N=51,270 -->
    <defs>
     <path d="M 4.734375 62.203125 
L 4.734375 70.65625 
L 51.078125 70.65625 
L 51.078125 63.8125 
Q 44.234375 56.546875 37.515625 44.484375 
Q 30.8125 32.421875 27.15625 19.671875 
Q 24.515625 10.6875 23.78125 0 
L 14.75 0 
Q 14.890625 8.453125 18.0625 20.40625 
Q 21.234375 32.375 27.171875 43.484375 
Q 33.109375 54.59375 39.796875 62.203125 
z
" id="ArialMT-37"/>
    </defs>
    <g transform="translate(293.075726902 99.18678125)scale(0.07 -0.07)">
     <use xlink:href="#ArialMT-4e"/>
     <use x="72.216796875" xlink:href="#ArialMT-3d"/>
     <use x="130.615234375" xlink:href="#ArialMT-35"/>
     <use x="186.23046875" xlink:href="#ArialMT-31"/>
     <use x="241.845703125" xlink:href="#ArialMT-2c"/>
     <use x="269.62890625" xlink:href="#ArialMT-32"/>
     <use x="325.244140625" xlink:href="#ArialMT-37"/>
     <use x="380.859375" xlink:href="#ArialMT-30"/>
    </g>
   </g>
   <g id="text_30">
    <!-- type II turn -->
    <g transform="translate(264.157591712 10.04203125)scale(0.09 -0.09)">
     <use xlink:href="#ArialMT-74"/>
     <use x="27.783203125" xlink:href="#ArialMT-79"/>
     <use x="77.783203125" xlink:href="#ArialMT-70"/>
     <use x="133.3984375" xlink:href="#ArialMT-65"/>
     <use x="189.013671875" xlink:href="#ArialMT-20"/>
     <use x="216.796875" xlink:href="#ArialMT-49"/>
     <use x="244.580078125" xlink:href="#ArialMT-49"/>
     <use x="272.36328125" xlink:href="#ArialMT-20"/>
     <use x="300.146484375" xlink:href="#ArialMT-74"/>
     <use x="327.9296875" xlink:href="#ArialMT-75"/>
     <use x="383.544921875" xlink:href="#ArialMT-72"/>
     <use x="416.845703125" xlink:href="#ArialMT-6e"/>
    </g>
   </g>
  </g>
  <g id="axes_4">
   <g id="patch_17">
    <path d="M 344.855707 101.442031 
L 429.76875 101.442031 
L 429.76875 15.042031 
L 344.855707 15.042031 
z
" style="fill:#ffffff;"/>
   </g>
   <g id="PathCollection_16">
    <path clip-path="url(#pa212f03286)" d="M 398.188436 52.27268 
L 400.612651 52.987613 
L 400.676477 52.108698 
L 400.612651 51.866064 
L 399.467128 49.642031 
L 398.188436 47.650031 
L 397.19916 49.642031 
L 398.101483 52.108698 
z
" style="fill:#980c13;"/>
   </g>
   <g id="PathCollection_17">
    <path clip-path="url(#pa212f03286)" d="M 400.612651 56.182654 
L 401.936193 54.575365 
L 401.329532 52.108698 
L 400.673547 49.642031 
L 400.612651 49.521318 
L 398.851315 47.175365 
L 398.188436 46.548292 
L 395.764221 47.090377 
L 395.719009 47.175365 
L 395.764221 47.469312 
L 396.209884 49.642031 
L 397.468391 52.108698 
L 398.188436 53.466619 
L 399.473323 54.575365 
z
M 398.101483 52.108698 
L 397.19916 49.642031 
L 398.188436 47.650031 
L 399.467128 49.642031 
L 400.612651 51.866064 
L 400.676477 52.108698 
L 400.612651 52.987613 
L 398.188436 52.27268 
z
" style="fill:#d92523;"/>
   </g>
   <g id="PathCollection_18">
    <path clip-path="url(#pa212f03286)" d="M 400.612651 57.720423 
L 403.036866 59.346342 
L 403.657878 57.042031 
L 403.251323 54.575365 
L 403.036866 54.172415 
L 401.982586 52.108698 
L 401.258274 49.642031 
L 400.612651 48.362221 
L 399.721562 47.175365 
L 398.188436 45.725052 
L 395.764221 45.695932 
L 394.977181 47.175365 
L 395.472204 49.642031 
L 395.764221 50.246784 
L 396.835299 52.108698 
L 398.1521 54.575365 
L 398.188436 54.641308 
L 400.182904 57.042031 
z
M 399.473323 54.575365 
L 398.188436 53.466619 
L 397.468391 52.108698 
L 396.209884 49.642031 
L 395.764221 47.469312 
L 395.719009 47.175365 
L 395.764221 47.090377 
L 398.188436 46.548292 
L 398.851315 47.175365 
L 400.612651 49.521318 
L 400.673547 49.642031 
L 401.329532 52.108698 
L 401.936193 54.575365 
L 400.612651 56.182654 
z
" style="fill:#fb6b4b;"/>
   </g>
   <g id="PathCollection_19">
    <path clip-path="url(#pa212f03286)" d="M 403.036866 61.050433 
L 404.867227 59.508698 
L 404.554243 57.042031 
L 403.931677 54.575365 
L 403.036866 52.894083 
L 402.635641 52.108698 
L 401.843001 49.642031 
L 400.612651 47.203125 
L 400.591809 47.175365 
L 398.188436 44.901813 
L 397.108551 44.708698 
L 395.764221 44.327518 
L 395.291946 44.708698 
L 394.235354 47.175365 
L 394.940785 49.642031 
L 395.764221 51.347323 
L 396.202207 52.108698 
L 397.642867 54.575365 
L 398.188436 55.565481 
L 399.415121 57.042031 
L 400.612651 58.932432 
L 401.420576 59.508698 
z
M 400.182904 57.042031 
L 398.188436 54.641308 
L 398.1521 54.575365 
L 396.835299 52.108698 
L 395.764221 50.246784 
L 395.472204 49.642031 
L 394.977181 47.175365 
L 395.764221 45.695932 
L 398.188436 45.725052 
L 399.721562 47.175365 
L 400.612651 48.362221 
L 401.258274 49.642031 
L 401.982586 52.108698 
L 403.036866 54.172415 
L 403.251323 54.575365 
L 403.657878 57.042031 
L 403.036866 59.346342 
L 400.612651 57.720423 
z
" style="fill:#fcab8f;"/>
   </g>
   <g id="PathCollection_20">
    <path clip-path="url(#pa212f03286)" d="M 403.036866 62.522018 
L 405.461081 62.660162 
L 405.711945 61.975365 
L 405.840573 59.508698 
L 405.461081 57.083024 
L 405.450608 57.042031 
L 404.612031 54.575365 
L 403.264268 52.108698 
L 403.036866 51.442302 
L 402.427728 49.642031 
L 401.115948 47.175365 
L 400.612651 46.206157 
L 399.004615 44.708698 
L 398.188436 44.070145 
L 395.764221 43.022211 
L 393.674695 44.708698 
L 393.493527 47.175365 
L 394.409367 49.642031 
L 395.578996 52.108698 
L 395.764221 52.362314 
L 397.133633 54.575365 
L 398.188436 56.489654 
L 398.647339 57.042031 
L 400.259742 59.508698 
L 400.612651 60.207364 
L 402.444368 61.975365 
z
M 401.420576 59.508698 
L 400.612651 58.932432 
L 399.415121 57.042031 
L 398.188436 55.565481 
L 397.642867 54.575365 
L 396.202207 52.108698 
L 395.764221 51.347323 
L 394.940785 49.642031 
L 394.235354 47.175365 
L 395.291946 44.708698 
L 395.764221 44.327518 
L 397.108551 44.708698 
L 398.188436 44.901813 
L 400.591809 47.175365 
L 400.612651 47.203125 
L 401.843001 49.642031 
L 402.635641 52.108698 
L 403.036866 52.894083 
L 403.931677 54.575365 
L 404.554243 57.042031 
L 404.867227 59.508698 
L 403.036866 61.050433 
z
" style="fill:#fee5d8;"/>
   </g>
   <g id="patch_18">
    <path d="M 344.855707 15.042031 
L 429.76875 15.042031 
" style="fill:none;stroke:#000000;stroke-linecap:square;stroke-linejoin:miter;stroke-width:0.5;"/>
   </g>
   <g id="patch_19">
    <path d="M 429.76875 101.442031 
L 429.76875 15.042031 
" style="fill:none;stroke:#000000;stroke-linecap:square;stroke-linejoin:miter;stroke-width:0.5;"/>
   </g>
   <g id="patch_20">
    <path d="M 344.855707 101.442031 
L 429.76875 101.442031 
" style="fill:none;stroke:#000000;stroke-linecap:square;stroke-linejoin:miter;stroke-width:0.5;"/>
   </g>
   <g id="patch_21">
    <path d="M 344.855707 101.442031 
L 344.855707 15.042031 
" style="fill:none;stroke:#000000;stroke-linecap:square;stroke-linejoin:miter;stroke-width:0.5;"/>
   </g>
   <g id="matplotlib.axis_7">
    <g id="xtick_16">
     <g id="line2d_61">
      <g>
       <use style="stroke:#000000;stroke-width:0.75;" x="344.855706522" xlink:href="#mf00405550c" y="101.44203125"/>
      </g>
     </g>
     <g id="line2d_62">
      <g>
       <use style="stroke:#000000;stroke-width:0.75;" x="344.855706522" xlink:href="#mf8e966bd7b" y="15.04203125"/>
      </g>
     </g>
     <g id="text_31">
      <!-- −180 -->
      <g transform="translate(335.846331522 111.16828125)scale(0.08 -0.08)">
       <use xlink:href="#ArialMT-2212"/>
       <use x="58.3984375" xlink:href="#ArialMT-31"/>
       <use x="114.013671875" xlink:href="#ArialMT-38"/>
       <use x="169.62890625" xlink:href="#ArialMT-30"/>
      </g>
     </g>
    </g>
    <g id="xtick_17">
     <g id="line2d_63">
      <g>
       <use style="stroke:#000000;stroke-width:0.75;" x="366.083967391" xlink:href="#mf00405550c" y="101.44203125"/>
      </g>
     </g>
     <g id="line2d_64">
      <g>
       <use style="stroke:#000000;stroke-width:0.75;" x="366.083967391" xlink:href="#mf8e966bd7b" y="15.04203125"/>
      </g>
     </g>
     <g id="text_32">
      <!-- −90 -->
      <g transform="translate(359.298967391 111.16828125)scale(0.08 -0.08)">
       <use xlink:href="#ArialMT-2212"/>
       <use x="58.3984375" xlink:href="#ArialMT-39"/>
       <use x="114.013671875" xlink:href="#ArialMT-30"/>
      </g>
     </g>
    </g>
    <g id="xtick_18">
     <g id="line2d_65">
      <g>
       <use style="stroke:#000000;stroke-width:0.75;" x="387.312228261" xlink:href="#mf00405550c" y="101.44203125"/>
      </g>
     </g>
     <g id="line2d_66">
      <g>
       <use style="stroke:#000000;stroke-width:0.75;" x="387.312228261" xlink:href="#mf8e966bd7b" y="15.04203125"/>
      </g>
     </g>
     <g id="text_33">
      <!-- 0 -->
      <g transform="translate(385.087853261 111.16828125)scale(0.08 -0.08)">
       <use xlink:href="#ArialMT-30"/>
      </g>
     </g>
    </g>
    <g id="xtick_19">
     <g id="line2d_67">
      <g>
       <use style="stroke:#000000;stroke-width:0.75;" x="408.54048913" xlink:href="#mf00405550c" y="101.44203125"/>
      </g>
     </g>
     <g id="line2d_68">
      <g>
       <use style="stroke:#000000;stroke-width:0.75;" x="408.54048913" xlink:href="#mf8e966bd7b" y="15.04203125"/>
      </g>
     </g>
     <g id="text_34">
      <!-- 90 -->
      <g transform="translate(404.09173913 111.16828125)scale(0.08 -0.08)">
       <use xlink:href="#ArialMT-39"/>
       <use x="55.615234375" xlink:href="#ArialMT-30"/>
      </g>
     </g>
    </g>
    <g id="xtick_20">
     <g id="line2d_69">
      <g>
       <use style="stroke:#000000;stroke-width:0.75;" x="429.76875" xlink:href="#mf00405550c" y="101.44203125"/>
      </g>
     </g>
     <g id="line2d_70">
      <g>
       <use style="stroke:#000000;stroke-width:0.75;" x="429.76875" xlink:href="#mf8e966bd7b" y="15.04203125"/>
      </g>
     </g>
     <g id="text_35">
      <!-- 180 -->
      <g transform="translate(423.095625 111.16828125)scale(0.08 -0.08)">
       <use xlink:href="#ArialMT-31"/>
       <use x="55.615234375" xlink:href="#ArialMT-38"/>
       <use x="111.23046875" xlink:href="#ArialMT-30"/>
      </g>
     </g>
    </g>
    <g id="text_36">
     <!-- $\phi$ (deg) -->
     <g transform="translate(372.867228261 124.32828125)scale(0.09 -0.09)">
      <use transform="translate(0.0 0.203125)" xlink:href="#Cmmi10-c1"/>
      <use transform="translate(59.521484375 0.203125)" xlink:href="#ArialMT-20"/>
      <use transform="translate(87.3046875 0.203125)" xlink:href="#ArialMT-28"/>
      <use transform="translate(120.60546875 0.203125)" xlink:href="#ArialMT-64"/>
      <use transform="translate(176.220703125 0.203125)" xlink:href="#ArialMT-65"/>
      <use transform="translate(231.8359375 0.203125)" xlink:href="#ArialMT-67"/>
      <use transform="translate(287.451171875 0.203125)" xlink:href="#ArialMT-29"/>
     </g>
    </g>
   </g>
   <g id="matplotlib.axis_8">
    <g id="ytick_16">
     <g id="line2d_71">
      <g>
       <use style="stroke:#000000;stroke-width:0.75;" x="344.855706522" xlink:href="#m8f0a98f91c" y="101.44203125"/>
      </g>
     </g>
     <g id="line2d_72">
      <g>
       <use style="stroke:#000000;stroke-width:0.75;" x="429.76875" xlink:href="#m469ef1a4cc" y="101.44203125"/>
      </g>
     </g>
    </g>
    <g id="ytick_17">
     <g id="line2d_73">
      <g>
       <use style="stroke:#000000;stroke-width:0.75;" x="344.855706522" xlink:href="#m8f0a98f91c" y="79.84203125"/>
      </g>
     </g>
     <g id="line2d_74">
      <g>
       <use style="stroke:#000000;stroke-width:0.75;" x="429.76875" xlink:href="#m469ef1a4cc" y="79.84203125"/>
      </g>
     </g>
    </g>
    <g id="ytick_18">
     <g id="line2d_75">
      <g>
       <use style="stroke:#000000;stroke-width:0.75;" x="344.855706522" xlink:href="#m8f0a98f91c" y="58.24203125"/>
      </g>
     </g>
     <g id="line2d_76">
      <g>
       <use style="stroke:#000000;stroke-width:0.75;" x="429.76875" xlink:href="#m469ef1a4cc" y="58.24203125"/>
      </g>
     </g>
    </g>
    <g id="ytick_19">
     <g id="line2d_77">
      <g>
       <use style="stroke:#000000;stroke-width:0.75;" x="344.855706522" xlink:href="#m8f0a98f91c" y="36.64203125"/>
      </g>
     </g>
     <g id="line2d_78">
      <g>
       <use style="stroke:#000000;stroke-width:0.75;" x="429.76875" xlink:href="#m469ef1a4cc" y="36.64203125"/>
      </g>
     </g>
    </g>
    <g id="ytick_20">
     <g id="line2d_79">
      <g>
       <use style="stroke:#000000;stroke-width:0.75;" x="344.855706522" xlink:href="#m8f0a98f91c" y="15.04203125"/>
      </g>
     </g>
     <g id="line2d_80">
      <g>
       <use style="stroke:#000000;stroke-width:0.75;" x="429.76875" xlink:href="#m469ef1a4cc" y="15.04203125"/>
      </g>
     </g>
    </g>
   </g>
   <g id="text_37">
    <!-- N=22,626 -->
    <defs>
     <path d="M 49.75 54.046875 
L 41.015625 53.375 
Q 39.84375 58.546875 37.703125 60.890625 
Q 34.125 64.65625 28.90625 64.65625 
Q 24.703125 64.65625 21.53125 62.3125 
Q 17.390625 59.28125 14.984375 53.46875 
Q 12.59375 47.65625 12.5 36.921875 
Q 15.671875 41.75 20.265625 44.09375 
Q 24.859375 46.4375 29.890625 46.4375 
Q 38.671875 46.4375 44.84375 39.96875 
Q 51.03125 33.5 51.03125 23.25 
Q 51.03125 16.5 48.125 10.71875 
Q 45.21875 4.9375 40.140625 1.859375 
Q 35.0625 -1.21875 28.609375 -1.21875 
Q 17.625 -1.21875 10.6875 6.859375 
Q 3.765625 14.9375 3.765625 33.5 
Q 3.765625 54.25 11.421875 63.671875 
Q 18.109375 71.875 29.4375 71.875 
Q 37.890625 71.875 43.28125 67.140625 
Q 48.6875 62.40625 49.75 54.046875 
M 13.875 23.1875 
Q 13.875 18.65625 15.796875 14.5 
Q 17.71875 10.359375 21.1875 8.171875 
Q 24.65625 6 28.46875 6 
Q 34.03125 6 38.03125 10.484375 
Q 42.046875 14.984375 42.046875 22.703125 
Q 42.046875 30.125 38.078125 34.390625 
Q 34.125 38.671875 28.125 38.671875 
Q 22.171875 38.671875 18.015625 34.390625 
Q 13.875 30.125 13.875 23.1875 
" id="ArialMT-36"/>
    </defs>
    <g transform="translate(394.971379076 99.18678125)scale(0.07 -0.07)">
     <use xlink:href="#ArialMT-4e"/>
     <use x="72.216796875" xlink:href="#ArialMT-3d"/>
     <use x="130.615234375" xlink:href="#ArialMT-32"/>
     <use x="186.23046875" xlink:href="#ArialMT-32"/>
     <use x="241.845703125" xlink:href="#ArialMT-2c"/>
     <use x="269.62890625" xlink:href="#ArialMT-36"/>
     <use x="325.244140625" xlink:href="#ArialMT-32"/>
     <use x="380.859375" xlink:href="#ArialMT-36"/>
    </g>
   </g>
   <g id="text_38">
    <!-- type I' turn -->
    <defs>
     <path d="M 6.640625 46.234375 
L 4.390625 59.625 
L 4.390625 71.578125 
L 14.40625 71.578125 
L 14.40625 59.625 
L 12.0625 46.234375 
z
" id="ArialMT-27"/>
    </defs>
    <g transform="translate(366.444181386 10.04203125)scale(0.09 -0.09)">
     <use xlink:href="#ArialMT-74"/>
     <use x="27.783203125" xlink:href="#ArialMT-79"/>
     <use x="77.783203125" xlink:href="#ArialMT-70"/>
     <use x="133.3984375" xlink:href="#ArialMT-65"/>
     <use x="189.013671875" xlink:href="#ArialMT-20"/>
     <use x="216.796875" xlink:href="#ArialMT-49"/>
     <use x="244.580078125" xlink:href="#ArialMT-27"/>
     <use x="263.671875" xlink:href="#ArialMT-20"/>
     <use x="291.455078125" xlink:href="#ArialMT-74"/>
     <use x="319.23828125" xlink:href="#ArialMT-75"/>
     <use x="374.853515625" xlink:href="#ArialMT-72"/>
     <use x="408.154296875" xlink:href="#ArialMT-6e"/>
    </g>
   </g>
  </g>
 </g>
 <defs>
  <clipPath id="p26915dc0eb">
   <rect height="86.4" width="84.9130434783" x="141.064402174" y="15.04203125"/>
  </clipPath>
  <clipPath id="p2fd4c8c14d">
   <rect height="86.4" width="84.9130434783" x="242.960054348" y="15.04203125"/>
  </clipPath>
  <clipPath id="pdc352bb855">
   <rect height="86.4" width="84.9130434783" x="39.16875" y="15.04203125"/>
  </clipPath>
  <clipPath id="pa212f03286">
   <rect height="86.4" width="84.9130434783" x="344.855706522" y="15.04203125"/>
  </clipPath>
 </defs>
</svg>
