<?xml version="1.0" encoding="utf-8" standalone="no"?>
<!DOCTYPE svg PUBLIC "-//W3C//DTD SVG 1.1//EN"
  "http://www.w3.org/Graphics/SVG/1.1/DTD/svg11.dtd">
<!-- Created with matplotlib (http://matplotlib.org/) -->
<svg height="129pt" version="1.1" viewBox="0 0 440 129" width="440pt" xmlns="http://www.w3.org/2000/svg" xmlns:xlink="http://www.w3.org/1999/xlink">
 <defs>
  <style type="text/css">
*{stroke-linecap:butt;stroke-linejoin:round;stroke-miterlimit:100000;}
  </style>
 </defs>
 <g id="figure_1">
  <g id="patch_1">
   <path d="M 0 129.908281 
L 440.041875 129.908281 
L 440.041875 0 
L 0 0 
z
" style="fill:#ffffff;"/>
  </g>
  <g id="axes_1">
   <g id="patch_2">
    <path d="M 39.16875 101.442031 
L 124.081793 101.442031 
L 124.081793 15.042031 
L 39.16875 15.042031 
z
" style="fill:#ffffff;"/>
   </g>
   <g id="PathCollection_1">
    <path clip-path="url(#p620f4da982)" d="M 65.835115 71.30263 
L 67.116693 69.375365 
L 65.835115 67.378152 
L 64.029909 69.375365 
z
" style="fill:#41049d;"/>
   </g>
   <g id="PathCollection_2">
    <path clip-path="url(#p620f4da982)" d="M 65.835115 72.291334 
L 67.497891 71.842031 
L 68.25933 69.985665 
L 68.334916 69.375365 
L 68.25933 69.124467 
L 66.911753 66.908698 
L 65.835115 64.516705 
L 63.4109 65.641924 
L 63.035729 66.908698 
L 62.690929 69.375365 
L 63.4109 70.30474 
L 64.86904 71.842031 
z
M 64.029909 69.375365 
L 65.835115 67.378152 
L 67.116693 69.375365 
L 65.835115 71.30263 
z
" style="fill:#8f0da4;"/>
   </g>
   <g id="PathCollection_3">
    <path clip-path="url(#p620f4da982)" d="M 65.835115 72.915261 
L 68.25933 72.357284 
L 68.854503 71.842031 
L 69.032109 69.375365 
L 68.284925 66.908698 
L 68.25933 66.853312 
L 66.671646 64.442031 
L 65.835115 63.027017 
L 64.391145 61.975365 
L 63.4109 61.197274 
L 61.018566 59.508698 
L 60.986685 59.483552 
L 58.56247 58.560783 
L 57.685978 59.508698 
L 58.56247 60.807885 
L 59.368578 61.975365 
L 60.986685 63.943058 
L 61.238993 64.442031 
L 61.446331 66.908698 
L 61.595245 69.375365 
L 63.4109 71.719106 
L 63.527496 71.842031 
z
M 64.86904 71.842031 
L 63.4109 70.30474 
L 62.690929 69.375365 
L 63.035729 66.908698 
L 63.4109 65.641924 
L 65.835115 64.516705 
L 66.911753 66.908698 
L 68.25933 69.124467 
L 68.334916 69.375365 
L 68.25933 69.985665 
L 67.497891 71.842031 
L 65.835115 72.291334 
z
" style="fill:#cc4778;"/>
    <path clip-path="url(#p620f4da982)" d="M 51.289825 31.040328 
L 53.71404 31.686154 
L 56.138255 31.524318 
L 58.56247 30.460506 
L 59.975982 29.908698 
L 60.986685 28.256908 
L 63.4109 28.960107 
L 65.835115 28.757005 
L 68.144994 27.442031 
L 67.214843 24.975365 
L 65.996399 22.508698 
L 65.835115 22.223793 
L 63.4109 20.551278 
L 62.01333 22.508698 
L 61.644353 24.975365 
L 60.986685 27.020174 
L 58.56247 27.361958 
L 56.138255 26.143448 
L 54.147974 24.975365 
L 53.71404 24.656953 
L 51.682453 22.508698 
L 51.289825 22.22492 
L 48.86561 20.997047 
L 46.552739 22.508698 
L 47.416533 24.975365 
L 47.947961 27.442031 
L 48.86561 29.070926 
L 49.536987 29.908698 
z
" style="fill:#cc4778;"/>
   </g>
   <g id="PathCollection_4">
    <path clip-path="url(#p620f4da982)" d="M 63.4109 72.677893 
L 65.835115 73.539187 
L 68.25933 73.126051 
L 69.742513 71.842031 
L 69.729303 69.375365 
L 68.886399 66.908698 
L 68.25933 65.551755 
L 67.528643 64.442031 
L 66.004931 61.975365 
L 65.835115 61.752154 
L 63.4109 59.617341 
L 63.256977 59.508698 
L 60.986685 57.718076 
L 60.116679 57.042031 
L 58.56247 55.824623 
L 56.338187 54.575365 
L 56.138255 54.452539 
L 53.98226 54.575365 
L 53.71404 54.692215 
L 53.160246 57.042031 
L 53.71404 59.396479 
L 53.741703 59.508698 
L 54.732174 61.975365 
L 56.138255 63.808861 
L 56.62754 64.442031 
L 58.56247 66.75978 
L 58.623706 66.908698 
L 59.539411 69.375365 
L 60.986685 70.634213 
L 61.758587 71.842031 
z
M 63.527496 71.842031 
L 63.4109 71.719106 
L 61.595245 69.375365 
L 61.446331 66.908698 
L 61.238993 64.442031 
L 60.986685 63.943058 
L 59.368578 61.975365 
L 58.56247 60.807885 
L 57.685978 59.508698 
L 58.56247 58.560783 
L 60.986685 59.483552 
L 61.018566 59.508698 
L 63.4109 61.197274 
L 64.391145 61.975365 
L 65.835115 63.027017 
L 66.671646 64.442031 
L 68.25933 66.853312 
L 68.284925 66.908698 
L 69.032109 69.375365 
L 68.854503 71.842031 
L 68.25933 72.357284 
L 65.835115 72.915261 
z
" style="fill:#f2844b;"/>
    <path clip-path="url(#p620f4da982)" d="M 99.774124 59.71567 
L 100.170484 59.508698 
L 99.774124 57.259012 
L 99.585682 59.508698 
z
" style="fill:#f2844b;"/>
    <path clip-path="url(#p620f4da982)" d="M 94.925694 53.280233 
L 95.710783 52.108698 
L 94.925694 50.164972 
L 94.338275 52.108698 
z
" style="fill:#f2844b;"/>
    <path clip-path="url(#p620f4da982)" d="M 92.501479 50.385836 
L 94.522847 49.642031 
L 92.501479 47.180127 
L 92.21232 49.642031 
z
" style="fill:#f2844b;"/>
    <path clip-path="url(#p620f4da982)" d="M 51.289825 33.91555 
L 53.71404 34.705152 
L 56.138255 34.805343 
L 58.56247 34.82157 
L 60.986685 33.897929 
L 62.516543 32.375365 
L 63.4109 31.79203 
L 65.835115 30.586237 
L 67.896323 29.908698 
L 68.25933 29.691279 
L 69.200659 27.442031 
L 68.614987 24.975365 
L 68.25933 24.161399 
L 67.127908 22.508698 
L 65.835115 20.225012 
L 65.613559 20.042031 
L 63.4109 18.04647 
L 60.986685 17.853432 
L 58.56247 19.887205 
L 58.17503 20.042031 
L 56.138255 20.903531 
L 53.852227 20.042031 
L 53.71404 20.009123 
L 51.289825 18.876525 
L 48.86561 18.147576 
L 46.441395 18.303045 
L 44.01718 18.002006 
L 41.592965 19.15072 
L 41.234217 20.042031 
L 41.592965 21.716793 
L 41.897291 22.508698 
L 43.19311 24.975365 
L 44.01718 26.532502 
L 44.683255 27.442031 
L 46.441395 29.440596 
L 46.749797 29.908698 
L 48.86561 32.357738 
L 48.892501 32.375365 
z
M 49.536987 29.908698 
L 48.86561 29.070926 
L 47.947961 27.442031 
L 47.416533 24.975365 
L 46.552739 22.508698 
L 48.86561 20.997047 
L 51.289825 22.22492 
L 51.682453 22.508698 
L 53.71404 24.656953 
L 54.147974 24.975365 
L 56.138255 26.143448 
L 58.56247 27.361958 
L 60.986685 27.020174 
L 61.644353 24.975365 
L 62.01333 22.508698 
L 63.4109 20.551278 
L 65.835115 22.223793 
L 65.996399 22.508698 
L 67.214843 24.975365 
L 68.144994 27.442031 
L 65.835115 28.757005 
L 63.4109 28.960107 
L 60.986685 28.256908 
L 59.975982 29.908698 
L 58.56247 30.460506 
L 56.138255 31.524318 
L 53.71404 31.686154 
L 51.289825 31.040328 
z
" style="fill:#f2844b;"/>
   </g>
   <g id="PathCollection_5">
    <path clip-path="url(#p620f4da982)" d="M 60.986685 101.442031 
L 61.771614 101.442031 
L 60.986685 100.777965 
L 59.083248 101.442031 
z
" style="fill:#fcce25;"/>
    <path clip-path="url(#p620f4da982)" d="M 58.56247 71.983739 
L 60.986685 72.734089 
L 63.4109 73.593317 
L 65.835115 74.163114 
L 68.25933 73.894817 
L 70.630523 71.842031 
L 70.426497 69.375365 
L 69.487874 66.908698 
L 68.35212 64.442031 
L 68.25933 64.31182 
L 66.623482 61.975365 
L 65.835115 60.939115 
L 64.249943 59.508698 
L 63.4109 58.526608 
L 61.725493 57.042031 
L 60.986685 56.246908 
L 59.015366 54.575365 
L 58.56247 54.033486 
L 56.138255 52.505929 
L 54.755967 52.108698 
L 53.71404 51.795929 
L 51.289825 51.935575 
L 51.079808 52.108698 
L 49.857062 54.575365 
L 50.026913 57.042031 
L 50.228673 59.508698 
L 50.589914 61.975365 
L 51.289825 64.396234 
L 51.314941 64.442031 
L 53.432922 66.908698 
L 53.71404 67.408318 
L 55.022703 69.375365 
L 56.138255 70.66702 
L 57.977182 71.842031 
z
M 61.758587 71.842031 
L 60.986685 70.634213 
L 59.539411 69.375365 
L 58.623706 66.908698 
L 58.56247 66.75978 
L 56.62754 64.442031 
L 56.138255 63.808861 
L 54.732174 61.975365 
L 53.741703 59.508698 
L 53.71404 59.396479 
L 53.160246 57.042031 
L 53.71404 54.692215 
L 53.98226 54.575365 
L 56.138255 54.452539 
L 56.338187 54.575365 
L 58.56247 55.824623 
L 60.116679 57.042031 
L 60.986685 57.718076 
L 63.256977 59.508698 
L 63.4109 59.617341 
L 65.835115 61.752154 
L 66.004931 61.975365 
L 67.528643 64.442031 
L 68.25933 65.551755 
L 68.886399 66.908698 
L 69.729303 69.375365 
L 69.742513 71.842031 
L 68.25933 73.126051 
L 65.835115 73.539187 
L 63.4109 72.677893 
z
" style="fill:#fcce25;"/>
    <path clip-path="url(#p620f4da982)" d="M 99.774124 62.202348 
L 102.198339 63.574542 
L 104.13131 61.975365 
L 103.761713 59.508698 
L 103.01643 57.042031 
L 102.198339 56.250882 
L 100.743627 54.575365 
L 99.774124 53.734735 
L 98.223587 52.108698 
L 97.349909 51.161817 
L 96.226942 49.642031 
L 94.925694 47.450676 
L 94.670477 47.175365 
L 92.501479 45.321058 
L 90.78155 47.175365 
L 91.312034 49.642031 
L 92.333779 52.108698 
L 92.501479 52.436968 
L 94.182788 54.575365 
L 94.925694 56.093005 
L 95.71626 57.042031 
L 97.255552 59.508698 
L 97.349909 59.651914 
L 99.546238 61.975365 
z
M 99.585682 59.508698 
L 99.774124 57.259012 
L 100.170484 59.508698 
L 99.774124 59.71567 
z
M 94.338275 52.108698 
L 94.925694 50.164972 
L 95.710783 52.108698 
L 94.925694 53.280233 
z
M 92.21232 49.642031 
L 92.501479 47.180127 
L 94.522847 49.642031 
L 92.501479 50.385836 
z
" style="fill:#fcce25;"/>
    <path clip-path="url(#p620f4da982)" d="M 60.986685 44.893651 
L 61.078039 44.708698 
L 61.44367 42.242031 
L 61.261446 39.775365 
L 61.257355 37.308698 
L 62.509344 34.842031 
L 63.4109 33.936434 
L 64.976589 32.375365 
L 65.835115 31.854026 
L 68.25933 30.863622 
L 69.514739 29.908698 
L 70.167426 27.442031 
L 69.337181 24.975365 
L 68.259383 22.508698 
L 68.25933 22.508606 
L 66.575002 20.042031 
L 65.835115 18.932942 
L 64.414177 17.575365 
L 63.4109 17.134685 
L 60.986685 16.979698 
L 58.56247 17.288971 
L 56.138255 17.50148 
L 53.71404 17.490574 
L 51.289825 17.304092 
L 48.86561 17.134012 
L 46.441395 17.166819 
L 44.01718 17.049452 
L 41.592965 17.193081 
L 40.057718 17.575365 
L 39.534875 20.042031 
L 40.370637 22.508698 
L 41.170488 24.975365 
L 41.592965 26.099067 
L 42.396489 27.442031 
L 43.996135 29.908698 
L 44.01718 29.95342 
L 45.806586 32.375365 
L 46.441395 33.173588 
L 48.10762 34.842031 
L 48.86561 35.972364 
L 50.356738 37.308698 
L 51.289825 38.592135 
L 53.71404 37.338692 
L 53.957311 37.308698 
L 56.138255 37.037356 
L 57.020627 37.308698 
L 58.56247 38.717972 
L 59.647453 39.775365 
L 59.481908 42.242031 
L 60.715877 44.708698 
z
M 48.892501 32.375365 
L 48.86561 32.357738 
L 46.749797 29.908698 
L 46.441395 29.440596 
L 44.683255 27.442031 
L 44.01718 26.532502 
L 43.19311 24.975365 
L 41.897291 22.508698 
L 41.592965 21.716793 
L 41.234217 20.042031 
L 41.592965 19.15072 
L 44.01718 18.002006 
L 46.441395 18.303045 
L 48.86561 18.147576 
L 51.289825 18.876525 
L 53.71404 20.009123 
L 53.852227 20.042031 
L 56.138255 20.903531 
L 58.17503 20.042031 
L 58.56247 19.887205 
L 60.986685 17.853432 
L 63.4109 18.04647 
L 65.613559 20.042031 
L 65.835115 20.225012 
L 67.127908 22.508698 
L 68.25933 24.161399 
L 68.614987 24.975365 
L 69.200659 27.442031 
L 68.25933 29.691279 
L 67.896323 29.908698 
L 65.835115 30.586237 
L 63.4109 31.79203 
L 62.516543 32.375365 
L 60.986685 33.897929 
L 58.56247 34.82157 
L 56.138255 34.805343 
L 53.71404 34.705152 
L 51.289825 33.91555 
z
" style="fill:#fcce25;"/>
   </g>
   <g id="patch_3">
    <path d="M 39.16875 15.042031 
L 124.081793 15.042031 
" style="fill:none;stroke:#000000;stroke-linecap:square;stroke-linejoin:miter;stroke-width:0.5;"/>
   </g>
   <g id="patch_4">
    <path d="M 124.081793 101.442031 
L 124.081793 15.042031 
" style="fill:none;stroke:#000000;stroke-linecap:square;stroke-linejoin:miter;stroke-width:0.5;"/>
   </g>
   <g id="patch_5">
    <path d="M 39.16875 101.442031 
L 124.081793 101.442031 
" style="fill:none;stroke:#000000;stroke-linecap:square;stroke-linejoin:miter;stroke-width:0.5;"/>
   </g>
   <g id="patch_6">
    <path d="M 39.16875 101.442031 
L 39.16875 15.042031 
" style="fill:none;stroke:#000000;stroke-linecap:square;stroke-linejoin:miter;stroke-width:0.5;"/>
   </g>
   <g id="matplotlib.axis_1">
    <g id="xtick_1">
     <g id="line2d_1">
      <defs>
       <path d="M 0 0 
L 0 -2 
" id="ma8c031ec22" style="stroke:#000000;stroke-width:0.75;"/>
      </defs>
      <g>
       <use style="stroke:#000000;stroke-width:0.75;" x="39.16875" xlink:href="#ma8c031ec22" y="101.44203125"/>
      </g>
     </g>
     <g id="line2d_2">
      <defs>
       <path d="M 0 0 
L 0 2 
" id="m5d631dd867" style="stroke:#000000;stroke-width:0.75;"/>
      </defs>
      <g>
       <use style="stroke:#000000;stroke-width:0.75;" x="39.16875" xlink:href="#m5d631dd867" y="15.04203125"/>
      </g>
     </g>
     <g id="text_1">
      <!-- −180 -->
      <defs>
       <path d="M 17.671875 38.8125 
Q 12.203125 40.828125 9.5625 44.53125 
Q 6.9375 48.25 6.9375 53.421875 
Q 6.9375 61.234375 12.546875 66.546875 
Q 18.171875 71.875 27.484375 71.875 
Q 36.859375 71.875 42.578125 66.421875 
Q 48.296875 60.984375 48.296875 53.171875 
Q 48.296875 48.1875 45.671875 44.5 
Q 43.0625 40.828125 37.75 38.8125 
Q 44.34375 36.671875 47.78125 31.875 
Q 51.21875 27.09375 51.21875 20.453125 
Q 51.21875 11.28125 44.71875 5.03125 
Q 38.234375 -1.21875 27.640625 -1.21875 
Q 17.046875 -1.21875 10.546875 5.046875 
Q 4.046875 11.328125 4.046875 20.703125 
Q 4.046875 27.6875 7.59375 32.390625 
Q 11.140625 37.109375 17.671875 38.8125 
M 15.921875 53.71875 
Q 15.921875 48.640625 19.1875 45.40625 
Q 22.46875 42.1875 27.6875 42.1875 
Q 32.765625 42.1875 36.015625 45.375 
Q 39.265625 48.578125 39.265625 53.21875 
Q 39.265625 58.0625 35.90625 61.359375 
Q 32.5625 64.65625 27.59375 64.65625 
Q 22.5625 64.65625 19.234375 61.421875 
Q 15.921875 58.203125 15.921875 53.71875 
M 13.09375 20.65625 
Q 13.09375 16.890625 14.875 13.375 
Q 16.65625 9.859375 20.171875 7.921875 
Q 23.6875 6 27.734375 6 
Q 34.03125 6 38.125 10.046875 
Q 42.234375 14.109375 42.234375 20.359375 
Q 42.234375 26.703125 38.015625 30.859375 
Q 33.796875 35.015625 27.4375 35.015625 
Q 21.234375 35.015625 17.15625 30.90625 
Q 13.09375 26.8125 13.09375 20.65625 
" id="ArialMT-38"/>
       <path d="M 37.25 0 
L 28.46875 0 
L 28.46875 56 
Q 25.296875 52.984375 20.140625 49.953125 
Q 14.984375 46.921875 10.890625 45.40625 
L 10.890625 53.90625 
Q 18.265625 57.375 23.78125 62.296875 
Q 29.296875 67.234375 31.59375 71.875 
L 37.25 71.875 
z
" id="ArialMT-31"/>
       <path d="M 52.828125 31.203125 
L 5.5625 31.203125 
L 5.5625 39.40625 
L 52.828125 39.40625 
z
" id="ArialMT-2212"/>
       <path d="M 4.15625 35.296875 
Q 4.15625 48 6.765625 55.734375 
Q 9.375 63.484375 14.515625 67.671875 
Q 19.671875 71.875 27.484375 71.875 
Q 33.25 71.875 37.59375 69.546875 
Q 41.9375 67.234375 44.765625 62.859375 
Q 47.609375 58.5 49.21875 52.21875 
Q 50.828125 45.953125 50.828125 35.296875 
Q 50.828125 22.703125 48.234375 14.96875 
Q 45.65625 7.234375 40.5 3 
Q 35.359375 -1.21875 27.484375 -1.21875 
Q 17.140625 -1.21875 11.234375 6.203125 
Q 4.15625 15.140625 4.15625 35.296875 
M 13.1875 35.296875 
Q 13.1875 17.671875 17.3125 11.828125 
Q 21.4375 6 27.484375 6 
Q 33.546875 6 37.671875 11.859375 
Q 41.796875 17.71875 41.796875 35.296875 
Q 41.796875 52.984375 37.671875 58.78125 
Q 33.546875 64.59375 27.390625 64.59375 
Q 21.34375 64.59375 17.71875 59.46875 
Q 13.1875 52.9375 13.1875 35.296875 
" id="ArialMT-30"/>
      </defs>
      <g transform="translate(30.159375 111.16828125)scale(0.08 -0.08)">
       <use xlink:href="#ArialMT-2212"/>
       <use x="58.3984375" xlink:href="#ArialMT-31"/>
       <use x="114.013671875" xlink:href="#ArialMT-38"/>
       <use x="169.62890625" xlink:href="#ArialMT-30"/>
      </g>
     </g>
    </g>
    <g id="xtick_2">
     <g id="line2d_3">
      <g>
       <use style="stroke:#000000;stroke-width:0.75;" x="60.3970108696" xlink:href="#ma8c031ec22" y="101.44203125"/>
      </g>
     </g>
     <g id="line2d_4">
      <g>
       <use style="stroke:#000000;stroke-width:0.75;" x="60.3970108696" xlink:href="#m5d631dd867" y="15.04203125"/>
      </g>
     </g>
     <g id="text_2">
      <!-- −90 -->
      <defs>
       <path d="M 5.46875 16.546875 
L 13.921875 17.328125 
Q 14.984375 11.375 18.015625 8.6875 
Q 21.046875 6 25.78125 6 
Q 29.828125 6 32.875 7.859375 
Q 35.9375 9.71875 37.890625 12.8125 
Q 39.84375 15.921875 41.15625 21.1875 
Q 42.484375 26.46875 42.484375 31.9375 
Q 42.484375 32.515625 42.4375 33.6875 
Q 39.796875 29.5 35.234375 26.875 
Q 30.671875 24.265625 25.34375 24.265625 
Q 16.453125 24.265625 10.296875 30.703125 
Q 4.15625 37.15625 4.15625 47.703125 
Q 4.15625 58.59375 10.578125 65.234375 
Q 17 71.875 26.65625 71.875 
Q 33.640625 71.875 39.421875 68.109375 
Q 45.21875 64.359375 48.21875 57.390625 
Q 51.21875 50.4375 51.21875 37.25 
Q 51.21875 23.53125 48.234375 15.40625 
Q 45.265625 7.28125 39.375 3.03125 
Q 33.5 -1.21875 25.59375 -1.21875 
Q 17.1875 -1.21875 11.859375 3.4375 
Q 6.546875 8.109375 5.46875 16.546875 
M 41.453125 48.140625 
Q 41.453125 55.71875 37.421875 60.15625 
Q 33.40625 64.59375 27.734375 64.59375 
Q 21.875 64.59375 17.53125 59.8125 
Q 13.1875 55.03125 13.1875 47.40625 
Q 13.1875 40.578125 17.3125 36.296875 
Q 21.4375 32.03125 27.484375 32.03125 
Q 33.59375 32.03125 37.515625 36.296875 
Q 41.453125 40.578125 41.453125 48.140625 
" id="ArialMT-39"/>
      </defs>
      <g transform="translate(53.6120108696 111.16828125)scale(0.08 -0.08)">
       <use xlink:href="#ArialMT-2212"/>
       <use x="58.3984375" xlink:href="#ArialMT-39"/>
       <use x="114.013671875" xlink:href="#ArialMT-30"/>
      </g>
     </g>
    </g>
    <g id="xtick_3">
     <g id="line2d_5">
      <g>
       <use style="stroke:#000000;stroke-width:0.75;" x="81.6252717391" xlink:href="#ma8c031ec22" y="101.44203125"/>
      </g>
     </g>
     <g id="line2d_6">
      <g>
       <use style="stroke:#000000;stroke-width:0.75;" x="81.6252717391" xlink:href="#m5d631dd867" y="15.04203125"/>
      </g>
     </g>
     <g id="text_3">
      <!-- 0 -->
      <g transform="translate(79.4008967391 111.16828125)scale(0.08 -0.08)">
       <use xlink:href="#ArialMT-30"/>
      </g>
     </g>
    </g>
    <g id="xtick_4">
     <g id="line2d_7">
      <g>
       <use style="stroke:#000000;stroke-width:0.75;" x="102.853532609" xlink:href="#ma8c031ec22" y="101.44203125"/>
      </g>
     </g>
     <g id="line2d_8">
      <g>
       <use style="stroke:#000000;stroke-width:0.75;" x="102.853532609" xlink:href="#m5d631dd867" y="15.04203125"/>
      </g>
     </g>
     <g id="text_4">
      <!-- 90 -->
      <g transform="translate(98.4047826087 111.16828125)scale(0.08 -0.08)">
       <use xlink:href="#ArialMT-39"/>
       <use x="55.615234375" xlink:href="#ArialMT-30"/>
      </g>
     </g>
    </g>
    <g id="xtick_5">
     <g id="line2d_9">
      <g>
       <use style="stroke:#000000;stroke-width:0.75;" x="124.081793478" xlink:href="#ma8c031ec22" y="101.44203125"/>
      </g>
     </g>
     <g id="line2d_10">
      <g>
       <use style="stroke:#000000;stroke-width:0.75;" x="124.081793478" xlink:href="#m5d631dd867" y="15.04203125"/>
      </g>
     </g>
     <g id="text_5">
      <!-- 180 -->
      <g transform="translate(117.408668478 111.16828125)scale(0.08 -0.08)">
       <use xlink:href="#ArialMT-31"/>
       <use x="55.615234375" xlink:href="#ArialMT-38"/>
       <use x="111.23046875" xlink:href="#ArialMT-30"/>
      </g>
     </g>
    </g>
    <g id="text_6">
     <!-- $\phi$ (deg) -->
     <defs>
      <path d="M 4.984375 -4.296875 
L 13.53125 -5.5625 
Q 14.0625 -9.515625 16.5 -11.328125 
Q 19.78125 -13.765625 25.4375 -13.765625 
Q 31.546875 -13.765625 34.859375 -11.328125 
Q 38.1875 -8.890625 39.359375 -4.5 
Q 40.046875 -1.8125 39.984375 6.78125 
Q 34.234375 0 25.640625 0 
Q 14.9375 0 9.078125 7.71875 
Q 3.21875 15.4375 3.21875 26.21875 
Q 3.21875 33.640625 5.90625 39.90625 
Q 8.59375 46.1875 13.6875 49.609375 
Q 18.796875 53.03125 25.6875 53.03125 
Q 34.859375 53.03125 40.828125 45.609375 
L 40.828125 51.859375 
L 48.921875 51.859375 
L 48.921875 7.03125 
Q 48.921875 -5.078125 46.453125 -10.125 
Q 44 -15.1875 38.640625 -18.109375 
Q 33.296875 -21.046875 25.484375 -21.046875 
Q 16.21875 -21.046875 10.5 -16.875 
Q 4.78125 -12.703125 4.984375 -4.296875 
M 12.25 26.859375 
Q 12.25 16.65625 16.296875 11.96875 
Q 20.359375 7.28125 26.46875 7.28125 
Q 32.515625 7.28125 36.609375 11.9375 
Q 40.71875 16.609375 40.71875 26.5625 
Q 40.71875 36.078125 36.5 40.90625 
Q 32.28125 45.75 26.3125 45.75 
Q 20.453125 45.75 16.34375 40.984375 
Q 12.25 36.234375 12.25 26.859375 
" id="ArialMT-67"/>
      <path d="M 42.09375 16.703125 
L 51.171875 15.578125 
Q 49.03125 7.625 43.21875 3.21875 
Q 37.40625 -1.171875 28.375 -1.171875 
Q 17 -1.171875 10.328125 5.828125 
Q 3.65625 12.84375 3.65625 25.484375 
Q 3.65625 38.578125 10.390625 45.796875 
Q 17.140625 53.03125 27.875 53.03125 
Q 38.28125 53.03125 44.875 45.953125 
Q 51.46875 38.875 51.46875 26.03125 
Q 51.46875 25.25 51.421875 23.6875 
L 12.75 23.6875 
Q 13.234375 15.140625 17.578125 10.59375 
Q 21.921875 6.0625 28.421875 6.0625 
Q 33.25 6.0625 36.671875 8.59375 
Q 40.09375 11.140625 42.09375 16.703125 
M 13.234375 30.90625 
L 42.1875 30.90625 
Q 41.609375 37.453125 38.875 40.71875 
Q 34.671875 45.796875 27.984375 45.796875 
Q 21.921875 45.796875 17.796875 41.75 
Q 13.671875 37.703125 13.234375 30.90625 
" id="ArialMT-65"/>
      <path d="M 40.234375 0 
L 40.234375 6.546875 
Q 35.296875 -1.171875 25.734375 -1.171875 
Q 19.53125 -1.171875 14.328125 2.25 
Q 9.125 5.671875 6.265625 11.796875 
Q 3.421875 17.921875 3.421875 25.875 
Q 3.421875 33.640625 6 39.96875 
Q 8.59375 46.296875 13.765625 49.65625 
Q 18.953125 53.03125 25.34375 53.03125 
Q 30.03125 53.03125 33.6875 51.046875 
Q 37.359375 49.078125 39.65625 45.90625 
L 39.65625 71.578125 
L 48.390625 71.578125 
L 48.390625 0 
z
M 12.453125 25.875 
Q 12.453125 15.921875 16.640625 10.984375 
Q 20.84375 6.0625 26.5625 6.0625 
Q 32.328125 6.0625 36.34375 10.765625 
Q 40.375 15.484375 40.375 25.140625 
Q 40.375 35.796875 36.265625 40.765625 
Q 32.171875 45.75 26.171875 45.75 
Q 20.3125 45.75 16.375 40.96875 
Q 12.453125 36.1875 12.453125 25.875 
" id="ArialMT-64"/>
      <path d="M 12.359375 -21.046875 
L 6.0625 -21.046875 
Q 20.65625 2.390625 20.65625 25.875 
Q 20.65625 35.0625 18.5625 44.09375 
Q 16.890625 51.421875 13.921875 58.15625 
Q 12.015625 62.546875 6.0625 72.796875 
L 12.359375 72.796875 
Q 21.53125 60.546875 25.921875 48.1875 
Q 29.6875 37.546875 29.6875 25.921875 
Q 29.6875 12.75 24.625 0.4375 
Q 19.578125 -11.859375 12.359375 -21.046875 
" id="ArialMT-29"/>
      <path d="M 23.390625 -21.046875 
Q 16.109375 -11.859375 11.078125 0.4375 
Q 6.0625 12.75 6.0625 25.921875 
Q 6.0625 37.546875 9.8125 48.1875 
Q 14.203125 60.546875 23.390625 72.796875 
L 29.6875 72.796875 
Q 23.78125 62.640625 21.875 58.296875 
Q 18.890625 51.5625 17.1875 44.234375 
Q 15.09375 35.109375 15.09375 25.875 
Q 15.09375 2.390625 29.6875 -21.046875 
z
" id="ArialMT-28"/>
      <path d="M 19.390625 -19.484375 
L 23.875 -1.421875 
Q 18.796875 -1.421875 14.40625 0.953125 
Q 10.015625 3.328125 7.34375 7.5625 
Q 4.6875 11.8125 4.6875 16.796875 
Q 4.6875 22.21875 7.375 27.140625 
Q 10.0625 32.078125 14.71875 36.109375 
Q 19.390625 40.140625 24.75 42.3125 
Q 30.125 44.484375 35.40625 44.484375 
L 41.40625 68.796875 
Q 41.609375 69.390625 42.1875 69.390625 
L 43.40625 69.390625 
Q 43.796875 69.390625 44.03125 69.046875 
Q 44.28125 68.703125 44.28125 68.40625 
L 38.28125 44.484375 
Q 42.046875 44.484375 45.5625 43.109375 
Q 49.078125 41.75 51.78125 39.28125 
Q 54.5 36.8125 56 33.46875 
Q 57.515625 30.125 57.515625 26.3125 
Q 57.515625 20.90625 54.828125 15.96875 
Q 52.15625 11.03125 47.609375 7.078125 
Q 43.0625 3.125 37.46875 0.84375 
Q 31.890625 -1.421875 26.8125 -1.421875 
L 22.21875 -19.921875 
Q 22.015625 -20.515625 21.390625 -20.515625 
L 20.21875 -20.515625 
Q 19.828125 -20.515625 19.609375 -20.140625 
Q 19.390625 -19.78125 19.390625 -19.484375 
M 24.515625 1.21875 
L 34.71875 41.890625 
Q 32.171875 41.890625 29.390625 40.859375 
Q 26.609375 39.84375 24.140625 38.28125 
Q 21.6875 36.71875 19.671875 34.71875 
Q 17.234375 32.28125 15.375 28.953125 
Q 13.53125 25.640625 12.578125 21.953125 
Q 11.625 18.265625 11.625 14.703125 
Q 11.625 10.9375 13.234375 7.859375 
Q 14.84375 4.78125 17.765625 3 
Q 20.703125 1.21875 24.515625 1.21875 
M 27.484375 1.21875 
Q 31.25 1.21875 35.5 3.359375 
Q 39.75 5.515625 42.484375 8.40625 
Q 46.234375 12.109375 48.40625 17.5 
Q 50.59375 22.90625 50.59375 28.421875 
Q 50.59375 32.125 48.96875 35.21875 
Q 47.359375 38.328125 44.421875 40.109375 
Q 41.5 41.890625 37.703125 41.890625 
z
" id="Cmmi10-c1"/>
      <path id="ArialMT-20"/>
     </defs>
     <g transform="translate(67.1802717391 124.32828125)scale(0.09 -0.09)">
      <use transform="translate(0.0 0.203125)" xlink:href="#Cmmi10-c1"/>
      <use transform="translate(59.521484375 0.203125)" xlink:href="#ArialMT-20"/>
      <use transform="translate(87.3046875 0.203125)" xlink:href="#ArialMT-28"/>
      <use transform="translate(120.60546875 0.203125)" xlink:href="#ArialMT-64"/>
      <use transform="translate(176.220703125 0.203125)" xlink:href="#ArialMT-65"/>
      <use transform="translate(231.8359375 0.203125)" xlink:href="#ArialMT-67"/>
      <use transform="translate(287.451171875 0.203125)" xlink:href="#ArialMT-29"/>
     </g>
    </g>
   </g>
   <g id="matplotlib.axis_2">
    <g id="ytick_1">
     <g id="line2d_11">
      <defs>
       <path d="M 0 0 
L 2 0 
" id="md40a3a7424" style="stroke:#000000;stroke-width:0.75;"/>
      </defs>
      <g>
       <use style="stroke:#000000;stroke-width:0.75;" x="39.16875" xlink:href="#md40a3a7424" y="101.44203125"/>
      </g>
     </g>
     <g id="line2d_12">
      <defs>
       <path d="M 0 0 
L -2 0 
" id="m8512669966" style="stroke:#000000;stroke-width:0.75;"/>
      </defs>
      <g>
       <use style="stroke:#000000;stroke-width:0.75;" x="124.081793478" xlink:href="#m8512669966" y="101.44203125"/>
      </g>
     </g>
     <g id="text_7">
      <!-- −180 -->
      <g transform="translate(17.15 103.51015625)scale(0.08 -0.08)">
       <use xlink:href="#ArialMT-2212"/>
       <use x="58.3984375" xlink:href="#ArialMT-31"/>
       <use x="114.013671875" xlink:href="#ArialMT-38"/>
       <use x="169.62890625" xlink:href="#ArialMT-30"/>
      </g>
     </g>
    </g>
    <g id="ytick_2">
     <g id="line2d_13">
      <g>
       <use style="stroke:#000000;stroke-width:0.75;" x="39.16875" xlink:href="#md40a3a7424" y="79.84203125"/>
      </g>
     </g>
     <g id="line2d_14">
      <g>
       <use style="stroke:#000000;stroke-width:0.75;" x="124.081793478" xlink:href="#m8512669966" y="79.84203125"/>
      </g>
     </g>
     <g id="text_8">
      <!-- −90 -->
      <g transform="translate(21.59875 81.91015625)scale(0.08 -0.08)">
       <use xlink:href="#ArialMT-2212"/>
       <use x="58.3984375" xlink:href="#ArialMT-39"/>
       <use x="114.013671875" xlink:href="#ArialMT-30"/>
      </g>
     </g>
    </g>
    <g id="ytick_3">
     <g id="line2d_15">
      <g>
       <use style="stroke:#000000;stroke-width:0.75;" x="39.16875" xlink:href="#md40a3a7424" y="58.24203125"/>
      </g>
     </g>
     <g id="line2d_16">
      <g>
       <use style="stroke:#000000;stroke-width:0.75;" x="124.081793478" xlink:href="#m8512669966" y="58.24203125"/>
      </g>
     </g>
     <g id="text_9">
      <!-- 0 -->
      <g transform="translate(30.72 60.31015625)scale(0.08 -0.08)">
       <use xlink:href="#ArialMT-30"/>
      </g>
     </g>
    </g>
    <g id="ytick_4">
     <g id="line2d_17">
      <g>
       <use style="stroke:#000000;stroke-width:0.75;" x="39.16875" xlink:href="#md40a3a7424" y="36.64203125"/>
      </g>
     </g>
     <g id="line2d_18">
      <g>
       <use style="stroke:#000000;stroke-width:0.75;" x="124.081793478" xlink:href="#m8512669966" y="36.64203125"/>
      </g>
     </g>
     <g id="text_10">
      <!-- 90 -->
      <g transform="translate(26.27125 38.71015625)scale(0.08 -0.08)">
       <use xlink:href="#ArialMT-39"/>
       <use x="55.615234375" xlink:href="#ArialMT-30"/>
      </g>
     </g>
    </g>
    <g id="ytick_5">
     <g id="line2d_19">
      <g>
       <use style="stroke:#000000;stroke-width:0.75;" x="39.16875" xlink:href="#md40a3a7424" y="15.04203125"/>
      </g>
     </g>
     <g id="line2d_20">
      <g>
       <use style="stroke:#000000;stroke-width:0.75;" x="124.081793478" xlink:href="#m8512669966" y="15.04203125"/>
      </g>
     </g>
     <g id="text_11">
      <!-- 180 -->
      <g transform="translate(21.8225 17.11015625)scale(0.08 -0.08)">
       <use xlink:href="#ArialMT-31"/>
       <use x="55.615234375" xlink:href="#ArialMT-38"/>
       <use x="111.23046875" xlink:href="#ArialMT-30"/>
      </g>
     </g>
    </g>
    <g id="text_12">
     <!-- $\psi$ (deg) -->
     <defs>
      <path d="M 23.78125 -19.484375 
L 28.515625 -0.875 
Q 24.171875 -0.875 20.09375 0.75 
Q 16.015625 2.390625 13.5 5.5625 
Q 10.984375 8.734375 10.984375 13.28125 
Q 10.984375 15.875 11.90625 19.1875 
Q 12.84375 22.515625 13.890625 25.296875 
Q 14.9375 28.078125 16.703125 32.625 
Q 18.015625 36.28125 18.015625 38.625 
Q 18.015625 41.609375 15.828125 41.609375 
Q 11.859375 41.609375 9.296875 37.53125 
Q 6.734375 33.453125 5.515625 28.421875 
Q 5.328125 27.78125 4.6875 27.78125 
L 3.515625 27.78125 
Q 2.6875 27.78125 2.6875 28.71875 
L 2.6875 29 
Q 4.296875 34.96875 7.609375 39.578125 
Q 10.9375 44.1875 16.015625 44.1875 
Q 19.578125 44.1875 22.046875 41.84375 
Q 24.515625 39.5 24.515625 35.890625 
Q 24.515625 34.03125 23.6875 31.984375 
Q 21.921875 27.4375 20.890625 24.75 
Q 19.875 22.078125 18.9375 18.671875 
Q 18.015625 15.28125 18.015625 12.59375 
Q 18.015625 7.71875 21.0625 5.03125 
Q 24.125 2.34375 29.109375 1.703125 
L 45.90625 68.796875 
Q 46.09375 69.390625 46.6875 69.390625 
L 47.90625 69.390625 
Q 48.6875 69.390625 48.6875 68.40625 
L 31.984375 1.515625 
L 33.109375 1.515625 
Q 37.3125 1.515625 41.96875 4 
Q 46.625 6.5 50.453125 10.546875 
Q 54.296875 14.59375 56.546875 19.25 
Q 58.796875 23.921875 58.796875 27.984375 
Q 58.796875 31 57.8125 32.6875 
Q 56.84375 34.375 55.28125 36.203125 
Q 53.71875 38.03125 53.71875 39.109375 
Q 53.71875 41.0625 55.328125 42.671875 
Q 56.9375 44.28125 58.890625 44.28125 
Q 61.28125 44.28125 62.328125 42.078125 
Q 63.375 39.890625 63.375 37.109375 
Q 63.375 34.1875 62.78125 31.25 
Q 62.203125 28.328125 61.1875 24.3125 
Q 58.890625 15.1875 51.609375 7.90625 
Q 49.125 5.421875 46.109375 3.34375 
Q 43.109375 1.265625 39.765625 0.0625 
Q 36.421875 -1.125 33.015625 -1.125 
L 31.390625 -1.125 
L 26.703125 -19.921875 
Q 26.515625 -20.515625 25.875 -20.515625 
L 24.703125 -20.515625 
Q 24.3125 -20.515625 24.046875 -20.1875 
Q 23.78125 -19.875 23.78125 -19.484375 
" id="Cmmi10-c3"/>
     </defs>
     <g transform="translate(10.17 72.95703125)rotate(-90.0)scale(0.09 -0.09)">
      <use transform="translate(0.0 0.203125)" xlink:href="#Cmmi10-c3"/>
      <use transform="translate(65.087890625 0.203125)" xlink:href="#ArialMT-20"/>
      <use transform="translate(92.87109375 0.203125)" xlink:href="#ArialMT-28"/>
      <use transform="translate(126.171875 0.203125)" xlink:href="#ArialMT-64"/>
      <use transform="translate(181.787109375 0.203125)" xlink:href="#ArialMT-65"/>
      <use transform="translate(237.40234375 0.203125)" xlink:href="#ArialMT-67"/>
      <use transform="translate(293.017578125 0.203125)" xlink:href="#ArialMT-29"/>
     </g>
    </g>
   </g>
   <g id="text_13">
    <!-- N=5,006,882 -->
    <defs>
     <path d="M 8.890625 0 
L 8.890625 10.015625 
L 18.890625 10.015625 
L 18.890625 0 
Q 18.890625 -5.515625 16.9375 -8.90625 
Q 14.984375 -12.3125 10.75 -14.15625 
L 8.296875 -10.40625 
Q 11.078125 -9.1875 12.390625 -6.8125 
Q 13.71875 -4.4375 13.875 0 
z
" id="ArialMT-2c"/>
     <path d="M 52.828125 42.09375 
L 5.5625 42.09375 
L 5.5625 50.296875 
L 52.828125 50.296875 
z
M 52.828125 20.359375 
L 5.5625 20.359375 
L 5.5625 28.5625 
L 52.828125 28.5625 
z
" id="ArialMT-3d"/>
     <path d="M 50.34375 8.453125 
L 50.34375 0 
L 3.03125 0 
Q 2.9375 3.171875 4.046875 6.109375 
Q 5.859375 10.9375 9.828125 15.625 
Q 13.8125 20.3125 21.34375 26.46875 
Q 33.015625 36.03125 37.109375 41.625 
Q 41.21875 47.21875 41.21875 52.203125 
Q 41.21875 57.421875 37.46875 61 
Q 33.734375 64.59375 27.734375 64.59375 
Q 21.390625 64.59375 17.578125 60.78125 
Q 13.765625 56.984375 13.71875 50.25 
L 4.6875 51.171875 
Q 5.609375 61.28125 11.65625 66.578125 
Q 17.71875 71.875 27.9375 71.875 
Q 38.234375 71.875 44.234375 66.15625 
Q 50.25 60.453125 50.25 52 
Q 50.25 47.703125 48.484375 43.546875 
Q 46.734375 39.40625 42.65625 34.8125 
Q 38.578125 30.21875 29.109375 22.21875 
Q 21.1875 15.578125 18.9375 13.203125 
Q 16.703125 10.84375 15.234375 8.453125 
z
" id="ArialMT-32"/>
     <path d="M 7.625 0 
L 7.625 71.578125 
L 17.328125 71.578125 
L 54.9375 15.375 
L 54.9375 71.578125 
L 64.015625 71.578125 
L 64.015625 0 
L 54.296875 0 
L 16.703125 56.25 
L 16.703125 0 
z
" id="ArialMT-4e"/>
     <path d="M 4.15625 18.75 
L 13.375 19.53125 
Q 14.40625 12.796875 18.140625 9.390625 
Q 21.875 6 27.15625 6 
Q 33.5 6 37.890625 10.78125 
Q 42.28125 15.578125 42.28125 23.484375 
Q 42.28125 31 38.0625 35.34375 
Q 33.84375 39.703125 27 39.703125 
Q 22.75 39.703125 19.328125 37.765625 
Q 15.921875 35.84375 13.96875 32.765625 
L 5.71875 33.84375 
L 12.640625 70.609375 
L 48.25 70.609375 
L 48.25 62.203125 
L 19.671875 62.203125 
L 15.828125 42.96875 
Q 22.265625 47.46875 29.34375 47.46875 
Q 38.71875 47.46875 45.15625 40.96875 
Q 51.609375 34.46875 51.609375 24.265625 
Q 51.609375 14.546875 45.953125 7.46875 
Q 39.0625 -1.21875 27.15625 -1.21875 
Q 17.390625 -1.21875 11.203125 4.25 
Q 5.03125 9.71875 4.15625 18.75 
" id="ArialMT-35"/>
     <path d="M 49.75 54.046875 
L 41.015625 53.375 
Q 39.84375 58.546875 37.703125 60.890625 
Q 34.125 64.65625 28.90625 64.65625 
Q 24.703125 64.65625 21.53125 62.3125 
Q 17.390625 59.28125 14.984375 53.46875 
Q 12.59375 47.65625 12.5 36.921875 
Q 15.671875 41.75 20.265625 44.09375 
Q 24.859375 46.4375 29.890625 46.4375 
Q 38.671875 46.4375 44.84375 39.96875 
Q 51.03125 33.5 51.03125 23.25 
Q 51.03125 16.5 48.125 10.71875 
Q 45.21875 4.9375 40.140625 1.859375 
Q 35.0625 -1.21875 28.609375 -1.21875 
Q 17.625 -1.21875 10.6875 6.859375 
Q 3.765625 14.9375 3.765625 33.5 
Q 3.765625 54.25 11.421875 63.671875 
Q 18.109375 71.875 29.4375 71.875 
Q 37.890625 71.875 43.28125 67.140625 
Q 48.6875 62.40625 49.75 54.046875 
M 13.875 23.1875 
Q 13.875 18.65625 15.796875 14.5 
Q 17.71875 10.359375 21.1875 8.171875 
Q 24.65625 6 28.46875 6 
Q 34.03125 6 38.03125 10.484375 
Q 42.046875 14.984375 42.046875 22.703125 
Q 42.046875 30.125 38.078125 34.390625 
Q 34.125 38.671875 28.125 38.671875 
Q 22.171875 38.671875 18.015625 34.390625 
Q 13.875 30.125 13.875 23.1875 
" id="ArialMT-36"/>
    </defs>
    <g transform="translate(79.5544225543 99.18678125)scale(0.07 -0.07)">
     <use xlink:href="#ArialMT-4e"/>
     <use x="72.216796875" xlink:href="#ArialMT-3d"/>
     <use x="130.615234375" xlink:href="#ArialMT-35"/>
     <use x="186.23046875" xlink:href="#ArialMT-2c"/>
     <use x="214.013671875" xlink:href="#ArialMT-30"/>
     <use x="269.62890625" xlink:href="#ArialMT-30"/>
     <use x="325.244140625" xlink:href="#ArialMT-36"/>
     <use x="380.859375" xlink:href="#ArialMT-2c"/>
     <use x="408.642578125" xlink:href="#ArialMT-38"/>
     <use x="464.2578125" xlink:href="#ArialMT-38"/>
     <use x="519.873046875" xlink:href="#ArialMT-32"/>
    </g>
   </g>
   <g id="text_14">
    <!-- Overall -->
    <defs>
     <path d="M 6.390625 0 
L 6.390625 71.578125 
L 15.1875 71.578125 
L 15.1875 0 
z
" id="ArialMT-6c"/>
     <path d="M 21 0 
L 1.265625 51.859375 
L 10.546875 51.859375 
L 21.6875 20.796875 
Q 23.484375 15.765625 25 10.359375 
Q 26.171875 14.453125 28.265625 20.21875 
L 39.796875 51.859375 
L 48.828125 51.859375 
L 29.203125 0 
z
" id="ArialMT-76"/>
     <path d="M 40.4375 6.390625 
Q 35.546875 2.25 31.03125 0.53125 
Q 26.515625 -1.171875 21.34375 -1.171875 
Q 12.796875 -1.171875 8.203125 3 
Q 3.609375 7.171875 3.609375 13.671875 
Q 3.609375 17.484375 5.34375 20.625 
Q 7.078125 23.78125 9.890625 25.6875 
Q 12.703125 27.59375 16.21875 28.5625 
Q 18.796875 29.25 24.03125 29.890625 
Q 34.671875 31.15625 39.703125 32.90625 
Q 39.75 34.71875 39.75 35.203125 
Q 39.75 40.578125 37.25 42.78125 
Q 33.890625 45.75 27.25 45.75 
Q 21.046875 45.75 18.09375 43.578125 
Q 15.140625 41.40625 13.71875 35.890625 
L 5.125 37.0625 
Q 6.296875 42.578125 8.984375 45.96875 
Q 11.671875 49.359375 16.75 51.1875 
Q 21.828125 53.03125 28.515625 53.03125 
Q 35.15625 53.03125 39.296875 51.46875 
Q 43.453125 49.90625 45.40625 47.53125 
Q 47.359375 45.171875 48.140625 41.546875 
Q 48.578125 39.3125 48.578125 33.453125 
L 48.578125 21.734375 
Q 48.578125 9.46875 49.140625 6.21875 
Q 49.703125 2.984375 51.375 0 
L 42.1875 0 
Q 40.828125 2.734375 40.4375 6.390625 
M 39.703125 26.03125 
Q 34.90625 24.078125 25.34375 22.703125 
Q 19.921875 21.921875 17.671875 20.9375 
Q 15.4375 19.96875 14.203125 18.09375 
Q 12.984375 16.21875 12.984375 13.921875 
Q 12.984375 10.40625 15.640625 8.0625 
Q 18.3125 5.71875 23.4375 5.71875 
Q 28.515625 5.71875 32.46875 7.9375 
Q 36.421875 10.15625 38.28125 14.015625 
Q 39.703125 17 39.703125 22.796875 
z
" id="ArialMT-61"/>
     <path d="M 6.5 0 
L 6.5 51.859375 
L 14.40625 51.859375 
L 14.40625 44 
Q 17.4375 49.515625 20 51.265625 
Q 22.5625 53.03125 25.640625 53.03125 
Q 30.078125 53.03125 34.671875 50.203125 
L 31.640625 42.046875 
Q 28.421875 43.953125 25.203125 43.953125 
Q 22.3125 43.953125 20.015625 42.21875 
Q 17.71875 40.484375 16.75 37.40625 
Q 15.28125 32.71875 15.28125 27.15625 
L 15.28125 0 
z
" id="ArialMT-72"/>
     <path d="M 4.828125 34.859375 
Q 4.828125 52.6875 14.390625 62.765625 
Q 23.96875 72.859375 39.109375 72.859375 
Q 49.03125 72.859375 56.984375 68.109375 
Q 64.9375 63.375 69.109375 54.90625 
Q 73.296875 46.4375 73.296875 35.6875 
Q 73.296875 24.8125 68.890625 16.21875 
Q 64.5 7.625 56.4375 3.203125 
Q 48.390625 -1.21875 39.0625 -1.21875 
Q 28.953125 -1.21875 20.984375 3.65625 
Q 13.03125 8.546875 8.921875 16.984375 
Q 4.828125 25.4375 4.828125 34.859375 
M 14.59375 34.71875 
Q 14.59375 21.78125 21.546875 14.328125 
Q 28.515625 6.890625 39.015625 6.890625 
Q 49.703125 6.890625 56.609375 14.40625 
Q 63.53125 21.921875 63.53125 35.75 
Q 63.53125 44.484375 60.578125 51 
Q 57.625 57.515625 51.921875 61.109375 
Q 46.234375 64.703125 39.15625 64.703125 
Q 29.109375 64.703125 21.84375 57.78125 
Q 14.59375 50.875 14.59375 34.71875 
" id="ArialMT-4f"/>
    </defs>
    <g transform="translate(67.3722248641 10.04203125)scale(0.09 -0.09)">
     <use xlink:href="#ArialMT-4f"/>
     <use x="77.783203125" xlink:href="#ArialMT-76"/>
     <use x="127.783203125" xlink:href="#ArialMT-65"/>
     <use x="183.3984375" xlink:href="#ArialMT-72"/>
     <use x="216.69921875" xlink:href="#ArialMT-61"/>
     <use x="272.314453125" xlink:href="#ArialMT-6c"/>
     <use x="294.53125" xlink:href="#ArialMT-6c"/>
    </g>
   </g>
  </g>
  <g id="axes_2">
   <g id="patch_7">
    <path d="M 141.064402 101.442031 
L 225.977446 101.442031 
L 225.977446 15.042031 
L 141.064402 15.042031 
z
" style="fill:#ffffff;"/>
   </g>
   <g id="PathCollection_6">
    <path clip-path="url(#pf0d4bbb526)" d="M 167.730767 71.32613 
L 168.645509 69.375365 
L 167.730767 68.250624 
L 165.977881 69.375365 
z
" style="fill:#006428;"/>
   </g>
   <g id="PathCollection_7">
    <path clip-path="url(#pf0d4bbb526)" d="M 167.730767 72.25014 
L 169.188264 71.842031 
L 169.560251 69.375365 
L 167.730767 67.125883 
L 165.306552 67.305254 
L 164.83543 69.375365 
L 165.306552 70.11263 
L 166.913904 71.842031 
z
M 165.977881 69.375365 
L 167.730767 68.250624 
L 168.645509 69.375365 
L 167.730767 71.32613 
z
" style="fill:#2f974e;"/>
   </g>
   <g id="PathCollection_8">
    <path clip-path="url(#pf0d4bbb526)" d="M 167.730767 72.804983 
L 170.154982 72.193723 
L 170.460574 71.842031 
L 170.317061 69.375365 
L 170.154982 69.073844 
L 168.320133 66.908698 
L 167.730767 66.342783 
L 165.306552 66.060212 
L 164.362554 66.908698 
L 164.071881 69.375365 
L 165.306552 71.307521 
L 165.80334 71.842031 
z
M 166.913904 71.842031 
L 165.306552 70.11263 
L 164.83543 69.375365 
L 165.306552 67.305254 
L 167.730767 67.125883 
L 169.560251 69.375365 
L 169.188264 71.842031 
L 167.730767 72.25014 
z
" style="fill:#75c477;"/>
   </g>
   <g id="PathCollection_9">
    <path clip-path="url(#pf0d4bbb526)" d="M 165.306552 72.23819 
L 167.730767 73.359826 
L 170.154982 72.880437 
L 171.057276 71.842031 
L 170.780359 69.375365 
L 170.154982 68.211956 
L 169.050539 66.908698 
L 167.730767 65.641441 
L 165.306552 65.097996 
L 163.292022 66.908698 
L 163.308331 69.375365 
L 164.766677 71.842031 
z
M 165.80334 71.842031 
L 165.306552 71.307521 
L 164.071881 69.375365 
L 164.362554 66.908698 
L 165.306552 66.060212 
L 167.730767 66.342783 
L 168.320133 66.908698 
L 170.154982 69.073844 
L 170.317061 69.375365 
L 170.460574 71.842031 
L 170.154982 72.193723 
L 167.730767 72.804983 
z
" style="fill:#b8e3b2;"/>
   </g>
   <g id="PathCollection_10">
    <path clip-path="url(#pf0d4bbb526)" d="M 165.306552 72.955 
L 167.730767 73.914669 
L 170.154982 73.567152 
L 171.653977 71.842031 
L 171.243657 69.375365 
L 170.154982 67.350067 
L 169.780944 66.908698 
L 167.730767 64.940099 
L 166.056788 64.442031 
L 165.306552 64.155803 
L 164.084148 64.442031 
L 162.882337 65.27179 
L 161.825484 66.908698 
L 162.310096 69.375365 
L 162.882337 70.170706 
L 163.789828 71.842031 
z
M 164.766677 71.842031 
L 163.308331 69.375365 
L 163.292022 66.908698 
L 165.306552 65.097996 
L 167.730767 65.641441 
L 169.050539 66.908698 
L 170.154982 68.211956 
L 170.780359 69.375365 
L 171.057276 71.842031 
L 170.154982 72.880437 
L 167.730767 73.359826 
L 165.306552 72.23819 
z
" style="fill:#e9f7e5;"/>
   </g>
   <g id="patch_8">
    <path d="M 141.064402 15.042031 
L 225.977446 15.042031 
" style="fill:none;stroke:#000000;stroke-linecap:square;stroke-linejoin:miter;stroke-width:0.5;"/>
   </g>
   <g id="patch_9">
    <path d="M 225.977446 101.442031 
L 225.977446 15.042031 
" style="fill:none;stroke:#000000;stroke-linecap:square;stroke-linejoin:miter;stroke-width:0.5;"/>
   </g>
   <g id="patch_10">
    <path d="M 141.064402 101.442031 
L 225.977446 101.442031 
" style="fill:none;stroke:#000000;stroke-linecap:square;stroke-linejoin:miter;stroke-width:0.5;"/>
   </g>
   <g id="patch_11">
    <path d="M 141.064402 101.442031 
L 141.064402 15.042031 
" style="fill:none;stroke:#000000;stroke-linecap:square;stroke-linejoin:miter;stroke-width:0.5;"/>
   </g>
   <g id="matplotlib.axis_3">
    <g id="xtick_6">
     <g id="line2d_21">
      <g>
       <use style="stroke:#000000;stroke-width:0.75;" x="141.064402174" xlink:href="#ma8c031ec22" y="101.44203125"/>
      </g>
     </g>
     <g id="line2d_22">
      <g>
       <use style="stroke:#000000;stroke-width:0.75;" x="141.064402174" xlink:href="#m5d631dd867" y="15.04203125"/>
      </g>
     </g>
     <g id="text_15">
      <!-- −180 -->
      <g transform="translate(132.055027174 111.16828125)scale(0.08 -0.08)">
       <use xlink:href="#ArialMT-2212"/>
       <use x="58.3984375" xlink:href="#ArialMT-31"/>
       <use x="114.013671875" xlink:href="#ArialMT-38"/>
       <use x="169.62890625" xlink:href="#ArialMT-30"/>
      </g>
     </g>
    </g>
    <g id="xtick_7">
     <g id="line2d_23">
      <g>
       <use style="stroke:#000000;stroke-width:0.75;" x="162.292663043" xlink:href="#ma8c031ec22" y="101.44203125"/>
      </g>
     </g>
     <g id="line2d_24">
      <g>
       <use style="stroke:#000000;stroke-width:0.75;" x="162.292663043" xlink:href="#m5d631dd867" y="15.04203125"/>
      </g>
     </g>
     <g id="text_16">
      <!-- −90 -->
      <g transform="translate(155.507663043 111.16828125)scale(0.08 -0.08)">
       <use xlink:href="#ArialMT-2212"/>
       <use x="58.3984375" xlink:href="#ArialMT-39"/>
       <use x="114.013671875" xlink:href="#ArialMT-30"/>
      </g>
     </g>
    </g>
    <g id="xtick_8">
     <g id="line2d_25">
      <g>
       <use style="stroke:#000000;stroke-width:0.75;" x="183.520923913" xlink:href="#ma8c031ec22" y="101.44203125"/>
      </g>
     </g>
     <g id="line2d_26">
      <g>
       <use style="stroke:#000000;stroke-width:0.75;" x="183.520923913" xlink:href="#m5d631dd867" y="15.04203125"/>
      </g>
     </g>
     <g id="text_17">
      <!-- 0 -->
      <g transform="translate(181.296548913 111.16828125)scale(0.08 -0.08)">
       <use xlink:href="#ArialMT-30"/>
      </g>
     </g>
    </g>
    <g id="xtick_9">
     <g id="line2d_27">
      <g>
       <use style="stroke:#000000;stroke-width:0.75;" x="204.749184783" xlink:href="#ma8c031ec22" y="101.44203125"/>
      </g>
     </g>
     <g id="line2d_28">
      <g>
       <use style="stroke:#000000;stroke-width:0.75;" x="204.749184783" xlink:href="#m5d631dd867" y="15.04203125"/>
      </g>
     </g>
     <g id="text_18">
      <!-- 90 -->
      <g transform="translate(200.300434783 111.16828125)scale(0.08 -0.08)">
       <use xlink:href="#ArialMT-39"/>
       <use x="55.615234375" xlink:href="#ArialMT-30"/>
      </g>
     </g>
    </g>
    <g id="xtick_10">
     <g id="line2d_29">
      <g>
       <use style="stroke:#000000;stroke-width:0.75;" x="225.977445652" xlink:href="#ma8c031ec22" y="101.44203125"/>
      </g>
     </g>
     <g id="line2d_30">
      <g>
       <use style="stroke:#000000;stroke-width:0.75;" x="225.977445652" xlink:href="#m5d631dd867" y="15.04203125"/>
      </g>
     </g>
     <g id="text_19">
      <!-- 180 -->
      <g transform="translate(219.304320652 111.16828125)scale(0.08 -0.08)">
       <use xlink:href="#ArialMT-31"/>
       <use x="55.615234375" xlink:href="#ArialMT-38"/>
       <use x="111.23046875" xlink:href="#ArialMT-30"/>
      </g>
     </g>
    </g>
    <g id="text_20">
     <!-- $\phi$ (deg) -->
     <g transform="translate(169.075923913 124.32828125)scale(0.09 -0.09)">
      <use transform="translate(0.0 0.203125)" xlink:href="#Cmmi10-c1"/>
      <use transform="translate(59.521484375 0.203125)" xlink:href="#ArialMT-20"/>
      <use transform="translate(87.3046875 0.203125)" xlink:href="#ArialMT-28"/>
      <use transform="translate(120.60546875 0.203125)" xlink:href="#ArialMT-64"/>
      <use transform="translate(176.220703125 0.203125)" xlink:href="#ArialMT-65"/>
      <use transform="translate(231.8359375 0.203125)" xlink:href="#ArialMT-67"/>
      <use transform="translate(287.451171875 0.203125)" xlink:href="#ArialMT-29"/>
     </g>
    </g>
   </g>
   <g id="matplotlib.axis_4">
    <g id="ytick_6">
     <g id="line2d_31">
      <g>
       <use style="stroke:#000000;stroke-width:0.75;" x="141.064402174" xlink:href="#md40a3a7424" y="101.44203125"/>
      </g>
     </g>
     <g id="line2d_32">
      <g>
       <use style="stroke:#000000;stroke-width:0.75;" x="225.977445652" xlink:href="#m8512669966" y="101.44203125"/>
      </g>
     </g>
    </g>
    <g id="ytick_7">
     <g id="line2d_33">
      <g>
       <use style="stroke:#000000;stroke-width:0.75;" x="141.064402174" xlink:href="#md40a3a7424" y="79.84203125"/>
      </g>
     </g>
     <g id="line2d_34">
      <g>
       <use style="stroke:#000000;stroke-width:0.75;" x="225.977445652" xlink:href="#m8512669966" y="79.84203125"/>
      </g>
     </g>
    </g>
    <g id="ytick_8">
     <g id="line2d_35">
      <g>
       <use style="stroke:#000000;stroke-width:0.75;" x="141.064402174" xlink:href="#md40a3a7424" y="58.24203125"/>
      </g>
     </g>
     <g id="line2d_36">
      <g>
       <use style="stroke:#000000;stroke-width:0.75;" x="225.977445652" xlink:href="#m8512669966" y="58.24203125"/>
      </g>
     </g>
    </g>
    <g id="ytick_9">
     <g id="line2d_37">
      <g>
       <use style="stroke:#000000;stroke-width:0.75;" x="141.064402174" xlink:href="#md40a3a7424" y="36.64203125"/>
      </g>
     </g>
     <g id="line2d_38">
      <g>
       <use style="stroke:#000000;stroke-width:0.75;" x="225.977445652" xlink:href="#m8512669966" y="36.64203125"/>
      </g>
     </g>
    </g>
    <g id="ytick_10">
     <g id="line2d_39">
      <g>
       <use style="stroke:#000000;stroke-width:0.75;" x="141.064402174" xlink:href="#md40a3a7424" y="15.04203125"/>
      </g>
     </g>
     <g id="line2d_40">
      <g>
       <use style="stroke:#000000;stroke-width:0.75;" x="225.977445652" xlink:href="#m8512669966" y="15.04203125"/>
      </g>
     </g>
    </g>
   </g>
   <g id="text_21">
    <!-- N=928,006 -->
    <g transform="translate(187.287418478 99.18678125)scale(0.07 -0.07)">
     <use xlink:href="#ArialMT-4e"/>
     <use x="72.216796875" xlink:href="#ArialMT-3d"/>
     <use x="130.615234375" xlink:href="#ArialMT-39"/>
     <use x="186.23046875" xlink:href="#ArialMT-32"/>
     <use x="241.845703125" xlink:href="#ArialMT-38"/>
     <use x="297.4609375" xlink:href="#ArialMT-2c"/>
     <use x="325.244140625" xlink:href="#ArialMT-30"/>
     <use x="380.859375" xlink:href="#ArialMT-30"/>
     <use x="436.474609375" xlink:href="#ArialMT-36"/>
    </g>
   </g>
   <g id="text_22">
    <!-- $\alpha$-helix -->
    <defs>
     <path d="M 20.125 -1.125 
Q 15.375 -1.125 11.6875 1.125 
Q 8.015625 3.375 6 7.171875 
Q 4 10.984375 4 15.828125 
Q 4 22.609375 7.78125 29.25 
Q 11.578125 35.890625 17.84375 40.03125 
Q 24.125 44.1875 31 44.1875 
Q 36.078125 44.1875 39.9375 41.53125 
Q 43.796875 38.875 45.796875 34.453125 
Q 47.796875 30.03125 47.796875 25 
L 47.90625 18.3125 
Q 51.3125 23.046875 53.6875 28.140625 
Q 56.0625 33.25 57.328125 38.71875 
Q 57.515625 39.3125 58.109375 39.3125 
L 59.28125 39.3125 
Q 60.203125 39.3125 60.203125 38.375 
Q 60.203125 38.28125 60.109375 38.09375 
Q 58.9375 33.5 57.171875 29.265625 
Q 55.421875 25.046875 53.046875 21.09375 
Q 50.6875 17.140625 47.90625 13.921875 
Q 47.90625 1.515625 50.78125 1.515625 
Q 52.640625 1.515625 53.828125 2.609375 
Q 55.03125 3.71875 55.9375 5.328125 
Q 56.84375 6.9375 57.078125 6.984375 
L 58.296875 6.984375 
Q 59.078125 6.984375 59.078125 6 
Q 59.078125 3.515625 56.21875 1.1875 
Q 53.375 -1.125 50.59375 -1.125 
Q 46.96875 -1.125 44.578125 1.21875 
Q 42.1875 3.5625 41.3125 7.328125 
Q 36.625 3.328125 31.15625 1.09375 
Q 25.6875 -1.125 20.125 -1.125 
M 20.3125 1.515625 
Q 31 1.515625 40.828125 10.296875 
Q 40.765625 10.890625 40.671875 11.734375 
Q 40.578125 12.59375 40.578125 12.703125 
L 40.578125 23.484375 
Q 40.578125 41.609375 30.8125 41.609375 
Q 24.953125 41.609375 20.546875 36.59375 
Q 16.15625 31.59375 13.9375 24.625 
Q 11.71875 17.671875 11.71875 11.921875 
Q 11.71875 7.5625 13.9375 4.53125 
Q 16.15625 1.515625 20.3125 1.515625 
" id="Cmmi10-ae"/>
     <path d="M 6.640625 61.46875 
L 6.640625 71.578125 
L 15.4375 71.578125 
L 15.4375 61.46875 
z
M 6.640625 0 
L 6.640625 51.859375 
L 15.4375 51.859375 
L 15.4375 0 
z
" id="ArialMT-69"/>
     <path d="M 3.171875 21.484375 
L 3.171875 30.328125 
L 30.171875 30.328125 
L 30.171875 21.484375 
z
" id="ArialMT-2d"/>
     <path d="M 0.734375 0 
L 19.671875 26.953125 
L 2.15625 51.859375 
L 13.140625 51.859375 
L 21.09375 39.703125 
Q 23.34375 36.234375 24.703125 33.890625 
Q 26.859375 37.109375 28.65625 39.59375 
L 37.40625 51.859375 
L 47.90625 51.859375 
L 29.984375 27.4375 
L 49.265625 0 
L 38.484375 0 
L 27.828125 16.109375 
L 25 20.453125 
L 11.375 0 
z
" id="ArialMT-78"/>
     <path d="M 6.59375 0 
L 6.59375 71.578125 
L 15.375 71.578125 
L 15.375 45.90625 
Q 21.53125 53.03125 30.90625 53.03125 
Q 36.671875 53.03125 40.921875 50.75 
Q 45.171875 48.484375 47 44.484375 
Q 48.828125 40.484375 48.828125 32.859375 
L 48.828125 0 
L 40.046875 0 
L 40.046875 32.859375 
Q 40.046875 39.453125 37.1875 42.453125 
Q 34.328125 45.453125 29.109375 45.453125 
Q 25.203125 45.453125 21.75 43.421875 
Q 18.3125 41.40625 16.84375 37.9375 
Q 15.375 34.46875 15.375 28.375 
L 15.375 0 
z
" id="ArialMT-68"/>
    </defs>
    <g transform="translate(169.885923913 10.04203125)scale(0.09 -0.09)">
     <use transform="translate(0.0 0.421875)" xlink:href="#Cmmi10-ae"/>
     <use transform="translate(63.916015625 0.421875)" xlink:href="#ArialMT-2d"/>
     <use transform="translate(97.216796875 0.421875)" xlink:href="#ArialMT-68"/>
     <use transform="translate(152.83203125 0.421875)" xlink:href="#ArialMT-65"/>
     <use transform="translate(208.447265625 0.421875)" xlink:href="#ArialMT-6c"/>
     <use transform="translate(230.6640625 0.421875)" xlink:href="#ArialMT-69"/>
     <use transform="translate(252.880859375 0.421875)" xlink:href="#ArialMT-78"/>
    </g>
   </g>
  </g>
  <g id="axes_3">
   <g id="patch_12">
    <path d="M 242.960054 101.442031 
L 327.873098 101.442031 
L 327.873098 15.042031 
L 242.960054 15.042031 
z
" style="fill:#ffffff;"/>
   </g>
   <g id="PathCollection_11">
    <path clip-path="url(#p32dd3bf580)" d="M 269.626419 70.783232 
L 272.050634 69.793025 
L 272.158115 69.375365 
L 272.050634 69.097608 
L 270.311665 66.908698 
L 269.626419 66.061016 
L 268.477573 66.908698 
L 268.300657 69.375365 
z
" style="fill:#006428;"/>
   </g>
   <g id="PathCollection_12">
    <path clip-path="url(#p32dd3bf580)" d="M 269.626419 72.023257 
L 272.050634 72.002516 
L 272.287264 71.842031 
L 272.820395 69.375365 
L 272.050634 67.386122 
L 271.671347 66.908698 
L 269.658121 64.442031 
L 269.626419 64.400253 
L 269.216501 64.442031 
L 267.202204 65.168987 
L 266.611447 66.908698 
L 266.962913 69.375365 
L 267.202204 69.670102 
L 269.228733 71.842031 
z
M 268.300657 69.375365 
L 268.477573 66.908698 
L 269.626419 66.061016 
L 270.311665 66.908698 
L 272.050634 69.097608 
L 272.158115 69.375365 
L 272.050634 69.793025 
L 269.626419 70.783232 
z
" style="fill:#2f974e;"/>
   </g>
   <g id="PathCollection_13">
    <path clip-path="url(#p32dd3bf580)" d="M 269.626419 72.75418 
L 272.050634 72.789894 
L 273.448231 71.842031 
L 273.482676 69.375365 
L 272.449705 66.908698 
L 272.050634 66.210707 
L 270.5044 64.442031 
L 269.626419 63.284988 
L 267.202204 62.453154 
L 265.529629 64.442031 
L 265.270407 66.908698 
L 265.567267 69.375365 
L 267.202204 71.389137 
L 267.624779 71.842031 
z
M 269.228733 71.842031 
L 267.202204 69.670102 
L 266.962913 69.375365 
L 266.611447 66.908698 
L 267.202204 65.168987 
L 269.216501 64.442031 
L 269.626419 64.400253 
L 269.658121 64.442031 
L 271.671347 66.908698 
L 272.050634 67.386122 
L 272.820395 69.375365 
L 272.287264 71.842031 
L 272.050634 72.002516 
L 269.626419 72.023257 
z
" style="fill:#75c477;"/>
   </g>
   <g id="PathCollection_14">
    <path clip-path="url(#p32dd3bf580)" d="M 267.202204 72.567064 
L 269.626419 73.485103 
L 272.050634 73.577272 
L 274.474849 72.018946 
L 274.566328 71.842031 
L 274.474849 71.377009 
L 274.144956 69.375365 
L 273.003165 66.908698 
L 272.050634 65.242683 
L 271.350678 64.442031 
L 269.626419 62.169724 
L 269.194559 61.975365 
L 267.202204 60.894744 
L 264.841541 59.508698 
L 264.777989 59.451386 
L 262.353774 57.093437 
L 262.241295 57.042031 
L 259.929559 55.38824 
L 258.635124 57.042031 
L 257.895927 59.508698 
L 258.814689 61.975365 
L 259.929559 62.739939 
L 262.004436 64.442031 
L 262.353774 64.79867 
L 263.240261 66.908698 
L 263.820279 69.375365 
L 264.777989 70.802704 
L 265.506386 71.842031 
z
M 267.624779 71.842031 
L 267.202204 71.389137 
L 265.567267 69.375365 
L 265.270407 66.908698 
L 265.529629 64.442031 
L 267.202204 62.453154 
L 269.626419 63.284988 
L 270.5044 64.442031 
L 272.050634 66.210707 
L 272.449705 66.908698 
L 273.482676 69.375365 
L 273.448231 71.842031 
L 272.050634 72.789894 
L 269.626419 72.75418 
z
" style="fill:#b8e3b2;"/>
   </g>
   <g id="PathCollection_15">
    <path clip-path="url(#p32dd3bf580)" d="M 272.050634 74.371033 
L 272.353489 74.308698 
L 274.474849 73.547732 
L 275.356825 71.842031 
L 274.802763 69.375365 
L 274.474849 68.802478 
L 273.556625 66.908698 
L 272.151977 64.442031 
L 272.050634 64.332331 
L 270.067273 61.975365 
L 269.626419 61.314658 
L 267.202204 59.550671 
L 267.130717 59.508698 
L 264.777989 57.386974 
L 264.427827 57.042031 
L 262.493587 54.575365 
L 262.353774 54.352971 
L 259.929559 52.268542 
L 259.161549 52.108698 
L 257.505344 51.885774 
L 255.506276 52.108698 
L 255.081129 52.529188 
L 254.665927 54.575365 
L 254.612446 57.042031 
L 254.382938 59.508698 
L 254.685651 61.975365 
L 255.081129 62.444631 
L 256.836151 64.442031 
L 257.505344 65.088353 
L 259.929559 66.852433 
L 259.984736 66.908698 
L 261.020386 69.375365 
L 262.353774 70.813878 
L 262.982189 71.842031 
L 264.777989 72.731266 
L 267.202204 73.551439 
L 269.626419 74.216026 
L 271.17992 74.308698 
z
M 265.506386 71.842031 
L 264.777989 70.802704 
L 263.820279 69.375365 
L 263.240261 66.908698 
L 262.353774 64.79867 
L 262.004436 64.442031 
L 259.929559 62.739939 
L 258.814689 61.975365 
L 257.895927 59.508698 
L 258.635124 57.042031 
L 259.929559 55.38824 
L 262.241295 57.042031 
L 262.353774 57.093437 
L 264.777989 59.451386 
L 264.841541 59.508698 
L 267.202204 60.894744 
L 269.194559 61.975365 
L 269.626419 62.169724 
L 271.350678 64.442031 
L 272.050634 65.242683 
L 273.003165 66.908698 
L 274.144956 69.375365 
L 274.474849 71.377009 
L 274.566328 71.842031 
L 274.474849 72.018946 
L 272.050634 73.577272 
L 269.626419 73.485103 
L 267.202204 72.567064 
z
" style="fill:#e9f7e5;"/>
   </g>
   <g id="patch_13">
    <path d="M 242.960054 15.042031 
L 327.873098 15.042031 
" style="fill:none;stroke:#000000;stroke-linecap:square;stroke-linejoin:miter;stroke-width:0.5;"/>
   </g>
   <g id="patch_14">
    <path d="M 327.873098 101.442031 
L 327.873098 15.042031 
" style="fill:none;stroke:#000000;stroke-linecap:square;stroke-linejoin:miter;stroke-width:0.5;"/>
   </g>
   <g id="patch_15">
    <path d="M 242.960054 101.442031 
L 327.873098 101.442031 
" style="fill:none;stroke:#000000;stroke-linecap:square;stroke-linejoin:miter;stroke-width:0.5;"/>
   </g>
   <g id="patch_16">
    <path d="M 242.960054 101.442031 
L 242.960054 15.042031 
" style="fill:none;stroke:#000000;stroke-linecap:square;stroke-linejoin:miter;stroke-width:0.5;"/>
   </g>
   <g id="matplotlib.axis_5">
    <g id="xtick_11">
     <g id="line2d_41">
      <g>
       <use style="stroke:#000000;stroke-width:0.75;" x="242.960054348" xlink:href="#ma8c031ec22" y="101.44203125"/>
      </g>
     </g>
     <g id="line2d_42">
      <g>
       <use style="stroke:#000000;stroke-width:0.75;" x="242.960054348" xlink:href="#m5d631dd867" y="15.04203125"/>
      </g>
     </g>
     <g id="text_23">
      <!-- −180 -->
      <g transform="translate(233.950679348 111.16828125)scale(0.08 -0.08)">
       <use xlink:href="#ArialMT-2212"/>
       <use x="58.3984375" xlink:href="#ArialMT-31"/>
       <use x="114.013671875" xlink:href="#ArialMT-38"/>
       <use x="169.62890625" xlink:href="#ArialMT-30"/>
      </g>
     </g>
    </g>
    <g id="xtick_12">
     <g id="line2d_43">
      <g>
       <use style="stroke:#000000;stroke-width:0.75;" x="264.188315217" xlink:href="#ma8c031ec22" y="101.44203125"/>
      </g>
     </g>
     <g id="line2d_44">
      <g>
       <use style="stroke:#000000;stroke-width:0.75;" x="264.188315217" xlink:href="#m5d631dd867" y="15.04203125"/>
      </g>
     </g>
     <g id="text_24">
      <!-- −90 -->
      <g transform="translate(257.403315217 111.16828125)scale(0.08 -0.08)">
       <use xlink:href="#ArialMT-2212"/>
       <use x="58.3984375" xlink:href="#ArialMT-39"/>
       <use x="114.013671875" xlink:href="#ArialMT-30"/>
      </g>
     </g>
    </g>
    <g id="xtick_13">
     <g id="line2d_45">
      <g>
       <use style="stroke:#000000;stroke-width:0.75;" x="285.416576087" xlink:href="#ma8c031ec22" y="101.44203125"/>
      </g>
     </g>
     <g id="line2d_46">
      <g>
       <use style="stroke:#000000;stroke-width:0.75;" x="285.416576087" xlink:href="#m5d631dd867" y="15.04203125"/>
      </g>
     </g>
     <g id="text_25">
      <!-- 0 -->
      <g transform="translate(283.192201087 111.16828125)scale(0.08 -0.08)">
       <use xlink:href="#ArialMT-30"/>
      </g>
     </g>
    </g>
    <g id="xtick_14">
     <g id="line2d_47">
      <g>
       <use style="stroke:#000000;stroke-width:0.75;" x="306.644836957" xlink:href="#ma8c031ec22" y="101.44203125"/>
      </g>
     </g>
     <g id="line2d_48">
      <g>
       <use style="stroke:#000000;stroke-width:0.75;" x="306.644836957" xlink:href="#m5d631dd867" y="15.04203125"/>
      </g>
     </g>
     <g id="text_26">
      <!-- 90 -->
      <g transform="translate(302.196086957 111.16828125)scale(0.08 -0.08)">
       <use xlink:href="#ArialMT-39"/>
       <use x="55.615234375" xlink:href="#ArialMT-30"/>
      </g>
     </g>
    </g>
    <g id="xtick_15">
     <g id="line2d_49">
      <g>
       <use style="stroke:#000000;stroke-width:0.75;" x="327.873097826" xlink:href="#ma8c031ec22" y="101.44203125"/>
      </g>
     </g>
     <g id="line2d_50">
      <g>
       <use style="stroke:#000000;stroke-width:0.75;" x="327.873097826" xlink:href="#m5d631dd867" y="15.04203125"/>
      </g>
     </g>
     <g id="text_27">
      <!-- 180 -->
      <g transform="translate(321.199972826 111.16828125)scale(0.08 -0.08)">
       <use xlink:href="#ArialMT-31"/>
       <use x="55.615234375" xlink:href="#ArialMT-38"/>
       <use x="111.23046875" xlink:href="#ArialMT-30"/>
      </g>
     </g>
    </g>
    <g id="text_28">
     <!-- $\phi$ (deg) -->
     <g transform="translate(270.971576087 124.32828125)scale(0.09 -0.09)">
      <use transform="translate(0.0 0.203125)" xlink:href="#Cmmi10-c1"/>
      <use transform="translate(59.521484375 0.203125)" xlink:href="#ArialMT-20"/>
      <use transform="translate(87.3046875 0.203125)" xlink:href="#ArialMT-28"/>
      <use transform="translate(120.60546875 0.203125)" xlink:href="#ArialMT-64"/>
      <use transform="translate(176.220703125 0.203125)" xlink:href="#ArialMT-65"/>
      <use transform="translate(231.8359375 0.203125)" xlink:href="#ArialMT-67"/>
      <use transform="translate(287.451171875 0.203125)" xlink:href="#ArialMT-29"/>
     </g>
    </g>
   </g>
   <g id="matplotlib.axis_6">
    <g id="ytick_11">
     <g id="line2d_51">
      <g>
       <use style="stroke:#000000;stroke-width:0.75;" x="242.960054348" xlink:href="#md40a3a7424" y="101.44203125"/>
      </g>
     </g>
     <g id="line2d_52">
      <g>
       <use style="stroke:#000000;stroke-width:0.75;" x="327.873097826" xlink:href="#m8512669966" y="101.44203125"/>
      </g>
     </g>
    </g>
    <g id="ytick_12">
     <g id="line2d_53">
      <g>
       <use style="stroke:#000000;stroke-width:0.75;" x="242.960054348" xlink:href="#md40a3a7424" y="79.84203125"/>
      </g>
     </g>
     <g id="line2d_54">
      <g>
       <use style="stroke:#000000;stroke-width:0.75;" x="327.873097826" xlink:href="#m8512669966" y="79.84203125"/>
      </g>
     </g>
    </g>
    <g id="ytick_13">
     <g id="line2d_55">
      <g>
       <use style="stroke:#000000;stroke-width:0.75;" x="242.960054348" xlink:href="#md40a3a7424" y="58.24203125"/>
      </g>
     </g>
     <g id="line2d_56">
      <g>
       <use style="stroke:#000000;stroke-width:0.75;" x="327.873097826" xlink:href="#m8512669966" y="58.24203125"/>
      </g>
     </g>
    </g>
    <g id="ytick_14">
     <g id="line2d_57">
      <g>
       <use style="stroke:#000000;stroke-width:0.75;" x="242.960054348" xlink:href="#md40a3a7424" y="36.64203125"/>
      </g>
     </g>
     <g id="line2d_58">
      <g>
       <use style="stroke:#000000;stroke-width:0.75;" x="327.873097826" xlink:href="#m8512669966" y="36.64203125"/>
      </g>
     </g>
    </g>
    <g id="ytick_15">
     <g id="line2d_59">
      <g>
       <use style="stroke:#000000;stroke-width:0.75;" x="242.960054348" xlink:href="#md40a3a7424" y="15.04203125"/>
      </g>
     </g>
     <g id="line2d_60">
      <g>
       <use style="stroke:#000000;stroke-width:0.75;" x="327.873097826" xlink:href="#m8512669966" y="15.04203125"/>
      </g>
     </g>
    </g>
   </g>
   <g id="text_29">
    <!-- N=217,587 -->
    <defs>
     <path d="M 4.734375 62.203125 
L 4.734375 70.65625 
L 51.078125 70.65625 
L 51.078125 63.8125 
Q 44.234375 56.546875 37.515625 44.484375 
Q 30.8125 32.421875 27.15625 19.671875 
Q 24.515625 10.6875 23.78125 0 
L 14.75 0 
Q 14.890625 8.453125 18.0625 20.40625 
Q 21.234375 32.375 27.171875 43.484375 
Q 33.109375 54.59375 39.796875 62.203125 
z
" id="ArialMT-37"/>
    </defs>
    <g transform="translate(289.183070652 99.18678125)scale(0.07 -0.07)">
     <use xlink:href="#ArialMT-4e"/>
     <use x="72.216796875" xlink:href="#ArialMT-3d"/>
     <use x="130.615234375" xlink:href="#ArialMT-32"/>
     <use x="186.23046875" xlink:href="#ArialMT-31"/>
     <use x="241.845703125" xlink:href="#ArialMT-37"/>
     <use x="297.4609375" xlink:href="#ArialMT-2c"/>
     <use x="325.244140625" xlink:href="#ArialMT-35"/>
     <use x="380.859375" xlink:href="#ArialMT-38"/>
     <use x="436.474609375" xlink:href="#ArialMT-37"/>
    </g>
   </g>
   <g id="text_30">
    <!-- $\alpha$-helix N-term -->
    <defs>
     <path d="M 25.78125 7.859375 
L 27.046875 0.09375 
Q 23.34375 -0.6875 20.40625 -0.6875 
Q 15.625 -0.6875 12.984375 0.828125 
Q 10.359375 2.34375 9.28125 4.8125 
Q 8.203125 7.28125 8.203125 15.1875 
L 8.203125 45.015625 
L 1.765625 45.015625 
L 1.765625 51.859375 
L 8.203125 51.859375 
L 8.203125 64.703125 
L 16.9375 69.96875 
L 16.9375 51.859375 
L 25.78125 51.859375 
L 25.78125 45.015625 
L 16.9375 45.015625 
L 16.9375 14.703125 
Q 16.9375 10.9375 17.40625 9.859375 
Q 17.875 8.796875 18.921875 8.15625 
Q 19.96875 7.515625 21.921875 7.515625 
Q 23.390625 7.515625 25.78125 7.859375 
" id="ArialMT-74"/>
     <path d="M 6.59375 0 
L 6.59375 51.859375 
L 14.453125 51.859375 
L 14.453125 44.578125 
Q 16.890625 48.390625 20.9375 50.703125 
Q 25 53.03125 30.171875 53.03125 
Q 35.9375 53.03125 39.625 50.640625 
Q 43.3125 48.25 44.828125 43.953125 
Q 50.984375 53.03125 60.84375 53.03125 
Q 68.5625 53.03125 72.703125 48.75 
Q 76.859375 44.484375 76.859375 35.59375 
L 76.859375 0 
L 68.109375 0 
L 68.109375 32.671875 
Q 68.109375 37.9375 67.25 40.25 
Q 66.40625 42.578125 64.15625 43.984375 
Q 61.921875 45.40625 58.890625 45.40625 
Q 53.421875 45.40625 49.796875 41.765625 
Q 46.1875 38.140625 46.1875 30.125 
L 46.1875 0 
L 37.40625 0 
L 37.40625 33.6875 
Q 37.40625 39.546875 35.25 42.46875 
Q 33.109375 45.40625 28.21875 45.40625 
Q 24.515625 45.40625 21.359375 43.453125 
Q 18.21875 41.5 16.796875 37.734375 
Q 15.375 33.984375 15.375 26.90625 
L 15.375 0 
z
" id="ArialMT-6d"/>
    </defs>
    <g transform="translate(256.751576087 10.04203125)scale(0.09 -0.09)">
     <use transform="translate(0.0 0.421875)" xlink:href="#Cmmi10-ae"/>
     <use transform="translate(63.916015625 0.421875)" xlink:href="#ArialMT-2d"/>
     <use transform="translate(97.216796875 0.421875)" xlink:href="#ArialMT-68"/>
     <use transform="translate(152.83203125 0.421875)" xlink:href="#ArialMT-65"/>
     <use transform="translate(208.447265625 0.421875)" xlink:href="#ArialMT-6c"/>
     <use transform="translate(230.6640625 0.421875)" xlink:href="#ArialMT-69"/>
     <use transform="translate(252.880859375 0.421875)" xlink:href="#ArialMT-78"/>
     <use transform="translate(302.880859375 0.421875)" xlink:href="#ArialMT-20"/>
     <use transform="translate(330.6640625 0.421875)" xlink:href="#ArialMT-4e"/>
     <use transform="translate(402.880859375 0.421875)" xlink:href="#ArialMT-2d"/>
     <use transform="translate(436.181640625 0.421875)" xlink:href="#ArialMT-74"/>
     <use transform="translate(463.96484375 0.421875)" xlink:href="#ArialMT-65"/>
     <use transform="translate(519.580078125 0.421875)" xlink:href="#ArialMT-72"/>
     <use transform="translate(552.880859375 0.421875)" xlink:href="#ArialMT-6d"/>
    </g>
   </g>
  </g>
  <g id="axes_4">
   <g id="patch_17">
    <path d="M 344.855707 101.442031 
L 429.76875 101.442031 
L 429.76875 15.042031 
L 344.855707 15.042031 
z
" style="fill:#ffffff;"/>
   </g>
   <g id="PathCollection_16">
    <path clip-path="url(#p3bf8bd0902)" d="M 371.522071 71.599034 
L 372.551991 69.375365 
L 371.522071 67.763215 
L 369.490169 69.375365 
z
" style="fill:#006428;"/>
   </g>
   <g id="PathCollection_17">
    <path clip-path="url(#p3bf8bd0902)" d="M 371.522071 72.378198 
L 373.048489 71.842031 
L 373.581912 69.375365 
L 371.961441 66.908698 
L 371.522071 66.345197 
L 369.097856 66.036331 
L 368.533272 66.908698 
L 368.363116 69.375365 
L 369.097856 70.625733 
L 370.233442 71.842031 
z
M 369.490169 69.375365 
L 371.522071 67.763215 
L 372.551991 69.375365 
L 371.522071 71.599034 
z
" style="fill:#2f974e;"/>
   </g>
   <g id="PathCollection_18">
    <path clip-path="url(#p3bf8bd0902)" d="M 369.097856 72.00784 
L 371.522071 72.980145 
L 373.946286 72.213862 
L 374.273249 71.842031 
L 374.321512 69.375365 
L 373.946286 68.474404 
L 372.896367 66.908698 
L 371.522071 65.146137 
L 370.069935 64.442031 
L 369.097856 63.762767 
L 366.673641 63.998622 
L 366.340458 64.442031 
L 366.673641 65.469139 
L 366.83317 66.908698 
L 367.452572 69.375365 
L 368.868042 71.842031 
z
M 370.233442 71.842031 
L 369.097856 70.625733 
L 368.363116 69.375365 
L 368.533272 66.908698 
L 369.097856 66.036331 
L 371.522071 66.345197 
L 371.961441 66.908698 
L 373.581912 69.375365 
L 373.048489 71.842031 
L 371.522071 72.378198 
z
" style="fill:#75c477;"/>
   </g>
   <g id="PathCollection_19">
    <path clip-path="url(#p3bf8bd0902)" d="M 369.097856 72.778815 
L 371.522071 73.582091 
L 373.946286 72.994851 
L 374.959999 71.842031 
L 374.902167 69.375365 
L 373.946286 67.080183 
L 373.831293 66.908698 
L 371.807086 64.442031 
L 371.522071 64.053725 
L 369.097856 62.03475 
L 368.983555 61.975365 
L 366.673641 60.521391 
L 364.979335 59.508698 
L 364.249426 59.072852 
L 361.825211 58.70944 
L 360.204309 59.508698 
L 359.400996 60.094691 
L 357.126668 61.975365 
L 358.976861 64.442031 
L 359.400996 64.68603 
L 361.825211 65.49066 
L 364.249426 66.480805 
L 364.53644 66.908698 
L 366.315717 69.375365 
L 366.673641 69.672956 
L 367.799454 71.842031 
z
M 368.868042 71.842031 
L 367.452572 69.375365 
L 366.83317 66.908698 
L 366.673641 65.469139 
L 366.340458 64.442031 
L 366.673641 63.998622 
L 369.097856 63.762767 
L 370.069935 64.442031 
L 371.522071 65.146137 
L 372.896367 66.908698 
L 373.946286 68.474404 
L 374.321512 69.375365 
L 374.273249 71.842031 
L 373.946286 72.213862 
L 371.522071 72.980145 
L 369.097856 72.00784 
z
" style="fill:#b8e3b2;"/>
    <path clip-path="url(#p3bf8bd0902)" d="M 371.522071 54.755235 
L 371.792564 54.575365 
L 371.534513 52.108698 
L 371.522071 52.088897 
L 371.485975 52.108698 
L 371.271717 54.575365 
z
" style="fill:#b8e3b2;"/>
   </g>
   <g id="PathCollection_20">
    <path clip-path="url(#p3bf8bd0902)" d="M 369.097856 73.549791 
L 371.522071 74.184037 
L 373.946286 73.775841 
L 375.646749 71.842031 
L 375.482822 69.375365 
L 374.468822 66.908698 
L 373.946286 66.181594 
L 372.497554 64.442031 
L 371.522071 63.113027 
L 370.174126 61.975365 
L 369.097856 60.896152 
L 367.38568 59.508698 
L 366.673641 58.788662 
L 364.304308 57.042031 
L 364.249426 56.99524 
L 361.825211 55.369765 
L 359.400996 56.109726 
L 356.976781 56.901378 
L 356.80169 57.042031 
L 354.88816 59.508698 
L 355.16297 61.975365 
L 356.27709 64.442031 
L 356.976781 65.417764 
L 359.400996 66.749797 
L 359.722772 66.908698 
L 361.825211 69.098787 
L 362.497541 69.375365 
L 364.249426 70.376223 
L 366.673641 71.731777 
L 366.730866 71.842031 
z
M 367.799454 71.842031 
L 366.673641 69.672956 
L 366.315717 69.375365 
L 364.53644 66.908698 
L 364.249426 66.480805 
L 361.825211 65.49066 
L 359.400996 64.68603 
L 358.976861 64.442031 
L 357.126668 61.975365 
L 359.400996 60.094691 
L 360.204309 59.508698 
L 361.825211 58.70944 
L 364.249426 59.072852 
L 364.979335 59.508698 
L 366.673641 60.521391 
L 368.983555 61.975365 
L 369.097856 62.03475 
L 371.522071 64.053725 
L 371.807086 64.442031 
L 373.831293 66.908698 
L 373.946286 67.080183 
L 374.902167 69.375365 
L 374.959999 71.842031 
L 373.946286 72.994851 
L 371.522071 73.582091 
L 369.097856 72.778815 
z
" style="fill:#e9f7e5;"/>
    <path clip-path="url(#p3bf8bd0902)" d="M 371.522071 55.528997 
L 372.95616 54.575365 
L 372.325699 52.108698 
L 371.522071 50.829717 
L 369.190586 52.108698 
L 370.194753 54.575365 
z
M 371.271717 54.575365 
L 371.485975 52.108698 
L 371.522071 52.088897 
L 371.534513 52.108698 
L 371.792564 54.575365 
L 371.522071 54.755235 
z
" style="fill:#e9f7e5;"/>
   </g>
   <g id="patch_18">
    <path d="M 344.855707 15.042031 
L 429.76875 15.042031 
" style="fill:none;stroke:#000000;stroke-linecap:square;stroke-linejoin:miter;stroke-width:0.5;"/>
   </g>
   <g id="patch_19">
    <path d="M 429.76875 101.442031 
L 429.76875 15.042031 
" style="fill:none;stroke:#000000;stroke-linecap:square;stroke-linejoin:miter;stroke-width:0.5;"/>
   </g>
   <g id="patch_20">
    <path d="M 344.855707 101.442031 
L 429.76875 101.442031 
" style="fill:none;stroke:#000000;stroke-linecap:square;stroke-linejoin:miter;stroke-width:0.5;"/>
   </g>
   <g id="patch_21">
    <path d="M 344.855707 101.442031 
L 344.855707 15.042031 
" style="fill:none;stroke:#000000;stroke-linecap:square;stroke-linejoin:miter;stroke-width:0.5;"/>
   </g>
   <g id="matplotlib.axis_7">
    <g id="xtick_16">
     <g id="line2d_61">
      <g>
       <use style="stroke:#000000;stroke-width:0.75;" x="344.855706522" xlink:href="#ma8c031ec22" y="101.44203125"/>
      </g>
     </g>
     <g id="line2d_62">
      <g>
       <use style="stroke:#000000;stroke-width:0.75;" x="344.855706522" xlink:href="#m5d631dd867" y="15.04203125"/>
      </g>
     </g>
     <g id="text_31">
      <!-- −180 -->
      <g transform="translate(335.846331522 111.16828125)scale(0.08 -0.08)">
       <use xlink:href="#ArialMT-2212"/>
       <use x="58.3984375" xlink:href="#ArialMT-31"/>
       <use x="114.013671875" xlink:href="#ArialMT-38"/>
       <use x="169.62890625" xlink:href="#ArialMT-30"/>
      </g>
     </g>
    </g>
    <g id="xtick_17">
     <g id="line2d_63">
      <g>
       <use style="stroke:#000000;stroke-width:0.75;" x="366.083967391" xlink:href="#ma8c031ec22" y="101.44203125"/>
      </g>
     </g>
     <g id="line2d_64">
      <g>
       <use style="stroke:#000000;stroke-width:0.75;" x="366.083967391" xlink:href="#m5d631dd867" y="15.04203125"/>
      </g>
     </g>
     <g id="text_32">
      <!-- −90 -->
      <g transform="translate(359.298967391 111.16828125)scale(0.08 -0.08)">
       <use xlink:href="#ArialMT-2212"/>
       <use x="58.3984375" xlink:href="#ArialMT-39"/>
       <use x="114.013671875" xlink:href="#ArialMT-30"/>
      </g>
     </g>
    </g>
    <g id="xtick_18">
     <g id="line2d_65">
      <g>
       <use style="stroke:#000000;stroke-width:0.75;" x="387.312228261" xlink:href="#ma8c031ec22" y="101.44203125"/>
      </g>
     </g>
     <g id="line2d_66">
      <g>
       <use style="stroke:#000000;stroke-width:0.75;" x="387.312228261" xlink:href="#m5d631dd867" y="15.04203125"/>
      </g>
     </g>
     <g id="text_33">
      <!-- 0 -->
      <g transform="translate(385.087853261 111.16828125)scale(0.08 -0.08)">
       <use xlink:href="#ArialMT-30"/>
      </g>
     </g>
    </g>
    <g id="xtick_19">
     <g id="line2d_67">
      <g>
       <use style="stroke:#000000;stroke-width:0.75;" x="408.54048913" xlink:href="#ma8c031ec22" y="101.44203125"/>
      </g>
     </g>
     <g id="line2d_68">
      <g>
       <use style="stroke:#000000;stroke-width:0.75;" x="408.54048913" xlink:href="#m5d631dd867" y="15.04203125"/>
      </g>
     </g>
     <g id="text_34">
      <!-- 90 -->
      <g transform="translate(404.09173913 111.16828125)scale(0.08 -0.08)">
       <use xlink:href="#ArialMT-39"/>
       <use x="55.615234375" xlink:href="#ArialMT-30"/>
      </g>
     </g>
    </g>
    <g id="xtick_20">
     <g id="line2d_69">
      <g>
       <use style="stroke:#000000;stroke-width:0.75;" x="429.76875" xlink:href="#ma8c031ec22" y="101.44203125"/>
      </g>
     </g>
     <g id="line2d_70">
      <g>
       <use style="stroke:#000000;stroke-width:0.75;" x="429.76875" xlink:href="#m5d631dd867" y="15.04203125"/>
      </g>
     </g>
     <g id="text_35">
      <!-- 180 -->
      <g transform="translate(423.095625 111.16828125)scale(0.08 -0.08)">
       <use xlink:href="#ArialMT-31"/>
       <use x="55.615234375" xlink:href="#ArialMT-38"/>
       <use x="111.23046875" xlink:href="#ArialMT-30"/>
      </g>
     </g>
    </g>
    <g id="text_36">
     <!-- $\phi$ (deg) -->
     <g transform="translate(372.867228261 124.32828125)scale(0.09 -0.09)">
      <use transform="translate(0.0 0.203125)" xlink:href="#Cmmi10-c1"/>
      <use transform="translate(59.521484375 0.203125)" xlink:href="#ArialMT-20"/>
      <use transform="translate(87.3046875 0.203125)" xlink:href="#ArialMT-28"/>
      <use transform="translate(120.60546875 0.203125)" xlink:href="#ArialMT-64"/>
      <use transform="translate(176.220703125 0.203125)" xlink:href="#ArialMT-65"/>
      <use transform="translate(231.8359375 0.203125)" xlink:href="#ArialMT-67"/>
      <use transform="translate(287.451171875 0.203125)" xlink:href="#ArialMT-29"/>
     </g>
    </g>
   </g>
   <g id="matplotlib.axis_8">
    <g id="ytick_16">
     <g id="line2d_71">
      <g>
       <use style="stroke:#000000;stroke-width:0.75;" x="344.855706522" xlink:href="#md40a3a7424" y="101.44203125"/>
      </g>
     </g>
     <g id="line2d_72">
      <g>
       <use style="stroke:#000000;stroke-width:0.75;" x="429.76875" xlink:href="#m8512669966" y="101.44203125"/>
      </g>
     </g>
    </g>
    <g id="ytick_17">
     <g id="line2d_73">
      <g>
       <use style="stroke:#000000;stroke-width:0.75;" x="344.855706522" xlink:href="#md40a3a7424" y="79.84203125"/>
      </g>
     </g>
     <g id="line2d_74">
      <g>
       <use style="stroke:#000000;stroke-width:0.75;" x="429.76875" xlink:href="#m8512669966" y="79.84203125"/>
      </g>
     </g>
    </g>
    <g id="ytick_18">
     <g id="line2d_75">
      <g>
       <use style="stroke:#000000;stroke-width:0.75;" x="344.855706522" xlink:href="#md40a3a7424" y="58.24203125"/>
      </g>
     </g>
     <g id="line2d_76">
      <g>
       <use style="stroke:#000000;stroke-width:0.75;" x="429.76875" xlink:href="#m8512669966" y="58.24203125"/>
      </g>
     </g>
    </g>
    <g id="ytick_19">
     <g id="line2d_77">
      <g>
       <use style="stroke:#000000;stroke-width:0.75;" x="344.855706522" xlink:href="#md40a3a7424" y="36.64203125"/>
      </g>
     </g>
     <g id="line2d_78">
      <g>
       <use style="stroke:#000000;stroke-width:0.75;" x="429.76875" xlink:href="#m8512669966" y="36.64203125"/>
      </g>
     </g>
    </g>
    <g id="ytick_20">
     <g id="line2d_79">
      <g>
       <use style="stroke:#000000;stroke-width:0.75;" x="344.855706522" xlink:href="#md40a3a7424" y="15.04203125"/>
      </g>
     </g>
     <g id="line2d_80">
      <g>
       <use style="stroke:#000000;stroke-width:0.75;" x="429.76875" xlink:href="#m8512669966" y="15.04203125"/>
      </g>
     </g>
    </g>
   </g>
   <g id="text_37">
    <!-- N=148,155 -->
    <defs>
     <path d="M 32.328125 0 
L 32.328125 17.140625 
L 1.265625 17.140625 
L 1.265625 25.203125 
L 33.9375 71.578125 
L 41.109375 71.578125 
L 41.109375 25.203125 
L 50.78125 25.203125 
L 50.78125 17.140625 
L 41.109375 17.140625 
L 41.109375 0 
z
M 32.328125 25.203125 
L 32.328125 57.46875 
L 9.90625 25.203125 
z
" id="ArialMT-34"/>
    </defs>
    <g transform="translate(391.078722826 99.18678125)scale(0.07 -0.07)">
     <use xlink:href="#ArialMT-4e"/>
     <use x="72.216796875" xlink:href="#ArialMT-3d"/>
     <use x="130.615234375" xlink:href="#ArialMT-31"/>
     <use x="186.23046875" xlink:href="#ArialMT-34"/>
     <use x="241.845703125" xlink:href="#ArialMT-38"/>
     <use x="297.4609375" xlink:href="#ArialMT-2c"/>
     <use x="325.244140625" xlink:href="#ArialMT-31"/>
     <use x="380.859375" xlink:href="#ArialMT-35"/>
     <use x="436.474609375" xlink:href="#ArialMT-35"/>
    </g>
   </g>
   <g id="text_38">
    <!-- $\alpha$-helix C-term -->
    <defs>
     <path d="M 58.796875 25.09375 
L 68.265625 22.703125 
Q 65.28125 11.03125 57.546875 4.90625 
Q 49.8125 -1.21875 38.625 -1.21875 
Q 27.046875 -1.21875 19.796875 3.484375 
Q 12.546875 8.203125 8.765625 17.140625 
Q 4.984375 26.078125 4.984375 36.328125 
Q 4.984375 47.515625 9.25 55.828125 
Q 13.53125 64.15625 21.40625 68.46875 
Q 29.296875 72.796875 38.765625 72.796875 
Q 49.515625 72.796875 56.828125 67.328125 
Q 64.15625 61.859375 67.046875 51.953125 
L 57.71875 49.75 
Q 55.21875 57.5625 50.484375 61.125 
Q 45.75 64.703125 38.578125 64.703125 
Q 30.328125 64.703125 24.78125 60.734375 
Q 19.234375 56.78125 16.984375 50.109375 
Q 14.75 43.453125 14.75 36.375 
Q 14.75 27.25 17.40625 20.4375 
Q 20.0625 13.625 25.671875 10.25 
Q 31.296875 6.890625 37.84375 6.890625 
Q 45.796875 6.890625 51.3125 11.46875 
Q 56.84375 16.0625 58.796875 25.09375 
" id="ArialMT-43"/>
    </defs>
    <g transform="translate(358.647228261 10.04203125)scale(0.09 -0.09)">
     <use transform="translate(0.0 0.203125)" xlink:href="#Cmmi10-ae"/>
     <use transform="translate(63.916015625 0.203125)" xlink:href="#ArialMT-2d"/>
     <use transform="translate(97.216796875 0.203125)" xlink:href="#ArialMT-68"/>
     <use transform="translate(152.83203125 0.203125)" xlink:href="#ArialMT-65"/>
     <use transform="translate(208.447265625 0.203125)" xlink:href="#ArialMT-6c"/>
     <use transform="translate(230.6640625 0.203125)" xlink:href="#ArialMT-69"/>
     <use transform="translate(252.880859375 0.203125)" xlink:href="#ArialMT-78"/>
     <use transform="translate(302.880859375 0.203125)" xlink:href="#ArialMT-20"/>
     <use transform="translate(330.6640625 0.203125)" xlink:href="#ArialMT-43"/>
     <use transform="translate(402.880859375 0.203125)" xlink:href="#ArialMT-2d"/>
     <use transform="translate(436.181640625 0.203125)" xlink:href="#ArialMT-74"/>
     <use transform="translate(463.96484375 0.203125)" xlink:href="#ArialMT-65"/>
     <use transform="translate(519.580078125 0.203125)" xlink:href="#ArialMT-72"/>
     <use transform="translate(552.880859375 0.203125)" xlink:href="#ArialMT-6d"/>
    </g>
   </g>
  </g>
 </g>
 <defs>
  <clipPath id="pf0d4bbb526">
   <rect height="86.4" width="84.9130434783" x="141.064402174" y="15.04203125"/>
  </clipPath>
  <clipPath id="p32dd3bf580">
   <rect height="86.4" width="84.9130434783" x="242.960054348" y="15.04203125"/>
  </clipPath>
  <clipPath id="p620f4da982">
   <rect height="86.4" width="84.9130434783" x="39.16875" y="15.04203125"/>
  </clipPath>
  <clipPath id="p3bf8bd0902">
   <rect height="86.4" width="84.9130434783" x="344.855706522" y="15.04203125"/>
  </clipPath>
 </defs>
</svg>
